<?xml version="1.0" encoding="utf-8"?>
<!-- Generator: Adobe Illustrator 26.0.1, SVG Export Plug-In . SVG Version: 6.00 Build 0)  -->
<svg version="1.1" id="Layer_1" xmlns="http://www.w3.org/2000/svg" xmlns:xlink="http://www.w3.org/1999/xlink" x="0px" y="0px"
	 viewBox="0 0 841.89 595.276" enable-background="new 0 0 841.89 595.276" xml:space="preserve">
<g>
	<g>
		<path fill="#089247" d="M600.722,144.992c0,26.632,0.003,53.268-0.003,79.901c-0.003,8.944-5.892,13.287-14.249,10.39
			c-0.907-0.314-1.849-1.525-2.101-2.497c-0.379-1.466-0.2-3.087-0.2-4.643c-0.007-53.265-0.01-106.533-0.007-159.798
			c0.003-8.858,6.157-13.387,14.525-10.372c1.08,0.386,1.921,2.956,1.942,4.526c0.166,11.241,0.093,22.483,0.093,33.724
			C600.722,112.478,600.722,128.735,600.722,144.992"/>
		<path fill="#089247" d="M446.123,185.395c0.007-24.052-0.014-48.105,0.017-72.153c0.01-7.582,9.175-12.628,15.757-8.527
			c1.028,0.642,1.383,2.987,1.397,4.55c0.103,13.497,0.059,26.991,0.059,40.488c-0.003,34.262-0.003,68.521-0.01,102.784
			c-0.003,9.889-2.47,12.135-12.266,12.235c-3.974,0.041-5.064-1.411-5.015-5.146c0.159-12.283,0.059-24.57,0.055-36.856
			C446.116,210.313,446.116,197.854,446.123,185.395"/>
		<path fill="#089247" d="M572.758,75.567c0,2.425,0,4.457,0,6.485c0.007,47.953,0.014,95.902,0.014,143.852
			c0,8.044-7.24,12.68-14.601,9.272c-0.745-0.345-1.431-1.449-1.583-2.301c-0.273-1.511-0.135-3.101-0.135-4.66
			c-0.003-47.084,0-94.167,0.003-141.251c0.003-11.159,0.859-11.983,12.224-11.717C569.709,75.27,570.734,75.405,572.758,75.567"/>
		<path fill="#089247" d="M490.514,168.19c0,19.213,0.017,38.426-0.007,57.639c-0.01,7.906-8.14,12.952-15.294,9.244
			c-1.097-0.569-1.59-3.17-1.604-4.839c-0.11-17.309-0.069-34.618-0.069-51.926c0-21.81-0.117-43.62,0.159-65.427
			c0.034-2.649,1.645-6.906,3.518-7.554c3.687-1.28,8.082-0.707,12.152-0.431c0.483,0.034,1.09,3.004,1.093,4.619
			C490.538,129.071,490.514,148.629,490.514,168.19"/>
		<path fill="#089247" d="M528.669,171.009c0-19.03-0.028-38.063,0.01-57.093c0.017-8.361,7.985-13.27,15.325-9.231
			c1.093,0.6,1.49,3.236,1.497,4.933c0.104,20.244,0.076,40.485,0.079,60.726c0.003,18.168,0.007,36.332-0.003,54.5
			c-0.007,8.937-6.371,13.552-14.78,10.351c-1.176-0.445-2.025-3.28-2.039-5.015C528.617,210.456,528.669,190.733,528.669,171.009"
			/>
		<path fill="#089247" d="M501.442,170.982c-0.003-19.372-0.017-38.746,0.003-58.118c0.01-7.295,8.782-12.155,15.032-8.106
			c1.125,0.728,1.425,3.329,1.438,5.071c0.114,13.839,0.069,27.674,0.066,41.513c0,24.563,0.003,49.122-0.014,73.685
			c-0.007,8.716-6.357,13.339-14.439,10.165c-1.176-0.459-1.983-3.305-1.997-5.053C501.394,210.418,501.446,190.702,501.442,170.982
			"/>
		<path fill="#089247" d="M473.504,83.824c0.021-5.164,3.198-8.472,8.227-8.568c4.902-0.097,8.944,3.777,9.034,8.651
			c0.079,4.526-4.374,8.744-9.106,8.62C476.712,92.399,473.483,88.953,473.504,83.824"/>
		<path fill="#089247" d="M501.236,84.099c-0.09-5.495,3.115-8.879,8.372-8.837c4.653,0.035,8.561,3.753,8.789,8.365
			c0.224,4.47-4.163,8.92-8.796,8.927C504.641,92.563,501.319,89.204,501.236,84.099"/>
		<path fill="#089247" d="M545.668,83.731c0.062,4.784-3.656,8.717-8.323,8.806c-4.822,0.09-8.62-3.536-8.748-8.344
			c-0.138-5.329,3.315-8.941,8.547-8.937C542.129,75.263,545.602,78.716,545.668,83.731"/>
		<path fill="#089247" d="M564.01,244.414c5.198-0.086,8.541,3.004,8.658,8.016c0.121,5.081-3.625,9.003-8.547,8.948
			c-4.522-0.048-8.589-4.094-8.62-8.568C555.47,248.053,559.074,244.497,564.01,244.414"/>
		<path fill="#089247" d="M600.205,49.314h-14.96c-1.566-8.327,5.053-15.656,14.96-16.357V49.314z"/>
	</g>
	<g>
		<path fill="#3F80C0" d="M600.929,435.524c0,26.632,0.003,53.268-0.003,79.901c-0.003,8.944-5.891,13.287-14.249,10.39
			c-0.907-0.314-1.849-1.525-2.101-2.497c-0.379-1.466-0.2-3.087-0.2-4.643c-0.007-53.265-0.01-106.533-0.007-159.798
			c0.003-8.858,6.157-13.387,14.525-10.372c1.08,0.386,1.921,2.956,1.942,4.526c0.166,11.241,0.093,22.483,0.093,33.724
			C600.929,403.011,600.929,419.267,600.929,435.524"/>
		<path fill="#3F80C0" d="M446.331,475.927c0.007-24.052-0.014-48.104,0.017-72.153c0.01-7.582,9.175-12.628,15.757-8.527
			c1.028,0.642,1.383,2.987,1.397,4.55c0.103,13.497,0.059,26.991,0.059,40.488c-0.003,34.262-0.003,68.521-0.01,102.784
			c-0.003,9.889-2.47,12.135-12.266,12.235c-3.974,0.041-5.064-1.411-5.015-5.146c0.159-12.283,0.059-24.57,0.055-36.856
			C446.324,500.846,446.324,488.387,446.331,475.927"/>
		<path fill="#3F80C0" d="M572.966,366.1c0,2.425,0,4.457,0,6.485c0.007,47.953,0.014,95.902,0.014,143.852
			c0,8.044-7.24,12.68-14.601,9.272c-0.745-0.345-1.431-1.449-1.583-2.301c-0.273-1.511-0.135-3.101-0.135-4.66
			c-0.003-47.084,0-94.167,0.003-141.251c0.003-11.159,0.859-11.983,12.224-11.717C569.917,365.803,570.941,365.937,572.966,366.1"
			/>
		<path fill="#3F80C0" d="M490.722,458.722c0,19.213,0.017,38.426-0.007,57.639c-0.01,7.906-8.14,12.952-15.294,9.244
			c-1.097-0.569-1.59-3.17-1.604-4.839c-0.11-17.309-0.069-34.618-0.069-51.926c0-21.81-0.117-43.62,0.159-65.427
			c0.034-2.649,1.645-6.906,3.518-7.554c3.687-1.28,8.082-0.707,12.152-0.431c0.483,0.034,1.09,3.004,1.093,4.619
			C490.746,419.603,490.722,439.161,490.722,458.722"/>
		<path fill="#3F80C0" d="M528.877,461.542c0-19.03-0.028-38.063,0.01-57.093c0.017-8.361,7.985-13.27,15.325-9.231
			c1.093,0.6,1.49,3.236,1.497,4.933c0.104,20.244,0.076,40.485,0.079,60.726c0.003,18.168,0.007,36.332-0.003,54.5
			c-0.007,8.937-6.371,13.552-14.78,10.351c-1.176-0.445-2.025-3.28-2.039-5.015C528.825,500.989,528.877,481.265,528.877,461.542"
			/>
		<path fill="#3F80C0" d="M501.65,461.515c-0.003-19.372-0.017-38.746,0.003-58.118c0.01-7.295,8.782-12.155,15.032-8.106
			c1.125,0.728,1.425,3.329,1.438,5.071c0.114,13.839,0.069,27.674,0.066,41.513c0,24.563,0.003,49.122-0.014,73.685
			c-0.007,8.716-6.357,13.339-14.439,10.165c-1.176-0.459-1.983-3.305-1.997-5.053C501.601,500.951,501.653,481.235,501.65,461.515"
			/>
		<path fill="#3F80C0" d="M473.711,374.356c0.021-5.164,3.198-8.472,8.227-8.568c4.902-0.097,8.944,3.777,9.034,8.651
			c0.079,4.526-4.374,8.744-9.106,8.62C476.919,382.931,473.691,379.486,473.711,374.356"/>
		<path fill="#3F80C0" d="M501.444,374.631c-0.09-5.495,3.115-8.879,8.372-8.837c4.653,0.035,8.561,3.753,8.789,8.365
			c0.224,4.47-4.163,8.92-8.796,8.927C504.848,383.096,501.527,379.736,501.444,374.631"/>
		<path fill="#3F80C0" d="M545.876,374.263c0.062,4.784-3.656,8.717-8.323,8.806c-4.822,0.09-8.62-3.536-8.748-8.344
			c-0.138-5.329,3.315-8.941,8.547-8.937C542.337,365.795,545.81,369.248,545.876,374.263"/>
		<path fill="#3F80C0" d="M564.218,534.947c5.198-0.086,8.541,3.004,8.658,8.016c0.121,5.081-3.625,9.003-8.547,8.948
			c-4.522-0.048-8.589-4.094-8.62-8.568C555.677,538.586,559.282,535.03,564.218,534.947"/>
		<path fill="#3F80C0" d="M600.412,339.847h-14.96c-1.566-8.327,5.053-15.656,14.96-16.357V339.847z"/>
	</g>
	<g>
		<path fill="#535353" d="M332.021,481.636c0,4.671-1.557,8.623-4.67,11.916c-3.054,3.293-6.826,4.97-11.197,4.97
			c-4.371,0-8.083-1.677-11.197-4.97c-3.113-3.293-4.67-7.245-4.67-11.975l-0.24-12.215h6.407c0,4.611,0,8.742,0.06,12.335
			c0,2.814,0.958,5.27,2.814,7.245c1.856,2.036,4.131,3.054,6.826,3.054c2.635,0,4.91-1.018,6.766-3.054
			c1.916-2.036,2.874-4.491,2.874-7.365l-0.419-35.508h6.407L332.021,481.636z"/>
		<path fill="#535353" d="M353.634,485.468h-7.365c-1.677,0-3.114-0.599-4.252-1.737c-1.317-1.257-2.036-3.054-2.036-5.329
			l-0.179-31.675h6.347l0.239,29.16c0,2.156,1.078,3.773,2.755,3.773h4.491V485.468z"/>
		<path fill="#535353" d="M385.128,485.468h-6.167c-1.737,3.653-4.97,5.449-9.7,5.449c-4.491,0-7.784-1.796-9.88-5.449h-6.886
			v-5.808h5.329c0-6.946,4.192-11.257,10.958-11.257c3.533,0,6.347,1.198,8.443,3.533c1.976,2.156,2.994,4.73,2.994,7.724h4.91
			V485.468z M373.93,479.66c0-1.856-0.539-3.353-1.557-4.491c-0.898-1.018-2.036-1.497-3.293-1.497
			c-1.317,0-2.395,0.479-3.233,1.497c-0.898,1.078-1.377,2.575-1.377,4.491c0,1.916,0.539,3.413,1.557,4.55
			c0.898,1.018,2.036,1.497,3.293,1.497C371.954,485.708,373.93,483.552,373.93,479.66z"/>
		<path fill="#535353" d="M412.848,485.468h-28.741v-5.808h9.76c-0.539-0.539-0.958-1.198-1.258-1.856
			c-0.898-1.617-1.377-3.353-1.377-5.269c-0.06-3.114,1.078-5.569,3.353-7.365c1.916-1.557,4.192-2.335,6.886-2.335
			c3.533,0,6.347,1.317,8.443,3.892l-3.353,4.611c-1.258-1.497-2.755-2.275-4.431-2.275c-2.575,0-4.371,1.856-4.371,4.491
			c0,3.832,2.814,6.048,6.886,6.048h6.107L412.848,485.468z"/>
		<path fill="#535353" d="M429.072,443.075h-10.658l1.377-2.934h2.575c-0.359-0.539-0.539-1.138-0.539-1.856
			c0-2.395,1.737-4.252,3.952-4.252c1.258,0,2.275,0.539,3.174,1.677l-1.437,2.216c-0.479-0.539-1.018-0.778-1.617-0.778
			c-0.719,0-1.078,0.479-1.078,1.377c0,1.078,0.778,1.617,2.275,1.617h1.976V443.075z M427.215,485.468h-6.287l-0.299-38.741h6.287
			L427.215,485.468z"/>
		<path fill="#535353" d="M219.681,513.021c2.304-0.501,5.906-0.868,9.52-0.868c5.233,0,8.576,0.886,11.08,2.928
			c2.087,1.582,3.372,3.984,3.372,7.146c0,3.9-2.599,7.334-6.824,8.839v0.16c3.841,0.924,8.333,4.089,8.333,10.125
			c0,3.446-1.37,6.111-3.453,8.038c-2.777,2.61-7.321,3.79-13.932,3.79c-3.613,0-6.344-0.252-8.095-0.449V513.021z M224.89,529.555
			h4.777c5.456,0,8.686-2.904,8.686-6.817c0-4.678-3.544-6.573-8.82-6.573c-2.418,0-3.792,0.178-4.642,0.376V529.555z
			 M224.89,548.857c1.065,0.214,2.506,0.266,4.39,0.266c5.414,0,10.388-1.982,10.388-7.853c0-5.485-4.751-7.787-10.44-7.797h-4.338
			V548.857z"/>
		<path fill="#535353" d="M276.252,544.899c0,3.037,0.099,5.635,0.24,7.926h-4.653l-0.28-4.735h-0.147
			c-1.335,2.33-4.395,5.394-9.586,5.394c-4.531,0-9.973-2.541-9.973-12.691v-16.925h5.24v15.999c0,5.516,1.72,9.273,6.473,9.273
			c3.528,0,5.995-2.47,6.969-4.834c0.272-0.758,0.479-1.7,0.479-2.701v-17.737h5.24V544.899z"/>
		<path fill="#535353" d="M284.282,547.463c1.587,0.991,4.358,2.063,6.98,2.063c3.846,0,5.627-1.891,5.627-4.313
			c0-2.532-1.532-3.859-5.381-5.302c-5.232-1.894-7.709-4.742-7.696-8.211c0-4.665,3.79-8.491,10.018-8.491
			c2.947,0,5.484,0.798,7.093,1.781l-1.309,3.829c-1.114-0.699-3.236-1.705-5.941-1.705c-3.107,0-4.797,1.792-4.797,3.975
			c0,2.396,1.703,3.466,5.499,4.939c4.992,1.86,7.584,4.376,7.597,8.701c0,5.132-3.988,8.725-10.83,8.725
			c-3.17,0-6.101-0.82-8.138-2.018L284.282,547.463z"/>
		<path fill="#535353" d="M314.621,515.681c0.004,1.792-1.257,3.273-3.35,3.273c-1.906,0-3.184-1.481-3.179-3.273
			c-0.005-1.808,1.345-3.278,3.275-3.278C313.333,512.403,314.608,513.841,314.621,515.681z M308.737,552.825v-28.957h5.24v28.957
			H308.737z"/>
		<path fill="#535353" d="M322.747,531.689c0-3.022-0.099-5.421-0.24-7.821h4.654l0.29,4.762h0.147
			c1.423-2.72,4.792-5.421,9.575-5.421c3.978,0,10.205,2.393,10.205,12.341v17.275h-5.24v-16.696c0-4.681-1.764-8.602-6.694-8.602
			c-3.457,0-6.152,2.457-7.096,5.406c-0.219,0.644-0.362,1.576-0.362,2.442v17.451h-5.24V531.689z"/>
		<path fill="#535353" d="M358.923,539.297c0.104,7.119,4.622,10.053,9.91,10.053c3.768,0,6.074-0.676,8.021-1.483l0.923,3.74
			c-1.842,0.842-5.061,1.845-9.661,1.845c-8.898,0-14.249-5.927-14.249-14.615c0-8.776,5.169-15.63,13.625-15.63
			c9.447,0,11.918,8.288,11.918,13.619c0,1.106-0.063,1.897-0.18,2.469H358.923z M374.337,535.509
			c0.052-3.319-1.359-8.525-7.264-8.525c-5.376,0-7.665,4.86-8.085,8.525H374.337z"/>
		<path fill="#535353" d="M385.226,547.463c1.587,0.991,4.358,2.063,6.98,2.063c3.845,0,5.627-1.891,5.627-4.313
			c0-2.532-1.532-3.859-5.381-5.302c-5.232-1.894-7.709-4.742-7.696-8.211c0-4.665,3.79-8.491,10.018-8.491
			c2.947,0,5.484,0.798,7.093,1.781l-1.309,3.829c-1.114-0.699-3.236-1.705-5.941-1.705c-3.107,0-4.797,1.792-4.797,3.975
			c0,2.396,1.703,3.466,5.499,4.939c4.992,1.86,7.584,4.376,7.597,8.701c0,5.132-3.988,8.725-10.83,8.725
			c-3.17,0-6.101-0.82-8.138-2.018L385.226,547.463z"/>
		<path fill="#535353" d="M408.935,547.463c1.587,0.991,4.358,2.063,6.98,2.063c3.845,0,5.627-1.891,5.627-4.313
			c0-2.532-1.532-3.859-5.381-5.302c-5.232-1.894-7.709-4.742-7.696-8.211c0-4.665,3.79-8.491,10.018-8.491
			c2.947,0,5.484,0.798,7.093,1.781l-1.309,3.829c-1.114-0.699-3.236-1.705-5.941-1.705c-3.107,0-4.797,1.792-4.797,3.975
			c0,2.396,1.703,3.466,5.499,4.939c4.992,1.86,7.584,4.376,7.597,8.701c0,5.132-3.988,8.725-10.83,8.725
			c-3.17,0-6.101-0.82-8.138-2.018L408.935,547.463z"/>
	</g>
	<g>
		<path fill="#535353" d="M357.083,205.574h-22.722l2.576-4.998h14.324c-0.309-2.834-1.288-5.101-2.988-6.801
			c-1.391-1.391-2.783-2.112-4.173-2.112v-4.895c4.07,0,7.265,1.546,9.48,4.586C355.898,194.6,357.083,199.34,357.083,205.574z"/>
		<path fill="#535353" d="M369.446,205.574h-5.41l-0.258-33.336h5.41L369.446,205.574z"/>
		<path fill="#535353" d="M368.568,212.479c6.492-0.103,11.284-4.689,11.284-11.13v-14.581h5.461v8.605
			c0.258,2.834,2.319,5.204,4.483,5.204h5.719v4.998h-5.359c-2.009,0-3.606-1.082-4.792-3.194
			c-0.515,8.037-5.874,13.757-13.396,14.375C371.196,215.725,370.063,214.282,368.568,212.479z"/>
		<path fill="#535353" d="M414.938,201.041c0.051,3.04-1.494,4.534-4.637,4.534h-15.767v-4.998h12.778
			c1.34,0,2.009-0.773,2.061-2.37v-1.442h-4.431c-2.525,0-4.637-0.979-6.286-2.885c-1.546-1.804-2.267-3.916-2.164-6.338
			c0.103-3.349,1.288-5.874,3.504-7.677c1.803-1.495,3.864-2.164,6.131-2.01c5.822,0.464,8.759,3.195,8.811,8.193V201.041z
			 M409.373,191.817c-0.051-4.225-0.051-6.543-0.051-6.956c0-0.464-0.258-1.031-0.773-1.752c-0.618-0.927-1.494-1.391-2.576-1.391
			c-2.422,0-3.967,2.164-4.173,5.513c-0.051,2.525,1.701,4.585,3.968,4.585H409.373z M408.652,175.227h-4.998v-5.204h4.998V175.227z
			"/>
		<path fill="#535353" d="M428.898,169.095h-9.171l1.185-2.525h2.215c-0.309-0.463-0.464-0.979-0.464-1.597
			c0-2.061,1.494-3.659,3.401-3.659c1.082,0,1.958,0.464,2.731,1.443l-1.236,1.906c-0.412-0.463-0.876-0.669-1.391-0.669
			c-0.618,0-0.927,0.412-0.927,1.184c0,0.928,0.67,1.391,1.958,1.391h1.7V169.095z M427.301,205.574h-5.41l-0.258-33.336h5.41
			L427.301,205.574z"/>
		<path fill="#535353" d="M203.564,228.807v34.727h-4.509v-34.727H203.564z"/>
		<path fill="#535353" d="M211.237,245.347c0-2.601-0.085-4.665-0.206-6.73h4.004l0.25,4.098h0.126
			c1.225-2.341,4.124-4.664,8.239-4.664c3.423,0,8.781,2.059,8.781,10.619v14.864h-4.509v-14.367c0-4.028-1.518-7.402-5.76-7.402
			c-2.974,0-5.294,2.115-6.106,4.652c-0.188,0.553-0.312,1.356-0.312,2.101v15.016h-4.509V245.347z"/>
		<path fill="#535353" d="M261.336,226.952v30.155c0,2.215,0.085,4.707,0.206,6.427h-4.029l-0.23-4.309h-0.121
			c-1.386,2.783-4.384,4.875-8.453,4.875c-6.039,0-10.695-5.105-10.695-12.66c-0.039-8.329,5.129-13.391,11.196-13.391
			c3.826,0,6.402,1.793,7.517,3.78h0.103v-14.878H261.336z M256.831,248.755c0-0.59-0.054-1.343-0.19-1.936
			c-0.704-2.858-3.149-5.214-6.562-5.214c-4.693,0-7.498,4.115-7.498,9.591c0,5.061,2.519,9.263,7.406,9.263
			c3.033,0,5.787-2.047,6.622-5.441c0.161-0.597,0.223-1.234,0.223-1.944V248.755z"/>
		<path fill="#535353" d="M273.951,231.572c0.004,1.542-1.082,2.817-2.882,2.817c-1.64,0-2.739-1.275-2.735-2.817
			c-0.004-1.555,1.158-2.82,2.818-2.82C272.842,228.752,273.939,229.989,273.951,231.572z M268.887,263.534v-24.917h4.509v24.917
			H268.887z"/>
		<path fill="#535353" d="M282.687,238.617l4.887,13.971c0.839,2.309,1.484,4.366,2.04,6.435h0.135
			c0.571-2.069,1.285-4.142,2.086-6.435l4.875-13.971h4.738l-9.804,24.917h-4.322l-9.489-24.917H282.687z"/>
		<path fill="#535353" d="M310.786,231.572c0.004,1.542-1.082,2.817-2.882,2.817c-1.64,0-2.739-1.275-2.735-2.817
			c-0.004-1.555,1.158-2.82,2.818-2.82C309.677,228.752,310.775,229.989,310.786,231.572z M305.723,263.534v-24.917h4.509v24.917
			H305.723z"/>
		<path fill="#535353" d="M339.284,226.952v30.155c0,2.215,0.085,4.707,0.206,6.427h-4.029l-0.23-4.309h-0.121
			c-1.386,2.783-4.384,4.875-8.453,4.875c-6.039,0-10.695-5.105-10.695-12.66c-0.039-8.329,5.129-13.391,11.196-13.391
			c3.826,0,6.402,1.793,7.517,3.78h0.103v-14.878H339.284z M334.779,248.755c0-0.59-0.054-1.343-0.19-1.936
			c-0.704-2.858-3.149-5.214-6.562-5.214c-4.693,0-7.498,4.115-7.498,9.591c0,5.061,2.519,9.263,7.406,9.263
			c3.033,0,5.787-2.047,6.622-5.441c0.161-0.597,0.223-1.234,0.223-1.944V248.755z"/>
		<path fill="#535353" d="M367.671,256.714c0,2.613,0.085,4.85,0.206,6.82h-4.004l-0.241-4.075h-0.126
			c-1.148,2.005-3.782,4.641-8.248,4.641c-3.899,0-8.582-2.186-8.582-10.921v-14.563h4.509v13.767c0,4.746,1.48,7.979,5.57,7.979
			c3.036,0,5.158-2.126,5.997-4.159c0.234-0.653,0.412-1.463,0.412-2.324v-15.262h4.509V256.714z"/>
		<path fill="#535353" d="M389.038,263.534l-0.4-3.147h-0.135c-1.368,1.945-4.055,3.713-7.624,3.713
			c-5.034,0-7.611-3.573-7.611-7.15c0-6.035,5.349-9.35,14.975-9.283v-0.529c0-2.025-0.57-5.775-5.674-5.748
			c-2.319,0-4.744,0.692-6.491,1.857l-1.029-3.014c2.064-1.331,5.08-2.184,8.224-2.184c7.617,0,9.474,5.207,9.474,10.199v9.322
			c0,2.128,0.097,4.251,0.376,5.963H389.038z M388.333,250.811c-4.904-0.105-10.518,0.777-10.518,5.595
			c0,2.974,1.957,4.339,4.231,4.339c3.281,0,5.35-2.066,6.072-4.172c0.157-0.482,0.215-0.994,0.215-1.428V250.811z"/>
		<path fill="#535353" d="M400.054,226.952h4.509v36.582h-4.509V226.952z"/>
		<path fill="#535353" d="M411.571,258.921c1.365,0.853,3.75,1.775,6.006,1.775c3.309,0,4.842-1.627,4.842-3.711
			c0-2.179-1.318-3.321-4.63-4.562c-4.502-1.63-6.634-4.08-6.622-7.065c0-4.014,3.262-7.306,8.62-7.306
			c2.536,0,4.719,0.686,6.104,1.532l-1.126,3.295c-0.959-0.602-2.785-1.467-5.112-1.467c-2.674,0-4.128,1.542-4.128,3.421
			c0,2.062,1.465,2.982,4.731,4.249c4.295,1.6,6.526,3.766,6.537,7.487c0,4.416-3.432,7.508-9.319,7.508
			c-2.728,0-5.25-0.706-7.003-1.736L411.571,258.921z"/>
	</g>
</g>
</svg>
