<?xml version="1.0" encoding="utf-8"?>
<!-- Generator: Adobe Illustrator 26.0.1, SVG Export Plug-In . SVG Version: 6.00 Build 0)  -->
<svg version="1.1" id="Layer_1" xmlns="http://www.w3.org/2000/svg" xmlns:xlink="http://www.w3.org/1999/xlink" x="0px" y="0px"
	 viewBox="0 0 1207.7 686.7" style="enable-background:new 0 0 1207.7 686.7;" xml:space="preserve">
<style type="text/css">
	.st0{fill:#00AB84;}
	.st1{fill:#00594F;}
	.st2{fill:#C7C8C9;}
	.st3{fill:#4CC2BF;}
	.st4{fill:#54565B;}
</style>
<g>
	<g>
		<path class="st0" d="M682.2,413v0.2v64.5c4.2,0,401-93,401-93c14.9-3.5,19.5-6.8,19.5-14.3V303c-0.1,8.4-12.1,14.9-24.7,17.8
			L682.2,413z"/>
		<path class="st1" d="M682.2,507.4v0.2v64.5c4.2,0,401-93,401-93c14.9-3.5,19.5-6.8,19.5-14.3v-67.4c-0.1,8.4-12.1,14.9-24.7,17.8
			L682.2,507.4z"/>
		<path class="st2" d="M707.3,286.3l30,6.8c41-9.6,90.9-21.2,146.9-34.2l-202-45.8v57.2C682.2,278.6,689,282.2,707.3,286.3"/>
		<path class="st2" d="M954.8,242.5l-247.5-56.1c-18.3-4.1-25.1-7.7-25.1-16v-57.2l406.6,92.2c-4.2,4.9-12.4,8.7-21,10.8h-0.1
			L954.8,242.5z"/>
		<path class="st3" d="M677,319.2l-57.8,78.9c5.8-1.3,464-108.3,464-108.3c14.9-3.5,19.5-6.8,19.5-14.3v-67.4
			c-0.1,8.4-12.1,14.9-24.7,17.8L677,319.2z"/>
	</g>
	<g>
		<path class="st4" d="M127.9,237.3V302c0,4.7-0.7,7.8-2.2,9.6c-1.5,1.7-3.6,2.6-6.6,2.6c-2.7,0-5.9-0.9-9.5-2.6v18.1
			c6.8,2.3,12.6,3.4,17.1,3.4c5.2,0,9.7-1.1,13.4-3.4c3.7-2.3,6.4-5.6,8.1-9.9c1.7-4.3,2.6-10.8,2.6-19.5V232L127.9,237.3z"/>
		<path class="st4" d="M202.5,202.9l-22.9,5.4v64.1c0,8.7,0.9,15.2,2.6,19.5c1.7,4.3,4.4,7.6,8.1,9.9c3.7,2.3,8.1,3.4,13.2,3.4
			l252.3-0.1c4.6-0.2,8.6-1.3,12-3.4c3.7-2.3,6.4-5.6,8.1-9.9s2.6-10.8,2.6-19.5v-34.5l-22.9,5.4v26c0,4.6-0.7,7.8-2.2,9.6
			c-1.2,1.5-3,2.3-5.3,2.5h-41l-0.3-6.7c0-5.9-1.1-11.7-3.3-18.1c-2.2-6.4-5.9-11.9-11-16.7c-5.1-4.7-11.8-8.5-20-11.2
			s-18.3-4.1-30.2-4.1c-4.5,0-8.4,0.1-11.5,0.2c-3.1,0.1-0.5,0.4-2.9,0.6l-2.1,22c2.4-0.3,5.3-0.5,8.6-0.6c3.3-0.1,7-0.2,11-0.2
			c7.1,0,13.1,0.6,18,1.9c4.9,1.3,8.9,3.3,12,6.1c3.1,2.8,5.4,6.4,6.7,10.9c1.3,4.3,2,9.6,2,15.9H210c-2.3-0.2-4-1-5.3-2.5
			c-1.5-1.7-2.2-4.9-2.2-9.6V202.9z"/>
		<path class="st4" d="M521.4,326.7c1.5,0,3.3,0.6,4.9,1.2c1.8,0.9,3,1.5,4,2.1v-10.9c-1.8-0.9-3.7-1.8-5.2-2.4
			c-1.8-0.6-3.3-0.9-5.2-0.9c-2.1,0-4.3,0.3-6.1,0.9c-2.1,0.6-3.7,1.5-5.2,2.7c-1.2,0.9-2.4,2.7-3.3,4.6c-0.9,2.1-1.2,4.3-1.2,7
			c0,0.6,0,1.5,0.3,2.7c0.3,0.9,0.6,2.1,0.9,2.7h-6.4h-0.6v9.7h31.6v-10h-13.1c-0.6-0.6-0.9-1.5-1.2-2.7c-0.3-1.2-0.3-1.8-0.3-2.4
			c0-1.8,0.6-3,1.8-3.7C518.3,326.7,519.9,326.7,521.4,326.7z"/>
		<path class="st4" d="M426.2,320c-3.5,0-6.5,1.2-9.1,3.8s-3.8,5.6-3.8,9.4c0,3.5,1.2,6.5,3.8,9.1c2.3,2.6,5.6,3.8,9.1,3.8
			s6.7-1.5,9.1-3.8c2.6-2.6,3.8-5.6,3.8-9.1c0-3.8-1.2-6.7-3.8-9.4C432.6,321.2,429.7,320,426.2,320z"/>
		<path class="st4" d="M458.8,320c-3.5,0-6.5,1.2-9.1,3.8s-3.8,5.6-3.8,9.4c0,3.5,1.2,6.5,3.8,9.1c2.3,2.6,5.6,3.8,9.1,3.8
			s6.5-1.5,9.1-3.8c2.6-2.6,3.8-5.6,3.8-9.1c0-3.8-1.2-6.7-3.8-9.4C465.2,321.2,462.3,320,458.8,320z"/>
		<path class="st4" d="M346.9,320c-3.5,0-6.5,1.2-9.1,3.8c-2.6,2.6-3.8,5.6-3.8,9.4c0,3.5,1.2,6.5,3.8,9.1c2.3,2.6,5.6,3.8,9.1,3.8
			s6.7-1.5,9.1-3.8c2.6-2.6,3.8-5.6,3.8-9.1c0-3.8-1.2-6.7-3.8-9.4C353.3,321.2,350.4,320,346.9,320z"/>
		<polygon class="st4" points="507.2,202.9 507.2,305.1 530.2,305.1 530.2,197.6 		"/>
		<path class="st4" d="M127.1,487.1h57V466h-51.9v-17.7h46v-21.2h-46V408h51.9v-20.8h-57c-9.8,0-17.7,7.9-17.7,17.7v64.4
			C109.3,479.2,117.3,487.1,127.1,487.1z"/>
		<path class="st4" d="M526.4,483.4c-7.2-9.9-14.5-19.8-21.9-29.6c5.1-2.6,9.4-6.3,12.7-11.2c3.8-5.7,5.8-12.5,5.8-20.2
			c0-5-0.9-9.8-2.6-14.1c-1.7-4.3-4.1-8.1-7.2-11.2c-3.1-3.1-6.8-5.6-11.2-7.3c-4.3-1.7-9.1-2.6-14.2-2.6h-32.3
			c-7.3,0-13.3,6-13.3,13.3V487h22.9v-30.3h14.4c3.4,4.9,6.8,9.7,10.2,14.4c3.6,5,7.4,10.1,11.2,15l0.7,0.9h27.5L526.4,483.4z
			 M465.1,408.1h22.6c2.7,0,4.9,0.5,6.4,1.4c1.6,1,2.8,2.2,3.7,3.6c0.9,1.5,1.5,3.1,1.8,4.7c0.3,1.8,0.5,3.3,0.5,4.5
			c0,2.3-0.4,4.4-1.1,6c-0.8,1.7-1.8,3.2-2.9,4.3c-1.2,1.1-2.4,1.9-3.9,2.5s-2.9,0.8-4.3,0.8h-22.7v-27.8H465.1z"/>
		<path class="st4" d="M261.6,392v56.2c0,1.7-0.2,3.7-0.6,5.9c-0.3,2-1.1,4.1-2.1,6s-2.5,3.4-4.4,4.7c-1.8,1.2-4.4,1.8-7.6,1.8
			c-1.9,0-3.5-0.3-4.8-0.8c-1.4-0.6-2.6-1.3-3.6-2.1c-1-0.8-1.9-1.8-2.7-2.9s-1.4-2.2-1.8-3.3l-0.9-2.2l-20.8,9.3l1,2.1
			c2.9,6.5,7.4,11.7,13.2,15.4c5.8,3.7,12.7,5.6,20.6,5.6c5.6,0,10.7-1,15.3-2.8c4.6-1.9,8.6-4.6,11.9-8.1s5.9-7.7,7.6-12.6
			c1.8-4.8,2.7-10.2,2.7-16v-61.5L261.6,392z"/>
		<g>
			<path class="st4" d="M363.3,389.7c-0.6-1.4-2-2.3-3.5-2.3s-3,1-3.5,2.3l-49.8,97.4h25.1l7.3-14.9h41.8l7.4,14.9h25.1L363.3,389.7
				z M349.9,451.6l9.9-20.9l9.8,20.9H349.9z"/>
		</g>
	</g>
</g>
</svg>
