<?xml version="1.0" encoding="utf-8"?>
<!-- Generator: Adobe Illustrator 26.0.1, SVG Export Plug-In . SVG Version: 6.00 Build 0)  -->
<svg version="1.1" id="Layer_1" xmlns="http://www.w3.org/2000/svg" xmlns:xlink="http://www.w3.org/1999/xlink" x="0px" y="0px"
	 viewBox="0 0 311.5 189.9" style="enable-background:new 0 0 311.5 189.9;" xml:space="preserve">
<style type="text/css">
	.st0{fill-rule:evenodd;clip-rule:evenodd;fill:#415364;}
	.st1{fill-rule:evenodd;clip-rule:evenodd;fill:#00945E;}
	.st2{fill-rule:evenodd;clip-rule:evenodd;fill:#55C09B;}
	.st3{fill-rule:evenodd;clip-rule:evenodd;fill:#C9EADC;}
	.st4{fill:#415364;}
</style>
<path class="st0" d="M253.5,92.8c1.7,0.1,3.2-1.1,3.3-2.8c0-0.1,0-0.2,0-0.3c0-1.7-1.4-3.1-3.2-3.1c0,0-0.1,0-0.1,0
	c-1.8-0.1-3.3,1.2-3.4,2.9c0,0.1,0,0.1,0,0.2C250,91.8,251.6,92.8,253.5,92.8z"/>
<path class="st0" d="M249.3,97.3c-8.4,0-13.7,4.6-13.7,11.9l0,0c-0.1,2.3,0.5,4.5,1.7,6.4h-4.9c-4.8,0-7.5-2.8-7.5-7.7V97.1h-5.3
	v10.8c0,5.3-2.6,8.1-7.6,8.1c-4.7,0-7.7-2.9-7.7-7.7v-8.2h-5.4v8.4c0,4.6-2.6,7-7.6,7h-5.6v-15.3h-5.3v15.4H170
	c0.4-1.9,0.6-3.9,0.7-5.9c0-8.2-6.1-13.2-16-13.2c-4.4,0.1-8.8,0.9-13,2.3l1.4,5.1c3.6-1.3,7.3-2,11-2.1c7.3,0,11.5,3.1,11.5,7.8
	c-0.1,2-0.4,4-1,5.9h-22.4c-9.1,0-13.7,4-13.7,11.3c0,7.3,4.7,10.8,13.7,10.8h6.1v-5.4h-6.6c-4.8,0-7.4-1.8-7.4-5.4
	c0-3.6,2.6-6,7.4-6h49.5c4.4,0,7.9-1.8,9.9-5.8c1.4,3.7,5.9,6.2,11.2,6.2c5.4,0,9-1.7,10.8-5.1c1.4,2.6,4.5,4.4,8.4,4.6h33.4V97.3
	L249.3,97.3z M259.6,115.6h-11.4c-4.7,0-7.5-2.4-7.5-6.4l0,0c0-4.1,2.9-6.6,7.5-6.6h11.4V115.6z"/>
<path class="st1" d="M121.4,110.2h-19.5c-3.4,0-6.5-1.8-8.2-4.7l-9.7-16.8h24.9L121.4,110.2z"/>
<path class="st2" d="M108.8,88.7H83.9L71.5,67.2h24.9L108.8,88.7z"/>
<path class="st3" d="M133.8,88.7h-25L96.4,67.2h19.5c3.4,0,6.5,1.8,8.2,4.7L133.8,88.7z"/>
<path class="st0" d="M176.7,134.7h7.5v1.4h-6v2.5h5.6v1.4h-5.6v4.1h-1.5L176.7,134.7z"/>
<path class="st0" d="M192.6,141.5h-5.2l-1.2,2.6h-1.6l4.5-9.4h1.7l4.5,9.4h-1.6L192.6,141.5z M188,140.2h3.9l-2-4l0,0L188,140.2z"/>
<path class="st0" d="M196.4,143.4l0.7-1.3c1.1,0.5,2.3,0.8,3.5,0.8c1.7,0,2.6-0.4,2.6-1.3l0,0c0-0.7-0.6-1.1-2.3-1.5
	c-0.4-0.1-0.9-0.2-1.2-0.3c-2.1-0.5-3-1.3-3-2.7l0,0c0-1.6,1.4-2.6,3.8-2.6c1.4,0,2.7,0.2,3.9,0.8l-0.7,1.3c-1-0.5-2.2-0.7-3.4-0.7
	c-1.5,0-2.2,0.5-2.2,1.2l0,0c0,0.8,0.6,1.1,1.8,1.4c0.3,0.1,0.9,0.2,1.3,0.3c2.4,0.6,3.5,1.4,3.5,2.9l0,0c0,1.8-1.6,2.7-4.2,2.7
	C199.2,144.3,197.8,143.9,196.4,143.4z"/>
<path class="st0" d="M213.8,141.5h-5.2l-1.2,2.6h-1.6l4.5-9.4h1.7l4.5,9.4H215L213.8,141.5L213.8,141.5z M209.3,140.2h3.9l-2-4l0,0
	L209.3,140.2z"/>
<path class="st0" d="M218,134.7h1.5v3.8h6.2v-3.8h1.5v9.4h-1.5v-4.1h-6.2v4.1H218V134.7z"/>
<path class="st1" d="M240.8,141.1v1.5c0,0.8-0.7,1.5-1.5,1.5l0,0v-9.4h4.2c1.8,0,3.2,1.4,3.3,3.1c0,1.8-1.4,3.2-3.1,3.3
	c-0.1,0-0.1,0-0.2,0H240.8z M240.8,139.7h2.8c1,0,1.8-0.8,1.9-1.8c0-1-0.8-1.8-1.8-1.9c0,0-0.1,0-0.1,0h-2.8V139.7z"/>
<path class="st1" d="M260.2,138.7l2.2-3.4c0.3-0.4,0.8-0.7,1.3-0.7h1v0.1l-3.6,5.3v3.9l0,0c-0.8,0-1.5-0.7-1.5-1.5v-2.5l-3.6-5.3
	v-0.1h0.9c0.5,0,1,0.3,1.3,0.7L260.2,138.7z"/>
<rect x="231.8" y="139" class="st4" width="3.2" height="0.9"/>
<path class="st1" d="M59.1,45.5h19.5c3.4,0,6.5,1.8,8.2,4.7L96.4,67H71.5L59.1,45.5z"/>
<path class="st3" d="M46.7,67.2h24.9L84,88.7H64.5c-3.4,0-6.5-1.8-8.2-4.7L46.7,67.2z"/>
<path class="st1" d="M254.7,143.2c0.3,0.5,0.8,0.9,1.4,0.9h0.6l-4.2-9.4h-1.6l-4.1,9.4h0.6c0.6,0,1.1-0.3,1.4-0.9l3.1-6.9
	L254.7,143.2z"/>
</svg>
