<?xml version="1.0" encoding="utf-8"?>
<!-- Generator: Adobe Illustrator 26.5.0, SVG Export Plug-In . SVG Version: 6.00 Build 0)  -->
<svg version="1.1" id="Layer_1" xmlns="http://www.w3.org/2000/svg" xmlns:xlink="http://www.w3.org/1999/xlink" x="0px" y="0px"
	 viewBox="0 0 1105.1 551" style="enable-background:new 0 0 1105.1 551;" xml:space="preserve">
<style type="text/css">
	.st0{fill:#4D4D4F;}
	.st1{fill:#006E63;}
	.st2{fill:#0065A1;}
	.st3{fill:#00A19B;}
</style>
<g>
	<path class="st0" d="M217.3,312h4.9v-28.1h-4.9V312z M404,283.9h7.1v4.9h-2.2V312h-32.2c-1.9,2-4.7,3.3-7.7,3.3
		c-2.9,0-5.7-1.3-7.6-3.3H246.8c-5.4,0-9.8-4.4-9.8-9.8s4.4-9.7,9.8-9.7h2.8v-1.7h4.9v16.4H285v-14.7h4.9v14.7h33.4v-5.8
		c0-1.4-1.1-2.5-2.5-2.5h-15.9l-1.7-4.8l5.6-10.2h5.2l-5.4,10.2h12.7c3.7,0,6.7,3,6.7,6.7v6.4h12.6v-23.3h4.9v23.3h13.2
		c-0.2-0.7-0.2-1.4-0.2-2.2c0-5.9,4.7-10.6,10.4-10.6c5.9,0,10.6,4.6,10.6,10.6c0,0.8-0.1,1.5-0.2,2.2H392v-23.3h4.9v23.3h7.1
		L404,283.9L404,283.9z M249.6,297.4h-2.8c-2.7,0-4.9,2.2-4.9,4.9s2.2,4.9,4.9,4.9h2.8V297.4z M374.6,304.9c0-3.3-2.4-5.7-5.7-5.7
		c-3.2,0-5.5,2.5-5.5,5.7c0,3.1,2.4,5.6,5.5,5.6C372.1,310.5,374.6,308.1,374.6,304.9z M424.8,302.2c0-5.4,4.4-9.7,9.7-9.7h2.8v-1.7
		h4.9v16.4h28.2v-14.7h4.9V312h-40.7C429.1,312,424.8,307.6,424.8,302.2z M429.6,302.2c0,2.7,2.2,4.9,4.9,4.9h2.8v-9.8h-2.8
		C431.8,297.4,429.6,299.6,429.6,302.2z M619.2,312h4.9v-28.1h-4.9V312z M696.1,287.2h-4.8v-0.9c0-1.1,0.5-1.7,1.9-1.7h1.8V283H693
		c-2.7,0-4.4,1.2-4.4,4.3v2.5h7.6V287.2L696.1,287.2z M639,302.2c0-5.4,4.4-9.7,9.8-9.7h2.8v-1.7h4.9v16.4h33.7v-14.7h4.9v14.7h16.4
		v-14.7h4.9v14.7H732h0.1c-0.4-0.9-0.7-2-0.7-3.1c0-4.1,3.3-7.4,7.4-7.4c4.1,0,7.4,3.3,7.4,7.4c0,1.1-0.3,2.1-0.7,3.1h0.2h3.1
		c0.3-1,0.5-2,0.5-3.1c0-5.8-4.7-10.5-10.5-10.5c-2.1,0-4,0.6-5.7,1.7l-2.7-4.3c2.4-1.6,5.3-2.5,8.4-2.5c8.6,0,15.5,7,15.5,15.5
		c0,1.1-0.1,2.1-0.3,3.1h14.3v-23.3h7.1v4.9h-2.2V312H648.8C643.4,312,639,307.6,639,302.2z M735.8,304.1c0,1.7,1.4,3.1,3.1,3.1
		c1.7,0,3.1-1.4,3.1-3.1s-1.4-3.1-3.1-3.1C737.2,301,735.8,302.4,735.8,304.1z M643.9,302.2c0,2.7,2.2,4.9,4.9,4.9h2.8v-9.8h-2.8
		C646,297.4,643.9,299.6,643.9,302.2z M779.1,283.9V312h4.9v-28.1H779.1z M105.6,316.8c0,1.4,1.2,2.6,2.6,2.6c1.4,0,2.6-1.2,2.6-2.6
		s-1.2-2.6-2.6-2.6C106.7,314.2,105.6,315.4,105.6,316.8z M113.9,314.2c-1.4,0-2.6,1.2-2.6,2.6s1.2,2.6,2.6,2.6
		c1.4,0,2.6-1.2,2.6-2.6C116.5,315.4,115.3,314.2,113.9,314.2z M187.8,288.4c1.4,0,2.6-1.2,2.6-2.6c0-1.4-1.2-2.6-2.6-2.6
		s-2.6,1.2-2.6,2.6C185.2,287.3,186.3,288.4,187.8,288.4z M284.1,314.2c-1.4,0-2.6,1.2-2.6,2.6s1.2,2.6,2.6,2.6
		c1.4,0,2.6-1.2,2.6-2.6C286.7,315.4,285.5,314.2,284.1,314.2z M292.4,316.8c0-1.4-1.2-2.6-2.6-2.6s-2.6,1.2-2.6,2.6
		s1.2,2.6,2.6,2.6C291.2,319.4,292.4,318.2,292.4,316.8z M647.9,288.4c1.4,0,2.6-1.2,2.6-2.6c0-1.4-1.2-2.6-2.6-2.6
		s-2.6,1.2-2.6,2.6C645.4,287.3,646.5,288.4,647.9,288.4z M653.6,288.4c1.4,0,2.6-1.2,2.6-2.6c0-1.4-1.2-2.6-2.6-2.6
		c-1.4,0-2.6,1.2-2.6,2.6C651,287.3,652.2,288.4,653.6,288.4z M466.8,314.2c-1.4,0-2.6,1.2-2.6,2.6s1.2,2.6,2.6,2.6
		c1.4,0,2.6-1.2,2.6-2.6S468.3,314.2,466.8,314.2z M475.1,316.8c0-1.4-1.2-2.6-2.6-2.6s-2.6,1.2-2.6,2.6s1.2,2.6,2.6,2.6
		C473.9,319.4,475.1,318.2,475.1,316.8z M710.8,314.2c-1.4,0-2.6,1.2-2.6,2.6s1.2,2.6,2.6,2.6s2.6-1.2,2.6-2.6
		C713.4,315.4,712.2,314.2,710.8,314.2z M713.9,316.8c0,1.4,1.2,2.6,2.6,2.6c1.4,0,2.6-1.2,2.6-2.6s-1.2-2.6-2.6-2.6
		C715,314.2,713.9,315.4,713.9,316.8z M433.7,288.4c1.4,0,2.6-1.2,2.6-2.6c0-1.4-1.2-2.6-2.6-2.6c-1.4,0-2.6,1.2-2.6,2.6
		C431.1,287.3,432.3,288.4,433.7,288.4z M439.4,288.4c1.4,0,2.6-1.2,2.6-2.6c0-1.4-1.2-2.6-2.6-2.6s-2.6,1.2-2.6,2.6
		C436.8,287.3,437.9,288.4,439.4,288.4z M496.4,299.2c0-3.7-3-6.7-6.7-6.7h-4.5l-1.2,4.8h5c1.4,0,2.5,1.1,2.5,2.5v7.4h-12.4v4.9
		h17.3V299.2z M246,288.4c1.4,0,2.6-1.2,2.6-2.6c0-1.4-1.2-2.6-2.6-2.6c-1.4,0-2.6,1.2-2.6,2.6C243.4,287.3,244.6,288.4,246,288.4z
		 M251.7,288.4c1.4,0,2.6-1.2,2.6-2.6c0-1.4-1.2-2.6-2.6-2.6s-2.6,1.2-2.6,2.6C249.1,287.3,250.2,288.4,251.7,288.4z M80.5,288.4
		c1.4,0,2.6-1.2,2.6-2.6c0-1.4-1.2-2.6-2.6-2.6c-1.4,0-2.6,1.2-2.6,2.6C77.9,287.3,79.1,288.4,80.5,288.4z M86.2,288.4
		c1.4,0,2.6-1.2,2.6-2.6c0-1.4-1.2-2.6-2.6-2.6c-1.4,0-2.6,1.2-2.6,2.6C83.6,287.3,84.7,288.4,86.2,288.4z M71.5,302.2
		c0-5.4,4.4-9.7,9.7-9.7h2.8v-1.7H89v16.4H111v-14.7h4.9V312H81.3C75.9,312,71.5,307.6,71.5,302.2z M76.4,302.2
		c0,2.7,2.2,4.9,4.9,4.9h2.8v-9.8h-2.8C78.6,297.4,76.4,299.6,76.4,302.2z M122.4,319.6c-0.9,0-1.9-0.1-2.5-0.3v-4.8
		c0.7,0.2,1.3,0.2,1.9,0.2c1.9,0,2.6-1,2.6-3.4v-18.9h4.9v14.7h30.8v-5.8c0-1.4-1.1-2.5-2.5-2.5h-15.9l-1.7-4.8l5.6-10.2h5.2
		l-5.4,10.2h12.7c3.7,0,6.7,3,6.7,6.7v6.4h13.6c-0.9-1.4-1.3-3.1-1.3-4.9c0-5.4,4.4-9.8,9.7-9.8h2.8h1.3h3.5l0,14.7h12.1v-23.3h7.1
		v4.9h-2.3V312h-82.2C129,317.3,127,319.6,122.4,319.6z M182,302.2c0,2.7,2.2,4.9,4.9,4.9h2.8v-9.8h-2.8
		C184.2,297.4,182,299.6,182,302.2z M512.2,312h-2.7c-5.4,0-9.8-4.4-9.8-9.8s4.4-9.7,9.8-9.7h2.8h1.3h3.5l0,14.7h14.6l-4.3-11
		c3.3-2.9,6.6-4.9,10.7-4.9c4,0,7.5,2,10.7,5l-4.2,11H557c2.7,0,4.9-2.2,4.9-4.9v-12.5h4.9v12.5c0,2.7,2.2,4.9,4.9,4.9
		c2.7,0,4.9-2.2,4.9-4.9v-8.4h4.9v8.4c0,2.7,2.2,4.9,4.9,4.9c2.7,0,4.9-2.2,4.9-4.9v-12.5h4.9v12.5c0,2.7,2.2,4.9,4.9,4.9h7.5v-23.3
		h7.1v4.9h-2.2V312h-12.4c-2.9,0-5.5-1.3-7.3-3.3c-1.8,2-4.4,3.3-7.3,3.3c-2.9,0-5.5-1.3-7.3-3.3c-1.8,2-4.4,3.3-7.3,3.3
		c-2.9,0-5.5-1.3-7.3-3.3c-1.8,2-4.4,3.3-7.3,3.3h-40c-0.3,4.6-2.6,7.6-8.8,7.6c-1.9,0-2.9-0.2-5.1-0.8v-4.8
		c1.7,0.5,3.2,0.8,4.7,0.8C510.5,314.8,511.9,314.4,512.2,312z M532.8,298.2l3.2,8.9h4.2l3.2-9c-1.9-1.3-3.3-1.8-5.3-1.8
		C536.1,296.3,534.6,296.9,532.8,298.2z M512.3,307.2v-9.8h-2.8c-2.7,0-4.9,2.2-4.9,4.9s2.2,4.9,4.9,4.9H512.3z"/>
	<path class="st0" d="M112.3,343.9v11c-2.4,0.9-5.4,1.5-8.2,1.5c-4.7,0-8.9-1.7-8.9-6.3c0-4.2,3.6-6.4,8.8-6.4c1,0,2.3,0.1,3.7,0.3
		v-0.3c0-2.1-1.8-2.7-4.4-2.7c-1.9,0-4.8,0.8-6.6,1.7l0.6-4.8c1.5-0.8,4.1-1.4,6.7-1.4C108.7,336.4,112.3,338.4,112.3,343.9z
		 M107.6,347.8c-0.9-0.2-2.1-0.4-3.2-0.4c-2.4,0-4.4,0.6-4.4,2.4c0,1.7,1.8,2.4,4.1,2.4c1.2,0,2.5-0.2,3.5-0.5V347.8z M128.4,351.3
		c-1.4,0.4-2.5,0.5-3.5,0.5c-2.6,0-3.7-1-3.7-4.5V337h-4.7v11.5c0,5.9,3.7,7.8,8.6,7.8c3.3,0,5.4-0.5,8.1-1.4v-17.9h-4.7
		L128.4,351.3L128.4,351.3z M150.5,328.7h4.7v26.6c-2.3,0.6-4.9,1-7.6,1c-7,0-11-4.3-11-9.9s4.2-10,10.7-10c0.8,0,2,0.1,3.3,0.3
		V328.7L150.5,328.7z M150.5,341.4c-1.1-0.3-2.1-0.4-2.9-0.4c-3.7,0-6.1,1.8-6.1,5.4s2.4,5.3,6.1,5.3c0.9,0,1.9-0.1,2.9-0.4V341.4z
		 M160.3,356h4.7v-18.9h-4.7V356z M217.3,351.3c-1.4,0.4-2.5,0.5-3.5,0.5c-2.6,0-3.7-1-3.7-4.5V337h-4.7v11.5c0,5.9,3.7,7.8,8.6,7.8
		c3.3,0,5.4-0.5,8.1-1.4v-17.9h-4.7L217.3,351.3L217.3,351.3z M233.3,348.3v-6.9h7.2V337h-7.2v-6.9h-4.7v6.9h-3.5v4.4h3.5v8.5
		c0,4.5,2.3,6,7.6,6h4.4v-4.3h-4C234.2,351.6,233.3,350.8,233.3,348.3z M253,336.4c-1,0-2.4,0.2-3.8,0.4v-8h-4.7V356h4.7v-14.6
		c1.3-0.2,2.6-0.4,3.6-0.4c2.8,0,4.2,1,4.2,4.5V356h4.7v-11.8C261.7,337.9,257.8,336.4,253,336.4z M285.3,346.4
		c0,5.6-4.4,10-10.2,10s-10.2-4.3-10.2-10c0-5.6,4.4-10,10.2-10C280.8,336.4,285.3,340.8,285.3,346.4z M280.4,346.4
		c0-2.9-2-5.4-5.3-5.4c-3.3,0-5.3,2.5-5.3,5.4c0,3,2,5.4,5.3,5.4C278.3,351.7,280.4,349.4,280.4,346.4z M303.1,356h4.7v-18.9h-4.7
		V356z M319.1,348.3v-6.9h7.2V337h-7.2v-6.9h-4.7v6.9h-3.5v4.4h3.5v8.5c0,4.5,2.3,6,7.6,6h4.4v-4.3h-4
		C319.9,351.6,319.1,350.8,319.1,348.3z M341.7,350.9c-1.4,0.4-2.5,0.5-3.5,0.5c-2.6,0-3.7-1-3.7-4.5V337h-4.7v11.2
		c0,6.2,3.4,7.8,8.2,7.8c1.2,0,2.5-0.1,3.8-0.4v0.4c0,2.2-2,3.2-4.9,3.2c-1.8,0-4.8-0.6-6.6-1.4l1,4.9c1.5,0.5,4,0.8,5.4,0.8
		c7.5,0,9.8-2.3,9.8-9V337h-4.7L341.7,350.9L341.7,350.9z M362.9,335.2v1.8h-3.5v4.4h3.5v14.5h4.7v-14.5h7.2V337h-7.2v-0.9
		c0-2,0.4-3,2.8-3h4.4v-4.4h-4.5C365.1,328.7,362.9,330.7,362.9,335.2z M396.4,346.4c0,5.6-4.4,10-10.2,10s-10.2-4.3-10.2-10
		c0-5.6,4.4-10,10.2-10C392,336.4,396.4,340.8,396.4,346.4z M391.5,346.4c0-2.9-2-5.4-5.3-5.4c-3.3,0-5.3,2.5-5.3,5.4
		c0,3,2,5.4,5.3,5.4C389.5,351.7,391.5,349.4,391.5,346.4z M442.2,336.4c-2,0-5.6,0.4-8.5,1V356h4.7v-14.6c1.3-0.2,2.6-0.4,3.6-0.4
		c2.8,0,4.2,1,4.2,4.5V356h4.7v-11.8C451,337.9,447,336.4,442.2,336.4z M461.9,348.3v-6.9h7.2V337h-7.2v-6.9h-4.7v6.9h-3.5v4.4h3.5
		v8.5c0,4.5,2.3,6,7.6,6h4.4v-4.3h-4C462.7,351.6,461.9,350.8,461.9,348.3z M490.6,347.9h-14.9c0.6,2.6,2.7,3.8,5.7,3.8h0.5
		c2,0,4.5-0.8,5.5-1.7l2.1,4.2c-2,1.1-4.5,2.1-8.2,2.1c-6,0-10.4-4.3-10.4-10c0-5.8,4.4-10,10-10
		C486.6,336.4,490.8,340.6,490.6,347.9z M485.7,344c-0.5-2.3-2.4-3.5-4.9-3.5c-2.5,0-4.4,1.5-5,3.5H485.7z M493.9,356h4.7v-27.2
		h-4.7V356z M503.7,356h4.7v-27.2h-4.7V356z M531.6,347.9h-14.9c0.6,2.6,2.7,3.8,5.7,3.8h0.5c2,0,4.5-0.8,5.5-1.7l2.1,4.2
		c-2,1.1-4.5,2.1-8.2,2.1c-6,0-10.4-4.3-10.4-10c0-5.8,4.4-10,10-10C527.7,336.4,531.9,340.6,531.6,347.9z M526.7,344
		c-0.5-2.3-2.4-3.5-4.9-3.5c-2.5,0-4.4,1.5-5,3.5H526.7z M544.2,341c1.7,0,3.2,0.5,4.4,1.2l1.9-4.2c-1.9-1-4-1.6-6.5-1.6
		c-5.8,0-10.1,4.3-10.1,10c0,5.7,4.3,10,10.1,10c2.6,0,4.6-0.5,6.5-1.5l-1.9-4.3c-1.2,0.8-2.7,1.2-4.4,1.2c-3.3,0-5.4-2.1-5.4-5.4
		C538.8,343.2,540.9,341,544.2,341z M560,348.3v-6.9h7.2V337H560v-6.9h-4.7v6.9h-3.5v4.4h3.5v8.5c0,4.5,2.3,6,7.6,6h4.4v-4.3h-4
		C560.9,351.6,560,350.8,560,348.3z M582.6,351.3c-1.4,0.4-2.5,0.5-3.5,0.5c-2.6,0-3.7-1-3.7-4.5V337h-4.7v11.5
		c0,5.9,3.7,7.8,8.6,7.8c3.3,0,5.4-0.5,8.1-1.4v-17.9h-4.7L582.6,351.3L582.6,351.3z M608.6,343.9v11c-2.4,0.9-5.4,1.5-8.2,1.5
		c-4.7,0-8.9-1.7-8.9-6.3c0-4.2,3.6-6.4,8.8-6.4c1,0,2.3,0.1,3.7,0.3v-0.3c0-2.1-1.8-2.7-4.4-2.7c-1.9,0-4.8,0.8-6.6,1.7l0.6-4.8
		c1.5-0.8,4.1-1.4,6.7-1.4C605,336.4,608.6,338.4,608.6,343.9z M603.8,347.8c-0.9-0.2-2.1-0.4-3.2-0.4c-2.4,0-4.4,0.6-4.4,2.4
		c0,1.7,1.8,2.4,4.1,2.4c1.2,0,2.5-0.2,3.5-0.5V347.8L603.8,347.8z M613.3,356h4.7v-27.2h-4.7V356z M689.1,346.4
		c0,5.6-4.4,10-10.2,10c-5.8,0-10.2-4.3-10.2-10c0-5.6,4.4-10,10.2-10C684.7,336.4,689.1,340.8,689.1,346.4z M684.2,346.4
		c0-2.9-2-5.4-5.3-5.4c-3.3,0-5.3,2.5-5.3,5.4c0,3,2,5.4,5.3,5.4C682.2,351.7,684.2,349.4,684.2,346.4z M711.2,346.4
		c0,5.6-4.2,10-10.7,10c-0.8,0-1.9-0.1-3.3-0.3v7.2h-4.7v-25.9c2.3-0.7,4.9-1,7.6-1C707.2,336.4,711.2,340.7,711.2,346.4z
		 M706.3,346.4c0-3.6-2.4-5.4-6.1-5.4c-0.9,0-1.9,0.2-2.9,0.4v10c1.1,0.3,2.1,0.4,2.9,0.4C704,351.7,706.3,350,706.3,346.4z
		 M733.4,347.9h-14.9c0.6,2.6,2.7,3.8,5.7,3.8h0.5c2,0,4.5-0.8,5.5-1.7l2.1,4.2c-2,1.1-4.5,2.1-8.2,2.1c-6,0-10.4-4.3-10.4-10
		c0-5.8,4.4-10,10-10C729.5,336.4,733.6,340.6,733.4,347.9z M728.5,344c-0.5-2.3-2.4-3.5-4.9-3.5c-2.5,0-4.4,1.5-5,3.5H728.5z
		 M757.3,348.3v-6.9h7.2V337h-7.2v-6.9h-4.7v6.9H749v4.4h3.5v8.5c0,4.5,2.3,6,7.6,6h4.4v-4.3h-4
		C758.1,351.6,757.3,350.8,757.3,348.3z M779.3,350.9c-1.4,0.4-2.5,0.5-3.5,0.5c-2.6,0-3.7-1-3.7-4.5V337h-4.7v11.2
		c0,6.2,3.4,7.8,8.2,7.8c1.2,0,2.5-0.1,3.8-0.4v0.4c0,2.2-2,3.2-4.9,3.2c-1.8,0-4.8-0.6-6.6-1.4l1,4.9c1.5,0.5,4,0.8,5.4,0.8
		c7.5,0,9.8-2.3,9.8-9V337h-4.7L779.3,350.9L779.3,350.9z M399.9,342v14h4.7v-13.3c0-0.8,0.6-1.4,1.4-1.4c1.9,0,4.8,0,4.8,0v-4.5
		h-5.8C402.3,336.8,399.9,339.1,399.9,342z M288.8,342v14h4.7v-13.3c0-0.8,0.6-1.4,1.4-1.4c1.9,0,4.8,0,4.8,0v-4.5H294
		C291.1,336.8,288.8,339.1,288.8,342z M656,342v14h4.7v-13.3c0-0.8,0.6-1.4,1.4-1.4c1.9,0,4.8,0,4.8,0v-4.5h-5.8
		C658.3,336.8,656,339.1,656,342z M736.5,342v14h4.7v-13.3c0-0.8,0.6-1.4,1.4-1.4c1.9,0,4.8,0,4.8,0v-4.5h-5.8
		C738.9,336.8,736.5,339.1,736.5,342z M162.6,329c-1.4,0-2.6,1.2-2.6,2.6c0,1.4,1.2,2.6,2.6,2.6s2.6-1.2,2.6-2.6
		C165.2,330.2,164.1,329,162.6,329z M305.5,329c-1.4,0-2.6,1.2-2.6,2.6c0,1.4,1.2,2.6,2.6,2.6c1.4,0,2.6-1.2,2.6-2.6
		C308,330.2,306.9,329,305.5,329z"/>
	<path class="st1" d="M92.3,348.2c0,5.2-4.6,8.1-10.8,8.1c-3.8,0-7.7-1-10-2.4l1.9-4.3c1.9,1.2,5.2,2.1,8,2.1c3.3,0,5.8-1.1,5.8-3.6
		c0-2.3-2-3.1-5.2-3.8l-2.2-0.6c-4.9-1.2-7.5-4.1-7.5-8.1c0-4.4,4-7.4,9.9-7.4c3.4,0,7.2,1,9.5,2.5l-1.9,4.3c-2-1.3-5-2.1-7.7-2.1
		c-2.6,0-4.8,1-4.8,2.9c0,1.8,1.3,2.7,4.3,3.5l2.3,0.6C88.5,341,92.3,343.4,92.3,348.2z M193.3,328.7l10.1,27.2h-5.1l-2.3-6.4h-11.3
		l-2.3,6.4h-5.1l10.1-27.2H193.3z M194.4,345l-4-11.3l-4,11.3H194.4z M653.6,337.1c0,4.5-3.2,8.7-10,8.7h-5.4V356h-4.8v-27.2h10.2
		C650.5,328.7,653.6,332.8,653.6,337.1z M648.5,337.2c0-2.7-1.9-3.9-5.9-3.9h-4.3v8h4.3C646.1,341.3,648.5,340.3,648.5,337.2z
		 M424,356h4.7v-27.2H424V356z"/>
	<path class="st2" d="M990.8,241.1c5.4-28.3,10.7-56.9-12.3-68.2c-39.1-19.1-138.7-18.3-149.9,33.5c-2.1,9.9,2,27.4,8.8,43.7
		c2.5-17.4,17.8-43.9,86-48.3C967,199,985,216.6,990.8,241.1z"/>
	<path class="st1" d="M1031.5,211.9c-0.6-19.3-19.7-30.9-42.3-37.8c2.5,2.2,4.7,4.6,6.6,7.5c5.5,8.3,5.7,25,3.1,42.3
		c-17.8,122-64,119.6-67.9,119.7c50.4,17.3,69.3-25,71.7-29.6C1004,311.6,1032.9,257.2,1031.5,211.9z"/>
	<path class="st1" d="M938.7,245.2c2.1-0.4,4.3-0.6,6.6-0.6c10.1,0,19.2,3.9,26.1,10.2c-6.3-13-19.5-21.9-34.8-21.9
		c-1.1,0-2.2,0.1-3.2,0.1c3.3-4.8,8.1-8.4,13.7-10.3c-8.6-1.2-17.3,2-23.1,8.6c0-0.4,0-0.8,0-1.2c0-5-1.5-9.7-4.1-13.5
		c-2.6,3.9-4.1,8.5-4.1,13.5c0,0.4,0,0.8,0,1.2c-5.8-6.6-14.6-9.8-23.1-8.6c5.6,1.9,10.4,5.5,13.7,10.3c-1.1-0.1-2.1-0.1-3.2-0.1
		c-15.3,0-28.5,8.9-34.8,21.9c6.9-6.3,16.1-10.2,26.1-10.2c2.2,0,4.4,0.2,6.6,0.6c-9.4,5.1-16.2,14-18.9,24.2
		c5.6-7.6,13.8-13.1,23.7-15.1c1.1-0.2,2.2-0.4,3.3-0.5l10.8,10.9l10.8-10.9c1.1,0.1,2.2,0.3,3.3,0.5c9.9,1.9,18.1,7.5,23.7,15.1
		C954.9,259.2,948.1,250.3,938.7,245.2z"/>
	<path class="st1" d="M919.8,292.2c2.7,0,5-2.2,5-5c0-2.8-2.2-5-5-5c-2.7,0-5,2.2-5,5C914.9,289.9,917.1,292.2,919.8,292.2z"/>
	<path class="st1" d="M919.8,302.7c2.2,0,4-1.8,4-4s-1.8-4-4-4c-2.2,0-4,1.8-4,4S917.6,302.7,919.8,302.7z"/>
	<path class="st1" d="M919.8,279.9c3.4,0,6.2-2.8,6.2-6.3c0-3.5-2.8-6.3-6.2-6.3s-6.2,2.8-6.2,6.3
		C913.6,277.1,916.4,279.9,919.8,279.9z"/>
	<path class="st1" d="M960.1,295.7c-23.9,0-45.7,9.5-61.7,25h8.5c2.2,0,4.2-0.8,5.9-2.3c12.9-11.2,29.1-18.9,47.3-21.2
		c4.4-0.5,8.7-0.8,13-0.6C968.9,296,964.5,295.7,960.1,295.7z"/>
	<path class="st1" d="M879.6,295.7c23.9,0,45.7,9.5,61.7,25h-8.5c-2.2,0-4.2-0.8-5.9-2.3c-12.9-11.2-29.1-18.9-47.3-21.2
		c-4.4-0.5-8.7-0.8-13-0.6C870.8,296,875.1,295.7,879.6,295.7z"/>
	<path class="st3" d="M823.1,217.6c-7.3,7.3-22.6,25.6-19.1,47.5c4.6,28.5,71.2,124.6,120.4,124.6c24,0,42.6-18.1,61.6-46.5
		C945.4,379.4,843,325.1,823.1,217.6z"/>
</g>
</svg>
