<?xml version="1.0" encoding="utf-8"?>
<!-- Generator: Adobe Illustrator 26.0.1, SVG Export Plug-In . SVG Version: 6.00 Build 0)  -->
<svg version="1.1" id="Layer_1" xmlns="http://www.w3.org/2000/svg" xmlns:xlink="http://www.w3.org/1999/xlink" x="0px" y="0px"
	 viewBox="0 0 746.94 212.65" style="enable-background:new 0 0 746.94 212.65;" xml:space="preserve">
<style type="text/css">
	.st0{fill:#006D46;}
</style>
<g>
	<g>
		<path class="st0" d="M270.79,101.24v-39.4h-10.97v39.98c0,8.98-3.32,11.64-8.89,11.64c-2.66,0-4.82-0.42-6.73-1l-0.91,8.73
			c2.08,0.5,4.41,0.83,6.98,0.83C267.21,122.02,270.79,111.88,270.79,101.24z"/>
		<path class="st0" d="M364.7,55.52c3.08,0,5.49-2.58,5.49-5.65c0-3.16-2.41-5.65-5.49-5.65s-5.49,2.58-5.49,5.65
			C359.21,53.03,361.63,55.52,364.7,55.52z"/>
		<path class="st0" d="M371.52,43.72c2.91,0,5.15-2.33,5.15-5.24c0-2.91-2.24-5.24-5.15-5.24c-2.83,0-5.07,2.33-5.07,5.24
			C366.45,41.39,368.69,43.72,371.52,43.72z"/>
		<path class="st0" d="M372.93,49.87c0,3.16,2.41,5.65,5.57,5.65c3.08,0,5.49-2.58,5.49-5.65c0-3.16-2.41-5.65-5.49-5.65
			C375.34,44.22,372.93,46.79,372.93,49.87z"/>
		<path class="st0" d="M394.21,55.52c3.16,0,5.57-2.58,5.57-5.65c0-3.16-2.41-5.65-5.57-5.65c-3.08,0-5.49,2.58-5.49,5.65
			C388.72,53.03,391.13,55.52,394.21,55.52z"/>
		<path class="st0" d="M408.01,55.52c3.08,0,5.49-2.58,5.49-5.65c0-3.16-2.41-5.65-5.49-5.65s-5.49,2.58-5.49,5.65
			C402.52,53.03,404.93,55.52,408.01,55.52z"/>
		<path class="st0" d="M481.98,81.54c0-8.23-1.08-16.38-2.66-23.03l-10.72,1.5c1.41,6.32,2.41,13.97,2.41,22.28
			c0,2.58-0.25,6.65-0.58,9.97h-2.91c-7.32,0-9.14-2.33-9.14-9.23V63.5H447.9v19.87c0,5.98-1.33,9.56-6.15,9.56
			c-4.9,0-6.32-3.41-6.32-9.64V66.83h-10.97v15.05c0,8.23-2.08,10.39-7.48,10.39h-1.41h-1.25h-6.15V61.84H397.2v30.42h-10.39h-1.25
			h-6.9V61.84h-10.97v30.42h-10.3h-1.34h-5.73V80.55c0-12.14-5.82-19.78-19.2-19.78c-13.97,0-21.2,9.64-21.2,21.53
			c0,7.56-2.24,9.97-6.24,9.97h-0.41h-1.25h-7.06V42.31H284v58.6h18.03h1.25h0.01v0c4.98,0,8.89-2.08,10.97-6.4
			c2.49,4.07,7.32,6.4,17.12,6.4h24.68h1.34h28.17h1.25h27.51h1.25h1.32c6.15,0,9.56-2.16,11.06-6.15c1.41,4.32,5.73,6.9,11.8,6.9
			c5.24,0,10.06-2.24,12.05-6.9c1.83,4.49,6.24,6.15,13.47,6.15h15.46C481.48,95.01,481.98,87.61,481.98,81.54z M339.61,92.27h-7.15
			c-8.56,0-11.72-3.66-11.72-10.97c0-7.07,3.57-11.89,9.64-11.89c6.07,0,9.23,3.66,9.23,12.39V92.27z"/>
		<polygon class="st0" points="530.35,42.31 519.38,42.31 519.38,92.27 493.69,92.27 493.69,100.91 530.35,100.91 		"/>
		<polygon class="st0" points="513.31,86.03 501.17,41.72 490.28,43.22 502.17,86.03 		"/>
		<rect x="544.39" y="42.31" class="st0" width="10.97" height="58.6"/>
		<path class="st0" d="M626.34,100.91V79.88c0-11.64-5.82-19.12-18.79-19.12c-14.46,0-21.7,9.64-21.7,20.95
			c0,11.72,6.07,19.2,22.28,19.2H626.34z M596.83,80.63c0-6.48,3.66-11.22,9.89-11.22c5.57,0,8.89,3.49,8.89,11.8v11.06h-6.32
			C600.66,92.27,596.83,88.44,596.83,80.63z"/>
		<path class="st0" d="M613.71,55.52c3.08,0,5.49-2.58,5.49-5.65c0-3.16-2.41-5.65-5.49-5.65c-3.08,0-5.49,2.58-5.49,5.65
			C608.22,53.03,610.63,55.52,613.71,55.52z"/>
		<path class="st0" d="M599.91,55.52c3.16,0,5.57-2.58,5.57-5.65c0-3.16-2.41-5.65-5.57-5.65c-3.08,0-5.49,2.58-5.49,5.65
			C594.42,53.03,596.83,55.52,599.91,55.52z"/>
		<path class="st0" d="M649.53,101.24v-39.4h-10.97v39.98c0,8.98-3.32,11.64-8.89,11.64c-2.66,0-4.82-0.42-6.73-1l-0.92,8.73
			c2.08,0.5,4.41,0.83,6.98,0.83C645.95,122.02,649.53,111.88,649.53,101.24z"/>
		<rect x="662.74" y="42.31" class="st0" width="10.97" height="58.6"/>
		<path class="st0" d="M670.72,121.19c2.08,0.5,4.41,0.83,6.98,0.83c16.96,0,20.53-10.14,20.53-20.78v-39.4h-10.97v39.98
			c0,8.98-3.32,11.64-8.89,11.64c-2.66,0-4.82-0.42-6.73-1L670.72,121.19z"/>
		<path class="st0" d="M692.75,54.86c3.16,0,5.74-2.58,5.74-5.73c0-3.16-2.58-5.74-5.74-5.74c-3.16,0-5.74,2.58-5.74,5.74
			C687.01,52.36,689.59,54.86,692.75,54.86z"/>
		<path class="st0" d="M729.56,60.76c-15.29,0-22.03,9.97-22.03,20.86c0,11.8,6.07,19.29,22.28,19.29h6.48v1.25
			c0,7.81-5.74,11.06-14.38,11.06c-6.48,0-12.97-1.41-12.97-1.41l-0.67,8.98c0,0,6.4,1.08,12.64,1.08
			c18.62,0,26.02-9.31,26.02-20.78V63.67C746.94,63.67,739.37,60.76,729.56,60.76z M736.3,92.27h-5.32
			c-8.73,0-12.47-4.07-12.47-11.64c0-6.48,3.66-11.22,9.89-11.22c4.74,0,7.9,1.5,7.9,1.5V92.27z"/>
		<path class="st0" d="M272.57,132.44l-5.9,17.76c-0.86,2.54-1.43,4.48-1.93,7.12h-0.1c-0.46-2.44-1.07-4.78-1.88-7.22L257,132.44
			h-7.73l-5.29,34.34h6.72l1.93-15.82c0.41-3,0.76-5.7,0.97-8.75h0.1c0.41,2.75,1.27,5.85,2.19,8.65l5.24,15.92h6.56l5.44-17.25
			c0.86-2.7,1.42-5.14,1.88-7.33h0.1c0.25,2.39,0.56,4.93,1.07,8.19l2.44,16.38h6.97l-5.34-34.34H272.57z"/>
		<path class="st0" d="M293.93,130.36c-2.24,0-4.02,1.78-4.02,3.92c0,2.19,1.78,3.97,4.02,3.97c2.24,0,4.07-1.78,4.07-3.97
			C298,132.09,296.17,130.36,293.93,130.36z"/>
		<rect x="290.67" y="141.5" class="st0" width="6.51" height="25.29"/>
		<path class="st0" d="M318.65,140.94c-4.12,0-7.07,2.09-8.6,5.09l-0.05-0.05c0.25-1.32,0.36-3.31,0.36-4.48h-6.16v25.29h6.51
			v-12.21c0-4.43,2.6-8.19,5.9-8.19c2.39,0,3.1,1.58,3.1,4.22v16.18h6.46v-17.76C326.18,144.6,324.35,140.94,318.65,140.94z"/>
		<rect x="333.25" y="141.5" class="st0" width="6.51" height="25.29"/>
		<path class="st0" d="M336.5,130.36c-2.24,0-4.02,1.78-4.02,3.92c0,2.19,1.78,3.97,4.02,3.97c2.24,0,4.07-1.78,4.07-3.97
			C340.57,132.09,338.74,130.36,336.5,130.36z"/>
		<path class="st0" d="M352.07,148.47c0-1.58,1.22-2.59,3.76-2.59c1.58,0,3.26,0.25,4.68,0.66l0.2-5.14
			c-1.52-0.25-3.15-0.46-4.63-0.46c-7.12,0-10.74,3.66-10.74,8.09c0,8.6,10.23,6.05,10.23,10.53c0,1.68-1.63,2.7-4.12,2.7
			c-1.93,0-3.87-0.36-5.44-0.76l-0.15,5.34c1.63,0.25,3.46,0.46,5.29,0.46c6.92,0,11.29-3.36,11.29-8.34
			C362.45,150.76,352.07,152.59,352.07,148.47z"/>
		<path class="st0" d="M375.62,131.99l-6.51,1.73v7.78h-4.33v5.04h4.38v12.82c0,5.9,1.73,7.94,7.33,7.94c1.78,0,3.66-0.25,5.29-0.66
			v-5.24c-0.92,0.25-2.09,0.41-3.15,0.41c-2.24,0-3-0.92-3-4.17v-11.09h6.16v-5.04h-6.16V131.99z"/>
		<path class="st0" d="M392.86,146.59h-0.1c0.31-1.78,0.46-3.82,0.46-5.09h-6.16v25.29h6.51v-10.33c0-7.02,2.34-10.07,7.02-9.11
			l0.31-6.41C396.53,140.59,394.08,143.38,392.86,146.59z"/>
		<path class="st0" d="M417.03,150.1c-0.82,2.39-1.88,5.75-2.44,8.04h-0.05c-0.56-2.29-1.22-4.78-1.99-6.97l-3.41-9.67h-7.22
			l9.31,25.29l-0.86,2.44c-1.32,3.76-2.75,4.73-4.88,4.73c-1.22,0-2.29-0.2-3.46-0.56l-0.41,5.6c1.07,0.25,2.44,0.41,3.56,0.41
			c5.8,0,8.45-2.39,11.45-10.28L427,141.5h-6.97L417.03,150.1z"/>
		<path class="st0" d="M452.83,140.99c-7.68,0-12.92,5.7-12.92,13.58c0,9.01,4.63,12.72,11.8,12.72c7.58,0,12.92-5.7,12.92-13.63
			C464.64,144.96,460.01,140.99,452.83,140.99z M452.28,161.75c-3.77,0-5.65-2.65-5.65-7.84c0-5.19,2.85-7.43,5.75-7.43
			c3.82,0,5.54,2.65,5.54,7.53C457.92,159.15,455.48,161.75,452.28,161.75z"/>
		<path class="st0" d="M471.2,139.46v2.03h-4.43v5.04h4.43v20.25h6.46v-20.25h5.9v-5.04h-5.9v-2.14c0-3.36,1.27-4.83,4.12-4.83
			c0.97,0,2.14,0.1,3.15,0.46l0.46-5.34c-1.32-0.31-2.75-0.41-4.12-0.41C474.35,129.24,471.2,132.6,471.2,139.46z"/>
		<rect x="499.02" y="132.44" class="st0" width="6.61" height="34.34"/>
		<path class="st0" d="M527.15,140.94c-4.12,0-7.07,2.09-8.6,5.09l-0.05-0.05c0.25-1.32,0.35-3.31,0.35-4.48h-6.16v25.29h6.51
			v-12.21c0-4.43,2.59-8.19,5.9-8.19c2.39,0,3.1,1.58,3.1,4.22v16.18h6.46v-17.76C534.68,144.6,532.85,140.94,527.15,140.94z"/>
		<path class="st0" d="M552.83,153.1c-0.61,1.73-1.12,3.66-1.53,5.39h-0.1c-0.46-1.83-1.07-3.87-1.68-5.6l-4.02-11.4h-7.12
			l9.36,25.29h6.61l9.46-25.29h-6.92L552.83,153.1z"/>
		<path class="st0" d="M577.55,140.94c-7.58,0-11.85,5.7-11.85,13.43c0,8.9,4.48,12.92,12.52,12.92c3.15,0,6.36-0.56,9.06-1.63
			l-0.61-5.04c-2.19,1.02-4.88,1.58-7.38,1.58c-4.68,0-7.02-2.29-6.97-7.02h15.67c0.15-1.07,0.2-2.09,0.2-2.95
			C588.19,145.98,584.93,140.94,577.55,140.94z M572.41,150.76c0.36-3.05,2.24-5.04,4.94-5.04c2.75,0,4.48,1.88,4.37,5.04H572.41z"
			/>
		<path class="st0" d="M598.92,148.47c0-1.58,1.22-2.59,3.77-2.59c1.58,0,3.26,0.25,4.68,0.66l0.2-5.14
			c-1.53-0.25-3.15-0.46-4.63-0.46c-7.12,0-10.74,3.66-10.74,8.09c0,8.6,10.23,6.05,10.23,10.53c0,1.68-1.63,2.7-4.12,2.7
			c-1.93,0-3.87-0.36-5.44-0.76l-0.15,5.34c1.63,0.25,3.46,0.46,5.29,0.46c6.92,0,11.29-3.36,11.29-8.34
			C609.29,150.76,598.92,152.59,598.92,148.47z"/>
		<path class="st0" d="M622.47,131.99l-6.51,1.73v7.78h-4.32v5.04h4.37v12.82c0,5.9,1.73,7.94,7.33,7.94c1.78,0,3.66-0.25,5.29-0.66
			v-5.24c-0.92,0.25-2.09,0.41-3.16,0.41c-2.24,0-3-0.92-3-4.17v-11.09h6.16v-5.04h-6.16V131.99z"/>
		<path class="st0" d="M663.37,140.94c-4.27,0-7.07,2.6-8.24,5.09c-0.61-2.44-2.49-5.09-6.97-5.09c-3.76,0-6.82,1.99-8.34,5.09h-0.1
			c0.25-1.48,0.35-3.36,0.35-4.53h-6.16v25.29h6.51v-12.11c0-4.73,2.8-8.29,5.8-8.29c2.49,0,3,1.88,3,4.37v16.03h6.41v-12.11
			c0-4.93,2.95-8.29,5.8-8.29c2.39,0,3,1.68,3,4.37v16.03h6.51v-17.4C670.95,143.64,668.25,140.94,663.37,140.94z"/>
		<path class="st0" d="M688.03,140.94c-7.58,0-11.85,5.7-11.85,13.43c0,8.9,4.48,12.92,12.52,12.92c3.15,0,6.36-0.56,9.05-1.63
			l-0.61-5.04c-2.19,1.02-4.88,1.58-7.38,1.58c-4.68,0-7.02-2.29-6.97-7.02h15.67c0.15-1.07,0.2-2.09,0.2-2.95
			C698.67,145.98,695.41,140.94,688.03,140.94z M682.9,150.76c0.36-3.05,2.24-5.04,4.94-5.04c2.75,0,4.48,1.88,4.37,5.04H682.9z"/>
		<path class="st0" d="M718.55,140.94c-4.12,0-7.07,2.09-8.6,5.09l-0.05-0.05c0.25-1.32,0.35-3.31,0.35-4.48h-6.16v25.29h6.51
			v-12.21c0-4.43,2.59-8.19,5.9-8.19c2.39,0,3.1,1.58,3.1,4.22v16.18h6.46v-17.76C726.08,144.6,724.25,140.94,718.55,140.94z"/>
		<path class="st0" d="M740.78,131.99l-6.51,1.73v7.78h-4.32v5.04h4.37v12.82c0,5.9,1.73,7.94,7.33,7.94c1.78,0,3.66-0.25,5.29-0.66
			v-5.24c-0.92,0.25-2.09,0.41-3.16,0.41c-2.24,0-3-0.92-3-4.17v-11.09h6.16v-5.04h-6.16V131.99z"/>
	</g>
	<g>
		<g>
			<path class="st0" d="M77.51,54.27c-16.99,6.28-14.29,22.26-14.29,22.26c0.76-2.35,6.03-12.9,16.1-15.38
				c-11.26,11.52-8.07,25.93-8.07,25.93c0.38-1.84,3.59-16.54,14.76-19.63c-6.94,9.12-4.14,20.92-3.43,23.47
				c0-4.55,4.6-12.48,7.42-16.09c2.85,5.9,2.45,17.23,2.45,17.23h-2.11l2.06,13.4h-1.67l1.59,13.4h-1.38l1.74,17.14l-6.03,3.28v0.8
				h16.92v-0.8l-6.03-3.28l1.74-17.14H97.9l1.59-13.4h-1.66l2.05-13.4h-2.11c0,0-0.41-11.34,2.45-17.23
				c2.82,3.61,7.42,11.54,7.42,16.09c0.71-2.55,3.51-14.35-3.44-23.47c11.18,3.09,14.39,17.79,14.76,19.63
				c0,0,3.19-14.41-8.08-25.93c10.08,2.48,15.35,13.03,16.1,15.38c0,0,2.69-15.98-14.29-22.26c0.35,0,1.09-0.21,2.3-0.21
				c3.7,0,9.26,1.57,13.13,3.39c0,0-3.75-9.57-18.35-9.57c-0.58,0-1.05,0.03-1.05,0.03s0.5-3.64,7.14-3.64
				c2.2,0,4.02,0.36,4.02,0.36s-3.83-3.55-9.54-3.55c-6.64,0-10.93,5.31-11.66,6.04c-2.89-2.1,0.64-5.57,2.12-6.53
				c0,0-0.55-0.35-1.43-0.35c-1.08,0-2.06,0.66-2.4,1.05c0,0-0.33-2.82,2.21-3.97c-1.76,0-4.1,1.71-4.1,2.28
				c0-0.57-2.33-2.28-4.09-2.28c2.54,1.15,2.21,3.97,2.21,3.97c-0.34-0.39-1.32-1.05-2.4-1.05c-0.88,0-1.43,0.35-1.43,0.35
				c1.47,0.96,5,4.43,2.12,6.53c-0.73-0.73-5.03-6.04-11.67-6.04c-5.71,0-9.54,3.55-9.54,3.55s1.82-0.36,4.02-0.36
				c6.63,0,7.14,3.64,7.14,3.64s-0.47-0.03-1.05-0.03c-14.6,0-18.35,9.57-18.35,9.57c3.87-1.82,9.43-3.39,13.13-3.39
				C76.42,54.06,77.16,54.27,77.51,54.27 M144.66,129.05c-19.35,0-49.5,19.88-49.5,19.88l-0.05,0.03l-0.05-0.03
				c0,0-30.15-19.88-49.5-19.88c-10.46,0-15.74,3.6-17.37,5.11c2.64-1.57,10.06-1.47,10.06-1.47c6.7,0,16.19,2.44,23.08,5.73
				c15.27,7.28,27.24,14.5,27.24,14.5l0.15,0.09l-14.94,9.47c0,0-5.07-6.06-9.54-6.06c-2.89,0-3.41,1.69-3.41,2.45
				c0,0.75,0.46,2.32,2.37,2.32c1.9,0,1.99-1.32,1.99-1.76c0.25,0.1,0.44,0.06,0.69,0.42c0.25,0.36,3.19,5,3.19,5
				s-9.48,5.25-10.15,5.25c-0.49,0-1.42-1.15-2.34-1.15c-0.92,0-0.9,0.84-0.9,0.98c0,0.51,2.32,4.46,5.61,4.46
				c0.51,0,2.22,0.09,3.12-0.25c3.63-1.39,7.68-3.39,8.58-3.89c0,0,3.27,4.08,5.56,4.08c0,0,0.83,0.02,1.14,0.02
				c1.15,0,2.43-0.27,2.43-0.27s1.74,1.23,3.05,1.23c1.32,0,2.79-0.77,2.79-2.3c0-1.53-1.03-2.53-2.41-2.53
				c-1.38,0-2.07,1.2-2.07,1.7c-0.35,0-0.61,0.02-0.61,0.02l-4.62-4.87l16.89-10.38l16.9,10.38l-4.63,4.87c0,0-0.25-0.02-0.61-0.02
				c0-0.5-0.69-1.7-2.07-1.7c-1.38,0-2.4,1.01-2.4,2.53c0,1.53,1.46,2.3,2.78,2.3c1.32,0,3.06-1.23,3.06-1.23s1.28,0.27,2.43,0.27
				c0.31,0,1.14-0.02,1.14-0.02c2.29,0,5.56-4.08,5.56-4.08c0.9,0.5,4.95,2.5,8.58,3.89c0.9,0.34,2.61,0.25,3.12,0.25
				c3.28,0,5.61-3.95,5.61-4.46c0-0.14,0.02-0.98-0.9-0.98c-0.92,0-1.85,1.15-2.34,1.15c-0.67,0-10.15-5.25-10.15-5.25
				s2.93-4.64,3.18-5c0.25-0.35,0.44-0.31,0.69-0.42c0,0.44,0.08,1.76,1.99,1.76c1.9,0,2.37-1.57,2.37-2.32
				c0-0.76-0.52-2.45-3.41-2.45c-4.48,0-9.54,6.06-9.54,6.06l-14.94-9.47l0.15-0.09c0,0,11.98-7.21,27.24-14.5
				c6.89-3.29,16.38-5.73,23.08-5.73c0,0,7.43-0.1,10.06,1.47C160.4,132.65,155.13,129.05,144.66,129.05"/>
		</g>
		<g>
			<path class="st0" d="M190.22,212.65H0V0h190.22V212.65z M10.79,201.86h168.64V10.79H10.79V201.86z"/>
		</g>
	</g>
</g>
</svg>
