<?xml version="1.0" encoding="utf-8"?>
<!-- Generator: Adobe Illustrator 26.0.1, SVG Export Plug-In . SVG Version: 6.00 Build 0)  -->
<svg version="1.1" id="Layer_1" xmlns="http://www.w3.org/2000/svg" xmlns:xlink="http://www.w3.org/1999/xlink" x="0px" y="0px"
	 viewBox="0 0 1000 1000" style="enable-background:new 0 0 1000 1000;" xml:space="preserve">
<style type="text/css">
	.st0{clip-path:url(#SVGID_00000121977838640356068470000015156632624594888372_);fill:#04814F;}
	.st1{clip-path:url(#SVGID_00000121977838640356068470000015156632624594888372_);fill:#E9CA5E;}
	
		.st2{clip-path:url(#SVGID_00000121977838640356068470000015156632624594888372_);fill:none;stroke:#231F20;stroke-width:1.4594;stroke-miterlimit:10;}
	
		.st3{clip-path:url(#SVGID_00000028320003419277016680000005804086082998744241_);fill:url(#SVGID_00000072996638601808831060000012641182749866833080_);}
	
		.st4{clip-path:url(#SVGID_00000134969496500162426710000005819997216538332602_);fill:none;stroke:#231F20;stroke-width:1.4594;stroke-miterlimit:10;}
	.st5{fill:none;stroke:#020303;stroke-width:1.3271;stroke-linejoin:round;stroke-miterlimit:10;}
	.st6{clip-path:url(#SVGID_00000166651555281230439510000016738399761140447128_);fill:#FFFFFF;}
	.st7{clip-path:url(#SVGID_00000166651555281230439510000016738399761140447128_);fill:#231F20;}
	.st8{clip-path:url(#SVGID_00000166651555281230439510000016738399761140447128_);fill:#020303;}
	.st9{clip-path:url(#SVGID_00000166651555281230439510000016738399761140447128_);fill:#04814F;}
	
		.st10{clip-path:url(#SVGID_00000166651555281230439510000016738399761140447128_);fill:none;stroke:#231F20;stroke-width:1.3271;stroke-miterlimit:10;}
	.st11{clip-path:url(#SVGID_00000166651555281230439510000016738399761140447128_);fill:#1C7A62;}
	
		.st12{clip-path:url(#SVGID_00000166651555281230439510000016738399761140447128_);fill:none;stroke:#020303;stroke-width:1.3271;stroke-linejoin:round;stroke-miterlimit:10;}
</style>
<g>
	<g>
		<defs>
			<rect id="SVGID_1_" x="201.55" y="137.36" width="596.89" height="725.29"/>
		</defs>
		<clipPath id="SVGID_00000095302202522272421980000004460212717908729510_">
			<use xlink:href="#SVGID_1_"  style="overflow:visible;"/>
		</clipPath>
		<path style="clip-path:url(#SVGID_00000095302202522272421980000004460212717908729510_);fill:#04814F;" d="M798.42,358.31
			c-0.17-2.32-0.4-4.75-0.68-7.26c-1.55-13.4-4.66-25.92-9.25-37.21c-10.34-25.33-27.73-44.17-51.7-56.01
			c-19.59-9.65-43.72-14.57-71.72-14.64l-3.58-6.74l-0.45-0.76c-4.13-5.99-8.78-11.59-13.2-16.76c-8.47-9.85-15.94-17.22-23.5-23.15
			c-10.34-8.1-22.31-14.32-35.57-18.49c-8.57-2.68-18.15-4.82-29.27-6.54c-3.12-0.49-6.38-0.85-9.74-1.21
			c-5.76-0.62-11.72-1.26-17.54-2.75c-9.11-2.35-17.39-7.75-23.31-15.19c-1.02-1.29-2-2.68-2.88-4.17L500,137.35l-6.03,10.09
			c-0.89,1.49-1.85,2.88-2.85,4.15c-5.93,7.46-14.22,12.86-23.32,15.2c-5.84,1.5-11.79,2.13-17.56,2.76
			c-3.35,0.36-6.61,0.72-9.72,1.21c-11.15,1.72-20.72,3.86-29.28,6.54c-13.28,4.17-25.25,10.4-35.57,18.49
			c-7.59,5.95-15.05,13.31-23.5,23.15c-4.19,4.88-9.03,10.67-13.22,16.79l-4,7.46c-28.01,0.07-52.14,5-71.74,14.64
			c-16.75,8.27-30.4,20.06-40.57,35.06c-10.89,16.03-17.74,35.6-20.33,58.16c-0.32,2.8-0.57,5.45-0.75,8.52v503.06h596.9V380.44
			L798.42,358.31z M216.47,352.88c2.31-20.01,8.27-37.22,17.75-51.15c8.85-13.07,20.3-22.94,35-30.19
			c17.85-8.78,40.18-13.23,66.37-13.23h7.69l7.45-14.05c3.72-5.4,8.14-10.68,11.99-15.15c7.81-9.1,14.61-15.83,21.43-21.17
			c8.98-7.05,19.45-12.48,31.12-16.15c7.91-2.47,16.83-4.46,27.31-6.08c2.93-0.46,5.98-0.78,9.1-1.13
			c6.22-0.66,12.67-1.36,19.46-3.09c11.03-2.84,21.17-9.09,28.85-17.74c7.68,8.65,17.82,14.91,28.87,17.74
			c6.76,1.73,13.2,2.43,19.42,3.09c3.14,0.35,6.17,0.67,9.12,1.13c10.46,1.62,19.39,3.61,27.29,6.08
			c11.68,3.66,22.15,9.09,31.13,16.15c6.8,5.34,13.61,12.06,21.43,21.17c4.06,4.73,8.31,9.84,11.98,15.13l7.47,14.07h7.69
			c26.19,0,48.51,4.44,66.36,13.23c20.99,10.37,35.59,26.17,44.62,48.3c4.05,9.96,6.81,21.08,8.19,33.04
			c0.26,2.28,0.47,4.49,0.6,6.01v423.21h-51.42v-32.74h-76.73V715.7H343.97v33.65h-76.73v32.74h-51.42V380.31l-0.02-20.19
			C215.96,357.81,216.19,355.4,216.47,352.88"/>
		<path style="clip-path:url(#SVGID_00000095302202522272421980000004460212717908729510_);fill:#E9CA5E;" d="M773.43,679.56
			l-54.79-229.24l-219.99-34.28l-217.28,34.28l-54.79,229.24l-0.21,0.88h0.9h56.65c2.26,0.07,4.55,0.11,6.9,0.11
			c1.69,0,3.45-0.07,5.17-0.11h187.99c0.26,5.68,3.62,9.09,6.91,10.94c3.44,1.95,6.81,2.37,6.85,2.38l0.05,0h0.05h4.32h0.04l0.05,0
			c0.05-0.01,3.42-0.43,6.85-2.38c3.29-1.85,6.64-5.25,6.91-10.94h187.91c1.74,0.05,3.49,0.11,5.17,0.11c2.35,0,4.64-0.05,6.91-0.11
			h56.74h0.91L773.43,679.56z"/>
		
			<path style="clip-path:url(#SVGID_00000095302202522272421980000004460212717908729510_);fill:none;stroke:#231F20;stroke-width:1.4594;stroke-miterlimit:10;" d="
			M773.43,679.56l-54.79-229.24l-219.99-34.28l-217.28,34.28l-54.79,229.24l-0.21,0.88h0.9h56.65c2.26,0.07,4.55,0.11,6.9,0.11
			c1.69,0,3.45-0.07,5.17-0.11h187.99c0.26,5.68,3.62,9.09,6.91,10.94c3.44,1.95,6.81,2.37,6.85,2.38l0.05,0h0.05h4.32h0.04l0.05,0
			c0.05-0.01,3.42-0.43,6.85-2.38c3.29-1.85,6.64-5.25,6.91-10.94h187.91c1.74,0.05,3.49,0.11,5.17,0.11c2.35,0,4.64-0.05,6.91-0.11
			h56.74h0.91L773.43,679.56z"/>
		<path style="clip-path:url(#SVGID_00000095302202522272421980000004460212717908729510_);fill:#E9CA5E;" d="M704.11,437.32
			l-9.91-1.88c-36.12-6.83-127.52-35.7-194.2-22.9c-66.68-12.8-158.08,16.07-194.2,22.9l-9.91,1.88l-60.92,235.49
			c60.29,15.28,108.59,4.16,137.93-12.12c55.37-30.73,127.11,13.85,127.11,13.85s71.73-44.58,127.12-13.85
			c29.34,16.28,77.63,27.4,137.92,12.12L704.11,437.32z"/>
		
			<path style="clip-path:url(#SVGID_00000095302202522272421980000004460212717908729510_);fill:none;stroke:#231F20;stroke-width:1.4594;stroke-miterlimit:10;" d="
			M704.11,437.32l-9.91-1.88c-36.12-6.83-127.52-35.7-194.2-22.9c-66.68-12.8-158.08,16.07-194.2,22.9l-9.91,1.88l-60.92,235.49
			c60.29,15.28,108.59,4.16,137.93-12.12c55.37-30.73,127.11,13.85,127.11,13.85s71.73-44.58,127.12-13.85
			c29.34,16.28,77.63,27.4,137.92,12.12L704.11,437.32z"/>
		<path style="clip-path:url(#SVGID_00000095302202522272421980000004460212717908729510_);fill:#E9CA5E;" d="M688.15,423.4
			c0,0-118.36-34.97-188.09-13.07c-0.02,0-0.04-0.03-0.06-0.03c-0.02,0-0.04,0.03-0.05,0.03c-69.74-21.9-188.09,13.07-188.09,13.07
			l-64.3,243.8c42.08,15.14,84.78,3.59,107.16-5.93C438.27,610.92,500,672.83,500,672.83s61.72-61.91,145.28-11.56
			c22.39,9.52,65.09,21.07,107.16,5.93L688.15,423.4z"/>
		
			<path style="clip-path:url(#SVGID_00000095302202522272421980000004460212717908729510_);fill:none;stroke:#231F20;stroke-width:1.4594;stroke-miterlimit:10;" d="
			M688.15,423.4c0,0-118.36-34.97-188.09-13.07c-0.02,0-0.04-0.03-0.06-0.03c-0.02,0-0.04,0.03-0.05,0.03
			c-69.74-21.9-188.09,13.07-188.09,13.07l-64.3,243.8c42.08,15.14,84.78,3.59,107.16-5.93C438.27,610.92,500,672.83,500,672.83
			s61.72-61.91,145.28-11.56c22.39,9.52,65.09,21.07,107.16,5.93L688.15,423.4z"/>
	</g>
	<g>
		<defs>
			<path id="SVGID_00000031197113173278779200000000071590806215744908_" d="M321.63,417.4l-62.04,241.81
				c36.17,24.26,89.66-4.14,89.68-5.19c87.88-56.64,150.72,17.18,150.72,17.18s62.86-73.82,150.74-17.18
				c0.02,1.04,53.5,29.45,89.67,5.19L678.36,417.4c0,0-34.06-37.57-90.56-37.57c-25.16,0-54.76,7.45-87.8,28.98
				c-33.03-21.53-62.64-28.98-87.79-28.98C355.69,379.82,321.63,417.4,321.63,417.4"/>
		</defs>
		<clipPath id="SVGID_00000134971285813969901910000008860520991567250838_">
			<use xlink:href="#SVGID_00000031197113173278779200000000071590806215744908_"  style="overflow:visible;"/>
		</clipPath>
		
			<linearGradient id="SVGID_00000111148877152444461240000011712447014479502770_" gradientUnits="userSpaceOnUse" x1="-41.7742" y1="1460.0621" x2="-37.2137" y2="1460.0621" gradientTransform="matrix(105.4328 0 0 105.4328 4663.9541 -153406.7969)">
			<stop  offset="0" style="stop-color:#FDCA5E"/>
			<stop  offset="0.1157" style="stop-color:#FBC558"/>
			<stop  offset="0.2678" style="stop-color:#F4B845"/>
			<stop  offset="0.4394" style="stop-color:#E9A328"/>
			<stop  offset="0.5" style="stop-color:#E59A1B"/>
			<stop  offset="0.5606" style="stop-color:#E9A328"/>
			<stop  offset="0.7322" style="stop-color:#F4B845"/>
			<stop  offset="0.8843" style="stop-color:#FBC558"/>
			<stop  offset="1" style="stop-color:#FDCA5E"/>
		</linearGradient>
		
			<rect x="259.59" y="379.82" style="clip-path:url(#SVGID_00000134971285813969901910000008860520991567250838_);fill:url(#SVGID_00000111148877152444461240000011712447014479502770_);" width="480.82" height="303.66"/>
	</g>
	<g>
		<defs>
			<rect id="SVGID_00000057850505541432885110000000098417345738109573_" x="201.55" y="137.36" width="596.89" height="725.29"/>
		</defs>
		<clipPath id="SVGID_00000127738062221863020330000012155267864645750457_">
			<use xlink:href="#SVGID_00000057850505541432885110000000098417345738109573_"  style="overflow:visible;"/>
		</clipPath>
		
			<path style="clip-path:url(#SVGID_00000127738062221863020330000012155267864645750457_);fill:none;stroke:#231F20;stroke-width:1.4594;stroke-miterlimit:10;" d="
			M678.36,417.41c0,0-71.13-78.51-178.37-8.61c-107.22-69.9-178.37,8.61-178.37,8.61l-62.05,241.81
			c36.16,24.27,89.66-4.14,89.67-5.19C437.15,597.4,500,671.21,500,671.21s62.85-73.82,150.74-17.19
			c0.02,1.06,53.5,29.46,89.68,5.19L678.36,417.41z"/>
	</g>
	<line class="st5" x1="500" y1="672.83" x2="500" y2="408.42"/>
	<g>
		<defs>
			<rect id="SVGID_00000183231382818672571450000016264253195344385168_" x="201.55" y="137.36" width="596.89" height="725.29"/>
		</defs>
		<clipPath id="SVGID_00000026872820391876966590000011639630214089585051_">
			<use xlink:href="#SVGID_00000183231382818672571450000016264253195344385168_"  style="overflow:visible;"/>
		</clipPath>
		<path style="clip-path:url(#SVGID_00000026872820391876966590000011639630214089585051_);fill:#FFFFFF;" d="M495.89,729.32
			l1.1-4.7c-3.77,4.03-5.1,10.29-5.54,16.35c0.21,1.78,2.23,2.7,3.99,2.24c1.77-0.68,4-2.03,4.22-4.03
			C501.22,735.16,498.78,731.56,495.89,729.32 M498.33,737.39c-1.56,0.9-3.34,2.46-5.11,1.8c-0.22-1.57,0.22-3.82,1.11-5.38
			C495.66,734.7,498.33,735.16,498.33,737.39"/>
		<path style="clip-path:url(#SVGID_00000026872820391876966590000011639630214089585051_);fill:#FFFFFF;" d="M492.56,748.14
			l-2.45,7.17c2.45,17.69,2.89,36.51,4.44,54.65c-1.11,7.62,4.22,18.59-4.44,22.4c-5.33,1.35-12.43,0.68-15.31-3.59
			c4.88-3.58,13.54-2.68,13.76-10.98c-8.89-8.95-24.66-7.61-35.98-4.48c-5.33,0-5.79,6.28-7.33,9.86l5.11-1.12
			c4.67,0,7.99,2.92,11.32,6.05c-4.67,3.58-9.99,4.93-15.77,5.16c-2.45-0.22-4.9-2.46-5.78-4.93c-4.66-18.6-4.66-40.32-17.32-54.65
			l-1.11,6.04c3.78,12.77,10.67,24.65,10.22,38.75c-9.78,13.22-23.34,23.3-39.33,22.85c-2.88-0.9-4.43-3.8-4.22-6.73
			c7.78-6.26,19.11-12.31,21.33-22.61c4.44-23.08-1.33-46.36-1.12-69.43c1.12,1.12,2.01,2.68,3.33,2.91
			c-0.88-6.71-3.99-13.44-6.87-19.7l-2.23,5.37c2,26.2,3.55,53.97,4.67,80.85c-5.33,5.6-11.78,10.75-18.21,13.44
			c0.66-2.47,1.99-5.38,1.55-7.63c-2.22,3.37-1.34,8.74-5.55,10.98c-8.43,4.27-18.87,8.06-28.65,4.27
			c-6.43-3.14-9.77-9.86-9.55-16.81c-0.43-7.61,3.78-13.2,5.78-19.71c-0.45,1.13-1.79,3.37-3.55,2.92
			c-3.34-4.93,0.88-9.63,1.32-14.57c-2.66,5.38-6.66,12.77-2.22,18.82c-2.44,4.92-3.11,10.74-3.11,16.57
			c0,8.51,2.67,16.57,10.45,21.05c10.43,4.92,21.32-0.23,29.99-5.15l1.33,8.07c1.56,3.35,4.44,5.6,7.99,5.81
			c16.44-1.8,33.32-13.88,39.1-29.78c1.78,6.49,0.88,13.89,5.78,19.04c9.77,6.49,18.88-1.78,26.86-6.26c5.78,5.14,12,9.62,20.44,8.5
			c5.34-0.67,7.99-6.72,9.76-10.97c5.11-21.05-1.1-43.45-0.88-65.39l3.78,2.23C498.55,760.68,495.66,753.28,492.56,748.14
			 M463.46,819.58c2.89-1.12,8.88-0.68,12.21,1.11l-6.67,3.14L463.46,819.58z"/>
		<path style="clip-path:url(#SVGID_00000026872820391876966590000011639630214089585051_);fill:#FFFFFF;" d="M515.87,725.75
			c-2,0.68-1.55,2.91-2.44,4.25l2.88-0.67c3.34,3.59-3.32,7.18-4.21,10.08c4.21-2.68,7.33-6.94,7.33-11.86
			C518.98,725.97,517.43,725.75,515.87,725.75"/>
		<path style="clip-path:url(#SVGID_00000026872820391876966590000011639630214089585051_);fill:#FFFFFF;" d="M427.7,729.77
			c0-1.57-1.55-1.57-2.66-2.02c-2.02,0.22-3.12,2.46-3.12,4.49l2.89-0.67c2.45,3.8-3.33,7.39-4.43,10.07
			C424.37,738.96,427.93,734.92,427.7,729.77"/>
		<path style="clip-path:url(#SVGID_00000026872820391876966590000011639630214089585051_);fill:#FFFFFF;" d="M542.52,741.87
			l2.9,1.8c0.23-1.35,2-2.48,0.88-4.04c-4.21-1.56,0.22-4.93-1.33-8.06c-1.11-4.26-4.88-0.23-6.67,1.35c-3.11,2.91,0,6.94,2.67,8.5
			c-6.22,6.27-13.77,8.74-20.43,13.88C528.76,753.28,536.54,749.26,542.52,741.87 M539.65,734.92c0.44-1.34,3.1-2,3.1,0.23v1.35
			C541.65,737.16,540.53,735.83,539.65,734.92"/>
		<path style="clip-path:url(#SVGID_00000026872820391876966590000011639630214089585051_);fill:#FFFFFF;" d="M562.3,772.55
			l-1.34,3.36c6.44-1.8,12.43-5.6,18.65-6.94c0.89,19.47,3.33,38.96,2.89,58.45c8.22-17.91,1.78-40.31,2.01-59.57l30.64-12.32
			l0.89-2.69c-10.66,4.47-20.87,6.95-31.54,11.42c-1.34-4.71-1.56-10.08-1.34-14.79c1.34,0.44,2.44,2.91,3.78,2.46
			c-1.78-6.71-4-13.88-7.34-19.26l-2.66,7.63c1.78,8.27,2.45,17.24,2,25.74L562.3,772.55z"/>
		<path style="clip-path:url(#SVGID_00000026872820391876966590000011639630214089585051_);fill:#FFFFFF;" d="M376.62,748.81
			c0.22,1.36,1.55,2.48,3.1,2.24c2.45-1.34,2.45-4.25,3.12-6.49l-3.12,2.9c-4.43-4.25,0.45-9.63,0.68-14.54
			C377.96,737.62,375.51,742.99,376.62,748.81"/>
		<path style="clip-path:url(#SVGID_00000026872820391876966590000011639630214089585051_);fill:#FFFFFF;" d="M458.35,747.7
			c0.44,2.23,0.23,5.37,3.34,4.92c2.66-1.13,2.44-4.25,3.11-6.49c-1.11,1.12-1.33,3.13-3.11,2.91c-3.78-4.47-0.23-9.85,0.89-14.55
			C460.13,738.52,458.79,742.99,458.35,747.7"/>
		<path style="clip-path:url(#SVGID_00000026872820391876966590000011639630214089585051_);fill:#FFFFFF;" d="M594.95,749.71
			c0.22,1.57,1.33,3.13,3.32,2.91c2.23-1.34,2.23-4.25,3.12-6.49l-3.12,2.9c-3.77-4.03-0.22-10.51,0.45-14.55
			C596.06,738.96,594.73,744.12,594.95,749.71"/>
		<path style="clip-path:url(#SVGID_00000026872820391876966590000011639630214089585051_);fill:#FFFFFF;" d="M506.33,745.91
			l-2.89,8.05c2.89,28.44,5.1,58.46,5.56,86.68c2.44-4.93,3.77-10.3,3.99-16.13l-3.32-61.59l3.77,2.69
			C511.66,758.67,509.44,752.17,506.33,745.91"/>
		<path style="clip-path:url(#SVGID_00000026872820391876966590000011639630214089585051_);fill:#FFFFFF;" d="M426.36,747.71
			c-2.88,5.14-4.65,10.73-4.65,16.79c0.44,1.57,2,1.57,3.11,2.01c2-0.44,4.21-1.34,4.89-3.58c1.77-3.81-0.22-8.06-3.56-10.31
			l1.33-4.91H426.36z M428.59,759.79c-0.67,1.34-2.23,2.69-4,2.46h-1.11c-0.89-1.79,0.45-3.82,1.11-5.38
			C425.92,757.55,427.26,758.67,428.59,759.79"/>
		<path style="clip-path:url(#SVGID_00000026872820391876966590000011639630214089585051_);fill:#FFFFFF;" d="M634.93,756.21
			c-3.11,4.7-5.55,10.29-5.34,16.79c0.22,2.02,2.44,2.02,4,1.79c2.66-0.67,4.66-3.36,4.22-6.27c0.66-2.92-1.34-5.6-3.79-7.17
			C633.82,759.34,635.81,757.55,634.93,756.21 M636.48,768.52c-0.67,1.79-2.89,2.46-4.66,2.46c-1.56-1.79,0-3.81,0.66-5.38
			C634.03,766.06,635.37,766.95,636.48,768.52"/>
		<path style="clip-path:url(#SVGID_00000026872820391876966590000011639630214089585051_);fill:#FFFFFF;" d="M539.86,761.57
			c-1.99-1.79-3.99-3.36-6.65-4.03l-2.89,6.27l7.11,4.93l2.88-4.93l6.67,4.26c1.33-2.02,2.87-4.04,3.33-6.5
			c-2.22-2.24-4.88-3.13-7.1-4.7C542.09,758.44,541.42,760.91,539.86,761.57"/>
		<path style="clip-path:url(#SVGID_00000026872820391876966590000011639630214089585051_);fill:#FFFFFF;" d="M434.15,779.05
			c8.66-2.69,17.98-6.49,22.65-15.46c1.11,0.9,2.88,2.47,4.22,0.9c2.89,2.92,3.11,7.39,4.65,10.74c2.24-4.46,2.02-10.29,5.12-14.32
			l2.89,1.8c0.67-0.68,0.67-1.58,1.11-2.25c-0.45-1.79-1.77-3.81-4-3.35c-3.76,3.13-2.88,9.18-5.12,11.88
			c-1.1-3.81-1.76-8.98-6.64-10.32C453.69,769.41,441.7,773,434.15,779.05"/>
		<path style="clip-path:url(#SVGID_00000026872820391876966590000011639630214089585051_);fill:#FFFFFF;" d="M368.62,767.41
			c5.11,0.44,11.99-0.91,16.22,1.57c-4.89,4.02-10.88,5.6-15.33,9.84c9.33-1.79,20.21-6.93,22.42-17.24
			c-4.43-2.46-10.21-1.78-15.75-1.78C371.73,759.56,370.4,764.27,368.62,767.41"/>
		<path style="clip-path:url(#SVGID_00000026872820391876966590000011639630214089585051_);fill:#FFFFFF;" d="M611.6,778.82
			c0.44,1.12,1.55,2.92,3.11,2.24c2.44-1.34,2.44-4.24,3.33-6.49c-1.1,0.66-1.77,2.9-3.56,2.9c-3.55-4.47,0.45-9.85,0.89-14.54
			C613.16,767.86,610.49,772.79,611.6,778.82"/>
		<path style="clip-path:url(#SVGID_00000026872820391876966590000011639630214089585051_);fill:#FFFFFF;" d="M554.96,767.18
			c-3.11,6.71-7.55,13.42-12.21,19.25l-7.33-7.61c0.89-1.35,2.67-0.45,4-0.67v-0.68c-3.33-2.45-6.89-5.14-10.44-6.04
			c-5.32,9.4,7.11,14.11,10,21.5c-4.21,7.39-8.88,15.23-7.11,24.85c0.66,3.13,4.44,4.26,7.11,3.13c5.99-2.23,13.33-7.16,13.55-14.78
			c0-6.72-2.23-12.54-6.89-17.48C549.85,781.95,556.3,775.46,554.96,767.18 M549.85,805.25c-3.77,4.26-8.87,7.84-14.65,6.73
			c-2.21-1.8-0.22-4.26,0.22-6.04l6.45-10.08C545.42,797.85,547.86,801.88,549.85,805.25"/>
		<path style="clip-path:url(#SVGID_00000026872820391876966590000011639630214089585051_);fill:#FFFFFF;" d="M597.84,781.74
			c1.55-2.02,2.45-4.26,2.89-6.5c-2-2.23-4.45-3.36-7.11-4.47l-2.9,6.26L597.84,781.74z"/>
		<path style="clip-path:url(#SVGID_00000026872820391876966590000011639630214089585051_);fill:#FFFFFF;" d="M446.58,792.71
			l35.54-14.33l0.66-2.23c-11.78,4.24-23.54,8.04-34.87,12.97L446.58,792.71z"/>
		<path style="clip-path:url(#SVGID_00000026872820391876966590000011639630214089585051_);fill:#FFFFFF;" d="M520.99,799.65
			c3.11-0.45,2.88-4.03,3.55-6.49c-1.11,1.12-1.34,3.58-3.55,2.91c-3.11-4.47,0.44-10.08,1.11-14.12c-2.67,4.48-4,9.64-3.77,15.24
			C518.1,798.31,519.66,800.33,520.99,799.65"/>
		<path style="clip-path:url(#SVGID_00000026872820391876966590000011639630214089585051_);fill:#FFFFFF;" d="M643.36,809.96
			c0.22-8.28-2.45-16.36-9.76-20.85c-3.78-1.34-7.11,1.12-9.55,4.04c-2.22,3.14-2.88,7.4-2.44,10.97c2.88,8.74,15.76,0.9,18.88,8.74
			c-9.12,11.19-20.43,19.92-33.75,22.62c-3.33-0.22-7.34-0.45-9.55-3.14c4.88-4.26,11.54-8.29,12.43-15.01
			c3.78-8.95-3.56-14.99-5.33-22.16l2.88,0.67c-2.67-3.37-5.55-6.96-8.66-9.42c-4.45,11.2,7.33,18.82,9.55,28.68
			c-3.99,5.15-9.32,8.06-14.43,11.65c-2.22-7.17,1.56-14.11,1.99-20.38c-3.11,6.94-4.43,14.55-5.1,22.4
			c-5.33,3.36-11.33,5.59-18,6.5c-3.56,0.22-6.23-1.8-8.66-4.26c4.67-3.58,9.55-8.06,10.66-13.67c3.78-8.95-3.77-14.99-5.55-22.16
			l2.9,0.67c-2.44-3.37-5.33-6.96-8.44-9.42c-4.67,10.54,5.77,17.93,9.1,26.88v2.47c-3.56,3.58-7.55,6.95-11.55,8.73
			c-0.43-6.93,2.23-12.99,2.68-18.57c-3.11,6.25-4.46,13.43-5.12,20.82c-8.22,5.15-19.55,12.09-28.88,5.15
			c-7.54-6.94-1.77-18.36-1.1-25.97c-1.34,2.24-2.01,4.91-2.89,7.37c-2.23,9.42-3.78,21.96,5.1,28.68
			c10.45,4.03,20.44-2.47,29.11-8.06c1.34,2.67,2.45,5.37,5.11,7.39c9.33,5.37,19.31-1.13,27.53-5.6c1.34,2.9,3.78,5.16,6.23,6.94
			c8.88,3.8,17.1-1.12,23.98-5.82C630.7,829.67,643.8,822.05,643.36,809.96 M634.93,800.99c-2.89-1.11-8.67,1.36-8.88-3.13
			c1.11-1.8,3.77-1.12,5.31-0.67c1.34,0.67,2.45,2,3.57,3.13V800.99z"/>
		<path style="clip-path:url(#SVGID_00000026872820391876966590000011639630214089585051_);fill:#FFFFFF;" d="M386.39,808.16
			c0.44,1.8,1.11,4.03,3.56,3.35c1.99-1.34,2.89-3.8,2.89-6.27c-1.12,0.9-1.33,3.15-3.11,2.92c-4-4.49,0.22-9.85,0.88-14.56
			C388.18,797.86,386.17,802.55,386.39,808.16"/>
		<path style="clip-path:url(#SVGID_00000026872820391876966590000011639630214089585051_);fill:#FFFFFF;" d="M368.62,819.13
			c0.22,1.12,1.34,2.92,3.11,2.24c2.44-1.34,2.44-4.25,3.12-6.49c-0.88,0.67-1.56,2.9-3.33,2.9c-3.57-4.48,0.21-9.85,0.88-14.55
			C369.96,807.94,367.51,813.3,368.62,819.13"/>
		<path style="clip-path:url(#SVGID_00000026872820391876966590000011639630214089585051_);fill:#FFFFFF;" d="M424.15,805.47
			c0.22-1.8-1.78-2.68-3.54-2.24c-1.57,0.89-2.44,2.47-2.44,4.26l2.89-0.69c2.44,3.58-2.44,6.73-4.45,9.63
			C419.93,814.65,423.93,810.17,424.15,805.47"/>
		<polygon style="clip-path:url(#SVGID_00000026872820391876966590000011639630214089585051_);fill:#FFFFFF;" points="
			624.71,849.14 654.7,827.42 654.7,823.84 624.71,846.22 		"/>
		<path style="clip-path:url(#SVGID_00000026872820391876966590000011639630214089585051_);fill:#FFFFFF;" d="M520.76,837.05
			c-1.78,0.89-2.44,2.46-2.44,4.25l2.67-0.67c3.78,3.59-3.33,6.94-4,10.07c4-2.47,6.66-6.49,7.32-10.97
			C524.54,837.72,522.76,836.6,520.76,837.05"/>
		<path style="clip-path:url(#SVGID_00000026872820391876966590000011639630214089585051_);fill:#231F20;" d="M343.07,349.7
			c-3.36-0.35-3.69-4.55-6.69-5.24c-6.5,3.28-7.8,10.77-10.7,16.45c-0.82,1.58-2.44,3.39-4.53,2.93c-4.4-2.96-2.41-9.65-2.63-13.96
			c-1.74,4.19-1.76,9.98-0.03,14.3c0.92,1.37,1.96,3.41,4.05,3.19c6.61-3.62,5.11-12.14,10.69-17.01c4.65-4.98,4.62,4.67,9.27,3.89
			c2.66-0.22,5.22-0.79,7.06-2.7c-0.46,3.29-1.51,7.82,0.79,10.78c5.1,1.95,8.34-3.72,12.18-5.53c2.41,6.71-6.85,5.65-7.32,10.07
			l6.61-3.83c0.57,1.81,0.81,3.63,2.42,4.99c1.5,1.48,4.05,1.38,5.91,0.93c8.94-4.07,18.34-12.91,20.34-22.55l8-4.86
			c1.97,0,3.81,2.28,6.14,2.4c5.9,1.26,10.54-3.15,13.92-7.35l0.57,2.95c0.91,1.81,3,1.72,4.86,1.72c3.24-0.56,6.03-4.19,7.89-6.23
			c0.23,1.35,0.57,2.6,1.61,3.63c1.16,0.79,2.43,0.46,3.83,0.35c2.55-0.9,3.36-3.5,4.53-5.44c0.81,1.58,1.94,3.86,4.03,4.1
			c2.32,0.11,4.53-1.23,5.69-2.71c0.1,3.74,1.14,7.84,4.26,10.22c5.55,0.81,5.68-5.77,7.66-8.95c1.4-2.49,3.61-6.47,7.08-5.99
			c1.96,4.2,6.12,7.84,11,8.2c3.54,0.48,7.09,0.75,10.64,0.89l0.56-1.53l-0.14-2.81c-5.55-0.3-11.04-1.05-16.27-2.48
			c-2.53-2.04-2.75-5.91-6.12-6.71c-6.13,2.02-7.31,8.6-9.88,13.37c-0.81,1.6-2.55,3.4-4.64,2.6c-3.11-2.05-3.35-6.14-2.87-9.77
			c2.92-10.9-0.29-22.26-0.38-33.38l0.36-0.34c0.58,0.34,1.03,1.6,1.85,1.14c-0.8-3.41-2.31-6.59-3.79-9.76
			c0.34-0.68-0.35-1.82,0.57-2.27c6.59,5.81,10.85,12.86,13.63,20.47c2.98,7.05-0.04,14.42-3.65,20.21
			c3.25-2.95,4.99-6.69,5.82-10.77c2-14.31-4.68-27.15-16.6-35.01c-1.51,3.17,0.23,6.69-0.83,9.98c0.2,12.37,2.14,24.88,2.11,37.7
			l-1.05,1.7c-1.5,1.14-3.13,1.82-5.22,1.58c-1.97-0.57-2.43-2.73-2.07-4.78h-0.35c-1.28,2.05-2.68,4.55-4.76,5.79
			c-1.27,0.57-3.14,1.01-4.29-0.36c-1.15-1.14-0.68-2.61-0.34-3.98c-2.55,2.04-4.52,5.78-7.88,6.57c-1.75,0.55-4.07,0.55-5.45-0.69
			c-1.04-1.15-0.33-2.51-0.33-3.87c-2.21,1.02-3.72,3.63-5.81,5.33c-3.12,2.15-8.13,3.61-11.36,1.33c2.67-2.26,6.61-3.04,7.19-7.02
			c-4.62-3.07-11.34-1.95-16.22-0.37c-3.35,0.67-5.91,3.27-6.15,6.68c1.05-0.56,1.97-1.12,3.24-1.12c2.09-0.35,3.7,1.03,5.21,2.28
			l-6.37,3.62c-1.05-1.48-1.85-3.3-3.58-4.1c-1.5-0.69-3.47-0.35-4.52,0.89c-1.74,2.15-3.37,4.64-2.68,7.59
			c1.96,3.19,6.48,0.82,9.15,0.48l0.1,1.47c-5.11,7.14-12.43,15.54-21.81,15.85c-1.28-0.46-2.79-1.49-3.24-2.85
			c3.24-2.26,6.85-3.73,10.09-5.87l0.71-1.47c-3.49,1.69-6.85,3.73-10.22,5.76h-0.81l0.25-4.32c3.48-3.74,8-6.79,11.26-10.87
			c1.05-2.84,1.87-6.92-0.67-9.31c-4.29-2.06-9.49-1.95-13.19-5.14c0.81-0.45,2.07-0.33,2.44-1.12c-2.09-0.93-4.52-1.61-6.72-1.61
			l0,3.06c3.22,5.12,9.6,6.73,15.15,8.21c1.04,0.57,2.78,0.79,3.01,2.28c-6.28,6.23-13.12,12.46-20.55,16.64
			c-1.27,0.45-2.55,0.34-3.47-0.69c-1.04-4.32-0.22-9.31,3.85-12.03c0.35,1.25-0.59,2.73-0.59,3.74c1.39-1.92,2.08-3.96,2.33-6.23
			c0.22-0.8-0.11-1.82-0.93-1.83C351.43,343.81,348.76,350.39,343.07,349.7 M403.82,334.18l-3.49,2.27l-3.35-1.95
			C399.07,333.93,401.62,333.5,403.82,334.18 M381.55,344.23l-0.12-1.03c1.28-1.24,3.37-1.12,4.51,0.59
			C384.68,344.46,383.06,344.58,381.55,344.23"/>
		<path style="clip-path:url(#SVGID_00000026872820391876966590000011639630214089585051_);fill:#231F20;" d="M506.87,338.9
			c8.14-0.85,16.03-2.7,23.33-5.55c0.47,1.14,0.57,2.5,1.15,3.53c1.03,2.16,3.11,2.85,5.44,2.62c1.38-0.33,2.32-1.7,2.89-2.83
			c1.17-2.95,0.96-7.04-0.88-9.41c-0.36,1.01-0.71,2.03-1.06,2.94c-0.35,1.82,2.08,3.3,0.45,4.78c-1.28,0.44-3.36,0.55-4.63-0.37
			c-1.61-1.36-1.27-3.85-1.27-5.56c-7.87,2.85-16.68,4.83-25.68,5.68l-0.15,3.1L506.87,338.9z"/>
		<path style="clip-path:url(#SVGID_00000026872820391876966590000011639630214089585051_);fill:#231F20;" d="M596.56,299.45
			c0.8-0.11,1.75-0.67,1.85-1.57c0.81-2.16-0.45-3.86-1.96-5.24l0.59-2.26c-2.22,1.35-2.44,4.76-3.04,7.48
			C594,298.99,595.39,299.78,596.56,299.45 M595.52,294.79c0.81,0.35,1.73,0.91,2.2,1.71c-0.36,0.79-1.5,1.36-2.55,0.9
			C594.48,296.61,595.29,295.59,595.52,294.79"/>
		<path style="clip-path:url(#SVGID_00000026872820391876966590000011639630214089585051_);fill:#231F20;" d="M418.62,297.77
			c0.81-2.03,0.12-4.43-1.85-5.57c0.24-0.79,0.93-1.7,0.71-2.28c-0.93,0.46-1.05,1.59-1.51,2.39c-0.71,2.27-2.56,5.67-0.37,7.37
			C416.76,299.58,417.92,298.79,418.62,297.77 M415.96,294.81c0.92,0,1.61,0.57,2.31,1.26c-0.7,0.79-1.63,1.46-2.68,1.46
			C415.14,296.63,415.48,295.61,415.96,294.81"/>
		<path style="clip-path:url(#SVGID_00000026872820391876966590000011639630214089585051_);fill:#231F20;" d="M583.91,302.03
			c1.17-0.46,1.4-1.92,1.64-3.07c-0.35,0.45-0.93,1.36-1.62,1.25c-1.97-2.17-0.1-5.34,0.25-7.26c-0.93,2.15-2.33,4.19-1.98,6.81
			C582.19,300.89,582.65,301.8,583.91,302.03"/>
		<path style="clip-path:url(#SVGID_00000026872820391876966590000011639630214089585051_);fill:#231F20;" d="M616.24,302.34
			c0.93-0.79,0.93-1.81,1.28-2.84l-1.51,1.14c-2.54-1.95,0.01-5,0.25-7.26c-1.28,2.15-2.55,4.65-1.98,7.49
			C614.27,301.77,615.31,302.56,616.24,302.34"/>
		<path style="clip-path:url(#SVGID_00000026872820391876966590000011639630214089585051_);fill:#231F20;" d="M558.66,303.33
			c1.04-0.68,1.51-1.92,1.51-3.17c-0.35,0.57-0.94,1.46-1.62,1.35c-1.86-2.27-0.11-5.11,0.48-7.38c-1.29,2.16-2.45,4.43-2.23,7.27
			C557.04,302.3,557.49,303.33,558.66,303.33"/>
		<path style="clip-path:url(#SVGID_00000026872820391876966590000011639630214089585051_);fill:#231F20;" d="M403.66,304.43
			c1.51-0.67,1.74-2.26,2.09-3.63c-0.57,0.46-0.93,1.81-2.08,1.69c-1.28-2.26,0.23-5.09,0.7-7.37c-0.92,2.28-2.21,4.42-2.21,7.15
			C402.38,303.07,402.38,304.65,403.66,304.43"/>
		<path style="clip-path:url(#SVGID_00000026872820391876966590000011639630214089585051_);fill:#231F20;" d="M550.26,327.95
			c-0.46,1.25-1.51,2.49-1.28,3.74l1.51-0.34c3.02-0.45,4.86,1.94,6.83,3.88c-4.05,1.68-8.47,2.24-12.52,3.82
			c-7.41,0.77-9.88,11.9-17.87,10.63c-5.43-4.1,0.03-10.33,0.5-14.75c-2.09,3.17-3.6,6.57-3.84,10.43
			c-0.25,3.18,1.25,6.03,3.92,7.62c5.55,1.94,7.99-4.41,12.05-7.02c6.04-4.52,13.69-5.19,20.53-7.66c3.01,3.53,6.82,5.81,11.34,5.36
			c1.97-0.57,3.14-2.6,4.07-4.19c2.91-10.44-0.64-21.36-0.16-32.02c4.83,8.07,11.2,15.47,11.98,25.23
			c-0.24,4.77-4.07,8.72-8.02,11.33l0.01-7.03l-0.69,1.7c-0.94,3.17,0.22,7.83-3.73,9.07c1.16-0.11,2.09-0.79,3.02-1.24
			c0.57,0.24,0.34,0.79,0.34,1.14c1.15,3.41,1.83,8.62,6.46,8.87c4.76-2.94,4.19-8.95,8.95-12.12c1.04-0.46,2.66-1.14,3.59,0
			c2.08,3.98,4.97,9.33,10.52,8.88c1.74-0.33,3.61-1.46,4.52-3.05c1.63-2.38,0.48-5.68-0.21-7.84c4.64,3.99,8.2,11.83,15.39,10.6
			c2.54-0.67,3.01-3.28,3.72-5.33l0.57,3.07c2.08,5.91,8.66,10.12,14.34,11.28l0.35-2.72c-0.22-1.35-1.97-1.93-3-2.62
			c-1.85-1.81-5.09-2.85-5.44-5.46l9.16-1.57c1.03,2.27,3.01,4.66,5.08,6.03c1.39,0.57,3.47,1.25,4.18-0.68
			c0.93-2.94,0.83-6.58-1.71-8.75c-1.75-1.14-3.95-1.48-6.04-1.03c-1.49-4.44-2.06-9.43-2.05-14.2l8.71-0.77
			c0.81,0.11,1.27-1.03,1.04-1.48l-9.85,0.88c-0.57-5.45-1.02-11.71-0.77-17.49l1.96,1.83c-0.68-3.76-2.42-7.16-3.68-10.8
			c-0.58,0.23-0.82,1.46-1.29,2.26c0.68,7.84,0.42,16.35,1.45,24.19c-2.09,1.13-6.03-0.36-6.49,2.48l6.48-0.66
			c0.8,4.66,0.91,9.77,1.83,14.2l-6.38,1.34c-2.2,0.57-3.25,2.94-3.72,4.76l-0.46-0.57c-4.96-11.25-2.71-25.55-4.43-38.27
			c-0.68-4.09-1.13-8.87-2.75-12.05l-0.94,2.96c2.17,13.53,2.71,27.71,2.58,42.13c-0.01,1.36-1.29,2.26-2.45,2.83
			c-2.31,0.67-4.29-0.46-6.02-1.49c-9.71-9.79-20.23-20.38-30.63-28.69c8.01-4.41,17.16-6.09,26.2-8c2.66,0.01,6.49-1.24,7.87,1.38
			c-2.44,2.95-6.5,5.32-6.85,9.29c2.33-4.65,8.93-6.57,8.72-12.24c-1.15-2.84-5.2-2.05-7.88-1.94c-9.73,1.66-19.69,3.12-28.05,8.2
			c-0.93,1.94-1.06,4.43-0.82,6.6l16.18,16.04c2.42,2.84,5.08,5.69,5.77,9.32c-1.51,1.36-3.36,1.92-5.56,1.58
			c-5.09-0.35-5.77-6.03-8.9-8.99c-6.27-0.69-8.02,6.57-10.46,10.43c-0.69,1.25-1.97,3.27-3.94,2.59c-3.01-1.03-3.47-4.32-3.81-7.04
			c3.37-2.15,7.32-4.98,8.82-8.83c3.51-13.63-6.43-24.2-12.3-35.35c-1.51-1.7-1.39-4.55-3.25-5.69c-0.69,1.71-1.85,3.96-0.24,5.55
			c0.79,11.71,1.92,23.18,2.13,34.99c-0.13,1.02-0.36,2.15-1.51,2.5c-3.25,1.24-6.84-0.02-9.04-2.18c2.67-1.36,6.84-1.01,7.19-4.88
			c-1.84-1.81-4.05-3.19-6.47-3.97C560.35,326.72,554.45,326.03,550.26,327.95 M654.46,351.26v0.56c-1.51-0.11-2.9-1.02-3.82-2.39
			C652.16,349.43,653.66,350.11,654.46,351.26 M564.61,332.64l-3.48,1.24l-3.24-2.95C560.33,331.04,562.65,331.28,564.61,332.64"/>
		<path style="clip-path:url(#SVGID_00000026872820391876966590000011639630214089585051_);fill:#231F20;" d="M427.18,303.36
			c-3.13,3.39-7.19,5.31-10.45,8.25c4.18-1.81,8.36-4.18,11.37-8.15l1.49,0.68c0.13-0.67,1.17-1.46,0.36-2.15
			c-1.73-0.23-0.35-1.82-0.57-2.72c0.7-3.41-3.01-1.37-3.6,0.1C424.41,300.85,425.9,302.79,427.18,303.36 M428.23,300.07l-0.11,1.02
			c-0.59-0.22-1.17-0.57-1.51-1.03C426.72,299.49,428.35,298.81,428.23,300.07"/>
		<path style="clip-path:url(#SVGID_00000026872820391876966590000011639630214089585051_);fill:#231F20;" d="M654.92,308.33
			c1.17-2.37-0.45-4.54-1.83-6.24c0.22-0.67,0.93-1.48,0.7-2.16c-2.09,2.16-3.85,5.78-2.34,8.86
			C652.48,309.25,654.1,309.58,654.92,308.33 M652.27,304.35c0.93,0.47,1.97,1.37,2.19,2.28c-0.82,0.34-1.74,0.68-2.54,0.34
			C651.22,306.17,651.92,305.15,652.27,304.35"/>
		<path style="clip-path:url(#SVGID_00000026872820391876966590000011639630214089585051_);fill:#231F20;" d="M633.96,303.29
			c1.16,1.7,1.61,3.64,2.07,5.57c-0.81,0.67-1.39,1.59-1.15,2.84c0.34-0.35,1.62-1.14,2.19,0l-2.33,0.9
			c-0.81,4.65,1.37,9.43,1.24,14.08c0.71-4.08-0.2-8.3-1.13-12.26c1.28-0.67,2.9-0.57,4.41-0.79c1.51-2.04-1.5-3.63-2.54-4.88
			l1.41-5.11c0.58-2.04,1.73,0,2.42,0.36l0.24-0.11c0.46-1.03-0.11-2.05-0.92-2.85c-3.01-0.35-2.22,3.63-3.26,5.45
			c-0.93-2.27-1.14-5.34-3.94-6.37l-1.16,1.71C632.1,302.49,632.92,303.86,633.96,303.29"/>
		<path style="clip-path:url(#SVGID_00000026872820391876966590000011639630214089585051_);fill:#231F20;" d="M440.25,309.4
			c1.27-0.68,1.52-2.15,1.86-3.4c-0.58,0.33-0.8,1.7-1.85,1.47c-1.61-2.16,0.12-5.22,0.48-7.26c-1.17,2.38-2.21,4.76-1.99,7.71
			C438.87,308.61,439.33,309.52,440.25,309.4"/>
		<path style="clip-path:url(#SVGID_00000026872820391876966590000011639630214089585051_);fill:#231F20;" d="M607.09,300.61
			c-6.13,1.12-12.52,1.67-18.43,3.26l-0.35,1.46l18.43-3.58L607.09,300.61z"/>
		<path style="clip-path:url(#SVGID_00000026872820391876966590000011639630214089585051_);fill:#231F20;" d="M534.32,309.63
			l18.31-5.06l0.59-1.25c-3.82,0.9-7.64,1.8-11.36,2.7C539.43,307.37,535.13,306.46,534.32,309.63"/>
		<path style="clip-path:url(#SVGID_00000026872820391876966590000011639630214089585051_);fill:#231F20;" d="M409.91,307.73
			l1.16,0.8c0.46-0.46,0.46-1.14,0.46-1.81l-0.8-1.03c-3.12,0.78-2.44,4.42-3.49,6.69c-0.47-1.59-0.92-3.07-2.19-4.44
			c-0.58-0.23-1.49-0.9-1.97,0c-0.45,0.79-1.5,1.81-0.23,2.5c0.57,0.34,1.28,0.35,1.74-0.11c1.38,1.48,2.07,3.42,1.95,5.34
			c-3.13,3.85-7.89,6.45-11.26,9.5c3.02-1.46,6.03-2.82,8.59-5.19C408.15,316.82,407.11,311.36,409.91,307.73"/>
		<path style="clip-path:url(#SVGID_00000026872820391876966590000011639630214089585051_);fill:#231F20;" d="M346.53,311.44
			c-0.57,0.46-1.04,1.82-2.09,1.82c-1.27-2.28,0.26-5,0.72-7.39c-1.4,2.73-2.9,6.46-1.3,9.31
			C345.94,315.19,345.94,312.8,346.53,311.44"/>
		<path style="clip-path:url(#SVGID_00000026872820391876966590000011639630214089585051_);fill:#231F20;" d="M545.32,313.41
			l18.55-4.73l0.34-1.13c-6.26,1.24-12.3,2.69-18.2,4.39L545.32,313.41z"/>
		<path style="clip-path:url(#SVGID_00000026872820391876966590000011639630214089585051_);fill:#231F20;" d="M390.89,314.73
			l1.16,0.46c2.66-2.15-2.44-2.38-0.21-4.76c0-0.8,0.23-2.05-0.93-1.94c-1.62,0.68-3.25,2.39-3.25,4.2
			c0.23,1.02,1.39,1.25,1.97,1.82c-2.9,3.74-7.55,5.88-10.33,8.94C383.58,321.64,387.75,318.36,390.89,314.73 M389.05,311.43
			c0.12-0.78,1.63-1.36,1.62-0.21l-0.11,1.02C389.97,312.13,389.5,311.78,389.05,311.43"/>
		<path style="clip-path:url(#SVGID_00000026872820391876966590000011639630214089585051_);fill:#231F20;" d="M460.85,319.45
			c0.82-1.02,1.51-2.16,1.74-3.4c-0.46-0.68-1.15-0.8-1.73-1.14c-3.13-0.8,0.58-2.61,0-4.09l-3.59-2.17l-1.74,3.4l1.73,1.03
			c2.9,0.58,0.12,2.72-0.01,4.09L460.85,319.45z"/>
		<path style="clip-path:url(#SVGID_00000026872820391876966590000011639630214089585051_);fill:#231F20;" d="M366.68,313.77
			c0.58,0.57,1.62,0.79,2.31,0.23c1.28,1.36,1.74,3.18,2.19,4.88c1.51-2.15,1.06-5.1,2.34-7.37c0.47-1.02,1.27-0.11,1.85,0.23
			c0.58-0.57,0.47-1.24,0.47-2.04c-0.35-0.45-0.8-0.68-1.38-0.79c-2.44,1.35-2.1,4.42-2.8,6.69c-0.59,0.11-0.47-0.9-0.7-1.48
			c-0.57-1.25-1.37-2.95-3.11-2.95c-2.57,5.55-8.72,9.06-13.24,13.02C359.25,322.15,364.35,318.53,366.68,313.77"/>
		<path style="clip-path:url(#SVGID_00000026872820391876966590000011639630214089585051_);fill:#231F20;" d="M317.86,333.17
			c2.9-1.81,5.8-3.6,8.36-6.1c4.17-3.29,3.95-8.39,5.7-12.7c0.35-0.57,1.04-0.57,1.39,0c0.93,0.57,0.82-0.91,0.93-1.46
			c-0.21-0.58-0.57-0.81-1.15-1.15c-2.66,1.48-2.2,5-3.25,7.14c-0.22-1.47-0.81-2.95-2.08-4.08l-1.97-0.01
			c0,0.91-1.5,1.59-0.47,2.49c0.47,0.47,1.73,0.68,1.97-0.1c1.03,1.48,2.08,2.95,2.18,4.89
			C326.23,326.27,321.69,329.56,317.86,333.17"/>
		<path style="clip-path:url(#SVGID_00000026872820391876966590000011639630214089585051_);fill:#231F20;" d="M430.05,313.58
			c-1.4,1.69,1.25,4.2-1.06,5.56c-3.13,0.56-0.8-3.18-1.96-4.56l-0.82,1.03c0.23,1.24,0.22,2.72,0.46,4.43
			c0.12,0.47,0.69,1.37,1.5,1.14c1.16-0.33,1.75-1.13,2.23-2.15l0.91,1.14c0.57-0.12,1.39,0.23,1.73-0.35
			c2.09-2.15-0.33-4.54-0.44-6.8c-1.29,1.7,0.1,3.4,0.56,4.99C429.8,319.94,431.56,314.71,430.05,313.58"/>
		<path style="clip-path:url(#SVGID_00000026872820391876966590000011639630214089585051_);fill:#231F20;" d="M353.36,313.17
			c-6.38,3.16-12.3,7.12-18.44,10.85l-0.47,1.82l17.99-11.08L353.36,313.17z"/>
		<path style="clip-path:url(#SVGID_00000026872820391876966590000011639630214089585051_);fill:#231F20;" d="M662.79,356.04
			l-1.9-31.57l0.36-0.34l1.84,2.05c-0.91-3.86-2.18-7.62-3.9-11.02l-1.29,3.29c1.37,14.88,2.59,30.32,2.68,45.08
			C662.09,361.37,662.56,358.76,662.79,356.04"/>
		<path style="clip-path:url(#SVGID_00000026872820391876966590000011639630214089585051_);fill:#231F20;" d="M542.17,323.73
			c0.12,0.8,0.92,1.49,1.72,1.49c1.16-0.68,1.4-1.93,1.52-3.18c-0.35,0.57-0.93,1.59-1.74,1.35c-1.61-2.27,0.01-5.22,0.47-7.15
			C542.75,318.39,542.05,320.89,542.17,323.73"/>
		<path style="clip-path:url(#SVGID_00000026872820391876966590000011639630214089585051_);fill:#231F20;" d="M651.52,325.58
			c1.04-0.56,1.51-1.69,1.51-2.95c-0.35,0.68-0.92,1.13-1.63,1.13c-1.96-2.16,0.01-5.22,0.37-7.15c-1.4,2.15-2.22,4.43-2.1,7.14
			C649.9,324.66,650.6,325.47,651.52,325.58"/>
		<path style="clip-path:url(#SVGID_00000026872820391876966590000011639630214089585051_);fill:#231F20;" d="M607.85,321.06
			c0.58,0.35,0.12,1.24,1.04,1.14c0.47-0.12,1.27-0.34,0.93-1.13c-0.46-1.14-1.85-1.49-3.01-1.95c-2.08-0.45-5.45-0.8-6.84,1.02
			c1.5,3.4,6.59,4.55,7.06,8.3c-3.47-2.62-7.87-5.01-10.18-8.54c-0.36,4.88,5.54,6.95,8.78,9.32c0.94,0.24,2.21,0.01,2.91-1.12
			c0.48-4.2-5.2-4.78-6.7-8.3C603.8,319.23,606.11,320.14,607.85,321.06"/>
		<path style="clip-path:url(#SVGID_00000026872820391876966590000011639630214089585051_);fill:#231F20;" d="M415.3,327.28
			c0,0.91,0.58,1.93,1.73,1.7c1.04-0.67,1.51-2.83,1.51-3.28c-0.58,0.45-0.81,1.59-1.74,1.47c-1.61-2.38,0.13-5.33,0.6-7.38
			C416.24,322.17,415.07,324.45,415.3,327.28"/>
		<path style="clip-path:url(#SVGID_00000026872820391876966590000011639630214089585051_);fill:#231F20;" d="M580.28,323.13
			l-1.52,3.07l3.01,2.61l-1.52,2.84c1.27,1.02,2.55,2.27,3.82,3.07c0.7-0.91,1.4-1.93,1.52-3.06c-0.7-0.91-1.86-1.59-2.78-2.51
			c-0.11-0.67,0.58-1.02,0.81-1.58C584.91,325.42,581.54,324.28,580.28,323.13"/>
		<path style="clip-path:url(#SVGID_00000026872820391876966590000011639630214089585051_);fill:#231F20;" d="M341.62,329.14
			c-0.47,0.57-1.4,1.36-0.83,2.05c1.16,1.14-0.35,3.4,1.27,4.31c1.63,0.11,2.44-1.47,3.01-2.49l0.81,1.03
			c0.93,0.22,1.64-0.23,2.09-1.02c1.17-2.05-0.21-4.43-0.9-6.25c-1.75,2.04,1.37,3.75,0.21,5.45c-3.02,0.34-1.03-3.18-2.31-4.43
			c-2.2,1.25,1.51,4.2-1.52,5.79C340.45,333.8,343.01,330.17,341.62,329.14"/>
		<path style="clip-path:url(#SVGID_00000026872820391876966590000011639630214089585051_);fill:#231F20;" d="M618.47,336.86
			c0.11,1.13,0.46,2.5,1.97,2.39c1.05-0.56,1.28-1.69,1.4-2.71l-1.4,1.13c-2.42-1.94-0.33-5.11,0.25-7.37
			C619.17,332.21,618.71,334.47,618.47,336.86"/>
		<path style="clip-path:url(#SVGID_00000026872820391876966590000011639630214089585051_);fill:#231F20;" d="M635.84,340.98
			c0.23,0.57,0.93,1.48,1.61,1.48c1.39-0.45,1.4-2.26,1.51-2.95c-0.34,0.46-0.69,1.25-1.51,1.14c-2.3-2.28,0.12-4.99,0.36-7.38
			C636.43,335.55,635.39,338.15,635.84,340.98"/>
		<path style="clip-path:url(#SVGID_00000026872820391876966590000011639630214089585051_);fill:#231F20;" d="M328.04,338.42
			c1.16,0.35,2.44,1.26,3.36,1.15c0.57-1.25,1.62-2.26,1.51-3.74l-3.48-1.37l-1.51,2.83l-3.7-1.14l-1.51,3.74l3.47,1.48
			C327.11,340.46,327,339.1,328.04,338.42"/>
		<path style="clip-path:url(#SVGID_00000026872820391876966590000011639630214089585051_);fill:#231F20;" d="M317.25,348.61
			c1.61-0.56,1.97-2.82,1.97-3.74c-0.23,0.79-0.93,1.59-1.75,1.81c-1.49-2.28,0.02-5.23,0.72-7.49c-1.15,2.49-2.45,4.98-2.21,8.16
			C316.09,347.93,316.44,348.73,317.25,348.61"/>
		<path style="clip-path:url(#SVGID_00000026872820391876966590000011639630214089585051_);fill:#231F20;" d="M532.61,343.57
			c0.82-1.92-2.19-2.72-3.35-3.87l-1.74,3.3l3,2.27C531.69,346.18,531.91,344.14,532.61,343.57"/>
		<path style="clip-path:url(#SVGID_00000026872820391876966590000011639630214089585051_);fill:#231F20;" d="M435.77,344.59
			l-0.12-1.36l-1.85,2.27c-7.06-1.61-9.28,7.11-14.51,9.84c2.8-0.46,4.42-3.4,6.51-5.21c2.21-3.96,6.72-0.9,9.15-4.06
			c0.82,0.58,2.33,0.36,2.91-0.55c0.23-0.92,0.94-2.5,0.01-3.3c-0.35,0.57-0.82,1.36-0.35,2.05
			C437.15,344.82,436.35,344.48,435.77,344.59"/>
		<path style="clip-path:url(#SVGID_00000026872820391876966590000011639630214089585051_);fill:#231F20;" d="M442.36,350.73
			c0,0.68,0.68,1.14,1.27,1.14c1.37-0.46,1.85-2.38,1.85-3.41c-0.23,0.68-0.93,1.48-1.74,1.48c-1.85-2.17,0.36-4.89,0.59-7.39
			C443.18,345.06,441.66,347.78,442.36,350.73"/>
		<path style="clip-path:url(#SVGID_00000026872820391876966590000011639630214089585051_);fill:#231F20;" d="M556.67,355.78
			c2.55,0.8,5.8,0.68,7.78-1.12c-2.56,0-5.92,0.89-7.89-0.81c-0.34-3.4,5-4.42,5.34-7.49c-1.37,0.57-3.24,2.38-4.62,0.22l0.34-0.78
			c0.36-1.03,1.62-0.69,1.74,0.22c0.35-0.57,0.81-0.91,0.93-1.47c0-0.68-0.81-1.02-1.39-0.91c-1.28,0.91-3.01,2.27-3.02,3.97
			c0.35,0.79,0.92,1.25,1.73,1.82l-1.51,2.38C555.64,352.95,555.17,354.99,556.67,355.78"/>
		<polygon style="clip-path:url(#SVGID_00000026872820391876966590000011639630214089585051_);fill:#231F20;" points="451.6,353.59 
			470.17,345.47 470.29,344.33 452.08,351.89 		"/>
		<path style="clip-path:url(#SVGID_00000026872820391876966590000011639630214089585051_);fill:#231F20;" d="M515.57,348.65
			l-3.7-2.28l-1.51,3.29l3.69,2.4l1.52-2.27c1.15,0.79,2.31,1.71,3.46,2.52l1.16-1.82c1.64-2.5-2.07-2.73-3.11-4.1L515.57,348.65z"
			/>
		<path style="clip-path:url(#SVGID_00000026872820391876966590000011639630214089585051_);fill:#231F20;" d="M399.71,359.49
			c2.44-0.23,5.33-1.69,6.26-3.27c-2.44,0.78-5,2.59-7.77,1.11c0.13-3.74,5.46-5.21,5.35-8.95l-1.63,1.81
			c-0.81,0.68-1.96,0.68-2.77,0l0.23-1.14c0.48-0.67,1.4-0.9,1.85-0.23l0.7-1.7l-0.34-0.57c-1.73,0.67-3.59,2.72-3.83,4.76
			c0.12,1.02,0.93,1.14,1.61,1.59c-1.16,1.59-1.73,3.17-1.97,5.11C397.5,359.03,398.54,359.82,399.71,359.49"/>
		<path style="clip-path:url(#SVGID_00000026872820391876966590000011639630214089585051_);fill:#231F20;" d="M412.45,355.09
			c0.12,0.68,0.47,1.7,1.5,1.47c1.4-0.45,1.4-2.15,1.87-3.4l-1.52,1.59c-2.3-1.82,0.03-5.23,0.13-7.38
			C413.51,349.87,412.1,352.14,412.45,355.09"/>
		<path style="clip-path:url(#SVGID_00000026872820391876966590000011639630214089585051_);fill:#231F20;" d="M572.43,356.27
			c0.12,0.68,0.81,1.36,1.62,1.36c1.4-0.44,1.64-2.49,1.52-2.94c-0.35,0.45-0.81,1.25-1.51,1.12c-2.31-2.04,0.13-4.99,0.37-7.37
			C572.91,350.71,571.99,353.43,572.43,356.27"/>
		<path style="clip-path:url(#SVGID_00000026872820391876966590000011639630214089585051_);fill:#231F20;" d="M594.1,359.28
			c2.08-0.56,3.94-2.72,3.94-4.88c0-1.02-1.04-1.71-2.08-1.49c-0.82,0.46-0.93,1.36-0.93,1.93l0.34-0.11
			c0.58-0.35,1.16,0.01,1.51,0.46C597.01,357.01,595.14,358.15,594.1,359.28"/>
		<path style="clip-path:url(#SVGID_00000026872820391876966590000011639630214089585051_);fill:#231F20;" d="M620.26,366.38
			c0.23,0.79,1.04,1.36,1.83,1.37c0.93-0.57,1.29-1.71,1.29-2.84l-1.51,1.13c-2.08-2.16-0.21-4.99,0.36-7.25
			C620.62,360.82,619.91,363.66,620.26,366.38"/>
		<path style="clip-path:url(#SVGID_00000026872820391876966590000011639630214089585051_);fill:#231F20;" d="M651.65,365.78H652
			c1.62-0.68,3.83-2.48,3.59-4.54c0-1.13-1.14-1.59-2.19-1.59c-0.57,0.35-0.81,1.02-0.93,1.82c0.7-0.35,1.5-0.23,1.97,0.46
			C654.78,363.75,652.46,364.65,651.65,365.78"/>
		<path style="clip-path:url(#SVGID_00000026872820391876966590000011639630214089585051_);fill:#231F20;" d="M341.31,363.31
			c-0.36,1.49-1.52-0.23-2.32-0.23c-2.65-1.94-2.43,2.16-3.37,3.29l3.71,1.48l1.51-2.84l3.46,1.38c0.59-1.24,1.74-2.38,1.52-3.74
			l-3.48-1.49L341.31,363.31z"/>
		<path style="clip-path:url(#SVGID_00000026872820391876966590000011639630214089585051_);fill:#231F20;" d="M638.43,371.2
			l1.04-0.34c1.63-1.03,3.37-2.72,2.91-4.88c-0.22-0.8-1.04-1.14-1.72-1.14c-1.05,0.11-1.18,1.24-1.05,1.92l0.11-0.11
			c0.7-0.12,1.28,0.01,1.73,0.58C641.45,369.04,639.36,369.94,638.43,371.2"/>
		<path style="clip-path:url(#SVGID_00000026872820391876966590000011639630214089585051_);fill:#231F20;" d="M329.82,372.38
			c0.11,0.79,0.57,1.7,1.63,1.36c1.26-1.02,1.5-2.39,1.74-3.74c-0.58,0.68-0.93,1.93-1.98,1.7c-1.38-2.5,0.48-4.88,0.83-7.26
			C330.64,366.81,329.83,369.42,329.82,372.38"/>
		<path style="clip-path:url(#SVGID_00000026872820391876966590000011639630214089585051_);fill:#231F20;" d="M661.95,372.73h0.46
			c0.47-0.11,1.16,0.11,1.51,0.69c0.1,1.58-1.86,2.59-3.01,3.73c0.57,0.12,0.81-0.22,1.14-0.33c1.63-1.01,3.37-2.61,2.91-4.77
			c-0.36-0.68-1.16-1.02-1.86-1.14C662.18,371.02,661.95,371.94,661.95,372.73"/>
		<polygon style="clip-path:url(#SVGID_00000026872820391876966590000011639630214089585051_);fill:#020303;" points="
			688.69,396.05 688.71,396.1 688.41,396.18 		"/>
		<path style="clip-path:url(#SVGID_00000026872820391876966590000011639630214089585051_);fill:#04814F;" d="M529.54,235.02
			c16.41-2.44,27.47,17.85,27.47,17.85c-2.15-32.49-36.63-27.7-36.63-27.7c8.74-6.87,26.45,1.86,26.45,1.86
			c-12.87-18.09-31.32-12.91-31.32-12.91c2.2-4.17,15.43-3.27,15.43-3.27c-12.01-11.83-26.06,0.05-26.06,0.05
			c0.67-6.52-4.89-16.73-4.89-16.73s-5.55,10.22-4.88,16.73c0,0-14.05-11.88-26.06-0.05c0,0,13.23-0.91,15.44,3.27
			c0,0-18.45-5.17-31.32,12.91c0,0,17.7-8.74,26.45-1.86c0,0-34.48-4.79-36.63,27.7c0,0,11.05-20.29,27.46-17.85
			c0,0-35.1,9.95-18.31,41.23c0,0-0.91-25.92,19.32-31.8c0,0-26.6,21.25-2.64,39.18c0,0-4.96-20.13,8.94-29.33
			c0,0-9.84,22.6,9.32,41.65c0,0-3.93-19.35,8.41-29.98v33.56c-0.16,4.82-0.52,10.53-0.74,14.73c-0.41,7.59-0.81,13.18-0.83,13.42
			c-1.03,4.73-1.04,7.89-1.04,7.93v0.02v0.03l0.11,2.25l0.14,2.8l-0.57,1.53l-0.15,0.42v0c-0.64,1.16-0.91,2.22-0.91,3.11
			c0,1.51,0.69,2.48,1.1,2.91l-1.26,23.86c-3.44,3.62-6.39,10.13-6.42,10.16l-0.49,1.08h1.17h11.94h4.88h11.96h1.17l-0.5-1.08
			c-0.02-0.02-2.99-6.54-6.42-10.17l-1.25-23.85c0.41-0.44,1.09-1.4,1.09-2.91c0-0.89-0.26-1.95-0.91-3.11v0l-0.31-0.87l-0.41-1.09
			l0.15-3.09l0.1-1.96v-0.03v-0.02c0-0.04-0.01-3.19-1.04-7.92c-0.02-0.16-0.42-5.77-0.83-13.42c-0.22-4.21-0.59-9.93-0.74-14.75
			v-33.56c12.35,10.63,8.41,29.98,8.41,29.98c19.15-19.04,9.32-41.65,9.32-41.65c13.9,9.2,8.94,29.33,8.94,29.33
			c23.96-17.94-2.63-39.18-2.63-39.18c20.21,5.88,19.3,31.8,19.3,31.8C564.65,244.96,529.54,235.02,529.54,235.02"/>
		
			<path style="clip-path:url(#SVGID_00000026872820391876966590000011639630214089585051_);fill:none;stroke:#231F20;stroke-width:1.3271;stroke-miterlimit:10;" d="
			M529.54,235.02c16.41-2.44,27.47,17.85,27.47,17.85c-2.15-32.49-36.63-27.7-36.63-27.7c8.74-6.87,26.45,1.86,26.45,1.86
			c-12.87-18.09-31.32-12.91-31.32-12.91c2.2-4.17,15.43-3.27,15.43-3.27c-12.01-11.83-26.06,0.05-26.06,0.05
			c0.67-6.52-4.89-16.73-4.89-16.73s-5.55,10.22-4.88,16.73c0,0-14.05-11.88-26.06-0.05c0,0,13.23-0.91,15.44,3.27
			c0,0-18.45-5.17-31.32,12.91c0,0,17.7-8.74,26.45-1.86c0,0-34.48-4.79-36.63,27.7c0,0,11.05-20.29,27.46-17.85
			c0,0-35.1,9.95-18.31,41.23c0,0-0.91-25.92,19.32-31.8c0,0-26.6,21.25-2.64,39.18c0,0-4.96-20.13,8.94-29.33
			c0,0-9.84,22.6,9.32,41.65c0,0-3.93-19.35,8.41-29.98v33.56c-0.16,4.82-0.52,10.53-0.74,14.73c-0.41,7.59-0.81,13.18-0.83,13.42
			c-1.03,4.73-1.04,7.89-1.04,7.93v0.02v0.03l0.11,2.25l0.14,2.8l-0.57,1.53l-0.15,0.42v0c-0.64,1.16-0.91,2.22-0.91,3.11
			c0,1.51,0.69,2.48,1.1,2.91l-1.26,23.86c-3.44,3.62-6.39,10.13-6.42,10.16l-0.49,1.08h1.17h11.94h4.88h11.96h1.17l-0.5-1.08
			c-0.02-0.02-2.99-6.54-6.42-10.17l-1.25-23.85c0.41-0.44,1.09-1.4,1.09-2.91c0-0.89-0.26-1.95-0.91-3.11v0l-0.31-0.87l-0.41-1.09
			l0.15-3.09l0.1-1.96v-0.03v-0.02c0-0.04-0.01-3.19-1.04-7.92c-0.02-0.16-0.42-5.77-0.83-13.42c-0.22-4.21-0.59-9.93-0.74-14.75
			v-33.56c12.35,10.63,8.41,29.98,8.41,29.98c19.15-19.04,9.32-41.65,9.32-41.65c13.9,9.2,8.94,29.33,8.94,29.33
			c23.96-17.94-2.63-39.18-2.63-39.18c20.21,5.88,19.3,31.8,19.3,31.8C564.65,244.96,529.54,235.02,529.54,235.02z"/>
		<path style="clip-path:url(#SVGID_00000026872820391876966590000011639630214089585051_);fill:#1C7A62;" d="M579.99,382.01
			c-5.21,0.93-10.4,2.06-15.51,3.46c-5.86,1.58-11.63,3.54-17.25,5.86c-6.26,2.59-12.33,5.65-18.15,9.13
			c-6.47,3.85-12.65,8.2-18.58,12.85c-6.52,5.1-12.73,10.55-18.78,16.17c-3.19,2.94-6.32,5.93-9.45,8.93
			c-2.3,2.23-4.6,4.51-6.96,6.65l-1.45,1.26l-0.42,0.36l0.21,0.51c0.65,1.6,2.13,4.12,5.19,4.67l0.52,0.1l0.27-0.47
			c0,0,0.21-0.4,0.66-1.03c0.44-0.63,1.09-1.48,1.9-2.32c1.62-1.68,3.89-3.28,6.46-3.27c0.52,0,1.06,0.07,1.62,0.2
			c3.28,0.84,5.27,3.74,5.27,6.86c0,2.69-1.46,5.57-5.08,7.49l-0.18,0.07l-0.64,0.21c-0.58,0.16-1.45,0.31-2.56,0.31
			c-3.5,0-9.51-1.52-17.01-9.87l-0.44-0.49l-0.54,0.37c-0.55,0.38-1.09,0.74-1.62,1.07c-3.22,2.01-6.49,3.9-9.79,5.78
			c-4.43,2.54-8.24,3.54-11.32,3.54c-6.18-0.03-9.47-3.92-9.48-7.99c0-0.73,0.1-1.45,0.32-2.17c1.25-4.07,3.97-4.91,6.46-4.96
			c1.72-0.01,3.28,0.51,3.7,0.73c0.57,0.28,1.28,0.85,1.81,1.35l0.9,0.91l0.16,0.18l0.22,0.06l1.38,0.34v-0.01l0.55,0.08
			c1.34-0.03,4.73-0.8,12.17-7.42l0.26-0.23v-0.33v-0.11c0-1.6-0.43-3.61-2.11-5.12l-0.4-0.36l-0.47,0.26l-0.57,0.29
			c-0.38,0.17-0.92,0.41-1.58,0.65c-1.32,0.48-3.11,0.95-4.9,0.95c-1.92-0.01-3.81-0.52-5.33-2.11c-1.34-1.4-1.97-3.13-1.98-4.86
			c0.03-3.73,2.91-7.44,8.39-7.47l0.94,0.03c3.37,0.26,5.35,2.5,6.86,5.5c1.48,2.99,2.32,6.59,3.37,9.17l0.43,1.03l0.79-0.78
			l1.21-1.2l0.01-0.01c58.84-64.9,126.4-57.19,127.99-57.14c-1.55,0.15-3.11,0.25-4.66,0.44
			C588.52,380.63,584.24,381.26,579.99,382.01"/>
		
			<path style="clip-path:url(#SVGID_00000026872820391876966590000011639630214089585051_);fill:none;stroke:#020303;stroke-width:1.3271;stroke-linejoin:round;stroke-miterlimit:10;" d="
			M579.99,382.01c-5.21,0.93-10.4,2.06-15.51,3.46c-5.86,1.58-11.63,3.54-17.25,5.86c-6.26,2.59-12.33,5.65-18.15,9.13
			c-6.47,3.85-12.65,8.2-18.58,12.85c-6.52,5.1-12.73,10.55-18.78,16.17c-3.19,2.94-6.32,5.93-9.45,8.93
			c-2.3,2.23-4.6,4.51-6.96,6.65l-1.45,1.26l-0.42,0.36l0.21,0.51c0.65,1.6,2.13,4.12,5.19,4.67l0.52,0.1l0.27-0.47
			c0,0,0.21-0.4,0.66-1.03c0.44-0.63,1.09-1.48,1.9-2.32c1.62-1.68,3.89-3.28,6.46-3.27c0.52,0,1.06,0.07,1.62,0.2
			c3.28,0.84,5.27,3.74,5.27,6.86c0,2.69-1.46,5.57-5.08,7.49l-0.18,0.07l-0.64,0.21c-0.58,0.16-1.45,0.31-2.56,0.31
			c-3.5,0-9.51-1.52-17.01-9.87l-0.44-0.49l-0.54,0.37c-0.55,0.38-1.09,0.74-1.62,1.07c-3.22,2.01-6.49,3.9-9.79,5.78
			c-4.43,2.54-8.24,3.54-11.32,3.54c-6.18-0.03-9.47-3.92-9.48-7.99c0-0.73,0.1-1.45,0.32-2.17c1.25-4.07,3.97-4.91,6.46-4.96
			c1.72-0.01,3.28,0.51,3.7,0.73c0.57,0.28,1.28,0.85,1.81,1.35l0.9,0.91l0.16,0.18l0.22,0.06l1.38,0.34v-0.01l0.55,0.08
			c1.34-0.03,4.73-0.8,12.17-7.42l0.26-0.23v-0.33v-0.11c0-1.6-0.43-3.61-2.11-5.12l-0.4-0.36l-0.47,0.26l-0.57,0.29
			c-0.38,0.17-0.92,0.41-1.58,0.65c-1.32,0.48-3.11,0.95-4.9,0.95c-1.92-0.01-3.81-0.52-5.33-2.11c-1.34-1.4-1.97-3.13-1.98-4.86
			c0.03-3.73,2.91-7.44,8.39-7.47l0.94,0.03c3.37,0.26,5.35,2.5,6.86,5.5c1.48,2.99,2.32,6.59,3.37,9.17l0.43,1.03l0.79-0.78
			l1.21-1.2l0.01-0.01c58.84-64.9,126.4-57.19,127.99-57.14c-1.55,0.15-3.11,0.25-4.66,0.44
			C588.52,380.63,584.24,381.26,579.99,382.01z"/>
		<path style="clip-path:url(#SVGID_00000026872820391876966590000011639630214089585051_);fill:#1C7A62;" d="M420,382.01
			c5.21,0.93,10.4,2.06,15.51,3.46c5.86,1.58,11.63,3.54,17.25,5.86c6.26,2.59,12.33,5.65,18.15,9.13
			c6.47,3.85,12.65,8.2,18.58,12.85c6.51,5.1,12.73,10.55,18.78,16.17c3.19,2.94,6.33,5.93,9.45,8.93c2.3,2.23,4.6,4.51,6.96,6.65
			l1.45,1.26l0.42,0.36l-0.21,0.51c-0.64,1.6-2.13,4.12-5.19,4.67l-0.52,0.1l-0.27-0.47c0,0-0.21-0.4-0.66-1.03
			c-0.43-0.63-1.08-1.48-1.89-2.32c-1.62-1.68-3.89-3.28-6.46-3.27c-0.52,0-1.06,0.07-1.62,0.2c-3.28,0.84-5.27,3.74-5.27,6.86
			c0,2.69,1.46,5.57,5.08,7.49l0.17,0.07l0.64,0.21c0.58,0.16,1.45,0.31,2.56,0.31c3.5,0,9.51-1.52,17.01-9.87l0.44-0.49l0.54,0.37
			c0.55,0.38,1.09,0.74,1.62,1.07c3.22,2.01,6.49,3.9,9.79,5.78c4.43,2.54,8.24,3.54,11.32,3.54c6.18-0.03,9.47-3.92,9.48-7.99
			c0-0.73-0.1-1.45-0.32-2.17c-1.25-4.07-3.97-4.91-6.46-4.96c-1.72-0.01-3.28,0.51-3.7,0.73c-0.57,0.28-1.28,0.85-1.8,1.35
			l-0.9,0.91l-0.16,0.18l-0.22,0.06l-1.38,0.34v-0.01l-0.55,0.08c-1.34-0.03-4.74-0.8-12.17-7.42l-0.26-0.23v-0.33v-0.11
			c0-1.6,0.43-3.61,2.11-5.12l0.4-0.36l0.47,0.26l0.57,0.29c0.38,0.17,0.92,0.41,1.58,0.65c1.33,0.48,3.11,0.95,4.9,0.95
			c1.92-0.01,3.81-0.52,5.33-2.11c1.34-1.4,1.97-3.13,1.97-4.86c-0.02-3.73-2.9-7.44-8.38-7.47l-0.94,0.03
			c-3.37,0.26-5.35,2.5-6.85,5.5c-1.49,2.99-2.33,6.59-3.37,9.17l-0.43,1.03l-0.79-0.78l-1.2-1.2l-0.01-0.01
			c-58.84-64.9-126.4-57.19-127.99-57.14c1.55,0.15,3.12,0.25,4.66,0.44C411.47,380.63,415.75,381.26,420,382.01"/>
		
			<path style="clip-path:url(#SVGID_00000026872820391876966590000011639630214089585051_);fill:none;stroke:#020303;stroke-width:1.3271;stroke-linejoin:round;stroke-miterlimit:10;" d="
			M420,382.01c5.21,0.93,10.4,2.06,15.51,3.46c5.86,1.58,11.63,3.54,17.25,5.86c6.26,2.59,12.33,5.65,18.15,9.13
			c6.47,3.85,12.65,8.2,18.58,12.85c6.51,5.1,12.73,10.55,18.78,16.17c3.19,2.94,6.33,5.93,9.45,8.93c2.3,2.23,4.6,4.51,6.96,6.65
			l1.45,1.26l0.42,0.36l-0.21,0.51c-0.64,1.6-2.13,4.12-5.19,4.67l-0.52,0.1l-0.27-0.47c0,0-0.21-0.4-0.66-1.03
			c-0.43-0.63-1.08-1.48-1.89-2.32c-1.62-1.68-3.89-3.28-6.46-3.27c-0.52,0-1.06,0.07-1.62,0.2c-3.28,0.84-5.27,3.74-5.27,6.86
			c0,2.69,1.46,5.57,5.08,7.49l0.17,0.07l0.64,0.21c0.58,0.16,1.45,0.31,2.56,0.31c3.5,0,9.51-1.52,17.01-9.87l0.44-0.49l0.54,0.37
			c0.55,0.38,1.09,0.74,1.62,1.07c3.22,2.01,6.49,3.9,9.79,5.78c4.43,2.54,8.24,3.54,11.32,3.54c6.18-0.03,9.47-3.92,9.48-7.99
			c0-0.73-0.1-1.45-0.32-2.17c-1.25-4.07-3.97-4.91-6.46-4.96c-1.72-0.01-3.28,0.51-3.7,0.73c-0.57,0.28-1.28,0.85-1.8,1.35
			l-0.9,0.91l-0.16,0.18l-0.22,0.06l-1.38,0.34v-0.01l-0.55,0.08c-1.34-0.03-4.74-0.8-12.17-7.42l-0.26-0.23v-0.33v-0.11
			c0-1.6,0.43-3.61,2.11-5.12l0.4-0.36l0.47,0.26l0.57,0.29c0.38,0.17,0.92,0.41,1.58,0.65c1.33,0.48,3.11,0.95,4.9,0.95
			c1.92-0.01,3.81-0.52,5.33-2.11c1.34-1.4,1.97-3.13,1.97-4.86c-0.02-3.73-2.9-7.44-8.38-7.47l-0.94,0.03
			c-3.37,0.26-5.35,2.5-6.85,5.5c-1.49,2.99-2.33,6.59-3.37,9.17l-0.43,1.03l-0.79-0.78l-1.2-1.2l-0.01-0.01
			c-58.84-64.9-126.4-57.19-127.99-57.14c1.55,0.15,3.12,0.25,4.66,0.44C411.47,380.63,415.75,381.26,420,382.01z"/>
		<path style="clip-path:url(#SVGID_00000026872820391876966590000011639630214089585051_);fill:#04814F;" d="M667.43,554.9
			c-2.07,4.04-7.8,14.04-17.92,23.54c-11.59,10.86-28.84,21.05-53.1,21.06c-25.88,0-42.91-11.58-53.59-23.2
			c-5.35-5.81-9.08-11.62-11.46-15.98c-1.19-2.18-2.06-4-2.61-5.25l-0.07-0.17H667.43z"/>
		
			<path style="clip-path:url(#SVGID_00000026872820391876966590000011639630214089585051_);fill:none;stroke:#020303;stroke-width:1.3271;stroke-linejoin:round;stroke-miterlimit:10;" d="
			M667.43,554.9c-2.07,4.04-7.8,14.04-17.92,23.54c-11.59,10.86-28.84,21.05-53.1,21.06c-25.88,0-42.91-11.58-53.59-23.2
			c-5.35-5.81-9.08-11.62-11.46-15.98c-1.19-2.18-2.06-4-2.61-5.25l-0.07-0.17H667.43z"/>
		
			<polygon style="clip-path:url(#SVGID_00000026872820391876966590000011639630214089585051_);fill:none;stroke:#020303;stroke-width:1.3271;stroke-linejoin:round;stroke-miterlimit:10;" points="
			598.04,379.82 528.53,552.97 667.56,552.97 		"/>
		<path style="clip-path:url(#SVGID_00000026872820391876966590000011639630214089585051_);fill:#04814F;" d="M471.91,554.9
			c-2.07,4.04-7.8,14.04-17.92,23.54c-11.59,10.86-28.84,21.05-53.1,21.06c-25.88,0-42.91-11.58-53.59-23.2
			c-5.34-5.81-9.07-11.62-11.46-15.98c-1.2-2.18-2.06-4-2.62-5.25l-0.07-0.17H471.91z"/>
		
			<path style="clip-path:url(#SVGID_00000026872820391876966590000011639630214089585051_);fill:none;stroke:#020303;stroke-width:1.3271;stroke-linejoin:round;stroke-miterlimit:10;" d="
			M471.91,554.9c-2.07,4.04-7.8,14.04-17.92,23.54c-11.59,10.86-28.84,21.05-53.1,21.06c-25.88,0-42.91-11.58-53.59-23.2
			c-5.34-5.81-9.07-11.62-11.46-15.98c-1.2-2.18-2.06-4-2.62-5.25l-0.07-0.17H471.91z"/>
		
			<polygon style="clip-path:url(#SVGID_00000026872820391876966590000011639630214089585051_);fill:none;stroke:#020303;stroke-width:1.3271;stroke-linejoin:round;stroke-miterlimit:10;" points="
			402.53,379.82 333.02,552.97 472.05,552.97 		"/>
	</g>
</g>
</svg>
