<?xml version="1.0" encoding="utf-8"?>
<!-- Generator: Adobe Illustrator 25.0.1, SVG Export Plug-In . SVG Version: 6.00 Build 0)  -->
<svg version="1.1" id="Layer_1" xmlns="http://www.w3.org/2000/svg" xmlns:xlink="http://www.w3.org/1999/xlink" x="0px" y="0px"
	 viewBox="0 0 1213.8 425.6" style="enable-background:new 0 0 1213.8 425.6;" xml:space="preserve">
<style type="text/css">
	.st0{fill:#36302B;}
	.st1{fill:#00665E;}
	.st2{fill:#85AF9A;}
</style>
<g>
	<path class="st0" d="M48,230.3v-3.1c0-0.5,0.2-0.7,0.7-0.7h8.9c0.5,0,0.7,0.2,0.7,0.7v22.3c0,1.5,0.3,2.5,0.8,3
		c0.6,0.6,1.4,0.8,2.7,0.8H64c1.9,0,2.9,1.5,2.9,4.4c0,1.7-0.2,2.8-0.7,3.5c-0.5,0.6-1.2,0.9-2.2,0.9h-7.6c-2.4,0-4.2-0.4-5.6-1.1
		c-1.3-0.8-2.2-2.2-2.7-4.2c-1.1,0.9-2.3,1.5-3.7,2c-1.4,0.4-2.9,0.7-4.4,0.7c-1.9,0-3.7-0.3-5.4-0.8c-1.7-0.5-3.2-1.4-4.5-2.5
		c-1.3-1.1-2.3-2.6-3.1-4.4c-0.8-1.8-1.1-4-1.1-6.5c0-2.9,0.4-5.3,1.3-7.2c0.8-1.9,2-3.4,3.3-4.6c1.4-1.1,3-1.9,4.7-2.4
		c1.8-0.5,3.6-0.7,5.4-0.7H48z M33.2,221.3c-0.5,0-0.7-0.2-0.7-0.7v-7.1c0-0.5,0.2-0.7,0.7-0.7h7.3c0.5,0,0.7,0.2,0.7,0.7v7.1
		c0,0.5-0.2,0.7-0.7,0.7H33.2z M42,250.6c1.8,0,3.3-0.5,4.4-1.6c1.1-1,1.6-2.7,1.6-4.9v-5h-5.8c-1.8,0-3.3,0.4-4.4,1.3
		c-1.1,0.9-1.7,2.5-1.7,4.8c0,2,0.6,3.4,1.7,4.2C38.9,250.2,40.3,250.6,42,250.6z M44.4,221.3c-0.5,0-0.7-0.2-0.7-0.7v-7.1
		c0-0.5,0.2-0.7,0.7-0.7h7.3c0.5,0,0.7,0.2,0.7,0.7v7.1c0,0.5-0.2,0.7-0.7,0.7H44.4z"/>
	<path class="st0" d="M72.8,232.3c0-0.5,0.2-0.7,0.7-0.7h8.8c0.5,0,0.7,0.2,0.7,0.7v17.1c0.1,1.2,0.6,2.2,1.6,2.9
		c0.9,0.7,2.3,1.1,4,1.1h1.7c1,0,1.7,0.3,2.2,1c0.5,0.7,0.7,1.8,0.7,3.3c0,3-1,4.4-2.9,4.4c-1.8,0-3.4-0.2-4.8-0.7
		c-1.4-0.4-2.5-1.4-3.4-3c-0.8,1.5-1.9,2.5-3.5,3c-1.5,0.4-3.6,0.7-6.3,0.7h-7.5c-1,0-1.7-0.3-2.2-0.9c-0.5-0.6-0.7-1.7-0.7-3.4
		c0-1.6,0.2-2.8,0.7-3.5c0.5-0.7,1.2-1,2.2-1h4.5c1.5,0,2.5-0.4,2.9-1.3c0.4-0.9,0.6-2.4,0.6-4.6V232.3z M68.3,277.1
		c-0.5,0-0.7-0.2-0.7-0.7v-7.1c0-0.5,0.2-0.7,0.7-0.7h7.3c0.5,0,0.7,0.2,0.7,0.7v7.1c0,0.5-0.2,0.7-0.7,0.7H68.3z M79.4,277.1
		c-0.5,0-0.7-0.2-0.7-0.7v-7.1c0-0.5,0.2-0.7,0.7-0.7h7.3c0.5,0,0.7,0.2,0.7,0.7v7.1c0,0.5-0.2,0.7-0.7,0.7H79.4z"/>
	<path class="st0" d="M98.5,232.3c0-0.5,0.2-0.7,0.7-0.7h8.8c0.5,0,0.7,0.2,0.7,0.7v17.1c0.1,1.2,0.6,2.2,1.6,2.9
		c0.9,0.7,2.3,1.1,4,1.1h1.7c1,0,1.7,0.3,2.2,1c0.5,0.7,0.7,1.8,0.7,3.3c0,3-1,4.4-2.9,4.4c-1.8,0-3.4-0.2-4.8-0.7
		c-1.4-0.4-2.5-1.4-3.4-3c-0.8,1.5-1.9,2.5-3.5,3c-1.5,0.4-3.6,0.7-6.3,0.7h-7.5c-1,0-1.7-0.3-2.2-0.9c-0.5-0.6-0.7-1.7-0.7-3.4
		c0-1.6,0.2-2.8,0.7-3.5c0.5-0.7,1.2-1,2.2-1H95c1.5,0,2.5-0.4,2.9-1.3c0.4-0.9,0.6-2.4,0.6-4.6V232.3z M94.3,224.2
		c-0.5,0-0.7-0.2-0.7-0.7v-7.1c0-0.5,0.2-0.7,0.7-0.7h7.3c0.5,0,0.7,0.2,0.7,0.7v7.1c0,0.5-0.2,0.7-0.7,0.7H94.3z M105.4,224.2
		c-0.5,0-0.7-0.2-0.7-0.7v-7.1c0-0.5,0.2-0.7,0.7-0.7h7.3c0.5,0,0.7,0.2,0.7,0.7v7.1c0,0.5-0.2,0.7-0.7,0.7H105.4z"/>
	<path class="st0" d="M159.7,262.2c-1.9,0-3.4-0.4-4.6-1.1c-1.2-0.7-2.1-1.6-2.7-2.8c-0.7,1.5-1.7,2.5-3.1,3.1
		c-1.4,0.5-3.3,0.8-5.6,0.8h-2.8c-1.9,0-3.4-0.4-4.6-1.1c-1.2-0.7-2.1-1.6-2.8-2.8c-0.7,1.5-1.7,2.6-3.1,3.1
		c-1.4,0.5-3.3,0.8-5.7,0.8h-8.7c-1,0-1.7-0.3-2.2-0.8c-0.5-0.6-0.7-1.6-0.7-3.2c0-1.7,0.2-2.9,0.7-3.6c0.5-0.7,1.2-1.1,2.2-1.1h4.9
		c1.4,0,2.3-0.4,2.7-1.1c0.4-0.7,0.6-2,0.6-3.9v-10.9c0-0.5,0.2-0.7,0.7-0.7h8.9c0.5,0,0.7,0.2,0.7,0.7v11.9c0,1.6,0.5,2.6,1.5,3.1
		c1,0.5,2,0.8,3.2,0.8c0.9,0,1.7-0.1,2.2-0.3c0.6-0.2,1-0.5,1.2-0.9c0.2-0.4,0.4-0.9,0.5-1.6c0.1-0.7,0.1-1.5,0.1-2.4v-10.7
		c0-0.5,0.2-0.7,0.7-0.7h8.9c0.5,0,0.7,0.2,0.7,0.7v11.8c0,1.6,0.5,2.7,1.5,3.2c1,0.5,2.1,0.8,3.4,0.8c0.9,0,1.6-0.1,2.1-0.3
		c0.5-0.2,0.8-0.5,1.1-0.9c0.2-0.4,0.4-0.9,0.4-1.6c0-0.7,0.1-1.5,0.1-2.4v-15.8c0-0.5,0.2-0.7,0.7-0.7h8.9c0.5,0,0.7,0.2,0.7,0.7
		v17.1c0.1,1.2,0.6,2.2,1.6,2.9c0.9,0.7,2.3,1.1,4,1.1h1.7c1,0,1.7,0.3,2.2,1c0.5,0.7,0.7,1.8,0.7,3.3c0,3-1,4.4-2.9,4.4
		c-1.8,0-3.4-0.2-4.8-0.7c-1.4-0.4-2.5-1.4-3.4-3c-0.7,1.4-1.7,2.4-3,2.9s-2.8,0.8-4.5,0.8H159.7z"/>
	<path class="st0" d="M179.4,262.2c-1,0-1.7-0.3-2.2-1c-0.5-0.7-0.7-1.8-0.7-3.3c0-1.6,0.2-2.7,0.7-3.5c0.5-0.7,1.2-1.1,2.2-1.1h18
		c1.2,0,2.1-0.1,2.8-0.3c0.7-0.2,1.3-0.5,1.7-1c0.4-0.5,0.7-1.1,0.9-1.9c0.2-0.8,0.3-1.8,0.3-3.1c0-1-0.1-2-0.4-2.9
		c-0.2-0.9-0.7-1.8-1.2-2.5c-0.6-0.8-1.3-1.4-2.3-1.8s-2.1-0.7-3.5-0.7c-1.6,0-2.9,0.3-4.1,0.9c-1.2,0.6-2.3,1.4-3.3,2.3
		c-0.3,0.3-0.7,0.4-1,0.1l-4.3-5.2c-0.4-0.4-0.5-0.8-0.2-1.1c1.7-1.6,3.6-3,5.8-4.1c2.2-1.1,4.9-1.7,8.2-1.7c3.1,0,5.7,0.5,7.9,1.4
		c2.2,0.9,3.9,2.2,5.3,3.7c1.4,1.6,2.3,3.4,2.9,5.4c0.6,2.1,0.9,4.3,0.9,6.6c0,3.1-0.3,5.5-0.8,7.4c-0.6,1.9-1.4,3.4-2.4,4.5
		c-1,1.1-2.3,1.8-3.8,2.2c-1.5,0.4-3.3,0.6-5.2,0.6H179.4z M192.5,276.9c-0.5,0-0.7-0.2-0.7-0.7v-7.1c0-0.5,0.2-0.7,0.7-0.7h9
		c0.5,0,0.7,0.2,0.7,0.7v7.1c0,0.5-0.2,0.7-0.7,0.7H192.5z"/>
	<path class="st0" d="M227.3,277.1c-0.5,0-0.7-0.2-0.7-0.7V269c0-0.5,0.2-0.7,0.7-0.7h8.4c1,0,1.9-0.1,2.7-0.3
		c0.8-0.2,1.5-0.5,2-0.9c0.5-0.4,0.9-1.1,1.2-1.9c0.3-0.8,0.4-1.8,0.4-3.1h-7c-4.7,0-8.4-1.1-10.9-3.4c-2.5-2.3-3.8-6.2-3.8-11.7
		c0-3.1,0.4-5.7,1.3-7.8c0.9-2.1,2.1-3.8,3.6-5.2c1.5-1.3,3.2-2.3,5.1-2.8c1.9-0.6,3.9-0.9,5.9-0.9c2.1,0,4.2,0.3,6.1,0.8
		c1.9,0.5,3.6,1.4,5.1,2.7c1.5,1.2,2.6,2.9,3.5,5c0.8,2.1,1.3,4.7,1.3,7.8v6.8h4.9c1.9,0,2.9,1.5,2.9,4.4c0,1.8-0.2,3-0.7,3.6
		c-0.5,0.6-1.2,0.8-2.2,0.8h-4.9v1.4c0,4.6-1.2,7.9-3.5,10.2c-2.3,2.2-5.9,3.3-10.8,3.3H227.3z M236.3,239.1c-1.9,0-3.4,0.7-4.5,2
		c-1,1.4-1.6,3.2-1.6,5.5c0,2.7,0.6,4.4,1.7,5.3c1.1,0.9,2.6,1.3,4.5,1.3h5.6v-7C242.1,241.5,240.2,239.1,236.3,239.1z"/>
	<path class="st0" d="M263.1,213.5c0-0.5,0.2-0.7,0.7-0.7h8.9c0.5,0,0.7,0.2,0.7,0.7v36c0.1,1.3,0.6,2.2,1.5,2.9c0.9,0.7,2.3,1,4,1
		h1.7c1,0,1.7,0.3,2.2,1c0.5,0.7,0.7,1.8,0.7,3.3c0,3-1,4.4-2.9,4.4c-1.8,0-3.4-0.2-4.8-0.7c-1.4-0.4-2.5-1.4-3.4-3
		c-0.7,1.4-1.8,2.4-3.2,2.9s-3.3,0.8-5.6,0.8h-6.5c-1,0-1.7-0.2-2.2-0.5c-0.5-0.3-0.7-1-0.7-2c0-0.6,0.1-1.2,0.2-2
		c0.1-0.7,0.3-1.4,0.5-2c0.2-0.6,0.5-1.2,0.9-1.6s0.8-0.7,1.3-0.7h2.5c0.8,0,1.5-0.1,2-0.4c0.5-0.3,0.8-0.7,1.1-1.3
		c0.2-0.6,0.4-1.2,0.4-2.1c0-0.8,0.1-1.8,0.1-2.8V213.5z"/>
	<path class="st0" d="M280.6,262.2c-1,0-1.7-0.2-2.2-0.5c-0.5-0.3-0.7-1-0.7-2c0-0.6,0.1-1.2,0.2-2c0.1-0.7,0.3-1.4,0.5-2
		c0.2-0.6,0.5-1.2,0.9-1.6s0.8-0.7,1.3-0.7h2.5c1.2,0,2.1-0.3,2.7-0.8c0.6-0.6,0.8-1.6,0.8-3v-36c0-0.5,0.2-0.7,0.7-0.7h8.9
		c0.5,0,0.7,0.2,0.7,0.7V253c0,3.1-0.7,5.5-2,6.9c-1.3,1.5-3.5,2.2-6.5,2.2H280.6z"/>
	<path class="st0" d="M315.9,261.4c0,0.5-0.2,0.7-0.7,0.7h-8.8c-0.5,0-0.7-0.2-0.7-0.7v-47.9c0-0.5,0.2-0.7,0.7-0.7h8.8
		c0.5,0,0.7,0.2,0.7,0.7V261.4z"/>
	<path class="st0" d="M384.8,252.5c0.6-0.6,0.8-1.6,0.8-3v-17.2c0-0.5,0.2-0.7,0.7-0.7h8.9c0.5,0,0.7,0.2,0.7,0.7V253
		c0,3.1-0.7,5.5-2,6.9c-1.3,1.5-3.5,2.2-6.7,2.2h-37.7c-3.1,0-5.2-0.7-6.5-2.2c-1.3-1.5-2-3.8-2-6.9V237c0-0.5,0.2-0.7,0.7-0.7h8.9
		c0.5,0,0.7,0.2,0.7,0.7v12.6c0,1.5,0.3,2.5,0.8,3c0.6,0.6,1.4,0.8,2.7,0.8H382C383.3,253.4,384.2,253.1,384.8,252.5z M359.2,228.5
		c-0.5,0-0.7-0.2-0.7-0.7v-7.1c0-0.5,0.2-0.7,0.7-0.7h7.3c0.5,0,0.7,0.2,0.7,0.7v7.1c0,0.5-0.2,0.7-0.7,0.7H359.2z M370.4,228.5
		c-0.5,0-0.7-0.2-0.7-0.7v-7.1c0-0.5,0.2-0.7,0.7-0.7h7.3c0.5,0,0.7,0.2,0.7,0.7v7.1c0,0.5-0.2,0.7-0.7,0.7H370.4z"/>
	<path class="st0" d="M403.9,213.5c0-0.5,0.2-0.7,0.7-0.7h8.8c0.5,0,0.7,0.2,0.7,0.7v36c0,1.5,0.3,2.5,0.8,3
		c0.6,0.6,1.4,0.8,2.7,0.8h2c1,0,1.7,0.4,2.2,1.1c0.5,0.7,0.7,1.9,0.7,3.5c0,1.7-0.2,2.9-0.7,3.4c-0.5,0.5-1.2,0.8-2.2,0.8h-7.2
		c-3.1,0-5.2-0.7-6.5-2.2c-1.3-1.5-2-3.8-2-6.9V213.5z"/>
	<path class="st0" d="M442.2,262.7c-2.6,0-4.9-0.3-7.1-1c-2.2-0.7-4-1.8-5.4-3.5c-0.7,1-1.5,1.7-2.4,2.2c-0.9,0.5-1.8,0.9-2.7,1.2
		c-0.9,0.3-1.8,0.4-2.7,0.5c-0.9,0-1.6,0.1-2.3,0.1c-1,0-1.7-0.3-2.2-0.9c-0.5-0.6-0.7-1.7-0.7-3.3c0-1.7,0.2-2.9,0.7-3.5
		c0.5-0.7,1.2-1,2.2-1h2.1c1.1,0,2.1-0.5,3-1.4c0.9-0.9,1.4-2.6,1.5-5.2v-1.5c0-2.9,0.4-5.3,1.3-7.2c0.9-1.9,2.1-3.5,3.6-4.6
		c1.5-1.2,3.2-2,5.1-2.5c1.9-0.5,3.9-0.7,6-0.7c2.1,0,4.2,0.3,6.1,0.8c1.9,0.5,3.6,1.4,5.1,2.7c1.5,1.3,2.7,2.9,3.5,5
		c0.9,2.1,1.3,4.8,1.3,8c0,3-0.4,5.4-1.2,7.5c-0.8,2-2,3.7-3.4,4.9c-1.4,1.2-3.1,2.1-5.1,2.7C446.6,262.4,444.5,262.7,442.2,262.7z
		 M442.2,239.1c-4,0-6,2.4-6,7.3c0,2.8,0.5,4.7,1.5,5.8c1,1.1,2.5,1.6,4.5,1.6c2,0,3.5-0.5,4.5-1.6c1-1.1,1.5-3,1.5-5.8
		C448.1,241.6,446.2,239.1,442.2,239.1z"/>
	<path class="st0" d="M478,253.4c1.2,0,2.2-0.1,2.9-0.3c0.7-0.2,1.3-0.4,1.6-0.8c0.4-0.4,0.6-0.9,0.7-1.5c0.1-0.6,0.2-1.4,0.2-2.3
		v-3.9c0-1.9-0.5-3.3-1.6-4.1c-1.1-0.8-2.7-1.3-4.9-1.3h-8.4c-0.5,0-0.7-0.2-0.7-0.7v-7.3c0-0.5,0.2-0.7,0.7-0.7H480
		c4.5,0,8,1,10.4,2.9s3.7,5.3,3.7,10.1v6c0.1,1.2,0.6,2.2,1.6,2.9c0.9,0.7,2.3,1.1,4,1.1h1.6c1,0,1.7,0.3,2.2,1
		c0.5,0.7,0.7,1.8,0.7,3.3c0,3-1,4.4-2.9,4.4c-2,0-3.7-0.3-5.2-0.8c-1.5-0.5-2.7-1.6-3.6-3.3c-0.9,1.6-2.1,2.6-3.6,3.2
		c-1.5,0.6-3.4,0.9-5.7,0.9h-17.6c-0.5,0-0.7-0.2-0.7-0.7v-7.3c0-0.5,0.2-0.7,0.7-0.7H478z"/>
	<path class="st0" d="M504.4,236.2c1.7-1.7,3.6-3.1,5.8-4.2c2.2-1.1,4.8-1.6,7.9-1.6c3.2,0,5.9,0.5,8.1,1.4c2.2,0.9,4,2.2,5.4,3.8
		c1.4,1.6,2.4,3.5,3,5.7c0.6,2.2,0.9,4.6,0.9,7.2v1.2c0.1,1.2,0.7,2.1,1.6,2.8c0.9,0.7,2.2,1,3.9,1h1.7c1,0,1.7,0.3,2.2,1
		c0.5,0.7,0.7,1.8,0.7,3.3c0,3-1,4.4-2.9,4.4c-2,0-3.8-0.3-5.3-0.8s-2.7-1.8-3.7-3.6c-1,1.7-2.3,2.9-4.1,3.5
		c-1.8,0.6-3.9,0.9-6.3,0.9h-22.1c-1,0-1.7-0.3-2.2-1c-0.5-0.7-0.7-1.8-0.7-3.3c0-1.5,0.2-2.7,0.7-3.4c0.4-0.7,1.2-1.1,2.3-1.1h18
		c1.2,0,2.1-0.1,2.8-0.3c0.7-0.2,1.3-0.5,1.7-0.9c0.4-0.4,0.7-1,0.9-1.7c0.2-0.7,0.3-1.6,0.3-2.7c0-1.2-0.1-2.3-0.4-3.4
		c-0.2-1.1-0.7-2-1.2-2.8c-0.6-0.8-1.3-1.4-2.3-1.9s-2.1-0.7-3.5-0.7c-1.6,0-2.9,0.3-4.1,0.9c-1.2,0.6-2.3,1.4-3.3,2.3
		c-0.3,0.3-0.7,0.4-1,0.1l-4.3-5.2C504.2,236.8,504.2,236.4,504.4,236.2z M514,224.3c-0.5,0-0.7-0.2-0.7-0.7v-7.1
		c0-0.5,0.2-0.7,0.7-0.7h9c0.5,0,0.7,0.2,0.7,0.7v7.1c0,0.5-0.2,0.7-0.7,0.7H514z"/>
	<path class="st0" d="M542.7,262.2c-1,0-1.7-0.2-2.2-0.5c-0.5-0.3-0.7-1-0.7-2c0-0.6,0.1-1.2,0.2-2s0.3-1.4,0.5-2
		c0.2-0.6,0.5-1.2,0.9-1.6s0.8-0.7,1.3-0.7h2.5c1.2,0,2.1-0.3,2.7-0.8c0.6-0.6,0.8-1.6,0.8-3v-36c0-0.5,0.2-0.7,0.7-0.7h8.9
		c0.5,0,0.7,0.2,0.7,0.7V253c0,3.1-0.7,5.5-2,6.9c-1.3,1.5-3.5,2.2-6.5,2.2H542.7z"/>
	<path class="st0" d="M578,261.4c0,0.5-0.2,0.7-0.7,0.7h-8.8c-0.5,0-0.7-0.2-0.7-0.7v-47.9c0-0.5,0.2-0.7,0.7-0.7h8.8
		c0.5,0,0.7,0.2,0.7,0.7V261.4z"/>
	<path class="st0" d="M592.5,277.1c-0.5,0-0.7-0.2-0.7-0.7V269c0-0.5,0.2-0.7,0.7-0.7h8.4c1,0,1.8-0.1,2.6-0.2
		c0.8-0.1,1.4-0.4,2-0.8c0.6-0.4,1-1.1,1.3-1.9c0.3-0.8,0.5-1.9,0.5-3.2h-3.1c-2.9,0-5.5-0.2-7.8-0.5c-2.3-0.3-4.3-1.1-5.9-2.1
		c-1.6-1.1-2.9-2.6-3.7-4.6s-1.3-4.6-1.3-7.9c0-3.1,0.4-5.7,1.3-7.8c0.9-2.1,2.1-3.8,3.6-5.2c1.5-1.3,3.2-2.3,5.1-2.8
		s3.9-0.9,5.9-0.9c2.1,0,4.2,0.3,6.1,0.8c1.9,0.5,3.6,1.4,5.1,2.7c1.5,1.2,2.6,2.9,3.5,5s1.3,4.7,1.3,7.8v16.9
		c0,4.6-1.2,7.9-3.5,10.2c-2.3,2.2-5.9,3.3-10.8,3.3H592.5z M601.5,239.1c-2,0-3.5,0.7-4.5,2c-1,1.4-1.5,3.2-1.5,5.5
		c0,2.7,0.6,4.4,1.7,5.3c1.1,0.9,2.6,1.3,4.5,1.3h5.6v-7C607.2,241.5,605.3,239.1,601.5,239.1z"/>
	<path class="st0" d="M678.6,260.6c0,3.1-0.5,5.7-1.4,7.8c-0.9,2.2-2.2,3.9-3.9,5.3c-1.6,1.4-3.6,2.4-5.8,3.1c-2.3,0.7-4.7,1-7.2,1
		c-2.5,0-4.9-0.3-7.2-1c-2.3-0.7-4.2-1.7-5.9-3.1c-1.7-1.4-3-3.2-4-5.4c-1-2.2-1.5-4.8-1.5-7.9c0-2.4,0.4-4.9,1.1-7.4
		c0.7-2.5,1.7-4.8,2.9-7c0.2-0.3,0.6-0.4,1.1-0.2l7.8,2.5c0.2,0.1,0.4,0.2,0.4,0.4s0,0.4-0.1,0.5c-0.7,1.4-1.3,2.9-1.9,4.6
		c-0.6,1.7-0.9,3.6-0.9,5.7c0,1.7,0.2,3.1,0.7,4.3c0.5,1.2,1.1,2.1,1.9,2.8s1.7,1.2,2.7,1.6c1,0.3,2,0.5,3,0.5
		c2.5,0,4.4-0.7,5.8-2.1c1.4-1.4,2.1-3.6,2.1-6.5v-46.6c0-0.5,0.2-0.7,0.7-0.7h8.8c0.5,0,0.7,0.2,0.7,0.7v36
		c0.1,1.2,0.6,2.2,1.6,2.9c0.9,0.7,2.3,1.1,4,1.1h1.7c1,0,1.7,0.3,2.2,1c0.5,0.7,0.7,1.8,0.7,3.3c0,3-1,4.4-2.9,4.4
		c-1.5,0-2.9-0.1-4.1-0.4c-1.2-0.3-2.2-0.9-3.1-1.9V260.6z"/>
	<path class="st0" d="M706.2,230.3c2.5,0,4.7,0.3,6.7,0.8c2,0.6,3.7,1.4,5.1,2.4c1.4,1,2.5,2.3,3.2,3.9c0.8,1.6,1.1,3.3,1.1,5.4
		c0,2.3-0.5,4.3-1.6,6.1c-1.1,1.8-2.4,3.3-4.1,4.5c0.4,0,0.8-0.1,1.2-0.1c0.4,0,0.8,0,1.2,0h7.4c1,0,1.7,0.3,2.2,0.9
		s0.7,1.8,0.7,3.5c0,1.6-0.2,2.8-0.7,3.5c-0.5,0.7-1.2,1-2.2,1h-10.8c-1.7,0-3.4-0.1-4.9-0.2c-1.6-0.1-3-0.7-4.4-1.5
		c-1.6,0.9-3.3,1.4-5.1,1.5c-1.8,0.1-3.4,0.2-4.8,0.2h-10.5c-1,0-1.8-0.3-2.2-1c-0.5-0.7-0.7-1.8-0.7-3.5c0-1.5,0.2-2.7,0.7-3.3
		c0.5-0.7,1.2-1,2.2-1h9.9c-1.6-1.1-3-2.6-4-4.4c-1-1.8-1.6-3.9-1.6-6.1c0-2,0.4-3.8,1.1-5.4c0.8-1.5,1.8-2.8,3.2-3.9
		c1.4-1,3.1-1.8,5.1-2.4C701.5,230.6,703.8,230.3,706.2,230.3z M697.2,224.2c-0.5,0-0.7-0.2-0.7-0.7v-7.1c0-0.5,0.2-0.7,0.7-0.7h7.3
		c0.5,0,0.7,0.2,0.7,0.7v7.1c0,0.5-0.2,0.7-0.7,0.7H697.2z M706.2,237.5c-1.5,0-2.9,0.5-4.1,1.5c-1.2,1-1.8,2.5-1.8,4.6
		c0,2.2,0.6,4,1.7,5.3c1.2,1.3,2.5,2.4,4.1,3.2c1.6-0.8,3-1.8,4.1-3.2s1.7-3.1,1.7-5.3c0-2.1-0.6-3.7-1.8-4.6
		C709.1,238,707.7,237.5,706.2,237.5z M708.3,224.2c-0.5,0-0.7-0.2-0.7-0.7v-7.1c0-0.5,0.2-0.7,0.7-0.7h7.3c0.5,0,0.7,0.2,0.7,0.7
		v7.1c0,0.5-0.2,0.7-0.7,0.7H708.3z"/>
	<path class="st0" d="M742,258.5c-0.8,1.5-2,2.5-3.4,2.9c-1.5,0.5-3.5,0.7-6.1,0.7h-5.8c-1,0-1.7-0.2-2.2-0.5
		c-0.5-0.3-0.7-1-0.7-2.1c0-0.6,0-1.3,0.1-2c0.1-0.7,0.3-1.4,0.5-2c0.2-0.6,0.6-1.1,0.9-1.6c0.4-0.4,0.9-0.6,1.5-0.6h2.4
		c1.5,0,2.5-0.4,2.9-1.3c0.4-0.8,0.6-2.4,0.6-4.5v-15.3c0-0.4,0.4-0.6,1.1-0.7s1.3-0.1,1.9-0.1h6.7c0.5,0,0.7,0.2,0.7,0.7v17.1
		c0.1,1.2,0.6,2.2,1.6,2.9c0.9,0.7,2.3,1.1,4,1.1h1.7c1,0,1.7,0.3,2.2,1c0.5,0.7,0.7,1.8,0.7,3.3c0,3-1,4.4-2.9,4.4
		c-1.8,0-3.4-0.2-4.8-0.7C744.1,261.1,743,260.1,742,258.5z M733.4,224.2c-0.5,0-0.7-0.2-0.7-0.7v-7.1c0-0.5,0.2-0.7,0.7-0.7h9
		c0.5,0,0.7,0.2,0.7,0.7v7.1c0,0.5-0.2,0.7-0.7,0.7H733.4z"/>
	<path class="st0" d="M750,262.2c-1,0-1.7-0.2-2.2-0.5c-0.5-0.3-0.7-1-0.7-2c0-0.6,0.1-1.2,0.2-2s0.3-1.4,0.5-2
		c0.2-0.6,0.5-1.2,0.9-1.6s0.8-0.7,1.3-0.7h2.5c1.2,0,2.1-0.3,2.7-0.8c0.6-0.6,0.8-1.6,0.8-3v-36c0-0.5,0.2-0.7,0.7-0.7h8.9
		c0.5,0,0.7,0.2,0.7,0.7V253c0,3.1-0.7,5.5-2,6.9c-1.3,1.5-3.5,2.2-6.5,2.2H750z"/>
	<path class="st0" d="M785.3,261.4c0,0.5-0.2,0.7-0.7,0.7h-8.8c-0.5,0-0.7-0.2-0.7-0.7v-47.9c0-0.5,0.2-0.7,0.7-0.7h8.8
		c0.5,0,0.7,0.2,0.7,0.7V261.4z"/>
	<path class="st0" d="M825.9,262.7c-2.3,0-4.4-0.3-6.4-0.8c-2-0.5-3.7-1.4-5.1-2.7c-1.4-1.2-2.6-2.9-3.4-4.9c-0.8-2-1.2-4.5-1.2-7.5
		c0-3.2,0.4-5.8,1.3-8c0.9-2.1,2-3.8,3.5-5c1.5-1.3,3.2-2.2,5.1-2.7c1.9-0.5,4-0.8,6.1-0.8s4.2,0.3,6.1,0.8c1.9,0.5,3.6,1.4,5.1,2.7
		c1.5,1.3,2.7,2.9,3.5,5c0.9,2.1,1.3,4.8,1.3,8c0,3-0.4,5.4-1.2,7.5c-0.8,2-1.9,3.7-3.4,4.9c-1.4,1.2-3.1,2.1-5.1,2.7
		C830.3,262.4,828.1,262.7,825.9,262.7z M816.6,224.2c-0.5,0-0.7-0.2-0.7-0.7v-7.1c0-0.5,0.2-0.7,0.7-0.7h7.3c0.5,0,0.7,0.2,0.7,0.7
		v7.1c0,0.5-0.2,0.7-0.7,0.7H816.6z M825.9,239.1c-4,0-6,2.4-6,7.3c0,2.8,0.5,4.7,1.5,5.8c1,1.1,2.5,1.6,4.4,1.6
		c2,0,3.5-0.5,4.5-1.6s1.5-3,1.5-5.8C831.8,241.6,829.8,239.1,825.9,239.1z M827.8,224.2c-0.5,0-0.7-0.2-0.7-0.7v-7.1
		c0-0.5,0.2-0.7,0.7-0.7h7.3c0.5,0,0.7,0.2,0.7,0.7v7.1c0,0.5-0.2,0.7-0.7,0.7H827.8z"/>
	<path class="st0" d="M846.3,277.1c-0.5,0-0.7-0.2-0.7-0.7V269c0-0.5,0.2-0.7,0.7-0.7h1.6c2,0,3.4-0.5,4.2-1.5
		c0.8-1,1.3-2.6,1.3-4.6v-29.8c0-0.5,0.2-0.7,0.7-0.7h8.9c0.5,0,0.7,0.2,0.7,0.7v30.1c0,5-1.2,8.7-3.5,11c-2.3,2.4-5.9,3.6-10.6,3.6
		H846.3z"/>
	<path class="st0" d="M882.4,261.4c0,0.5-0.2,0.7-0.7,0.7h-8.8c-0.5,0-0.7-0.2-0.7-0.7v-47.9c0-0.5,0.2-0.7,0.7-0.7h8.8
		c0.5,0,0.7,0.2,0.7,0.7V261.4z"/>
	<path class="st0" d="M887.7,277.1c-0.5,0-0.7-0.2-0.7-0.7V269c0-0.5,0.2-0.7,0.7-0.7h1.6c2,0,3.4-0.5,4.2-1.5
		c0.8-1,1.3-2.6,1.3-4.6v-29.8c0-0.5,0.2-0.7,0.7-0.7h8.9c0.5,0,0.7,0.2,0.7,0.7v30.1c0,5-1.2,8.7-3.5,11c-2.3,2.4-5.9,3.6-10.6,3.6
		H887.7z M895.4,224.2c-0.5,0-0.7-0.2-0.7-0.7v-7.1c0-0.5,0.2-0.7,0.7-0.7h9c0.5,0,0.7,0.2,0.7,0.7v7.1c0,0.5-0.2,0.7-0.7,0.7H895.4
		z"/>
	<path class="st0" d="M919.4,277.1c-0.5,0-0.7-0.2-0.7-0.7V269c0-0.5,0.2-0.7,0.7-0.7h8.4c1,0,1.8-0.1,2.6-0.2
		c0.8-0.1,1.4-0.4,2-0.8c0.6-0.4,1-1.1,1.3-1.9c0.3-0.8,0.5-1.9,0.5-3.2h-3.1c-2.9,0-5.5-0.2-7.8-0.5c-2.3-0.3-4.3-1.1-5.9-2.1
		c-1.6-1.1-2.9-2.6-3.7-4.6s-1.3-4.6-1.3-7.9c0-3.1,0.4-5.7,1.3-7.8c0.9-2.1,2.1-3.8,3.6-5.2c1.5-1.3,3.2-2.3,5.1-2.8
		s3.9-0.9,5.9-0.9c2.1,0,4.2,0.3,6.1,0.8c1.9,0.5,3.6,1.4,5.1,2.7c1.5,1.2,2.6,2.9,3.5,5s1.3,4.7,1.3,7.8v16.9
		c0,4.6-1.2,7.9-3.5,10.2c-2.3,2.2-5.9,3.3-10.8,3.3H919.4z M928.4,239.1c-2,0-3.5,0.7-4.5,2c-1,1.4-1.5,3.2-1.5,5.5
		c0,2.7,0.6,4.4,1.7,5.3c1.1,0.9,2.6,1.3,4.5,1.3h5.6v-7C934.2,241.5,932.3,239.1,928.4,239.1z"/>
</g>
<g>
	<path class="st0" d="M26.2,295.2c0-0.3,0.1-0.4,0.4-0.4h5.2c0.4,0,0.6,0.1,0.7,0.4l7.6,17.1h0.2l7.4-17.1c0.1-0.3,0.4-0.4,0.7-0.4
		h5.1c0.3,0,0.4,0.1,0.4,0.4v29c0,0.3-0.1,0.4-0.4,0.4h-5c-0.3,0-0.4-0.1-0.4-0.4v-16.9H48L42.5,320c-0.2,0.4-0.5,0.6-0.8,0.6h-3
		c-0.4,0-0.7-0.2-0.8-0.6l-5.5-12.6h-0.2v16.9c0,0.3-0.1,0.4-0.4,0.4h-5c-0.3,0-0.4-0.1-0.4-0.4V295.2z"/>
	<path class="st0" d="M62.2,300c-0.3,0-0.4-0.1-0.4-0.4v-4.4c0-0.3,0.1-0.4,0.4-0.4h5.3c0.3,0,0.4,0.1,0.4,0.4v4.4
		c0,0.3-0.1,0.4-0.4,0.4H62.2z M62.2,324.7c-0.3,0-0.4-0.1-0.4-0.4v-20.4c0-0.3,0.1-0.4,0.4-0.4h5.3c0.3,0,0.4,0.1,0.4,0.4v20.4
		c0,0.3-0.1,0.4-0.4,0.4H62.2z"/>
	<path class="st0" d="M88.8,324.7c-0.3,0-0.4-0.1-0.4-0.4V312c0-1.2-0.3-2.1-0.8-2.8c-0.5-0.7-1.4-1.1-2.5-1.1
		c-1.1,0-1.9,0.4-2.5,1.1c-0.6,0.7-0.9,1.6-0.9,2.8v12.2c0,0.3-0.1,0.4-0.4,0.4H76c-0.3,0-0.4-0.1-0.4-0.4v-20.4
		c0-0.3,0.1-0.4,0.4-0.4h5.3c0.3,0,0.4,0.1,0.4,0.4v1.5h0c0.5-0.7,1.2-1.2,2.1-1.7c0.9-0.5,2-0.7,3.4-0.7c1.2,0,2.2,0.2,3.1,0.6
		c0.9,0.4,1.7,0.9,2.3,1.6c0.6,0.7,1.1,1.5,1.4,2.5c0.3,1,0.5,2,0.5,3.2v13.4c0,0.3-0.1,0.4-0.4,0.4H88.8z"/>
	<path class="st0" d="M102.4,300c-0.3,0-0.4-0.1-0.4-0.4v-4.4c0-0.3,0.1-0.4,0.4-0.4h5.3c0.3,0,0.4,0.1,0.4,0.4v4.4
		c0,0.3-0.1,0.4-0.4,0.4H102.4z M102.4,324.7c-0.3,0-0.4-0.1-0.4-0.4v-20.4c0-0.3,0.1-0.4,0.4-0.4h5.3c0.3,0,0.4,0.1,0.4,0.4v20.4
		c0,0.3-0.1,0.4-0.4,0.4H102.4z"/>
	<path class="st0" d="M124.1,325.2c-2.2,0-4.1-0.3-5.7-1c-1.6-0.7-2.9-1.4-3.9-2.3c-0.2-0.2-0.2-0.4,0-0.6l2.9-3.2
		c0.2-0.2,0.4-0.2,0.6,0c0.9,0.7,2,1.3,3.1,1.7c1.1,0.4,2.3,0.6,3.4,0.6c1.1,0,1.9-0.2,2.5-0.6c0.5-0.4,0.8-0.9,0.8-1.5
		c0-0.5-0.2-0.9-0.6-1.2s-1.2-0.5-2.4-0.6l-2.4-0.3c-2.3-0.2-4-0.9-5.2-2s-1.8-2.6-1.8-4.5c0-2.1,0.8-3.8,2.3-5
		c1.5-1.2,3.7-1.8,6.5-1.8c1.8,0,3.5,0.2,4.9,0.7c1.5,0.5,2.7,1.1,3.7,1.9c0.2,0.2,0.2,0.4,0,0.7l-2.5,3c-0.2,0.2-0.4,0.2-0.6,0.1
		c-0.7-0.5-1.6-0.9-2.6-1.2c-1-0.3-2.1-0.5-3.2-0.5c-0.9,0-1.6,0.2-2,0.5c-0.4,0.3-0.7,0.7-0.7,1.3c0,0.5,0.2,0.9,0.6,1.2
		c0.4,0.3,1.2,0.5,2.4,0.6l2.3,0.3c2.5,0.2,4.3,0.9,5.4,2.1c1.1,1.1,1.7,2.6,1.7,4.4c0,2.2-0.9,4-2.5,5.3S127.1,325.2,124.1,325.2z"
		/>
	<path class="st0" d="M147.2,324.9c-2.5,0-4.2-0.6-5.2-1.7c-1-1.1-1.5-2.9-1.5-5.4v-9.7c0-0.2-0.1-0.3-0.3-0.3h-1.3
		c-0.3,0-0.4-0.1-0.4-0.4v-3.7c0-0.3,0.1-0.4,0.4-0.4h1.3c0.2,0,0.3-0.1,0.3-0.3v-5.7c0-0.3,0.1-0.4,0.4-0.4h5.2
		c0.3,0,0.4,0.1,0.4,0.4v5.7c0,0.2,0.1,0.3,0.3,0.3h2.7c0.3,0,0.4,0.1,0.4,0.4v3.7c0,0.3-0.1,0.4-0.4,0.4h-2.7
		c-0.2,0-0.3,0.1-0.3,0.3v9.4c0,0.8,0.1,1.3,0.4,1.7c0.3,0.3,0.8,0.5,1.5,0.5h1.1c0.3,0,0.4,0.1,0.4,0.4v4.4c0,0.3-0.1,0.4-0.4,0.4
		H147.2z"/>
	<path class="st0" d="M157.1,324.7c-0.3,0-0.4-0.1-0.4-0.4v-20.4c0-0.3,0.1-0.4,0.4-0.4h5.3c0.3,0,0.4,0.1,0.4,0.4v1.8h0
		c0.5-0.9,1.2-1.5,2.2-2c0.9-0.5,2.1-0.7,3.4-0.7c0.7,0,1.4,0.1,2,0.3s1.2,0.5,1.7,0.9c0.2,0.2,0.2,0.4,0.1,0.6l-2.5,4.5
		c-0.1,0.2-0.4,0.2-0.6,0.1c-1.1-0.7-2.1-1-3.1-1c-1.1,0.1-2,0.5-2.5,1.3c-0.5,0.8-0.8,1.9-0.8,3.3v11.2c0,0.3-0.1,0.4-0.4,0.4
		H157.1z"/>
	<path class="st0" d="M178.8,332.6c-0.3,0-0.4-0.1-0.4-0.4v-4.3c0-0.3,0.1-0.4,0.4-0.4h0.9c0.8,0,1.4-0.2,1.8-0.5
		c0.5-0.3,0.8-0.9,1.1-1.7l0.6-1.6l-7.9-19.8c-0.1-0.3,0-0.4,0.4-0.4h5.6c0.3,0,0.4,0.1,0.5,0.4l4.3,12.3h0.1l4-12.3
		c0.1-0.3,0.3-0.4,0.5-0.4h5.5c0.3,0,0.4,0.1,0.4,0.4l-8.6,22.7c-0.4,1.2-0.9,2.2-1.4,2.9s-1,1.4-1.6,1.9c-0.6,0.5-1.2,0.8-2,1
		c-0.7,0.2-1.6,0.3-2.6,0.3H178.8z"/>
	<path class="st0" d="M223.2,325.2c-2.3,0-4.2-0.5-5.9-1.5c-1.6-1-2.8-2.5-3.4-4.4c-0.2-0.8-0.4-1.5-0.5-2.4
		c-0.1-0.8-0.2-1.7-0.2-2.8c0-1.1,0.1-2,0.2-2.8c0.1-0.8,0.3-1.6,0.5-2.4c0.6-1.9,1.7-3.4,3.4-4.4c1.6-1,3.6-1.5,5.9-1.5
		c2.3,0,4.2,0.5,5.9,1.5c1.6,1,2.8,2.5,3.4,4.4c0.2,0.8,0.4,1.5,0.5,2.4c0.1,0.8,0.2,1.7,0.2,2.8c0,1.1-0.1,2-0.2,2.8
		c-0.1,0.8-0.3,1.6-0.5,2.4c-0.6,1.9-1.7,3.4-3.4,4.4C227.4,324.7,225.4,325.2,223.2,325.2z M223.2,320c1.7,0,2.8-0.8,3.3-2.3
		c0.1-0.5,0.2-1,0.3-1.5c0.1-0.5,0.1-1.2,0.1-2.1c0-0.9,0-1.6-0.1-2.1c-0.1-0.5-0.2-1-0.3-1.5c-0.5-1.5-1.6-2.3-3.3-2.3
		c-1.7,0-2.8,0.8-3.3,2.3c-0.1,0.5-0.2,1-0.3,1.5c-0.1,0.5-0.1,1.2-0.1,2.1c0,0.9,0,1.6,0.1,2.1c0.1,0.5,0.2,1,0.3,1.5
		C220.4,319.2,221.5,320,223.2,320z"/>
	<path class="st0" d="M240.9,324.7c-0.3,0-0.4-0.1-0.4-0.4v-16.1c0-0.2-0.1-0.3-0.3-0.3h-1.3c-0.3,0-0.4-0.1-0.4-0.4v-3.7
		c0-0.3,0.1-0.4,0.4-0.4h1.3c0.2,0,0.3-0.1,0.3-0.3v-1c0-2.6,0.6-4.5,1.8-5.6c1.2-1.1,3.1-1.7,5.7-1.7h2.4c0.3,0,0.4,0.1,0.4,0.4
		v4.1c0,0.3-0.1,0.4-0.4,0.4H249c-1,0-1.6,0.2-1.9,0.5c-0.3,0.3-0.5,0.9-0.5,1.8v1.1c0,0.2,0.1,0.3,0.3,0.3h3.5
		c0.3,0,0.4,0.1,0.4,0.4v3.7c0,0.3-0.1,0.4-0.4,0.4h-3.5c-0.2,0-0.3,0.1-0.3,0.3v16.1c0,0.3-0.1,0.4-0.4,0.4H240.9z"/>
	<path class="st0" d="M275.3,324.7c-0.3,0-0.4-0.1-0.4-0.4v-23.5c0-0.2-0.1-0.3-0.3-0.3H267c-0.3,0-0.4-0.1-0.4-0.4v-4.9
		c0-0.3,0.1-0.4,0.4-0.4h22.1c0.3,0,0.4,0.1,0.4,0.4v4.9c0,0.3-0.1,0.4-0.4,0.4h-7.6c-0.2,0-0.3,0.1-0.3,0.3v23.5
		c0,0.3-0.1,0.4-0.4,0.4H275.3z"/>
	<path class="st0" d="M295.6,324.7c-0.3,0-0.4-0.1-0.4-0.4v-20.4c0-0.3,0.1-0.4,0.4-0.4h5.3c0.3,0,0.4,0.1,0.4,0.4v1.8h0
		c0.5-0.9,1.2-1.5,2.2-2c0.9-0.5,2.1-0.7,3.4-0.7c0.7,0,1.4,0.1,2,0.3s1.2,0.5,1.7,0.9c0.2,0.2,0.2,0.4,0.1,0.6l-2.5,4.5
		c-0.1,0.2-0.4,0.2-0.6,0.1c-1.1-0.7-2.1-1-3.1-1c-1.1,0.1-2,0.5-2.5,1.3c-0.5,0.8-0.8,1.9-0.8,3.3v11.2c0,0.3-0.1,0.4-0.4,0.4
		H295.6z"/>
	<path class="st0" d="M327.4,324.7c-0.3,0-0.4-0.1-0.4-0.4v-1.4h0c-0.6,0.7-1.3,1.3-2.2,1.7c-0.9,0.4-2.1,0.6-3.6,0.6
		c-0.9,0-1.8-0.1-2.7-0.4c-0.9-0.2-1.6-0.6-2.3-1.2c-0.6-0.5-1.2-1.2-1.5-2c-0.4-0.8-0.6-1.8-0.6-2.9c0-2.3,0.8-4.1,2.4-5.2
		c1.6-1.1,3.8-1.7,6.4-1.7h3.8c0.2,0,0.3-0.1,0.3-0.3v-0.8c0-1-0.3-1.7-0.9-2.2c-0.6-0.5-1.8-0.7-3.5-0.7c-1.1,0-2,0.1-2.8,0.4
		s-1.4,0.6-1.9,1c-0.2,0.2-0.4,0.1-0.6-0.1l-2-3.5c-0.1-0.3-0.1-0.5,0.1-0.6c0.9-0.6,2-1.2,3.3-1.5c1.3-0.4,2.8-0.6,4.6-0.6
		c1.7,0,3.2,0.2,4.4,0.5c1.2,0.3,2.2,0.8,2.9,1.4c0.7,0.6,1.3,1.4,1.6,2.4c0.3,1,0.5,2.1,0.5,3.4v13.6c0,0.3-0.1,0.4-0.4,0.4H327.4z
		 M323,320.5c2.6,0,4-1,4-2.9v-1.5c0-0.2-0.1-0.3-0.3-0.3h-3c-2.5,0-3.8,0.8-3.8,2.4C319.9,319.8,320.9,320.5,323,320.5z"/>
	<path class="st0" d="M353.5,324.7c-0.3,0-0.4-0.1-0.4-0.4V312c0-1.2-0.3-2.1-0.8-2.8c-0.5-0.7-1.4-1.1-2.5-1.1
		c-1.1,0-1.9,0.4-2.5,1.1c-0.6,0.7-0.9,1.6-0.9,2.8v12.2c0,0.3-0.1,0.4-0.4,0.4h-5.3c-0.3,0-0.4-0.1-0.4-0.4v-20.4
		c0-0.3,0.1-0.4,0.4-0.4h5.3c0.3,0,0.4,0.1,0.4,0.4v1.5h0c0.5-0.7,1.2-1.2,2.1-1.7c0.9-0.5,2-0.7,3.4-0.7c1.2,0,2.2,0.2,3.1,0.6
		c0.9,0.4,1.7,0.9,2.3,1.6c0.6,0.7,1.1,1.5,1.4,2.5c0.3,1,0.5,2,0.5,3.2v13.4c0,0.3-0.1,0.4-0.4,0.4H353.5z"/>
	<path class="st0" d="M375,325.2c-2.2,0-4.1-0.3-5.7-1c-1.6-0.7-2.9-1.4-3.9-2.3c-0.2-0.2-0.2-0.4,0-0.6l2.9-3.2
		c0.2-0.2,0.4-0.2,0.6,0c0.9,0.7,2,1.3,3.1,1.7c1.1,0.4,2.3,0.6,3.4,0.6c1.1,0,1.9-0.2,2.5-0.6c0.5-0.4,0.8-0.9,0.8-1.5
		c0-0.5-0.2-0.9-0.6-1.2s-1.2-0.5-2.4-0.6l-2.4-0.3c-2.3-0.2-4-0.9-5.2-2s-1.8-2.6-1.8-4.5c0-2.1,0.8-3.8,2.3-5
		c1.5-1.2,3.7-1.8,6.5-1.8c1.8,0,3.5,0.2,4.9,0.7c1.5,0.5,2.7,1.1,3.7,1.9c0.2,0.2,0.2,0.4,0,0.7l-2.5,3c-0.2,0.2-0.4,0.2-0.6,0.1
		c-0.7-0.5-1.6-0.9-2.6-1.2c-1-0.3-2.1-0.5-3.2-0.5c-0.9,0-1.6,0.2-2,0.5c-0.4,0.3-0.7,0.7-0.7,1.3c0,0.5,0.2,0.9,0.6,1.2
		c0.4,0.3,1.2,0.5,2.4,0.6l2.3,0.3c2.5,0.2,4.3,0.9,5.4,2.1c1.1,1.1,1.7,2.6,1.7,4.4c0,2.2-0.9,4-2.5,5.3S378.1,325.2,375,325.2z"/>
	<path class="st0" d="M391.4,332.6c-0.3,0-0.4-0.1-0.4-0.4v-28.3c0-0.3,0.1-0.4,0.4-0.4h5.3c0.3,0,0.4,0.1,0.4,0.4v1.5h0
		c0.5-0.7,1.2-1.3,2.1-1.8c0.9-0.5,2.1-0.7,3.5-0.7c1.8,0,3.3,0.4,4.5,1.3c1.2,0.9,2.1,2.1,2.7,3.8c0.3,0.9,0.5,1.7,0.6,2.6
		c0.1,0.9,0.2,2,0.2,3.4c0,1.4-0.1,2.5-0.2,3.4c-0.1,0.9-0.3,1.8-0.6,2.6c-0.6,1.7-1.5,2.9-2.7,3.8c-1.2,0.9-2.7,1.3-4.5,1.3
		c-1.4,0-2.6-0.2-3.5-0.7c-0.9-0.5-1.6-1-2.1-1.8h0v9.5c0,0.3-0.1,0.4-0.4,0.4H391.4z M400.7,320c1.7,0,2.8-0.8,3.3-2.3
		c0.1-0.4,0.2-0.9,0.3-1.4c0.1-0.5,0.1-1.3,0.1-2.2c0-0.9,0-1.7-0.1-2.2c-0.1-0.5-0.2-1-0.3-1.4c-0.5-1.5-1.6-2.3-3.3-2.3
		c-1.7,0-2.8,0.8-3.3,2.3c-0.1,0.4-0.2,0.9-0.3,1.4c-0.1,0.5-0.1,1.3-0.1,2.2c0,0.9,0,1.7,0.1,2.2c0.1,0.5,0.2,1,0.3,1.4
		C398,319.2,399.1,320,400.7,320z"/>
	<path class="st0" d="M426.1,325.2c-2.3,0-4.2-0.5-5.9-1.5c-1.6-1-2.8-2.5-3.4-4.4c-0.2-0.8-0.4-1.5-0.5-2.4
		c-0.1-0.8-0.2-1.7-0.2-2.8c0-1.1,0.1-2,0.2-2.8c0.1-0.8,0.3-1.6,0.5-2.4c0.6-1.9,1.7-3.4,3.4-4.4c1.6-1,3.6-1.5,5.9-1.5
		c2.3,0,4.2,0.5,5.9,1.5c1.6,1,2.8,2.5,3.4,4.4c0.2,0.8,0.4,1.5,0.5,2.4c0.1,0.8,0.2,1.7,0.2,2.8c0,1.1-0.1,2-0.2,2.8
		c-0.1,0.8-0.3,1.6-0.5,2.4c-0.6,1.9-1.7,3.4-3.4,4.4C430.3,324.7,428.4,325.2,426.1,325.2z M426.1,320c1.7,0,2.8-0.8,3.3-2.3
		c0.1-0.5,0.2-1,0.3-1.5c0.1-0.5,0.1-1.2,0.1-2.1c0-0.9,0-1.6-0.1-2.1c-0.1-0.5-0.2-1-0.3-1.5c-0.5-1.5-1.6-2.3-3.3-2.3
		c-1.7,0-2.8,0.8-3.3,2.3c-0.1,0.5-0.2,1-0.3,1.5c-0.1,0.5-0.1,1.2-0.1,2.1c0,0.9,0,1.6,0.1,2.1c0.1,0.5,0.2,1,0.3,1.5
		C423.3,319.2,424.4,320,426.1,320z"/>
	<path class="st0" d="M443.1,324.7c-0.3,0-0.4-0.1-0.4-0.4v-20.4c0-0.3,0.1-0.4,0.4-0.4h5.3c0.3,0,0.4,0.1,0.4,0.4v1.8h0
		c0.5-0.9,1.2-1.5,2.2-2c0.9-0.5,2.1-0.7,3.4-0.7c0.7,0,1.4,0.1,2,0.3s1.2,0.5,1.7,0.9c0.2,0.2,0.2,0.4,0.1,0.6l-2.5,4.5
		c-0.1,0.2-0.4,0.2-0.6,0.1c-1.1-0.7-2.1-1-3.1-1c-1.1,0.1-2,0.5-2.5,1.3c-0.5,0.8-0.8,1.9-0.8,3.3v11.2c0,0.3-0.1,0.4-0.4,0.4
		H443.1z"/>
	<path class="st0" d="M470.7,324.9c-2.5,0-4.2-0.6-5.2-1.7c-1-1.1-1.5-2.9-1.5-5.4v-9.7c0-0.2-0.1-0.3-0.3-0.3h-1.3
		c-0.3,0-0.4-0.1-0.4-0.4v-3.7c0-0.3,0.1-0.4,0.4-0.4h1.3c0.2,0,0.3-0.1,0.3-0.3v-5.7c0-0.3,0.1-0.4,0.4-0.4h5.2
		c0.3,0,0.4,0.1,0.4,0.4v5.7c0,0.2,0.1,0.3,0.3,0.3h2.7c0.3,0,0.4,0.1,0.4,0.4v3.7c0,0.3-0.1,0.4-0.4,0.4h-2.7
		c-0.2,0-0.3,0.1-0.3,0.3v9.4c0,0.8,0.1,1.3,0.4,1.7c0.3,0.3,0.8,0.5,1.5,0.5h1.1c0.3,0,0.4,0.1,0.4,0.4v4.4c0,0.3-0.1,0.4-0.4,0.4
		H470.7z"/>
	<path class="st0" d="M505,324.7c-0.3,0-0.4-0.1-0.4-0.4v-1.4h0c-0.6,0.7-1.3,1.3-2.2,1.7c-0.9,0.4-2.1,0.6-3.6,0.6
		c-0.9,0-1.8-0.1-2.7-0.4c-0.9-0.2-1.6-0.6-2.3-1.2c-0.6-0.5-1.2-1.2-1.5-2c-0.4-0.8-0.6-1.8-0.6-2.9c0-2.3,0.8-4.1,2.4-5.2
		c1.6-1.1,3.8-1.7,6.4-1.7h3.8c0.2,0,0.3-0.1,0.3-0.3v-0.8c0-1-0.3-1.7-0.9-2.2c-0.6-0.5-1.8-0.7-3.5-0.7c-1.1,0-2,0.1-2.8,0.4
		s-1.4,0.6-1.9,1c-0.2,0.2-0.4,0.1-0.6-0.1l-2-3.5c-0.1-0.3-0.1-0.5,0.1-0.6c0.9-0.6,2-1.2,3.3-1.5c1.3-0.4,2.8-0.6,4.6-0.6
		c1.7,0,3.2,0.2,4.4,0.5c1.2,0.3,2.2,0.8,2.9,1.4c0.7,0.6,1.3,1.4,1.6,2.4c0.3,1,0.5,2.1,0.5,3.4v13.6c0,0.3-0.1,0.4-0.4,0.4H505z
		 M500.5,320.5c2.6,0,4-1,4-2.9v-1.5c0-0.2-0.1-0.3-0.3-0.3h-3c-2.5,0-3.8,0.8-3.8,2.4C497.5,319.8,498.5,320.5,500.5,320.5z"/>
	<path class="st0" d="M531.1,324.7c-0.3,0-0.4-0.1-0.4-0.4V312c0-1.2-0.3-2.1-0.8-2.8s-1.4-1.1-2.5-1.1c-1.1,0-1.9,0.4-2.5,1.1
		s-0.9,1.6-0.9,2.8v12.2c0,0.3-0.1,0.4-0.4,0.4h-5.3c-0.3,0-0.4-0.1-0.4-0.4v-20.4c0-0.3,0.1-0.4,0.4-0.4h5.3c0.3,0,0.4,0.1,0.4,0.4
		v1.5h0c0.5-0.7,1.2-1.2,2.1-1.7c0.9-0.5,2-0.7,3.4-0.7c1.2,0,2.2,0.2,3.1,0.6c0.9,0.4,1.7,0.9,2.3,1.6c0.6,0.7,1.1,1.5,1.4,2.5
		c0.3,1,0.5,2,0.5,3.2v13.4c0,0.3-0.1,0.4-0.4,0.4H531.1z"/>
	<path class="st0" d="M557.2,324.7c-0.3,0-0.4-0.1-0.4-0.4v-1.5h0c-0.5,0.7-1.2,1.3-2.1,1.8c-0.9,0.5-2.1,0.7-3.5,0.7
		c-1.8,0-3.3-0.4-4.5-1.3c-1.2-0.9-2.1-2.1-2.7-3.8c-0.3-0.9-0.5-1.7-0.6-2.6c-0.1-0.9-0.2-2-0.2-3.4c0-1.4,0.1-2.6,0.2-3.4
		s0.3-1.7,0.6-2.6c0.6-1.7,1.5-3,2.7-3.8c1.2-0.9,2.7-1.3,4.5-1.3c1.4,0,2.6,0.2,3.5,0.7c0.9,0.5,1.6,1,2.1,1.8h0v-10.2
		c0-0.3,0.1-0.4,0.4-0.4h5.3c0.3,0,0.4,0.1,0.4,0.4v29c0,0.3-0.1,0.4-0.4,0.4H557.2z M553.1,320c1.7,0,2.8-0.8,3.3-2.3
		c0.1-0.4,0.2-0.9,0.3-1.4s0.1-1.3,0.1-2.2c0-0.9,0-1.7-0.1-2.2c-0.1-0.5-0.2-1-0.3-1.4c-0.5-1.5-1.6-2.3-3.3-2.3
		c-1.7,0-2.8,0.8-3.3,2.3c-0.1,0.4-0.2,0.9-0.3,1.4c-0.1,0.5-0.1,1.3-0.1,2.2c0,0.9,0,1.7,0.1,2.2s0.2,1,0.3,1.4
		C550.3,319.2,551.4,320,553.1,320z"/>
	<path class="st0" d="M583.1,295.2c0-0.3,0.1-0.4,0.4-0.4h5.6c0.3,0,0.4,0.1,0.4,0.4v23.5c0,0.2,0.1,0.3,0.3,0.3H603
		c0.3,0,0.4,0.1,0.4,0.4v4.9c0,0.3-0.1,0.4-0.4,0.4h-19.5c-0.3,0-0.4-0.1-0.4-0.4V295.2z"/>
	<path class="st0" d="M618.2,325.2c-2.3,0-4.2-0.5-5.9-1.5s-2.8-2.5-3.4-4.4c-0.2-0.8-0.4-1.5-0.5-2.4s-0.2-1.7-0.2-2.8
		c0-1.1,0.1-2,0.2-2.8c0.1-0.8,0.3-1.6,0.5-2.4c0.6-1.9,1.7-3.4,3.4-4.4c1.6-1,3.6-1.5,5.9-1.5c2.3,0,4.2,0.5,5.9,1.5
		c1.6,1,2.8,2.5,3.4,4.4c0.2,0.8,0.4,1.5,0.5,2.4c0.1,0.8,0.2,1.7,0.2,2.8c0,1.1-0.1,2-0.2,2.8s-0.3,1.6-0.5,2.4
		c-0.6,1.9-1.7,3.4-3.4,4.4S620.4,325.2,618.2,325.2z M618.2,320c1.7,0,2.8-0.8,3.3-2.3c0.1-0.5,0.2-1,0.3-1.5s0.1-1.2,0.1-2.1
		c0-0.9,0-1.6-0.1-2.1c-0.1-0.5-0.2-1-0.3-1.5c-0.5-1.5-1.6-2.3-3.3-2.3c-1.7,0-2.8,0.8-3.3,2.3c-0.1,0.5-0.2,1-0.3,1.5
		c-0.1,0.5-0.1,1.2-0.1,2.1c0,0.9,0,1.6,0.1,2.1s0.2,1,0.3,1.5C615.3,319.2,616.4,320,618.2,320z"/>
	<path class="st0" d="M642.4,333.1c-0.8,0-1.6-0.1-2.4-0.2c-0.8-0.2-1.5-0.4-2.3-0.7c-0.7-0.3-1.4-0.6-2-1c-0.6-0.4-1.1-0.8-1.5-1.3
		c-0.2-0.2-0.2-0.5,0-0.7l3.1-3.2c0.2-0.2,0.4-0.2,0.7,0c0.7,0.6,1.4,1,2.1,1.4c0.7,0.3,1.5,0.5,2.3,0.5c1.5,0,2.6-0.4,3.3-1.2
		c0.7-0.8,1-2,1-3.5v-1.8h0c-0.5,0.8-1.2,1.4-2.1,1.8c-0.9,0.4-2,0.7-3.4,0.7c-1.8,0-3.2-0.4-4.5-1.3c-1.2-0.9-2.1-2.1-2.7-3.9
		c-0.2-0.8-0.4-1.6-0.5-2.4s-0.2-1.8-0.2-2.9c0-1.1,0.1-2.1,0.2-2.9s0.3-1.6,0.5-2.4c0.6-1.7,1.4-3,2.7-3.9c1.2-0.9,2.7-1.3,4.5-1.3
		c1.3,0,2.5,0.2,3.4,0.7c0.9,0.4,1.6,1,2.1,1.8h0v-1.5c0-0.3,0.1-0.4,0.4-0.4h5.3c0.3,0,0.4,0.1,0.4,0.4v18.6
		C653,329.5,649.5,333.1,642.4,333.1z M643.3,318.7c0.8,0,1.5-0.2,2-0.6c0.5-0.4,0.9-1,1.1-1.7c0.1-0.4,0.2-0.8,0.3-1.3
		c0.1-0.5,0.1-1,0.1-1.7s0-1.2-0.1-1.7c-0.1-0.5-0.2-0.9-0.3-1.3c-0.2-0.8-0.6-1.3-1.1-1.7c-0.5-0.4-1.2-0.6-2-0.6
		c-0.9,0-1.5,0.2-2,0.6c-0.5,0.4-0.9,1-1.1,1.7c-0.1,0.4-0.2,0.8-0.3,1.3c-0.1,0.5-0.1,1-0.1,1.7s0,1.2,0.1,1.7
		c0.1,0.5,0.1,0.9,0.3,1.3c0.3,0.8,0.6,1.3,1.1,1.7C641.7,318.5,642.4,318.7,643.3,318.7z"/>
	<path class="st0" d="M661,300c-0.3,0-0.4-0.1-0.4-0.4v-4.4c0-0.3,0.1-0.4,0.4-0.4h5.3c0.3,0,0.4,0.1,0.4,0.4v4.4
		c0,0.3-0.1,0.4-0.4,0.4H661z M661,324.7c-0.3,0-0.4-0.1-0.4-0.4v-20.4c0-0.3,0.1-0.4,0.4-0.4h5.3c0.3,0,0.4,0.1,0.4,0.4v20.4
		c0,0.3-0.1,0.4-0.4,0.4H661z"/>
	<path class="st0" d="M682.7,325.2c-2.2,0-4.1-0.3-5.7-1s-2.9-1.4-3.9-2.3c-0.2-0.2-0.2-0.4,0-0.6l2.9-3.2c0.2-0.2,0.4-0.2,0.6,0
		c0.9,0.7,2,1.3,3.1,1.7c1.1,0.4,2.3,0.6,3.4,0.6c1.1,0,1.9-0.2,2.5-0.6c0.5-0.4,0.8-0.9,0.8-1.5c0-0.5-0.2-0.9-0.6-1.2
		c-0.4-0.3-1.2-0.5-2.4-0.6l-2.4-0.3c-2.3-0.2-4-0.9-5.2-2c-1.2-1.1-1.8-2.6-1.8-4.5c0-2.1,0.8-3.8,2.3-5c1.5-1.2,3.7-1.8,6.5-1.8
		c1.8,0,3.5,0.2,4.9,0.7c1.5,0.5,2.7,1.1,3.7,1.9c0.2,0.2,0.2,0.4,0,0.7l-2.5,3c-0.2,0.2-0.4,0.2-0.6,0.1c-0.7-0.5-1.6-0.9-2.6-1.2
		c-1-0.3-2.1-0.5-3.2-0.5c-0.9,0-1.6,0.2-2,0.5c-0.4,0.3-0.7,0.7-0.7,1.3c0,0.5,0.2,0.9,0.6,1.2c0.4,0.3,1.2,0.5,2.4,0.6l2.3,0.3
		c2.5,0.2,4.3,0.9,5.4,2.1c1.1,1.1,1.6,2.6,1.6,4.4c0,2.2-0.9,4-2.5,5.3S685.8,325.2,682.7,325.2z"/>
	<path class="st0" d="M705.9,324.9c-2.5,0-4.2-0.6-5.2-1.7c-1-1.1-1.5-2.9-1.5-5.4v-9.7c0-0.2-0.1-0.3-0.3-0.3h-1.3
		c-0.3,0-0.4-0.1-0.4-0.4v-3.7c0-0.3,0.1-0.4,0.4-0.4h1.3c0.2,0,0.3-0.1,0.3-0.3v-5.7c0-0.3,0.1-0.4,0.4-0.4h5.2
		c0.3,0,0.4,0.1,0.4,0.4v5.7c0,0.2,0.1,0.3,0.3,0.3h2.7c0.3,0,0.4,0.1,0.4,0.4v3.7c0,0.3-0.1,0.4-0.4,0.4h-2.7
		c-0.2,0-0.3,0.1-0.3,0.3v9.4c0,0.8,0.1,1.3,0.4,1.7c0.3,0.3,0.8,0.5,1.5,0.5h1.1c0.3,0,0.4,0.1,0.4,0.4v4.4c0,0.3-0.1,0.4-0.4,0.4
		H705.9z"/>
	<path class="st0" d="M715.7,300c-0.3,0-0.4-0.1-0.4-0.4v-4.4c0-0.3,0.1-0.4,0.4-0.4h5.3c0.3,0,0.4,0.1,0.4,0.4v4.4
		c0,0.3-0.1,0.4-0.4,0.4H715.7z M715.7,324.7c-0.3,0-0.4-0.1-0.4-0.4v-20.4c0-0.3,0.1-0.4,0.4-0.4h5.3c0.3,0,0.4,0.1,0.4,0.4v20.4
		c0,0.3-0.1,0.4-0.4,0.4H715.7z"/>
	<path class="st0" d="M737.9,325.2c-2.3,0-4.2-0.5-5.8-1.5s-2.7-2.5-3.4-4.5c-0.2-0.6-0.4-1.4-0.5-2.2c-0.1-0.8-0.2-1.8-0.2-2.9
		c0-1.1,0.1-2.1,0.2-2.9c0.1-0.8,0.3-1.6,0.5-2.2c0.6-2,1.8-3.5,3.4-4.5c1.6-1,3.5-1.5,5.8-1.5c1.8,0,3.5,0.4,4.8,1.1
		c1.4,0.7,2.4,1.7,3.2,2.9c0.1,0.2,0.1,0.4-0.1,0.6L742,310c-0.3,0.2-0.5,0.1-0.7-0.1c-0.5-0.6-1-1.1-1.5-1.4
		c-0.5-0.3-1.2-0.4-1.9-0.4c-0.8,0-1.5,0.2-2.1,0.6c-0.6,0.4-1,1-1.2,1.7c-0.1,0.4-0.2,0.9-0.3,1.5s-0.1,1.3-0.1,2.2
		c0,0.9,0,1.6,0.1,2.2c0.1,0.6,0.2,1.1,0.3,1.5c0.2,0.8,0.6,1.3,1.2,1.7c0.6,0.4,1.3,0.6,2.1,0.6c0.8,0,1.4-0.1,1.9-0.4
		c0.5-0.3,1-0.8,1.5-1.4c0.2-0.2,0.4-0.3,0.7-0.1l3.8,2.5c0.2,0.2,0.2,0.4,0.1,0.6c-0.8,1.2-1.8,2.1-3.2,2.9
		C741.3,324.8,739.7,325.2,737.9,325.2z"/>
	<path class="st0" d="M774.9,325.2c-1.2,0-2.3-0.1-3.5-0.3c-1.1-0.2-2.2-0.5-3.2-0.9s-1.9-0.8-2.8-1.3c-0.8-0.5-1.5-1-2.1-1.6
		c-0.2-0.2-0.2-0.5,0-0.7l3.3-3.8c0.2-0.2,0.4-0.2,0.7,0c1,0.8,2.2,1.5,3.5,2.1c1.3,0.6,2.8,0.9,4.4,0.9s2.8-0.3,3.6-1
		s1.3-1.5,1.3-2.6c0-0.9-0.3-1.6-1-2.2c-0.6-0.6-1.9-1-3.7-1.2l-1.6-0.2c-3.1-0.4-5.4-1.3-7-2.8s-2.4-3.5-2.4-6.2
		c0-1.4,0.2-2.6,0.7-3.8c0.5-1.1,1.2-2.1,2.1-2.9c0.9-0.8,2-1.4,3.3-1.8c1.3-0.4,2.8-0.7,4.4-0.7c2,0,3.9,0.3,5.6,0.8
		c1.8,0.6,3.3,1.3,4.5,2.3c0.3,0.2,0.3,0.4,0.1,0.7l-2.7,4c-0.2,0.2-0.4,0.3-0.6,0.1c-1.1-0.8-2.3-1.3-3.4-1.7
		c-1.1-0.4-2.3-0.6-3.5-0.6c-1.3,0-2.3,0.3-3,0.9c-0.7,0.6-1,1.4-1,2.3c0,0.9,0.3,1.6,1,2.1c0.7,0.6,1.9,1,3.6,1.2l1.6,0.2
		c3.1,0.4,5.5,1.3,7,2.8s2.4,3.5,2.4,6.3c0,1.3-0.2,2.6-0.7,3.8c-0.5,1.2-1.2,2.2-2.2,3c-1,0.8-2.2,1.5-3.7,2
		S776.9,325.2,774.9,325.2z"/>
	<path class="st0" d="M802.1,325.2c-2.4,0-4.5-0.5-6.1-1.6c-1.6-1.1-2.7-2.6-3.3-4.5c-0.2-0.7-0.4-1.4-0.5-2.2s-0.2-1.7-0.2-2.9
		c0-1.1,0.1-2.1,0.2-2.9c0.1-0.8,0.3-1.5,0.5-2.2c0.6-1.9,1.7-3.4,3.3-4.5c1.6-1,3.5-1.6,5.8-1.6c2.4,0,4.3,0.5,5.9,1.6
		c1.6,1.1,2.7,2.5,3.3,4.4c0.1,0.4,0.2,0.7,0.3,1.1c0.1,0.4,0.2,0.8,0.2,1.3c0.1,0.5,0.1,1.1,0.1,1.7s0,1.4,0,2.4
		c0,0.3-0.2,0.4-0.5,0.4h-12.9c-0.2,0-0.3,0.1-0.3,0.3c0,0.4,0.1,0.8,0.3,1.2c0.3,0.9,0.8,1.6,1.6,2.1c0.8,0.5,1.7,0.7,2.8,0.7
		c1.1,0,2-0.2,2.8-0.5c0.8-0.3,1.5-0.8,2.1-1.4c0.3-0.2,0.5-0.2,0.6,0l2.9,2.7c0.2,0.2,0.2,0.4,0,0.6c-1,1.1-2.3,2-3.8,2.6
		C805.8,324.8,804.1,325.2,802.1,325.2z M805.4,311.8c0.2,0,0.3-0.1,0.3-0.3c0-0.3,0-0.6-0.1-0.9s-0.1-0.5-0.2-0.7
		c-0.2-0.7-0.7-1.3-1.3-1.7c-0.6-0.4-1.4-0.6-2.3-0.6s-1.6,0.2-2.3,0.6c-0.6,0.4-1.1,1-1.3,1.7c-0.1,0.2-0.1,0.5-0.2,0.7
		c0,0.2-0.1,0.5-0.1,0.9c0,0.2,0.1,0.3,0.3,0.3H805.4z"/>
	<path class="st0" d="M818.7,324.7c-0.3,0-0.4-0.1-0.4-0.4v-20.4c0-0.3,0.1-0.4,0.4-0.4h5.3c0.3,0,0.4,0.1,0.4,0.4v1.8h0
		c0.5-0.9,1.2-1.5,2.2-2c0.9-0.5,2.1-0.7,3.4-0.7c0.7,0,1.4,0.1,2,0.3c0.7,0.2,1.2,0.5,1.7,0.9c0.2,0.2,0.2,0.4,0.1,0.6l-2.5,4.5
		c-0.1,0.2-0.4,0.2-0.6,0.1c-1.1-0.7-2.1-1-3.1-1c-1.1,0.1-2,0.5-2.5,1.3c-0.5,0.8-0.8,1.9-0.8,3.3v11.2c0,0.3-0.1,0.4-0.4,0.4
		H818.7z"/>
	<path class="st0" d="M845.1,324.7c-0.3,0-0.4-0.1-0.5-0.4l-7.6-20.4c-0.1-0.3,0-0.4,0.4-0.4h5.5c0.3,0,0.5,0.1,0.6,0.4l4.1,12.6
		h0.1l4-12.6c0.1-0.3,0.3-0.4,0.6-0.4h5.5c0.3,0,0.4,0.1,0.4,0.4l-7.6,20.4c-0.1,0.3-0.3,0.4-0.5,0.4H845.1z"/>
	<path class="st0" d="M863.9,300c-0.3,0-0.4-0.1-0.4-0.4v-4.4c0-0.3,0.1-0.4,0.4-0.4h5.3c0.3,0,0.4,0.1,0.4,0.4v4.4
		c0,0.3-0.1,0.4-0.4,0.4H863.9z M863.9,324.7c-0.3,0-0.4-0.1-0.4-0.4v-20.4c0-0.3,0.1-0.4,0.4-0.4h5.3c0.3,0,0.4,0.1,0.4,0.4v20.4
		c0,0.3-0.1,0.4-0.4,0.4H863.9z"/>
	<path class="st0" d="M886.1,325.2c-2.3,0-4.2-0.5-5.8-1.5s-2.7-2.5-3.4-4.5c-0.2-0.6-0.4-1.4-0.5-2.2c-0.1-0.8-0.2-1.8-0.2-2.9
		c0-1.1,0.1-2.1,0.2-2.9c0.1-0.8,0.3-1.6,0.5-2.2c0.6-2,1.8-3.5,3.4-4.5c1.6-1,3.5-1.5,5.8-1.5c1.8,0,3.5,0.4,4.8,1.1
		c1.4,0.7,2.4,1.7,3.2,2.9c0.1,0.2,0.1,0.4-0.1,0.6l-3.8,2.5c-0.3,0.2-0.5,0.1-0.7-0.1c-0.5-0.6-1-1.1-1.5-1.4
		c-0.5-0.3-1.2-0.4-1.9-0.4c-0.8,0-1.5,0.2-2.1,0.6c-0.6,0.4-1,1-1.2,1.7c-0.1,0.4-0.2,0.9-0.3,1.5s-0.1,1.3-0.1,2.2
		c0,0.9,0,1.6,0.1,2.2c0.1,0.6,0.2,1.1,0.3,1.5c0.2,0.8,0.6,1.3,1.2,1.7c0.6,0.4,1.3,0.6,2.1,0.6c0.8,0,1.4-0.1,1.9-0.4
		c0.5-0.3,1-0.8,1.5-1.4c0.2-0.2,0.4-0.3,0.7-0.1l3.8,2.5c0.2,0.2,0.2,0.4,0.1,0.6c-0.8,1.2-1.8,2.1-3.2,2.9
		C889.5,324.8,887.9,325.2,886.1,325.2z"/>
	<path class="st0" d="M909.6,325.2c-2.4,0-4.5-0.5-6.1-1.6c-1.6-1.1-2.7-2.6-3.3-4.5c-0.2-0.7-0.4-1.4-0.5-2.2s-0.2-1.7-0.2-2.9
		c0-1.1,0.1-2.1,0.2-2.9c0.1-0.8,0.3-1.5,0.5-2.2c0.6-1.9,1.7-3.4,3.3-4.5c1.6-1,3.5-1.6,5.8-1.6c2.4,0,4.3,0.5,5.9,1.6
		c1.6,1.1,2.7,2.5,3.3,4.4c0.1,0.4,0.2,0.7,0.3,1.1c0.1,0.4,0.2,0.8,0.2,1.3c0.1,0.5,0.1,1.1,0.1,1.7s0,1.4,0,2.4
		c0,0.3-0.2,0.4-0.5,0.4h-12.9c-0.2,0-0.3,0.1-0.3,0.3c0,0.4,0.1,0.8,0.3,1.2c0.3,0.9,0.8,1.6,1.6,2.1c0.8,0.5,1.7,0.7,2.8,0.7
		c1.1,0,2-0.2,2.8-0.5c0.8-0.3,1.5-0.8,2.1-1.4c0.3-0.2,0.5-0.2,0.6,0l2.9,2.7c0.2,0.2,0.2,0.4,0,0.6c-1,1.1-2.3,2-3.8,2.6
		C913.3,324.8,911.6,325.2,909.6,325.2z M912.9,311.8c0.2,0,0.3-0.1,0.3-0.3c0-0.3,0-0.6-0.1-0.9s-0.1-0.5-0.2-0.7
		c-0.2-0.7-0.7-1.3-1.3-1.7c-0.6-0.4-1.4-0.6-2.3-0.6s-1.6,0.2-2.3,0.6c-0.6,0.4-1.1,1-1.3,1.7c-0.1,0.2-0.1,0.5-0.2,0.7
		c0,0.2-0.1,0.5-0.1,0.9c0,0.2,0.1,0.3,0.3,0.3H912.9z"/>
	<path class="st0" d="M934.1,325.2c-2.2,0-4.1-0.3-5.7-1s-2.9-1.4-3.9-2.3c-0.2-0.2-0.2-0.4,0-0.6l2.9-3.2c0.2-0.2,0.4-0.2,0.6,0
		c0.9,0.7,2,1.3,3.1,1.7c1.1,0.4,2.3,0.6,3.4,0.6c1.1,0,1.9-0.2,2.5-0.6c0.5-0.4,0.8-0.9,0.8-1.5c0-0.5-0.2-0.9-0.6-1.2
		c-0.4-0.3-1.2-0.5-2.4-0.6l-2.4-0.3c-2.3-0.2-4-0.9-5.2-2c-1.2-1.1-1.8-2.6-1.8-4.5c0-2.1,0.8-3.8,2.3-5c1.5-1.2,3.7-1.8,6.5-1.8
		c1.8,0,3.5,0.2,4.9,0.7c1.5,0.5,2.7,1.1,3.7,1.9c0.2,0.2,0.2,0.4,0,0.7l-2.5,3c-0.2,0.2-0.4,0.2-0.6,0.1c-0.7-0.5-1.6-0.9-2.6-1.2
		c-1-0.3-2.1-0.5-3.2-0.5c-0.9,0-1.6,0.2-2,0.5c-0.4,0.3-0.7,0.7-0.7,1.3c0,0.5,0.2,0.9,0.6,1.2c0.4,0.3,1.2,0.5,2.4,0.6l2.3,0.3
		c2.5,0.2,4.3,0.9,5.4,2.1c1.1,1.1,1.6,2.6,1.6,4.4c0,2.2-0.9,4-2.5,5.3S937.2,325.2,934.1,325.2z"/>
</g>
<g>
	<rect x="1059.1" y="218.8" class="st1" width="14.1" height="36.8"/>
	<rect x="1059.1" y="173.2" class="st1" width="14.1" height="40.5"/>
	<path class="st1" d="M1071.9,140.9l-1-1.9c-0.7-1.1-1.3-2.2-1.9-3.3c-0.7-1.4-1.6-2.7-2.5-4c-0.9,1.3-1.7,2.6-2.5,4
		c-0.6,1.1-1.3,2.2-1.9,3.2l-1.8,3.3l-1.2,2.2v24.3h14.1v-25.4l-0.6-1L1071.9,140.9z"/>
	<path class="st1" d="M1099.8,272.2v16.1c0,16.1-11.4,29.6-26.5,32.8v-26.7h-14.1v26.7c-15.2-3.2-26.5-16.7-26.5-32.8v-16.1
		l-12.8,23.1l0.1,0.5c3.4,20.7,19.7,36.3,40,39l6.5,4.4l6.6-4.5c20.1-2.8,36.3-18.3,39.6-38.9l0.1-0.5L1099.8,272.2z"/>
	<path class="st1" d="M1068.3,107.6l-1.7-1.9l-0.6-0.6l-0.6-0.6c-0.9-1-1.8-1.9-2.7-2.9c-1.9-1.9-3.8-3.7-5.7-5.5
		c-2-1.7-3.9-3.4-5.8-5c-2-1.5-3.9-3-5.8-4.4c-1.9-1.4-3.8-2.6-5.7-3.8c-1.9-1.2-3.6-2.4-5.5-3.3c-1.8-1-3.5-1.9-5.1-2.8
		c-1.6-0.9-3.3-1.6-4.7-2.3c-3-1.4-5.6-2.6-7.9-3.4c-4.5-1.6-7-2.5-7-2.5s2,1.9,5.6,4.9c1.8,1.5,3.9,3.4,6.4,5.5
		c2.5,2,5.1,4.5,8,7.2c1.5,1.3,2.9,2.7,4.4,4.2c1.5,1.5,3.2,2.9,4.7,4.5c1.6,1.6,3.1,3.2,4.8,4.8c1.4,1.6,2.9,3.1,4.4,4.7
		c4.6,0.7,8.9,1.6,13,2.7l1.8,0.5l0.6,0.1l0.3,0.1l0.9,0.2l1.1,0.3l0.7,0.2l0.8-0.2l1.5-0.4L1068.3,107.6z"/>
	<path class="st1" d="M1069.6,106.5l0.1,0.1l0.7,0.9l1.4-0.4c4.4-1.2,9-2.1,13.9-2.8c1.4-1.5,2.8-3,4.2-4.5c1.6-1.6,3.2-3.2,4.8-4.8
		c1.5-1.6,3.2-3,4.7-4.5c1.5-1.5,3-2.9,4.5-4.1c2.9-2.6,5.6-5.1,8.1-7.1c2.5-2.1,4.6-4,6.4-5.4c3.6-3,5.6-4.8,5.6-4.8
		s-2.6,0.8-7.1,2.4c-2.3,0.8-4.9,1.9-7.9,3.3c-1.5,0.7-3.1,1.4-4.8,2.3c-1.6,0.9-3.3,1.8-5.2,2.8c-1.8,0.9-3.6,2.1-5.5,3.3
		c-1.9,1.2-3.8,2.4-5.7,3.8c-1.9,1.4-3.8,2.8-5.8,4.4c-1.9,1.6-3.9,3.2-5.8,4.9c-1.9,1.7-3.8,3.6-5.7,5.4c-0.9,0.9-1.8,1.9-2.7,2.9
		l1.1,1.3L1069.6,106.5z"/>
	<path class="st1" d="M1097.2,178.2c-0.2-4.1-0.7-8.6-1.5-13.3c-0.8-4.7-2-9.6-3.5-14.6c-1.2-3.9-2.7-7.8-4.4-11.7l-7.6-3.7
		c-1-0.4-2-0.9-3-1.3c-1.7-0.7-3.4-1.5-5.1-2.1l-2.5-1l-1.9-0.8l-0.7-0.3l0.4,0.7c1,1.6,2,3.1,2.9,4.7c0.6,1.1,1.3,2.2,1.9,3.2
		c0.6,1.1,1.2,2.2,1.8,3.3c1.2,2.2,2.2,4.4,3.4,6.6c1,2.2,2.1,4.4,3,6.6c1.9,4.4,3.5,8.7,5,12.8c1.4,4.2,2.7,8.2,3.6,11.9
		c2.1,7.5,3.3,14,4.1,18.5c0.3,2.3,0.6,4.1,0.8,5.4c0.2,1.3,0.2,1.9,0.2,1.9s0.2-0.6,0.6-1.9c0.3-1.2,0.8-3,1.2-5.4
		c0.4-2.4,0.9-5.2,1.1-8.6C1097.3,186.1,1097.4,182.3,1097.2,178.2"/>
	<path class="st1" d="M1066,129.4l-0.8,0.3l-2.2,0.9l-2.5,1c-1.7,0.7-3.4,1.4-5.1,2.1c-1,0.4-2,0.9-2.9,1.3l-7.4,3.5
		c-1.7,3.9-3.2,7.8-4.5,11.6c-1.6,5-2.8,9.9-3.7,14.5c-0.8,4.7-1.4,9.1-1.6,13.3c-0.2,4.1-0.2,7.9,0,11.2c0.2,3.3,0.6,6.2,1,8.6
		c0.3,2.4,0.8,4.2,1.1,5.4c0.3,1.2,0.6,1.9,0.6,1.9s0.1-0.7,0.2-1.9c0.2-1.2,0.5-3.1,0.8-5.4c0.8-4.6,2.1-11,4.2-18.5
		c1-3.7,2.3-7.7,3.8-11.9c1.5-4.2,3.2-8.5,5.1-12.8c1-2.2,2-4.4,3.1-6.6c1.1-2.2,2.2-4.4,3.4-6.6c0.6-1.1,1.2-2.2,1.8-3.3
		c0.7-1.1,1.3-2.1,1.9-3.2c0.9-1.6,1.9-3.1,2.9-4.7L1066,129.4L1066,129.4z"/>
	<path class="st2" d="M1062.4,109.3l-0.9-0.2l-1-0.3c-3.6-1-7.2-1.7-10.9-2.3l-1.3-0.2l-1.3-0.2c-1.7-0.2-3.3-0.5-5-0.7
		c-5.2-0.6-10.4-0.8-15.3-0.8l-2.2,0c-5.5,0.2-10.8,0.6-15.5,1.3c-4.8,0.7-9.1,1.6-12.8,2.6c-3.8,1-7,2.1-9.6,3.1
		c-2.6,0.9-4.6,2-5.9,2.6c-1.3,0.7-2,1.1-2,1.1s0.8-0.1,2.3-0.2c1.5-0.1,3.6-0.2,6.3-0.3c1.7,0,3.6-0.1,5.7-0.1
		c4.6,0,10.2,0.1,16.4,0.6c4.5,0.3,9.4,0.9,14.5,1.5c5,0.7,10.2,1.6,15.5,2.8c1.5-0.8,3.1-1.6,4.7-2.5c1-0.5,2-0.9,3-1.4
		c1.9-0.9,3.9-1.8,5.9-2.6l0,0l0.8-0.3l0.8-0.3l0.9-0.3c1.5-0.6,3-1.1,4.6-1.7l1.5-0.5l0.6-0.2l0.9-0.3l0,0L1062.4,109.3z"/>
	<path class="st2" d="M1149.6,174.2c-1.4-2.4-3.3-5.1-5.6-8.3c-1.1-1.6-2.3-3.3-3.7-4.9c-1.4-1.7-2.9-3.4-4.4-5.2
		c-1.5-1.9-3.2-3.6-5-5.5c-1.8-1.8-3.6-3.8-5.7-5.6c-2-1.9-4.1-3.8-6.3-5.7c-2.2-1.8-4.6-3.6-7-5.5c-2.4-1.8-5-3.5-7.5-5.3
		c-2.6-1.7-5.3-3.3-8.1-4.9c-1.1-0.6-2.2-1.2-3.3-1.8c-2.6,0.6-5.3,1.3-7.7,1.9c-1,0.3-2,0.6-3,0.8l-0.1,0.1l-0.7,0.2l-0.8,0.2
		c-1.2,0.3-2.4,0.7-3.6,1.1l-4.1,1.3c-1.5,0.5-2.8,1-4,1.4c1.3,0.5,2.6,1.1,3.9,1.6c2.7,1.1,5.4,2.3,8.1,3.5c2,0.9,3.9,1.9,5.9,2.8
		l1.2,0.6l0.9,0.4l0.3,0.2c2.5,1.3,4.9,2.6,7.3,3.9c2.5,1.4,4.9,2.8,7.4,4.2c2.4,1.5,4.7,3,7,4.3c2.3,1.5,4.5,3,6.6,4.4
		c2.2,1.4,4.2,2.9,6.2,4.3c2,1.4,4,2.7,5.8,4.2c3.7,2.7,7.1,5.2,10,7.6c3,2.3,5.6,4.3,7.7,6.1c4.2,3.4,6.8,5.3,6.8,5.3
		S1152.4,178.9,1149.6,174.2"/>
	<path class="st2" d="M1151.9,114.2c-1.3-0.6-3.3-1.6-5.9-2.6c-2.6-1-5.8-2.1-9.6-3.1c-3.7-1-8.1-1.9-12.8-2.6
		c-4.8-0.7-10-1.1-15.5-1.3l-2.2,0c-4.9,0-10,0.2-15.3,0.8c-1.4,0.2-2.8,0.3-4.2,0.5l-1.3,0.2l-1.3,0.2c-3.9,0.6-7.8,1.4-11.7,2.4
		l-0.6,0.2l-0.9,0.2l-0.9,0.2l-0.5,0.1l-1.5,0.4l-0.2,0.1l-1.2,0.4c-1.1,0.4-2.3,0.7-3.4,1.1l-1.6,0.5l-1.5,0.5l-1.5,0.6l-2.4,0.9
		l-0.8,0.3l-0.8,0.3l-0.5,0.2c-3,1.2-5.9,2.6-8.9,4c-1,0.5-1.9,1-2.9,1.5l-1.1,0.6l-1.1,0.6c-1.1,0.6-2.2,1.2-3.3,1.8
		c-2.8,1.6-5.5,3.2-8.1,4.9c-2.6,1.8-5.1,3.5-7.5,5.3c-2.4,1.9-4.7,3.7-7,5.5c-2.2,1.9-4.3,3.8-6.3,5.7c-2,1.8-3.9,3.8-5.7,5.7
		c-1.8,1.9-3.5,3.6-5,5.5c-1.5,1.8-3,3.6-4.4,5.3c-1.4,1.7-2.5,3.4-3.7,4.9c-2.3,3.1-4.2,5.9-5.6,8.3c-2.9,4.7-4.4,7.5-4.4,7.5
		s2.6-1.9,6.8-5.3c2.1-1.8,4.7-3.7,7.7-6.1c2.9-2.4,6.3-4.8,10-7.6c1.8-1.4,3.8-2.8,5.8-4.2c2-1.4,4-3,6.2-4.3
		c2.2-1.4,4.4-2.9,6.6-4.4c2.3-1.4,4.7-2.9,7-4.3c2.4-1.4,4.9-2.8,7.4-4.2c2.5-1.3,5.1-2.7,7.6-4l0,0l1.2-0.6l1.2-0.6
		c1.8-0.9,3.7-1.8,5.5-2.7c2.7-1.1,5.4-2.4,8.1-3.5c1.3-0.5,2.6-1,4-1.6l0.4-0.1l0.8-0.3l0,0l0.8-0.3l0.5-0.2l1.3-0.4l0.5-0.2
		l0.8-0.3l1.4-0.5l2-0.7c1.4-0.4,2.8-0.9,4.2-1.3c1-0.3,2.1-0.6,3.2-0.9l0.8-0.2l0.9-0.2c1.1-0.3,2.3-0.6,3.4-1c2-0.5,4-1,6-1.4
		l1.2-0.3l1-0.2l0.2-0.1c5.3-1.2,10.6-2.1,15.6-2.8c5.1-0.7,9.9-1.2,14.4-1.5c6.2-0.5,11.8-0.6,16.4-0.6c2.1,0,4,0,5.7,0.1
		c2.7,0.1,4.9,0.2,6.3,0.3c1.5,0.1,2.3,0.2,2.3,0.2S1153.3,114.8,1151.9,114.2"/>
	<path class="st2" d="M1078.3,237L1078.3,237l0,24.1h-24.2V237l-108.7-66.6c0,1.7,0.8,3.3,2.2,4.3l92.5,68.2v43.7
		c0,9.6,5.2,18.6,13.7,22.9l0.2,0.1l0.2,0.1v-20.6h24.2v20.6l0.2-0.1l0.2-0.1c8.6-4.3,13.7-13.3,13.7-22.9v-43.7l92.5-68.2
		c1.4-1,2.2-2.6,2.2-4.3L1078.3,237z M1054.1,269h24.2v12.2h-24.2V269z"/>
</g>
</svg>
