<?xml version="1.0" encoding="UTF-8"?>
<svg id="Layer_1" xmlns="http://www.w3.org/2000/svg" xmlns:xlink="http://www.w3.org/1999/xlink" version="1.1" viewBox="0 0 981.4 243.2">
  <!-- Generator: Adobe Illustrator 29.0.1, SVG Export Plug-In . SVG Version: 2.1.0 Build 192)  -->
  <defs>
    <style>
      .st0 {
        mask: url(#mask);
      }

      .st1 {
        fill: #008034;
      }

      .st2 {
        fill: url(#linear-gradient1);
      }

      .st3 {
        fill: #005d45;
      }

      .st4 {
        fill: url(#radial-gradient);
      }

      .st5 {
        fill: url(#linear-gradient);
      }

      .st6 {
        fill: #fff;
      }
    </style>
    <mask id="mask" x="160.7" y="40.9" width="660" height="161.4" maskUnits="userSpaceOnUse">
      <g id="mask0_1_47086">
        <path class="st6" d="M820.7,40.9H160.7v161.4h660V40.9Z"/>
      </g>
    </mask>
    <radialGradient id="radial-gradient" cx="205.9" cy="528.7" fx="205.9" fy="528.7" r="2.9" gradientTransform="translate(-5072.1 14545.4) scale(28.2 -27.3)" gradientUnits="userSpaceOnUse">
      <stop offset="0" stop-color="#000" stop-opacity="0"/>
      <stop offset=".1" stop-color="#000" stop-opacity="0"/>
      <stop offset=".2" stop-color="#000" stop-opacity="0"/>
      <stop offset=".9" stop-color="#000" stop-opacity=".3"/>
      <stop offset="1" stop-color="#000"/>
    </radialGradient>
    <linearGradient id="linear-gradient" x1="677.9" y1="89.4" x2="819.8" y2="164.3" gradientTransform="translate(0 244.1) scale(1 -1)" gradientUnits="userSpaceOnUse">
      <stop offset="0" stop-color="#c68d00"/>
      <stop offset=".2" stop-color="#ffd740"/>
      <stop offset=".3" stop-color="#f4c833"/>
      <stop offset=".5" stop-color="#d7a313"/>
      <stop offset=".6" stop-color="#c68d00"/>
      <stop offset="1" stop-color="#ffd740"/>
    </linearGradient>
    <linearGradient id="linear-gradient1" x1="718" y1="182.1" x2="763.1" y2="57.4" gradientTransform="translate(0 244.1) scale(1 -1)" gradientUnits="userSpaceOnUse">
      <stop offset="0" stop-color="#c68d00"/>
      <stop offset="0" stop-color="#d2a32a"/>
      <stop offset="0" stop-color="#dfb955"/>
      <stop offset=".2" stop-color="#eacc78"/>
      <stop offset=".2" stop-color="#f2da94"/>
      <stop offset=".3" stop-color="#f8e4a8"/>
      <stop offset=".3" stop-color="#fbeab4"/>
      <stop offset=".4" stop-color="#fdedb8"/>
      <stop offset=".6" stop-color="#fdedb8"/>
      <stop offset=".7" stop-color="#f5e09f"/>
      <stop offset=".8" stop-color="#e3c061"/>
      <stop offset="1" stop-color="#c68d00"/>
    </linearGradient>
  </defs>
  <g class="st0">
    <g>
      <path class="st3" d="M174.7,90.8c1.4,0,2.4-1.1,2.4-2.5s-1-2.4-2.4-2.4-2.4,1.1-2.4,2.4,1,2.5,2.4,2.5Z"/>
      <path class="st3" d="M167.8,90.8c1.4,0,2.4-1.1,2.4-2.5s-1.1-2.4-2.4-2.4-2.4,1.1-2.4,2.4,1,2.5,2.4,2.5Z"/>
      <path class="st3" d="M203.1,100.3c0,1.3,1,2.4,2.7,2.4s2.8-1.3,2.8-2.8c0-3.2-3.3-5.4-6.9-5.4-5.9,0-11.1,4.6-11.1,11s1.8,7.3,4.7,9.2h-12.9c-2.2-.2-2.5-2.5-2.5-3.8v-12.5c0-1,0-2.3.3-3.5h-2.4c-.3.3-.2.5-.3.7-.2.6-.4,1.2-.5,1.2,0,0-.3-.2-.8-.5-1.1-.7-2.9-1.9-5.6-1.9-6,0-9.8,5.4-9.8,11s3.8,11.2,8.8,11.2,6.2-2.9,6.9-5c0,4.4,2.7,5,5.9,5h18.9c3,0,5.2-1,6.9-2.7l-1.2-.8c-1.2,1.1-2.8,1.7-4.9,1.7-4.7,0-6.8-4.1-6.8-9.7s2.2-8.9,6.5-8.9,3.8,1,4.4,2.3c-.3,0-.6,0-1,0-1.4,0-2.2.8-2.2,2.1M175.3,110.4c-.8,2.5-2.8,4.3-5.2,4.3s-5.1-2.2-5.1-9.2,1.7-9.6,5.4-9.6,5.3,4.6,5.3,8.7,0,4.4-.5,5.8"/>
      <path class="st3" d="M218.6,116.4v-30.7l-6.3,1.2c2,.7,2.1,1,2.1,2.1v27.4h4.2,0Z"/>
      <path class="st3" d="M233.5,94.9l-6.4,1.2c2.1.7,2.2,1,2.2,2.2v12.2c-.4,9-3.8,12.5-10.7,14.3,1.8.1,2.8.2,3.4.2,10.7,0,11.5-9.5,11.5-18.1v-12h0Z"/>
      <path class="st3" d="M244.7,91.1c1.3,0,2.5-1.1,2.5-2.5s-1.1-2.5-2.5-2.5-2.5,1.1-2.5,2.5,1.1,2.5,2.5,2.5Z"/>
      <path class="st3" d="M258,89v21c0,2.8-1.1,4.6-3.8,4.6h-7.1c.4-2.5.5-5.1.5-7.7v-12l-6.3,1.2c2.1.7,2.1,1,2.1,2.2v12.2c-.3,9-3.8,12.5-10.7,14.3,1.8.1,2.9.2,3.4.2,6.7,0,9.5-3.8,10.6-8.7h8.5c4.1,0,7-2.2,7-6.3v-24.5l-6.3,1.2c2.1.7,2.1,1,2.1,2.1"/>
      <path class="st3" d="M268.6,89v27.4h4.2v-30.7l-6.3,1.2c2,.7,2.1,1,2.1,2.1"/>
      <path class="st3" d="M278.1,108.9c0,4.6,4.1,7.4,7.3,7.5h.2c3.5,0,4.9-1.8,5.9-3.4-.9,9-6.3,10.9-10.3,11.8l-1.1.2c1.7.1,3.2.2,3.9.2,5.1,0,11.6-2,11.6-18.3v-11.8h-3.6c-8.1,0-13.9,5.4-13.9,13.8M291.4,107.7c0,3.7-2.2,7.2-5,7.2-2.7-.1-4.2-3.5-4.2-6.3,0-7.2,4.5-12,8.7-12h.5v11.1Z"/>
      <path class="st3" d="M318.7,94.2c-6.4,0-10.1,5.4-10.1,11.1s3.7,11,10.1,11,10.1-5.4,10.1-11-3.8-11.1-10.1-11.1ZM318.7,114.7c-3.8,0-5.5-3.4-5.5-9.4s1.7-9.4,5.5-9.4,5.5,3.3,5.5,9.4-1.7,9.4-5.5,9.4Z"/>
      <path class="st3" d="M353.5,120.8c-1.4,0-2.4,1.1-2.4,2.4s1,2.5,2.4,2.5,2.4-1.1,2.4-2.5-1-2.4-2.4-2.4Z"/>
      <path class="st3" d="M346.6,120.8c-1.5,0-2.4,1.1-2.4,2.4s1,2.5,2.4,2.5,2.4-1.1,2.4-2.5-1.1-2.4-2.4-2.4Z"/>
      <path class="st3" d="M399.2,88.9v21.1c0,2.8-1.1,4.6-3.6,4.6h-3.7c-2.2,0-3.8-2-4.6-4.3,0-.5.1-1.1.1-1.7,0-4.4-3.1-10.3-8.9-10.3s-8.2,4.4-9.4,8.9c-.6,2.4-1.4,5.3-2.8,6.7-.6.5-1.4.6-1.8.7h-3.8c-3.3,0-5.3-4.4-5.3-7.4v-12.3l-6.3,1.2c1.9.7,2.1.9,2.1,1.9v12.1c0,2.8-1.1,4.5-3.6,4.5h-3.7c-2-.1-3.2-1.5-3.2-4v-24.8l-7.6.3v1.6c2.7,0,3.4.4,3.4,1.6v21.1c0,4.6,3,6,7.1,6h4.9c3,0,5.9-.9,7.1-3.8,1.5,2.3,3.5,3.8,6,3.8h3c2.5,0,3.9-.8,5-2,1.4,1.8,3.4,4.1,7.8,4.1s7.6-2.4,9-5.3c1.6,2.1,3.4,3.2,6.6,3.2h3.5c4.1,0,7-2.2,7-6.3v-24.5l-6.4,1.2c2.1.7,2.2,1,2.2,2.1M377.4,116.8c-3,0-5.1-2.4-6.4-4,0,0-.1-.2-.2-.3.9-1.7,1.3-3.5,1.8-5.1v-.3c1.1-3.8,2-7.2,5.1-7.2h.2c3.5.1,5.2,4.4,5.2,9s-2.6,7.9-5.6,7.9"/>
      <path class="st3" d="M409.7,89v27.4h4.2v-30.7l-6.3,1.2c2,.7,2.1,1,2.1,2.1"/>
      <path class="st3" d="M419.1,108.9c0,4.6,4.1,7.4,7.3,7.5h.2c3.5,0,4.9-1.8,5.9-3.4-.9,9-6.3,10.9-10.3,11.8l-1.1.2c1.7.1,3.2.2,3.9.2,5.1,0,11.6-2,11.6-18.3v-11.8h-3.6c-8.1,0-13.9,5.4-13.9,13.8M432.5,107.7c0,3.7-2.2,7.2-5,7.2-2.7-.1-4.2-3.5-4.2-6.3,0-7.2,4.5-12,8.7-12h.5v11.1Z"/>
      <path class="st3" d="M456.8,90.8c1.4,0,2.4-1.1,2.4-2.5s-1.1-2.4-2.4-2.4-2.4,1.1-2.4,2.4,1,2.5,2.4,2.5Z"/>
      <path class="st3" d="M463.7,90.8c1.4,0,2.4-1.1,2.4-2.5s-1-2.4-2.4-2.4-2.4,1.1-2.4,2.4,1,2.5,2.4,2.5Z"/>
      <path class="st3" d="M487,88.3h-2.2c-1.8,0-3-2.2-3-3.7s.6-2.1,1.4-2.1.6,0,.8.3c-.4.3-.7.9-.7,1.2,0,.7.7,1.2,1.6,1.2s1.6-.3,1.6-1.4-1.4-2.5-3.2-2.5c-2.5,0-4,1.8-4,3.9s1,2.4,1.8,3.1h-2.1l-.6,1.5h8.6v-1.5h0Z"/>
      <path class="st3" d="M499.7,120.8c-1.4,0-2.4,1.1-2.4,2.4s1,2.5,2.4,2.5,2.4-1.1,2.4-2.5-1-2.4-2.4-2.4Z"/>
      <path class="st3" d="M492.8,120.8c-1.5,0-2.4,1.1-2.4,2.4s1,2.5,2.4,2.5,2.4-1.1,2.4-2.5-1.1-2.4-2.4-2.4Z"/>
      <path class="st3" d="M515.2,120.2c-1.3,0-2.5,1.1-2.5,2.5s1.1,2.5,2.5,2.5,2.5-1.1,2.5-2.5-1.1-2.5-2.5-2.5Z"/>
      <path class="st3" d="M529.4,89v21c0,2.8-1.1,4.6-3.8,4.6h-1.5c-3.3,0-5.3-4.4-5.3-7.4v-12.3l-6.3,1.2c1.9.7,2.1.9,2.1,1.9v12.1c0,2.8-1.1,4.5-3.6,4.5h-4c-3.3,0-5.3-4.4-5.3-7.4v-12.3l-6.3,1.2c1.9.7,2.1.9,2.1,1.9v12.1c0,2.8-1.1,4.5-3.6,4.5h-2.7c-3.3,0-5.3-4.4-5.3-7.4v-12.3l-6.3,1.2c1.9.7,2.1.9,2.1,1.9v12.1c0,2.8-1.1,4.5-3.6,4.5h-6.7c-2.2-.2-2.5-2.5-2.5-3.8v-12.5c0-1,0-2.3.3-3.5h-2.4c-.3.3-.2.5-.3.7-.2.6-.4,1.2-.5,1.2,0,0-.3-.2-.8-.5-1.1-.7-2.9-1.9-5.6-1.9-6,0-9.8,5.4-9.8,11s3.8,11.2,8.8,11.2,6.2-2.9,6.9-5c0,4.4,2.7,5,5.9,5h7.5c3,0,5.9-.9,7.1-3.8,1.4,2.2,3.4,3.6,5.7,3.7h0s3.1,0,3.1,0c3,0,5.9-.9,7.1-3.8,1.5,2.3,3.5,3.8,6,3.8h4.1c3,0,5.9-.9,7.1-3.8,1.4,2.2,3.4,3.6,5.7,3.7h0s2.1,0,2.1,0c4.1,0,7-2.2,7-6.3v-24.5l-6.3,1.2c2.1.7,2.1,1,2.1,2.1M464.3,110.4c-.8,2.5-2.8,4.3-5.2,4.3s-5.1-2.2-5.1-9.2,1.7-9.6,5.4-9.6,5.3,4.6,5.3,8.7,0,4.4-.5,5.8"/>
      <path class="st3" d="M540,89v27.4h4.2v-30.7l-6.3,1.2c2,.7,2.1,1,2.1,2.1"/>
      <path class="st3" d="M570.8,89.8c1.4,0,2.4-1.1,2.4-2.5s-1.1-2.4-2.4-2.4-2.4,1.1-2.4,2.4,1,2.5,2.4,2.5Z"/>
      <path class="st3" d="M567.3,94.2c-6.3,0-10.1,5.4-10.1,11.1s3.7,11,10.1,11,10.1-5.4,10.1-11-3.8-11.1-10.1-11.1ZM567.3,114.7c-3.8,0-5.5-3.4-5.5-9.4s1.7-9.4,5.5-9.4,5.5,3.3,5.5,9.4-1.7,9.4-5.5,9.4Z"/>
      <path class="st3" d="M563.9,89.8c1.4,0,2.4-1.1,2.4-2.5s-1-2.4-2.4-2.4-2.4,1.1-2.4,2.4,1,2.5,2.4,2.5Z"/>
      <path class="st3" d="M588.1,98.3v12.2c-.4,9-3.8,12.5-10.7,14.3,1.8.1,2.8.2,3.4.2,10.7,0,11.5-9.5,11.5-18.1v-12l-6.3,1.2c2.1.7,2.1,1,2.1,2.2"/>
      <path class="st3" d="M602.8,116.4v-30.7l-6.3,1.2c2,.7,2.1,1,2.1,2.1v27.4h4.2,0Z"/>
      <path class="st3" d="M613.6,98v12.2c-.4,9-3.8,12.5-10.7,14.3,1.8.1,2.8.2,3.4.2,10.7,0,11.5-9.6,11.5-18.2v-11.9l-6.4,1.2c2.1.6,2.2,1,2.2,2.1"/>
      <path class="st3" d="M615.4,84.9c-1.3,0-2.5,1.1-2.5,2.5s1.1,2.5,2.5,2.5,2.4-1.1,2.4-2.5-1.1-2.5-2.4-2.5Z"/>
      <path class="st3" d="M637,95.1c-8.1,0-14,5.4-14,13.8s4.1,7.4,7.3,7.5h.2c3.5,0,4.9-1.8,5.9-3.4-.9,9-6.3,10.9-10.3,11.8l-1.1.2c1.7.1,3.2.2,3.9.2,5.1,0,11.6-2,11.6-18.3v-11.8h-3.6ZM636.4,107.7c0,3.7-2.2,7.2-5,7.2-2.7-.1-4.2-3.5-4.2-6.3,0-7.2,4.5-12,8.7-12h.5v11.1Z"/>
      <path class="st3" d="M163.3,142.3c0-2.4-.4-2.3-2.5-2.7v-.6h5.8l5.1,14.2h0l5-14.2h3.5v17.4h-2.6v-15.4h0l-5.4,15.4h-1.8l-5.4-15.2h0v15.2h-1.6v-14.1Z"/>
      <path class="st3" d="M184.2,147.7c0-1.8-.4-2.2-2-2.3v-.5l4.5-.8v12.3h-2.6v-8.6h0ZM183.9,140.4c0-.9.7-1.6,1.6-1.6s1.6.7,1.6,1.6-.8,1.6-1.7,1.6-1.6-.7-1.6-1.6Z"/>
      <path class="st3" d="M190.7,147.7c0-1.8-.4-2.2-2-2.3v-.5l4.6-.8v3.3h0c.4-.9,1.7-3.3,4.3-3.3s3.1,1.7,3.1,3.6v8.6h-2.6v-6.7c0-2,0-3.8-1.7-3.8s-3.1,2.4-3.1,4.2v6.3h-2.6v-8.6h0Z"/>
      <path class="st3" d="M204.5,147.7c0-1.8-.4-2.2-2-2.3v-.5l4.5-.8v12.3h-2.6v-8.6h0ZM204.3,140.4c0-.9.7-1.6,1.6-1.6s1.6.7,1.6,1.6-.8,1.6-1.7,1.6-1.6-.7-1.6-1.6Z"/>
      <path class="st3" d="M216.7,146.5c-.4-.3-1.6-1.2-3-1.2s-1.8.3-1.8,1.4c0,2.4,5.6,2.5,5.6,6.4s-2.1,3.6-4.6,3.6-2.7-.3-3.3-.5v-2c.7.5,1.9,1.3,3.4,1.3s2.2-.8,2.2-1.7c0-2.5-5.6-2.7-5.6-6.2s1.3-3.5,4.3-3.5,2.4.3,2.9.4v1.9h0Z"/>
      <path class="st3" d="M226.3,156.5c-.6.1-1.2.2-1.7.2-2.5,0-3.9-.4-3.9-3.3v-7.9h-2v-1h2v-2l2.6-2.3v4.3h3.4v1h-3.4v7.5c0,1.8.1,2.6,2.1,2.6s.6,0,.9,0v1h0Z"/>
      <path class="st3" d="M228.7,147.7c0-1.8-.4-2.2-2-2.3v-.5l4.6-.8v3.4h0c.4-1.2,1.2-3.4,3.2-3.4s.9,0,1.4.1v2.4c-.4-.1-.9-.3-1.3-.3-2.6,0-3.3,2-3.3,3.8v6.2h-2.6v-8.6h0Z"/>
      <path class="st3" d="M243.3,157.4c-.8,2.1-1.7,4.3-4.5,4.3s-3.5-2.1-3.6-3.3h2.9c0,.8.1,1.9,1.4,1.9s1.7-1.3,2-2.2l.3-.9-4.1-9.9c-.6-1.5-1-2.2-2.7-2.3v-.5h4.4l3.8,9.5,3.7-9.5h1.5l-5.1,13Z"/>
      <path class="st3" d="M257,150.4c0-4.3,1.8-6.3,5.5-6.3s5.5,2.6,5.5,6.3-1.7,6.3-5.5,6.3-5.5-2.7-5.5-6.3ZM262.6,155.8c2.5,0,2.7-2.8,2.7-5.4s-.2-5.4-2.7-5.4-2.7,3.1-2.7,5.4.2,5.4,2.7,5.4Z"/>
      <path class="st3" d="M271.4,145.4h-2.1v-1h2.1v-1.7c0-2.1.9-4.3,4-4.3s4.4,1.2,4.7,3h-2.9c0-.9-.4-2.2-1.6-2.2s-1.6,1.6-1.6,2.9v2.3h3.4v1h-3.4v11h-2.6v-11Z"/>
      <path class="st3" d="M287,142.5c0-2.6,0-2.6-2.4-2.9v-.6h12.3v3.8c0,0-.6,0-.6,0,0-2.1-1.1-2.6-2.8-2.6h-2c-1.3,0-1.6,0-1.6,1.3v5.1h3.1c1.8,0,1.9-1.1,2.1-2h.7v5.4h-.7c0-1.4-.6-2.2-2.1-2.2h-3.1v5.8c0,1.4.3,1.5,1.6,1.5h2.8c1.5,0,2.2-.5,2.3-2.5h.7v3.7h-10.3v-13.9h0Z"/>
      <path class="st3" d="M300.3,147.7c0-1.8-.4-2.2-2-2.3v-.5l4.6-.8v3.3h0c.4-.9,1.7-3.3,4.3-3.3s3.1,1.7,3.1,3.6v8.6h-2.6v-6.7c0-2,0-3.8-1.7-3.8s-3.1,2.4-3.1,4.2v6.3h-2.6v-8.6h0Z"/>
      <path class="st3" d="M313.9,147.2c-.6-1.7-.9-2.2-2.7-2.3v-.5h4.3l3.6,9.1,3.5-9.1h1.5l-4.6,12h-1.9l-3.7-9.2h0Z"/>
      <path class="st3" d="M326.5,147.7c0-1.8-.4-2.2-2-2.3v-.5l4.5-.8v12.3h-2.6v-8.6h0ZM326.2,140.4c0-.9.7-1.6,1.6-1.6s1.6.7,1.6,1.6-.8,1.6-1.7,1.6-1.6-.7-1.6-1.6Z"/>
      <path class="st3" d="M332.8,147.7c0-1.8-.4-2.2-2-2.3v-.5l4.6-.8v3.4h0c.4-1.2,1.1-3.4,3.2-3.4s.9,0,1.4.1v2.4c-.4-.1-.9-.3-1.3-.3-2.6,0-3.3,2-3.3,3.8v6.2h-2.6v-8.6h0Z"/>
      <path class="st3" d="M340.3,150.4c0-4.3,1.8-6.3,5.5-6.3s5.5,2.6,5.5,6.3-1.7,6.3-5.5,6.3-5.5-2.7-5.5-6.3ZM345.8,155.8c2.5,0,2.7-2.8,2.7-5.4s-.2-5.4-2.7-5.4-2.7,3.1-2.7,5.4.2,5.4,2.7,5.4Z"/>
      <path class="st3" d="M354.2,147.7c0-1.8-.4-2.2-2-2.3v-.5l4.6-.8v3.3h0c.4-.9,1.7-3.3,4.3-3.3s3.1,1.7,3.1,3.6v8.6h-2.6v-6.7c0-2,0-3.8-1.7-3.8s-3.1,2.4-3.1,4.2v6.3h-2.6v-8.6h0Z"/>
      <path class="st3" d="M367.8,147.7c0-1.8-.4-2.2-2-2.3v-.5l4.6-.8v3.1h0c.4-.9,1.6-3.1,3.9-3.1s3,1.7,3.1,2.9h0c.5-1,1.5-2.9,3.8-2.9s3.3,3,3.3,4.8v7.5h-2.6v-7c0-1.6,0-3.5-1.7-3.5s-2.9,2.7-2.9,4.6v6h-2.6v-6.7c0-2,0-3.8-1.7-3.8s-2.9,2.4-2.9,4.2v6.3h-2.6v-8.6h0Z"/>
      <path class="st3" d="M396.9,156c-.5.2-1.8.7-3.6.7-3.9,0-6.3-2.4-6.3-6.7s1.9-5.9,5.4-5.9,4.7,3.2,4.7,4.9h-7.3c0,2.6,1.1,6.2,4.7,6.2s2-.3,2.4-.4v1.1h0ZM394.6,148c0-.6,0-3-2.3-3s-2.5,2-2.5,3h4.7,0Z"/>
      <path class="st3" d="M399.7,147.7c0-1.8-.4-2.2-2-2.3v-.5l4.6-.8v3.3h0c.4-.9,1.7-3.3,4.3-3.3s3.1,1.7,3.1,3.6v8.6h-2.6v-6.7c0-2,0-3.8-1.7-3.8s-3.1,2.4-3.1,4.2v6.3h-2.6v-8.6h0Z"/>
      <path class="st3" d="M419.3,156.5c-.6.1-1.1.2-1.7.2-2.5,0-3.9-.4-3.9-3.3v-7.9h-2v-1h2v-2l2.6-2.3v4.3h3.4v1h-3.4v7.5c0,1.8.1,2.6,2.1,2.6s.6,0,.9,0v1h0Z"/>
      <path class="st3" d="M430.9,142.3c-.5-2.3-.8-2.3-2.9-2.7v-.6h4.6l3.4,14.1h0l4-14.1h1.8l4.6,14.1h0l2.8-14.1h1.7l-3.6,17.4h-2.4l-4.5-13.7h0l-3.9,13.7h-2.4l-3.3-14.1h0Z"/>
      <path class="st3" d="M458.7,154.9c-.5.5-1.3,1.8-3.3,1.8s-3.4-1.4-3.4-3c0-3.6,5.1-3.9,6.7-4v-1.3c0-1.6,0-3.4-1.6-3.4s-1.8,1.5-1.8,2.6h-3c.3-1.7,1.1-3.5,4.8-3.5s4.2,1.9,4.2,4.4v7.8h-2.6v-1.5h0ZM458.7,150.7c-.9,0-3.9.2-3.9,2.6s.6,2,1.5,2c1.5,0,2.4-1.4,2.4-3.1v-1.5Z"/>
      <path class="st3" d="M470.8,156.5c-.6.1-1.1.2-1.7.2-2.5,0-3.9-.4-3.9-3.3v-7.9h-2v-1h2v-2l2.6-2.3v4.3h3.4v1h-3.4v7.5c0,1.8.1,2.6,2.1,2.6s.6,0,.9,0v1h0Z"/>
      <path class="st3" d="M481.9,156c-.5.2-1.8.7-3.6.7-3.9,0-6.3-2.4-6.3-6.7s1.9-5.9,5.4-5.9,4.7,3.2,4.7,4.9h-7.3c0,2.6,1.1,6.2,4.7,6.2s2-.3,2.4-.4v1.1h0ZM479.6,148c0-.6,0-3-2.3-3s-2.5,2-2.5,3h4.7,0Z"/>
      <path class="st3" d="M484.5,147.7c0-1.8-.4-2.2-2-2.3v-.5l4.6-.8v3.4h0c.4-1.2,1.1-3.4,3.2-3.4s.9,0,1.4.1v2.4c-.4-.1-.9-.3-1.3-.3-2.6,0-3.3,2-3.3,3.8v6.2h-2.6v-8.6h0Z"/>
      <path class="st3" d="M530.4,142.3c.2-.4.4-1.3.4-1.5,0-1-.9-1.1-2-1.2v-.6h4.8l6.3,17.4h-2.7l-1.9-5.4h-6.5l-1.9,5.4h-1.6l5.1-14.1ZM529.2,149.8h5.7l-2.9-7.5-2.7,7.5h0Z"/>
      <path class="st3" d="M551.1,156.8c0,2.7-.5,5.1-5,5.1s-5.3-.7-5.3-3.6h2.9c0,1.1.3,2.7,2.4,2.7s2.5-2,2.5-3.4v-3h0c-.5.8-1.1,1.8-3.2,1.8-3.2,0-4.5-2.7-4.5-5.7s1-6.6,4.5-6.6,2.8,1.1,3.2,1.8h0v-1.5h4.6v.5c-.8,0-2,.1-2,1.8v10h0ZM548.6,148.8c0-1.6-.8-3.3-2.4-3.3-2.3,0-2.6,2.9-2.6,4.8s.3,4.7,2.4,4.7,2.6-2.3,2.6-3.7v-2.6h0Z"/>
      <path class="st3" d="M555,147.7c0-1.8-.4-2.2-2-2.3v-.5l4.6-.8v3.4h0c.4-1.2,1.1-3.4,3.2-3.4s.9,0,1.4.1v2.4c-.4-.1-.9-.3-1.3-.3-2.6,0-3.3,2-3.3,3.8v6.2h-2.6v-8.6h0Z"/>
      <path class="st3" d="M564.3,147.7c0-1.8-.4-2.2-2-2.3v-.5l4.5-.8v12.3h-2.6v-8.6h0ZM564,140.4c0-.9.7-1.6,1.6-1.6s1.6.7,1.6,1.6-.8,1.6-1.7,1.6-1.6-.7-1.6-1.6Z"/>
      <path class="st3" d="M578.8,156.1c-.9.3-1.5.6-3.6.6-3.6,0-5.7-2.6-5.7-6.4s1.4-6.1,5.1-6.1,4.7,1.4,4.7,3.5h-3c0-1.1-.3-2.7-1.8-2.7s-2.1,1.9-2.1,4.4c0,3.8,1.7,5.9,4.1,5.9s1.8-.2,2.5-.4v1.1h0Z"/>
      <path class="st3" d="M588.6,153.5h0c-.4,1.1-1.5,3.2-4,3.2s-3.4-3.4-3.4-5.3v-3.7c0-1.8-.4-2.2-2-2.3v-.5l4.5-.8v7.8c0,2.4.9,3,2.1,3s2.8-2.2,2.8-4.3v-2.8c0-1.8-.4-2.2-2-2.3v-.5l4.5-.8v12.3h-2.6v-2.9h0Z"/>
      <path class="st3" d="M594.6,141.8c0-1.8-.4-2.3-1.9-2.4v-.5l4.5-.6v18.1h-2.6v-14.5h0Z"/>
      <path class="st3" d="M607,156.5c-.6.1-1.1.2-1.7.2-2.5,0-3.9-.4-3.9-3.3v-7.9h-2v-1h2v-2l2.6-2.3v4.3h3.4v1h-3.4v7.5c0,1.8.1,2.6,2.1,2.6s.6,0,.9,0v1h0Z"/>
      <path class="st3" d="M617,153.5h0c-.4,1.1-1.5,3.2-4,3.2s-3.4-3.4-3.4-5.3v-3.7c0-1.8-.4-2.2-2-2.3v-.5l4.5-.8v7.8c0,2.4.9,3,2.1,3s2.8-2.2,2.8-4.3v-2.8c0-1.8-.4-2.2-2-2.3v-.5l4.5-.8v12.3h-2.6v-2.9h0Z"/>
      <path class="st3" d="M623.1,147.7c0-1.8-.4-2.2-2-2.3v-.5l4.6-.8v3.4h0c.4-1.2,1.1-3.4,3.2-3.4s.9,0,1.4.1v2.4c-.4-.1-.9-.3-1.3-.3-2.6,0-3.3,2-3.3,3.8v6.2h-2.6v-8.6h0Z"/>
      <path class="st3" d="M640.4,156c-.5.2-1.8.7-3.6.7-3.9,0-6.3-2.4-6.3-6.7s1.9-5.9,5.4-5.9,4.7,3.2,4.7,4.9h-7.3c0,2.6,1.1,6.2,4.7,6.2s2-.3,2.4-.4v1.1h0ZM638,148c0-.6,0-3-2.3-3s-2.5,2-2.5,3h4.7,0Z"/>
      <path class="st3" d="M516.5,153.5s0,0-.4.3c-.4.4-.7.7-1,.8-.4.2-1.1.2-1.9-.3-.4-.3-.9-.7-1.3-1.2l-.3-.4c-.2-.2-.3-.4-.4-.5h0c0-.1,0-.2,0-.2,1-1.3,1.8-2.3,2.2-2.7.7-.8,1.2-1.2,1.5-1.4.3-.2.7-.4,1.2-.7h0c0-.2,0-.3,0-.4h0c-.3,0-.5,0-.6,0h-1.5c-.8,0-1.5.1-2.1.2,0,0-.2,0-.6,0v.4c.3.1.5.3.6.5.2.2.3.5.3.7s-.1.6-.4,1.1c-.3.6-.7,1.2-1.3,1.7l-.2.2-.2-.2c-.1-.1-.3-.3-.4-.5l-1.4-1.8c-.3-.4-.6-.7-.8-.9-.6-.6-1-1-1.1-1.2h-.1c0-.1.1-.3.1-.3,0-.1.2-.2.4-.2.3-.1.7-.3,1.2-.7.5-.3.8-.6.9-.9.2-.4.3-.8.3-1.2,0-.7-.3-1.4-1-1.9-.6-.6-1.6-.9-2.7-.9s-1.1,0-1.2,0c0,0-.2,0-.4.1-.9.2-1.6.7-2.1,1.2-.5.6-.7,1.2-.7,1.9s0,.7.2,1c.1.3.3.6.4.8.2.2.6.7,1.1,1.4l.2.2-.2.2c-.1,0-.4.2-.7.3-.6.2-1.2.6-1.8,1-.6.4-1.1,1-1.4,1.6-.3.6-.5,1.3-.5,2,0,1.1.4,2.1,1.2,2.8.8.7,2,1.1,3.7,1.1s3.8-.7,5.4-2h.2c0-.1.2,0,.2,0,.8.8,1.6,1.3,2.3,1.6.5.2,1.1.4,1.7.4s1.2-.1,1.6-.3c.6-.3,1.1-.8,1.4-1.2.3-.5.5-.9.5-1.2s0-.2,0-.2c0,0-.2-.1-.3-.1M504.3,141.9c.4-.3.8-.5,1.3-.5s.8,0,1.2.3c.3.2.6.4.6.7.2.6.2,1,.2,1.3,0,.6,0,1.1-.3,1.4-.3.4-.7.8-1.3,1h-.1c0,0-.1,0-.1,0-.8-.7-1.4-1.3-1.7-1.8-.3-.4-.4-.8-.4-1.2s.2-1,.6-1.3M508.4,153.9c-.8.8-1.8,1.2-2.8,1.2s-1.1-.1-1.6-.4c-.5-.3-.9-.6-1.2-.9-.3-.4-.6-.9-.9-1.5-.2-.4-.2-.8-.2-1.2,0-.6.2-1.2.6-1.7.4-.5.9-.9,1.6-1.1h.2c0,0,.1,0,.1,0,.8.9,1.6,1.8,2.3,2.7l1.5,1.8c0,.1.2.2.3.3.1.1.2.3.3.4v.2c0,0,0,.1,0,.1h0Z"/>
      <path class="st1" d="M814.9,121.6c0,41.4-33.3,74.9-74.4,74.9s-74.3-33.5-74.3-74.9,33.3-74.9,74.4-74.9,74.3,33.5,74.3,74.9"/>
      <path class="st4" d="M814.9,121.6c0,41.4-33.3,74.9-74.4,74.9s-74.3-33.5-74.3-74.9,33.3-74.9,74.4-74.9,74.3,33.5,74.3,74.9"/>
      <path class="st5" d="M740.6,202.3c-44.2,0-80.1-36.2-80.1-80.7s35.9-80.7,80.1-80.7,80.1,36.2,80.1,80.7-35.9,80.7-80.1,80.7ZM740.6,45.6c-41.6,0-75.5,34.1-75.5,76s33.8,76,75.5,76,75.5-34.1,75.5-76-33.8-76-75.5-76Z"/>
      <path class="st2" d="M784.8,153.5c.2.1.5.3.4.6,0,.2-.2.3-.6.3s-.2,0-.3,0c-1.8-.5-3.7-.7-5.6-.7-10.1,0-23.1,7.7-33.6,15.3,2.1,1.7,4.3,3.7,6.5,5.7.3-.3.4-.3.7-.6.9-.8,1.8-1.3,2.7-1.6.5-.2,1.1-.2,1.6-.1,1,.2,1.7,1.2,1.6,2.4,0,1-.8,1.8-1.6,1.8-.7,0-1.2-.3-1.6-.9-.4.3-.8.6-1.1,1-.2.2-.3.3-.5.5l.6.6c.5.4,1,.9,1.5,1.3,1,.8,2.1,1.7,3.3,2.2.4.2.9.4,1.3.3.2,0,.5,0,.7-.2h.2s0,0,0,0c.1,0,.3-.1.5-.2,0,0,.1,0,.2,0,.4,0,.7.2.9.5.2.3.3.9.2,1.3,0,.4-.3.6-.5.8-.8.9-1.7,1.4-2.8,1.5-.2,0-.4,0-.6,0s-.4,0-.6,0c-.8,0-1.7-.3-2.7-.8-1.4-.7-2.9-1.6-4.5-2.9l-1.3-1.1c-.4.4-.9.8-1.3,1.3-.5.5-1.2,1-2.1,1.3-.2,0-.5.1-.7.1s-.2,0-.3,0c-.1,0-.2,0-.3,0-.7-.1-1.3-.8-1.4-1.7-.1-.9.2-1.8.8-2.2.6-.4,1.4-.3,2,.2,0,0,.1.2.2.2.3-.3.7-.7,1-1.1-2.2-2-5-4-7.5-6.1-2.5,2-5.2,4.1-7.4,6.1.3.4.7.7,1,1.1,0,0,.1-.2.2-.2.6-.5,1.4-.6,2-.2.6.4,1,1.3.8,2.2-.1.8-.7,1.5-1.4,1.7-.1,0-.2,0-.3,0-.1,0-.2,0-.3,0-.3,0-.5,0-.7-.1-.8-.3-1.5-.8-2.1-1.3-.5-.4-.9-.8-1.3-1.3l-1.3,1.1c-1.6,1.3-3,2.2-4.5,2.9-1,.4-1.8.7-2.7.8-.2,0-.4,0-.6,0s-.4,0-.6,0c-1.1-.1-2.1-.6-2.8-1.5-.2-.2-.4-.5-.5-.8-.1-.4,0-1,.1-1.3.2-.3.5-.5.9-.5s.2,0,.2,0c.2,0,.3.1.5.2,0,0,0,0,0,0h.2c.3.1.5.2.7.2.5,0,1-.2,1.3-.3,1.2-.5,2.3-1.4,3.3-2.2.5-.4,1-.9,1.5-1.3l.6-.6c-.2-.2-.3-.3-.5-.5-.3-.3-.7-.7-1.1-1-.3.6-.9.9-1.6.9-.8,0-1.5-.8-1.6-1.8-.1-1.2.6-2.2,1.6-2.4.5-.1,1.1,0,1.6.1.9.3,1.8.9,2.7,1.6.3.2.4.3.7.6,2.2-2.1,4.4-4,6.5-5.7-10.5-7.6-23.5-15.3-33.6-15.3s-3.9.2-5.6.7c0,0-.2,0-.3,0-.3,0-.5-.1-.6-.3,0-.3.3-.5.4-.6.6-.4,4.1-1.8,9.7-1.8s19.5,2.3,34.5,13.3l.3.2h0c14.9-11.1,26.9-13.5,34.7-13.5s9,1.4,9.7,1.8M744.7,148.8c-.9,1.5-2.2,5.7-2.2,5.7,1.3-1.1,5.3-1.9,7-2.3,12.2-2.6,12.9-13.7,13.3-15.9-.3.6-1.2,1.9-8.6,2.3-3.9.2-10.4.7-13.7,7.1.6,1.2,1,2.5,1.4,4,4.2-10,14.5-8.7,16.2-9-1.7.8-9.2,1.1-13.4,8.2M740.1,160.5l1.8-.9c-.4-19.7-11-20.8-16.2-21-7.4-.3-8.3-1.7-8.6-2.3.4,2.2,1.1,13.3,13.3,15.9,1.7.4,4.3.7,5.6,1.8-1.4-12.9-12-12.5-14.1-13.5,2,.4,17.1-2.8,16.4,19l1.8.9ZM734,103.8c-.3-5.6,6.1-15.6,6.1-15.6,0,0,6.1,10.3,6.1,15.6,0,3.9-2.7,7-6.1,7s-5.8-3.2-6.1-7ZM742.7,108.5c-.3,0-.6,0-.9,0-3.2,0-5.8-3-5.8-6.7s.1-1.2.3-2c-.6,1.7-1.1,3.2-1.1,4.1,0,3,2.1,5.4,4.7,5.4s1.9-.4,2.7-1ZM723.3,124.6c0,11.2,15.8,14.8,15.8,14.8v-3.5c0-11.6-15.8-14.8-15.8-14.8v3.5ZM740.8,136v3.5s15.8-3.6,15.8-14.8v-3.5s-15.8,3.2-15.8,14.8ZM727.3,112c0,9.1,12,12,12,12v-2.8c0-9.5-12-12-12-12v2.8ZM740.6,121.2v2.8s12-2.9,12-12v-2.8s-12,2.6-12,12M697.9,92.6c10.5-10.6,17.2-12.5,25.5-13.8-8.6,5.5-16.6,18.2-14.1,27.2,4.5-9.5,12.4-18.8,19.7-22.2-4.1,5.8-4.3,13.1-.3,19.2.9-8,6.5-15.7,11.2-20.9,4.7,5.2,10.3,12.9,11.2,20.9,4-6.2,3.8-13.4-.3-19.2,7.3,3.4,15.2,12.7,19.7,22.2,2.5-9-5.5-21.7-14.1-27.2,8.4,1.3,15.1,3.2,25.5,13.8-3.5-14.2-15.6-19.1-25.3-20.8,10.7-.9,12.8.2,22.3,4.1-10.3-10.2-17.4-12-27.7-11,1.8-1.5,3.4-2.4,6-3.1-4.3-1.7-11-.8-13.7,1.7,0,0-.5-4.7-3.6-6.5h0s0,0,0,0c0,0,0,0,0,0h0c-3.1,1.9-3.6,6.6-3.6,6.6-2.6-2.5-9.4-3.4-13.7-1.7,2.6.7,4.3,1.5,6,3.1-10.3-1-17.5.8-27.7,11,9.4-3.9,11.6-5,22.3-4.1-9.7,1.7-21.9,6.7-25.3,20.8"/>
    </g>
  </g>
</svg>