<?xml version="1.0" encoding="utf-8"?>
<!-- Generator: Adobe Illustrator 26.0.1, SVG Export Plug-In . SVG Version: 6.00 Build 0)  -->
<svg version="1.1" id="Layer_1" xmlns="http://www.w3.org/2000/svg" xmlns:xlink="http://www.w3.org/1999/xlink" x="0px" y="0px"
	 viewBox="0 0 191.23 97.13" style="enable-background:new 0 0 191.23 97.13;" xml:space="preserve">
<style type="text/css">
	.st0{fill:#76777A;}
	.st1{fill:#007297;}
</style>
<g>
	<path class="st0" d="M94,58.25c-0.55-0.36-1.19-0.53-1.84-0.5h-2.87c-0.26,0.03-0.52-0.06-0.71-0.23
		c-0.16-0.18-0.24-0.42-0.22-0.66v-0.37c-0.03-0.23,0.04-0.46,0.19-0.64c0.16-0.14,0.37-0.2,0.58-0.19h5.21v-1.87h-4.89
		c-0.42-0.01-0.83,0.04-1.24,0.13c-0.35,0.07-0.67,0.23-0.94,0.47c-0.26,0.25-0.46,0.56-0.56,0.9c-0.12,0.42-0.18,0.86-0.17,1.3V57
		c-0.07,0.72,0.21,1.43,0.75,1.9c0.59,0.39,1.29,0.57,2,0.52h2.86c0.22-0.02,0.44,0.05,0.62,0.19c0.15,0.14,0.22,0.35,0.2,0.55v0.71
		c0,0.55-0.24,0.77-0.82,0.77h-5.4v1.87h5.42c0.75,0.07,1.48-0.21,2-0.75c0.44-0.62,0.65-1.37,0.6-2.12v-0.59
		c0.07-0.69-0.21-1.36-0.74-1.8"/>
	<path class="st0" d="M113.79,59.15v2.51h-3.09c-0.52,0-0.73-0.22-0.73-0.77V60c0-0.57,0.21-0.81,0.73-0.81L113.79,59.15z
		 M112.72,53.79h-4v2h4c0.74,0,1.07,0.39,1.07,1.26v0.41h-3.19c-1.15-0.17-2.22,0.63-2.39,1.79c-0.03,0.18-0.03,0.36-0.01,0.53v1.34
		c-0.04,0.66,0.17,1.3,0.59,1.81c0.49,0.45,1.15,0.68,1.81,0.63h5V57c0-2.07-1-3.16-2.89-3.16"/>
	<polygon class="st0" points="117.94,55.33 119.22,55.33 119.69,51.79 117.46,51.79 	"/>
	<path class="st0" d="M127,59.11v2.51h-3.09c-0.52,0-0.73-0.22-0.73-0.77v-0.93c0-0.57,0.21-0.81,0.73-0.81L127,59.11z
		 M125.93,53.75h-4v2h4c0.74,0,1.07,0.39,1.07,1.26v0.41h-3.19c-1.15-0.17-2.22,0.63-2.39,1.79c-0.03,0.18-0.03,0.36-0.01,0.53V61
		c-0.04,0.66,0.17,1.3,0.59,1.81c0.49,0.45,1.15,0.67,1.81,0.62h5V56.9c0-2.06-1-3.15-2.89-3.15"/>
	<path class="st0" d="M136.57,55.53v-1.74h-2.25v-3.07h-1.87v9.58c0,2.65,1.51,3.21,2.77,3.21h1.31v-1.83h-1.19
		c-0.47,0-1-0.15-1-1.33v-4.82H136.57z"/>
	<path class="st0" d="M70.75,56.8v3.67c0.01,0.64-0.49,1.16-1.13,1.17c0,0-0.01,0-0.01,0h-2.27c-0.64-0.01-1.15-0.52-1.14-1.16
		c0,0,0-0.01,0-0.01V56.8c-0.01-0.64,0.5-1.16,1.14-1.17h2.27C70.25,55.64,70.76,56.16,70.75,56.8 M69.61,53.8h-2.27
		c-1.66,0-3,1.34-3,3v3.67c0,1.66,1.34,3,3,3h2.27c1.66,0,3-1.34,3-3V56.8C72.61,55.14,71.27,53.8,69.61,53.8"/>
	<path class="st0" d="M83.19,57.78c0-2.74-1.85-4-3.55-4h-4v9.71h1.82v-7.84h2.16c0.95,0.06,1.7,0.82,1.73,1.77v5.72v0.35h1.8v-5.71
		H83.19z"/>
	<path class="st0" d="M61.92,57.8L61.92,57.8c0.2-1.91-1.11-3.66-3-4l0,0h-1.99l0,0c-0.86,0.11-1.66,0.54-2.23,1.2
		c-0.67-0.76-1.63-1.2-2.64-1.21h-4v9.71h1.82v-7.85h2.15c0.95,0.02,1.71,0.78,1.73,1.73c0,0,0,0,0,5.83v0.28h1.82v-0.28
		c0-5.51,0-5.82,0-5.83c0.01-0.95,0.78-1.72,1.73-1.73h1c0.94,0.06,1.69,0.82,1.72,1.77v5.72v0.35h1.81L61.92,57.8z"/>
	<path class="st0" d="M105.54,57.8L105.54,57.8c0-2.74-1.85-4-3.55-4h-2.17v-3.08H98v12.77h1.82v-7.84H102
		c0.94,0.06,1.69,0.83,1.72,1.77v6.07h1.81L105.54,57.8z"/>
	<path class="st1" d="M120.63,30.46c0-1.35-2.82-2.67-2.82-2.67s-2.87,2.76-2.77,2.84l3.17,2.67
		C118.21,33.3,120.63,31.8,120.63,30.46"/>
	<path class="st1" d="M104.26,30.63l3.18,2.67c0,0,2.41-1.5,2.41-2.84S107,27.79,107,27.79s-2.87,2.76-2.77,2.84"/>
	<path class="st1" d="M102.7,30.46c0-1.35-2.82-2.67-2.82-2.67s-2.88,2.76-2.77,2.84l3.18,2.67C100.29,33.3,102.7,31.8,102.7,30.46"
		/>
	<path class="st1" d="M105.52,25c0-1.34-2.82-2.66-2.82-2.66s-2.87,2.76-2.77,2.84l3.18,2.66C103.11,27.84,105.52,26.35,105.52,25"
		/>
	<path class="st1" d="M129.93,43.85c-2.84,0-2.69-2.42-2.7-3.55v-5.09h4.34c1.5,0,2,2.28,2,4.94v3.71L129.93,43.85 M136.57,35.86
		c0-0.78-0.5-3.62-4.33-3.62H130l-5.73,6v5.19c0,0.26,0.03,0.52,0.09,0.78c-1.68,0-3.65,0-4.63-1.65c-0.36-0.69-0.54-1.45-0.51-2.23
		v-4.9l-3,3.08v4.88c0,0.26,0.02,0.52,0.06,0.78c-1.68,0-3.64,0-4.61-1.65c-0.37-0.68-0.55-1.45-0.52-2.23v-7.35l-3,3.08v7.37
		c0,0.26,0.02,0.52,0.06,0.78c-0.79-0.12-1.53-0.47-2.13-1c-0.88-0.71-1.4-1.79-1.4-2.92v-5.77l-3,3.08v5.83
		c0,0.26,0.03,0.52,0.09,0.78c-0.8-0.11-1.56-0.46-2.16-1c-0.88-0.71-1.4-1.79-1.4-2.92v-7.31l-3,3.08v7.37
		c0,0.26,0.03,0.52,0.09,0.78c-1.68,0-3.66,0-4.64-1.65c-0.36-0.69-0.54-1.45-0.52-2.23V21.57l-3,3.08v18.92l0,0
		c-0.04,1.18,0.51,2.3,1.46,3c0.83,0.47,1.77,0.71,2.72,0.68c0.4,0,0.8,0,1.19,0c0.15,0,0.45-0.32,0.52-0.38
		c0.38-0.33,0.74-0.69,1.09-1s0.71-0.73,1-1.13l0.2-0.28c0.21,0.74,0.65,1.4,1.25,1.89c0.66,0.59,1.5,0.94,2.38,1
		c0.15,0,0.46-0.32,0.52-0.37c0.38-0.34,0.74-0.7,1.09-1.06s0.71-0.73,1-1.12l0.2-0.29c0.23,0.71,0.66,1.33,1.24,1.79
		c0.66,0.59,1.5,0.94,2.38,1c0.15,0,0.46-0.32,0.52-0.37c0.38-0.34,0.74-0.7,1.09-1.06s0.71-0.73,1-1.12l0.17-0.24
		c0.14,0.86,0.62,1.62,1.34,2.11c0.83,0.47,1.77,0.71,2.73,0.68c0.4,0,0.79,0,1.19,0c0.15,0,0.45-0.32,0.52-0.38
		c0.37-0.33,0.74-0.69,1.09-1s0.71-0.73,1-1.13l0.17-0.23l0,0c0.14,0.86,0.63,1.62,1.35,2.11c0.83,0.47,1.77,0.71,2.72,0.68
		c0.4,0,0.8,0,1.2,0c0.14,0,0.45-0.32,0.51-0.38c0.38-0.33,0.74-0.69,1.1-1s0.7-0.73,1-1.13c0.07-0.09,0.13-0.18,0.19-0.27
		c0.63,2.12,3.2,2.84,5.26,2.84h0.7l6.34-6.41c0,0,0-5.11,0-5.18"/>
	<path class="st1" d="M67.13,32.71l3.28,2.75c0,0,2.53-1.57,2.53-3s-3-2.8-3-2.8s-2.37,2.34-2.8,2.89c0-1.41-3-2.77-3-2.77
		s-3,2.9-2.92,3l3.34,2.8c0,0,2.37-1.47,2.52-2.85"/>
	<polygon class="st1" points="90.63,19.25 94.28,15.7 94.28,14.56 91.89,16.83 86.76,15.11 86.51,15.02 82.95,18.55 82.95,19.66 
		85.15,17.46 90.39,19.17 	"/>
	<path class="st1" d="M83.08,36.25c-0.22-0.38-0.71-1.11-0.71-1.11l-3.3,3.21c0.73,1.19,1.22,2.52,1.45,3.9c0,0.61,0,0,0,0.59V44
		h-26c-2.32,0-3.26-0.65-3.26-3.83l1.59-1.64v-1.79l-4.76,4.89c0,0,0,1.75,0,1.8c-0.01,0.82,0.23,1.63,0.68,2.32
		c0.4,0.56,0.97,0.97,1.62,1.19c1.07,0.31,2.2,0.41,3.31,0.32H79l4.85-4.36v-1.38c0-1.8,0.16-3.64-0.75-5.27"/>
	<path class="st0" d="M49.58,74.17L49.58,74.17l-0.39-0.1l-0.46-0.14c-0.09,0-0.15-0.08-0.17-0.13c-0.02-0.06-0.02-0.13,0-0.19
		v-0.07c0-0.11,0.05-0.21,0.14-0.27c0.13-0.09,0.28-0.13,0.43-0.12c0.17-0.01,0.34,0.03,0.48,0.12c0.1,0.09,0.16,0.22,0.15,0.36l0,0
		h0.41l0,0c0-0.11-0.02-0.22-0.06-0.33c-0.04-0.09-0.09-0.17-0.15-0.24c-0.07-0.06-0.15-0.11-0.24-0.16
		c-0.09-0.04-0.18-0.07-0.28-0.09h-0.31c-0.25-0.01-0.49,0.06-0.7,0.2c-0.18,0.12-0.28,0.33-0.28,0.54l0,0
		c-0.01,0.17,0.03,0.33,0.12,0.47c0.11,0.15,0.26,0.25,0.44,0.29l0.4,0.1c0.16,0.04,0.31,0.08,0.46,0.14
		c0.07,0.03,0.13,0.07,0.17,0.13c0.02,0.07,0.02,0.13,0,0.2V75c0,0.11-0.06,0.21-0.14,0.27c-0.12,0.09-0.28,0.13-0.43,0.12
		c-0.17,0.02-0.33-0.03-0.47-0.13c-0.11-0.08-0.17-0.21-0.16-0.35v-0.13h-0.41v0.13c0,0.11,0.02,0.22,0.06,0.32
		c0.04,0.09,0.09,0.18,0.16,0.25c0.07,0.06,0.14,0.11,0.23,0.15c0.09,0.04,0.18,0.08,0.28,0.09c0.1,0.01,0.21,0.01,0.31,0
		c0.25,0.01,0.49-0.06,0.7-0.2c0.18-0.12,0.28-0.32,0.28-0.54v-0.07c0.01-0.17-0.03-0.33-0.12-0.47c-0.1-0.14-0.26-0.24-0.43-0.28"
		/>
	<path class="st0" d="M54.77,74.55c-0.02-0.19,0.03-0.39,0.14-0.55c0.11-0.12,0.28-0.18,0.44-0.17h0.52v1.49h-0.52
		c-0.16,0.02-0.33-0.04-0.44-0.16c-0.11-0.16-0.16-0.36-0.14-0.55V74.55z M55.06,73.55c-0.09,0.02-0.18,0.06-0.26,0.11
		c-0.08,0.04-0.15,0.1-0.21,0.18c-0.07,0.08-0.12,0.18-0.15,0.28c-0.02,0.13-0.02,0.26,0,0.39v0.24c-0.02,0.13-0.02,0.26,0,0.39
		c0.04,0.1,0.09,0.19,0.15,0.28c0.06,0.07,0.13,0.13,0.21,0.18c0.08,0.05,0.17,0.08,0.26,0.1c0.1,0.01,0.19,0.01,0.29,0h0.9v-2.2
		h-0.9h-0.29"/>
	<rect x="56.96" y="72.66" class="st0" width="0.38" height="3.02"/>
	<rect x="58.06" y="72.66" class="st0" width="0.38" height="3.02"/>
	<path class="st0" d="M60.48,75.32c-0.15,0.01-0.29-0.03-0.41-0.12c-0.09-0.07-0.15-0.19-0.14-0.31v-0.11
		c-0.01-0.12,0.04-0.23,0.12-0.31c0.09-0.08,0.21-0.13,0.33-0.12H61v1L60.48,75.32z M60.05,73.88c-0.08-0.08-0.13-0.19-0.12-0.3
		v-0.06c0-0.11,0.04-0.21,0.13-0.27c0.25-0.13,0.55-0.13,0.8,0c0.09,0.06,0.14,0.16,0.13,0.27v0.16h0.39v-0.17c0-0.05,0-0.1,0-0.15
		c-0.02-0.07-0.04-0.13-0.08-0.19c-0.04-0.07-0.09-0.13-0.15-0.19c-0.08-0.06-0.17-0.11-0.27-0.13c-0.26-0.08-0.54-0.08-0.8,0
		c-0.1,0.03-0.19,0.07-0.27,0.14c-0.06,0.05-0.11,0.12-0.15,0.19c-0.04,0.06-0.06,0.12-0.08,0.19c0,0.05,0,0.09,0,0.14v0.09
		c0,0.05,0,0.09,0,0.14c0,0,0,0.09,0,0.15c0.03,0.06,0.07,0.12,0.11,0.18c0.03,0.04,0.07,0.08,0.11,0.11
		c-0.19,0.14-0.29,0.37-0.27,0.6v0.13c-0.01,0.07-0.01,0.15,0,0.22c0.02,0.07,0.05,0.15,0.09,0.21c0.05,0.07,0.11,0.13,0.18,0.17
		c0.08,0.06,0.17,0.1,0.27,0.12c0.12,0.03,0.24,0.05,0.36,0.05h0.9v-1.33h0.31V74h-1.18c-0.15,0.01-0.29-0.03-0.41-0.11"/>
	<polygon class="st0" points="64.19,75.08 63.38,72.87 63.37,72.84 62.78,72.84 62.78,75.68 63.19,75.68 63.19,73.45 63.99,75.65 
		64,75.68 64.37,75.68 65.19,73.44 65.19,75.68 65.6,75.68 65.6,72.84 65,72.84 	"/>
	<path class="st0" d="M67.75,74.36H66.6c0-0.16,0.05-0.31,0.15-0.43c0.11-0.11,0.27-0.16,0.42-0.14c0.16-0.01,0.31,0.04,0.43,0.14
		C67.7,74.05,67.75,74.2,67.75,74.36 M67.94,73.74L67.94,73.74c-0.06-0.07-0.14-0.13-0.22-0.18c-0.08-0.05-0.17-0.08-0.26-0.1
		c-0.19-0.04-0.38-0.04-0.57,0c-0.09,0.02-0.18,0.05-0.26,0.1c-0.08,0.05-0.16,0.11-0.22,0.18c-0.07,0.08-0.11,0.18-0.14,0.28
		c-0.04,0.13-0.06,0.26-0.06,0.39v0.34c0,0.13,0.02,0.26,0.06,0.38c0.05,0.2,0.18,0.37,0.36,0.47c0.08,0.05,0.17,0.08,0.26,0.1
		c0.09,0.01,0.19,0.01,0.28,0c0.11,0.02,0.21,0.02,0.32,0c0.1-0.02,0.19-0.06,0.27-0.12c0.1-0.06,0.17-0.13,0.23-0.23
		c0.06-0.11,0.11-0.23,0.13-0.35l0,0h-0.4l0,0c-0.02,0.12-0.08,0.23-0.18,0.31c-0.11,0.07-0.24,0.1-0.37,0.09
		c-0.16,0.01-0.32-0.04-0.43-0.15c-0.1-0.14-0.15-0.32-0.14-0.5h1.54v-0.31c0-0.13-0.02-0.26-0.06-0.39
		c-0.03-0.1-0.07-0.2-0.14-0.28"/>
	<path class="st0" d="M69.08,74.55c-0.02-0.2,0.03-0.4,0.14-0.56c0.11-0.11,0.27-0.17,0.43-0.16h0.53v1.49h-0.53
		c-0.16,0.02-0.32-0.04-0.43-0.16c-0.11-0.16-0.16-0.36-0.14-0.55V74.55z M70.18,73.48h-0.53h-0.28c-0.09,0.02-0.18,0.06-0.26,0.11
		c-0.08,0.05-0.16,0.11-0.22,0.18c-0.06,0.09-0.11,0.18-0.15,0.28c-0.02,0.13-0.02,0.26,0,0.39v0.24c-0.02,0.13-0.02,0.25,0,0.38
		c0.03,0.1,0.08,0.2,0.15,0.29c0.06,0.07,0.14,0.13,0.22,0.18c0.08,0.05,0.17,0.08,0.26,0.1c0.09,0.01,0.19,0.01,0.28,0h0.91v-3
		h-0.38L70.18,73.48z"/>
	<rect x="71.27" y="73.48" class="st0" width="0.38" height="2.2"/>
	<path class="st0" d="M73.85,74.66c0.01,0.2-0.03,0.39-0.13,0.56c-0.25,0.2-0.61,0.2-0.86,0c-0.09-0.17-0.14-0.37-0.12-0.56v-1.18
		h-0.39v1.27c0,0.13,0.02,0.26,0.05,0.38c0.03,0.1,0.08,0.2,0.14,0.28c0.05,0.08,0.12,0.15,0.21,0.19c0.08,0.05,0.16,0.08,0.25,0.1
		c0.19,0.04,0.39,0.04,0.58,0c0.09-0.02,0.18-0.05,0.26-0.1c0.08-0.05,0.15-0.11,0.2-0.19c0.07-0.08,0.11-0.18,0.14-0.28
		c0.02-0.13,0.02-0.25,0-0.38v-1.27H73.8L73.85,74.66z"/>
	<polygon class="st0" points="79.6,75.68 81.24,75.68 81.24,75.32 80.02,75.32 80.02,74.42 81.17,74.42 81.17,74.06 80.02,74.06 
		80.02,73.2 81.24,73.2 81.24,72.84 79.6,72.84 	"/>
	<path class="st0" d="M87.3,74.36h-1.15c0-0.16,0.05-0.31,0.15-0.43c0.11-0.11,0.27-0.16,0.42-0.14c0.16-0.01,0.31,0.04,0.43,0.14
		C87.25,74.05,87.31,74.2,87.3,74.36 M87.49,73.74L87.49,73.74c-0.06-0.07-0.14-0.13-0.22-0.18c-0.08-0.05-0.17-0.08-0.26-0.1
		c-0.19-0.04-0.38-0.04-0.57,0c-0.09,0.02-0.18,0.05-0.26,0.1c-0.08,0.05-0.16,0.11-0.22,0.18c-0.07,0.08-0.11,0.18-0.14,0.28
		c-0.04,0.13-0.06,0.26-0.06,0.39v0.34c0,0.13,0.02,0.26,0.06,0.38c0.05,0.2,0.18,0.37,0.36,0.47c0.08,0.05,0.17,0.08,0.26,0.1
		c0.09,0.01,0.19,0.01,0.28,0c0.11,0.02,0.21,0.02,0.32,0c0.1-0.02,0.19-0.06,0.27-0.12c0.1-0.06,0.17-0.13,0.23-0.23
		c0.06-0.11,0.11-0.23,0.13-0.35l0,0h-0.4l0,0c-0.02,0.12-0.08,0.23-0.18,0.31c-0.11,0.07-0.24,0.1-0.37,0.09
		c-0.16,0.01-0.32-0.04-0.43-0.15c-0.1-0.14-0.15-0.32-0.14-0.5h1.54v-0.31c0-0.13-0.02-0.26-0.06-0.39
		c-0.03-0.1-0.07-0.2-0.14-0.28"/>
	<path class="st0" d="M91.34,74.55v0.06c0.02,0.19-0.03,0.39-0.14,0.55c-0.11,0.12-0.28,0.18-0.44,0.16h-0.52v-1.49h0.52
		c0.16-0.01,0.33,0.05,0.44,0.17C91.31,74.16,91.36,74.36,91.34,74.55 M91.53,73.79c-0.06-0.07-0.14-0.13-0.22-0.18
		c-0.1-0.05-0.2-0.09-0.31-0.11h-0.28h-0.9v3h0.38v-0.82h0.52c0.09,0.01,0.19,0.01,0.28,0c0.09-0.02,0.19-0.05,0.27-0.1
		c0.08-0.05,0.15-0.11,0.22-0.18c0.06-0.09,0.11-0.18,0.14-0.28c0.04-0.13,0.06-0.26,0.06-0.39v-0.24c0-0.13-0.02-0.26-0.06-0.39
		c-0.03-0.1-0.08-0.2-0.14-0.28"/>
	<rect x="93.89" y="73.48" class="st0" width="0.38" height="2.2"/>
	<path class="st0" d="M96.22,74.47l-0.35-0.09l-0.39-0.1c-0.06-0.01-0.11-0.04-0.16-0.08c-0.01-0.05-0.01-0.09,0-0.14l0,0
		c0-0.07,0.05-0.14,0.11-0.18c0.12-0.05,0.25-0.08,0.38-0.07c0.5,0,0.5,0.22,0.5,0.3l0,0h0.38l0,0c0-0.11-0.02-0.21-0.07-0.31
		c-0.05-0.09-0.12-0.16-0.2-0.21l-0.28-0.11c-0.11-0.01-0.22-0.01-0.33,0c-0.22-0.01-0.43,0.04-0.62,0.15
		c-0.16,0.09-0.26,0.26-0.26,0.44l0,0c-0.03,0.28,0.17,0.54,0.45,0.58l0.34,0.09l0.39,0.1c0.06,0.02,0.12,0.05,0.17,0.09
		c0.01,0.05,0.01,0.09,0,0.14l0,0c0,0.07,0,0.29-0.46,0.29s-0.5-0.23-0.5-0.3v-0.18h-0.38v0.18c0,0.1,0.02,0.21,0.07,0.3
		c0.04,0.09,0.11,0.16,0.2,0.21c0.09,0.05,0.18,0.09,0.28,0.11c0.11,0.02,0.22,0.02,0.33,0c0.1,0.01,0.21,0.01,0.31,0
		c0.09-0.02,0.19-0.06,0.27-0.11c0.08-0.05,0.15-0.12,0.2-0.2c0.05-0.1,0.07-0.2,0.07-0.31l0,0c0.01-0.14-0.03-0.27-0.11-0.38
		c-0.09-0.1-0.21-0.17-0.34-0.2"/>
	<path class="st0" d="M98.75,74.36H97.6c-0.01-0.16,0.05-0.31,0.15-0.43c0.11-0.11,0.27-0.16,0.42-0.14
		c0.16-0.01,0.31,0.04,0.43,0.14C98.7,74.05,98.75,74.2,98.75,74.36 M98.94,73.74c-0.06-0.07-0.14-0.13-0.22-0.18
		c-0.08-0.05-0.17-0.08-0.26-0.1c-0.19-0.04-0.38-0.04-0.57,0c-0.09,0.02-0.18,0.05-0.26,0.1c-0.08,0.05-0.16,0.11-0.22,0.18
		c-0.07,0.08-0.12,0.18-0.15,0.28c-0.03,0.13-0.05,0.26-0.05,0.39v0.34c0,0.13,0.02,0.26,0.05,0.38c0.03,0.1,0.08,0.2,0.15,0.28
		c0.06,0.08,0.13,0.14,0.22,0.19c0.08,0.05,0.17,0.08,0.26,0.1c0.09,0.01,0.19,0.01,0.28,0c0.11,0.02,0.21,0.02,0.32,0
		c0.1-0.02,0.19-0.06,0.27-0.12c0.1-0.06,0.17-0.13,0.23-0.23c0.06-0.11,0.11-0.23,0.13-0.35l0,0h-0.4l0,0
		c-0.02,0.12-0.09,0.23-0.18,0.31c-0.11,0.07-0.24,0.1-0.37,0.09c-0.16,0.01-0.32-0.04-0.43-0.15c-0.1-0.14-0.15-0.32-0.14-0.5h1.54
		v-0.31c0-0.13-0.02-0.26-0.06-0.39c-0.03-0.1-0.07-0.2-0.14-0.28"/>
	<path class="st0" d="M101,74.47l-0.35-0.09l-0.39-0.1c-0.06-0.01-0.11-0.04-0.16-0.08c-0.01-0.05-0.01-0.09,0-0.14l0,0
		c0-0.07,0.05-0.14,0.11-0.18c0.12-0.05,0.25-0.08,0.38-0.07c0.5,0,0.5,0.22,0.5,0.3l0,0h0.38l0,0c0-0.11-0.02-0.21-0.07-0.31
		c-0.04-0.09-0.11-0.16-0.2-0.21l-0.28-0.11c-0.11-0.01-0.22-0.01-0.33,0c-0.22-0.01-0.43,0.04-0.62,0.15
		c-0.16,0.09-0.25,0.26-0.25,0.44l0,0c-0.01,0.13,0.03,0.27,0.1,0.38c0.09,0.1,0.21,0.17,0.34,0.2l0.34,0.09l0.39,0.1
		c0.06,0.02,0.12,0.05,0.17,0.09c0.01,0.05,0.01,0.09,0,0.14l0,0c0,0.07,0,0.29-0.46,0.29s-0.5-0.23-0.5-0.3v-0.18h-0.38v0.18
		c0,0.1,0.02,0.21,0.07,0.3c0.05,0.09,0.12,0.16,0.2,0.21c0.09,0.05,0.18,0.09,0.28,0.11c0.11,0.02,0.22,0.02,0.33,0
		c0.1,0.01,0.21,0.01,0.31,0c0.09-0.02,0.19-0.06,0.27-0.11c0.08-0.05,0.15-0.12,0.2-0.2c0.05-0.1,0.07-0.2,0.07-0.31l0,0
		c0.01-0.14-0.03-0.27-0.11-0.38c-0.09-0.1-0.21-0.17-0.34-0.2"/>
	<path class="st0" d="M103.54,73.32c0.12-0.12,0.3-0.19,0.47-0.17c0.17-0.01,0.33,0.04,0.46,0.14c0.11,0.13,0.18,0.29,0.18,0.46l0,0
		h0.41l0,0c0-0.13-0.02-0.26-0.06-0.38c-0.03-0.1-0.09-0.2-0.16-0.28c-0.07-0.07-0.15-0.13-0.24-0.17c-0.09-0.05-0.18-0.08-0.28-0.1
		c-0.2-0.04-0.42-0.04-0.62,0c-0.1,0.02-0.19,0.05-0.28,0.1c-0.09,0.05-0.17,0.11-0.24,0.18c-0.07,0.09-0.12,0.19-0.16,0.29
		c-0.02,0.13-0.02,0.25,0,0.38v1c-0.02,0.13-0.02,0.25,0,0.38c0.04,0.1,0.09,0.2,0.16,0.29c0.07,0.07,0.15,0.13,0.24,0.18
		c0.09,0.05,0.18,0.08,0.28,0.1c0.1,0.01,0.21,0.01,0.31,0c0.21,0,0.41-0.02,0.61-0.08c0.16-0.05,0.31-0.13,0.43-0.25v-1.23h-0.91
		v0.36h0.5v0.71c-0.07,0.05-0.15,0.08-0.23,0.1c-0.14,0.02-0.27,0.02-0.41,0c-0.17,0.01-0.34-0.05-0.47-0.17
		c-0.12-0.16-0.18-0.36-0.16-0.56v-0.76c-0.02-0.2,0.04-0.4,0.16-0.56"/>
	<path class="st0" d="M107.18,74.36H106c-0.01-0.16,0.05-0.31,0.15-0.43c0.11-0.11,0.27-0.16,0.42-0.14
		c0.16-0.01,0.31,0.04,0.43,0.14c0.1,0.12,0.15,0.27,0.15,0.43 M107.34,73.74L107.34,73.74c-0.07-0.07-0.14-0.13-0.22-0.18
		c-0.08-0.05-0.17-0.08-0.26-0.1c-0.1-0.01-0.19-0.01-0.29,0c-0.09-0.01-0.19-0.01-0.28,0c-0.09,0.02-0.18,0.05-0.26,0.1
		c-0.08,0.05-0.16,0.11-0.22,0.18c-0.07,0.08-0.12,0.18-0.15,0.28c-0.02,0.13-0.02,0.26,0,0.39v0.34c-0.02,0.13-0.02,0.25,0,0.38
		c0.03,0.1,0.08,0.2,0.15,0.28c0.06,0.08,0.13,0.14,0.22,0.19c0.08,0.05,0.17,0.08,0.26,0.1c0.09,0.01,0.19,0.01,0.28,0
		c0.11,0.02,0.21,0.02,0.32,0c0.1-0.02,0.19-0.06,0.27-0.12c0.1-0.06,0.17-0.13,0.23-0.23c0.06-0.11,0.11-0.23,0.13-0.35l0,0h-0.4
		l0,0c-0.02,0.12-0.09,0.23-0.18,0.31c-0.11,0.07-0.24,0.1-0.37,0.09c-0.16,0.01-0.32-0.04-0.43-0.15c-0.1-0.14-0.15-0.32-0.14-0.5
		h1.54v-0.31c0-0.13-0.02-0.26-0.06-0.39c-0.03-0.1-0.07-0.2-0.14-0.28"/>
	<path class="st0" d="M109.81,73.69c-0.09-0.08-0.19-0.13-0.31-0.16c-0.16-0.02-0.32-0.02-0.48,0h-0.82v2.2h0.38v-1.9h0.48
		c0.1-0.01,0.2-0.01,0.3,0c0.07,0.01,0.13,0.05,0.17,0.1c0.04,0.04,0.07,0.09,0.08,0.14c0.01,0.08,0.01,0.15,0,0.23v1.35H110v-1.3
		c0.02-0.13,0.02-0.27,0-0.4c-0.03-0.11-0.08-0.21-0.16-0.29"/>
	<path class="st0" d="M112.16,74.36H111c0-0.16,0.06-0.31,0.15-0.43c0.11-0.1,0.27-0.15,0.42-0.14c0.16-0.01,0.31,0.04,0.43,0.14
		c0.1,0.12,0.16,0.27,0.15,0.43 M112.34,73.74L112.34,73.74c-0.06-0.07-0.14-0.13-0.22-0.18c-0.08-0.05-0.17-0.08-0.26-0.1
		c-0.19-0.04-0.38-0.04-0.57,0c-0.09,0.02-0.18,0.05-0.26,0.1c-0.08,0.05-0.16,0.11-0.22,0.18c-0.07,0.08-0.11,0.18-0.14,0.28
		c-0.04,0.13-0.06,0.26-0.06,0.39v0.34c0,0.13,0.02,0.26,0.06,0.38c0.05,0.2,0.18,0.37,0.36,0.47c0.08,0.05,0.17,0.08,0.26,0.1
		c0.09,0.01,0.19,0.01,0.28,0c0.11,0.02,0.21,0.02,0.32,0c0.1-0.02,0.2-0.06,0.28-0.12c0.09-0.06,0.17-0.14,0.22-0.23
		c0.06-0.11,0.11-0.23,0.13-0.35l0,0h-0.4l0,0c-0.02,0.12-0.08,0.23-0.18,0.31c-0.11,0.07-0.24,0.1-0.37,0.09
		c-0.16,0.01-0.32-0.04-0.43-0.15c-0.1-0.14-0.15-0.32-0.14-0.5h1.54v-0.31c0-0.13-0.02-0.26-0.06-0.39
		c-0.03-0.1-0.07-0.2-0.14-0.28"/>
	<polygon class="st0" points="113.18,75.68 113.56,75.68 113.56,73.83 114.18,73.83 114.18,73.48 113.18,73.48 	"/>
	<path class="st0" d="M114.88,74.55c-0.02-0.19,0.02-0.39,0.12-0.55c0.11-0.12,0.28-0.18,0.44-0.17H116v1.49h-0.52
		c-0.16,0.02-0.33-0.04-0.44-0.16c-0.11-0.16-0.16-0.36-0.14-0.55L114.88,74.55z M115.18,73.55c-0.09,0.02-0.18,0.06-0.26,0.11
		c-0.09,0.04-0.16,0.1-0.22,0.18c-0.07,0.08-0.12,0.18-0.15,0.28c-0.02,0.13-0.02,0.26,0,0.39v0.24c-0.02,0.13-0.02,0.26,0,0.39
		c0.04,0.1,0.09,0.19,0.15,0.28c0.06,0.07,0.14,0.13,0.22,0.18c0.08,0.05,0.17,0.08,0.26,0.1c0.09,0.01,0.19,0.01,0.28,0h0.9v-2.2
		h-0.9h-0.28"/>
	<rect x="117.08" y="72.66" class="st0" width="0.38" height="3.02"/>
	<path class="st0" d="M120.2,74.73h-0.85l0.42-1.32L120.2,74.73z M120,72.84h-0.5l-0.9,2.78v0.06h0.4l0.19-0.59h1.09l0.19,0.59h0.43
		l-0.9-2.81V72.84z"/>
	<path class="st0" d="M122.87,74.66c0.01,0.2-0.03,0.39-0.13,0.56c-0.11,0.11-0.27,0.17-0.43,0.15c-0.16,0.02-0.32-0.04-0.43-0.15
		c-0.09-0.17-0.14-0.37-0.12-0.56v-1.18h-0.39v1.27c-0.02,0.13-0.02,0.25,0,0.38c0.02,0.1,0.07,0.2,0.14,0.28
		c0.05,0.08,0.12,0.14,0.2,0.19c0.08,0.05,0.17,0.08,0.26,0.1c0.19,0.04,0.39,0.04,0.58,0c0.09-0.02,0.17-0.05,0.25-0.1
		c0.09-0.04,0.16-0.11,0.21-0.19c0.07-0.08,0.11-0.18,0.14-0.28c0.02-0.13,0.02-0.25,0-0.38v-1.27h-0.38L122.87,74.66z"/>
	<path class="st0" d="M127.07,73.69c-0.09-0.08-0.19-0.13-0.31-0.16c-0.16-0.02-0.31-0.02-0.47,0h-0.45v-0.82h-0.38v3h0.38v-1.88
		h0.48c0.1-0.01,0.19-0.01,0.29,0c0.07,0.01,0.13,0.05,0.17,0.1c0.04,0.04,0.07,0.09,0.09,0.14c0.01,0.08,0.01,0.15,0,0.23v1.35
		h0.39v-1.3c0.02-0.13,0.02-0.27,0-0.4c-0.03-0.11-0.08-0.21-0.16-0.29"/>
	<path class="st0" d="M129.42,74.49v0.17c0.02,0.19-0.03,0.39-0.14,0.55c-0.25,0.22-0.63,0.22-0.88,0
		c-0.11-0.16-0.16-0.36-0.14-0.55v-0.17c-0.02-0.19,0.03-0.38,0.14-0.54c0.25-0.22,0.63-0.22,0.88,0
		C129.39,74.11,129.44,74.3,129.42,74.49 M129.61,73.74L129.61,73.74c-0.07-0.07-0.14-0.13-0.22-0.18c-0.08-0.05-0.18-0.08-0.27-0.1
		c-0.18-0.04-0.38-0.04-0.56,0c-0.09,0.02-0.18,0.05-0.26,0.1c-0.08,0.05-0.16,0.11-0.22,0.18c-0.07,0.08-0.12,0.18-0.15,0.28
		c-0.03,0.13-0.05,0.26-0.05,0.39v0.34c0,0.13,0.02,0.26,0.05,0.38c0.03,0.1,0.08,0.2,0.15,0.28c0.06,0.08,0.13,0.14,0.22,0.19
		c0.08,0.05,0.17,0.08,0.26,0.1c0.09,0.01,0.19,0.01,0.28,0c0.1,0.01,0.19,0.01,0.29,0c0.09-0.02,0.18-0.06,0.26-0.1
		c0.08-0.05,0.16-0.12,0.22-0.19c0.07-0.08,0.12-0.18,0.14-0.28c0.04-0.12,0.06-0.25,0.06-0.38v-0.34c0-0.13-0.02-0.26-0.06-0.39
		C129.72,73.92,129.68,73.82,129.61,73.74"/>
	<rect x="131.97" y="73.48" class="st0" width="0.38" height="2.2"/>
	<polygon class="st0" points="133.68,72.84 133.29,72.84 133.29,73.48 132.94,73.48 132.94,73.83 133.29,73.83 133.29,75.68 
		133.68,75.68 133.68,73.83 134.04,73.83 134.04,73.48 133.68,73.48 	"/>
	<path class="st0" d="M136.16,73.48l-0.67,1.77l-0.66-1.75l0,0h-0.41l0.79,2.09c0.02,0.06,0.07,0.1,0.12,0.13l-0.31,0.8h0.41l1.15-3
		L136.16,73.48z"/>
	<polygon class="st0" points="130.44,75.68 130.82,75.68 130.82,73.83 131.44,73.83 131.44,73.48 130.44,73.48 	"/>
	<polygon class="st0" points="92.36,75.68 92.74,75.68 92.74,73.83 93.36,73.83 93.36,73.48 92.36,73.48 	"/>
	<polygon class="st0" points="88.32,75.68 88.7,75.68 88.7,73.83 89.32,73.83 89.32,73.48 88.32,73.48 	"/>
	<polygon class="st0" points="124.51,72.84 124.13,72.84 124.13,73.48 123.77,73.48 123.77,73.83 124.13,73.83 124.13,75.68 
		124.51,75.68 124.51,73.83 124.87,73.83 124.87,73.48 124.51,73.48 	"/>
	<polygon class="st0" points="85.03,72.84 84.65,72.84 84.65,73.48 84.3,73.48 84.3,73.83 84.65,73.83 84.65,75.68 85.03,75.68 
		85.03,73.83 85.4,73.83 85.4,73.48 85.03,73.48 	"/>
	<path class="st0" d="M83.49,73.69c-0.09-0.08-0.19-0.14-0.31-0.16c-0.16-0.02-0.31-0.02-0.47,0h-0.83v2.2h0.39v-1.9h0.48
		c0.1-0.01,0.19-0.01,0.29,0c0.07,0.01,0.13,0.05,0.17,0.1c0.04,0.04,0.07,0.09,0.09,0.14c0.01,0.08,0.01,0.15,0,0.23v1.35h0.39
		v-1.3c0.02-0.13,0.02-0.27,0-0.4c-0.03-0.11-0.09-0.21-0.17-0.29"/>
	<path class="st0" d="M94.28,72.93c-0.02-0.03-0.04-0.05-0.07-0.07c-0.08-0.03-0.17-0.03-0.25,0c-0.03,0.02-0.05,0.04-0.07,0.07V73
		c0,0,0,0,0,0.06s0,0,0,0.06v0.06c0.01,0.03,0.04,0.06,0.07,0.08l0,0h0.13h0.12l0.07-0.07c0.01-0.02,0.01-0.05,0-0.07
		c0-0.02,0-0.04,0-0.06c0-0.02,0-0.04,0-0.06C94.29,72.98,94.29,72.95,94.28,72.93"/>
	<path class="st0" d="M71.66,72.93c-0.02-0.03-0.05-0.05-0.08-0.07c-0.08-0.03-0.16-0.03-0.24,0c-0.03,0.02-0.06,0.04-0.08,0.07V73
		v0.12v0.07c0.02,0.03,0.05,0.05,0.08,0.07h0.12h0.12c0.03-0.02,0.06-0.04,0.08-0.07c0-0.02,0-0.05,0-0.07c0-0.02,0-0.04,0-0.06
		c0,0,0,0,0-0.06C71.66,72.98,71.66,72.95,71.66,72.93"/>
	<path class="st0" d="M132.37,72.93c-0.02-0.03-0.05-0.05-0.08-0.07c-0.08-0.03-0.17-0.03-0.25,0c-0.03,0.02-0.05,0.04-0.07,0.07V73
		c0,0,0,0,0,0.06s0,0,0,0.06v0.06c0.01,0.03,0.04,0.06,0.07,0.08l0,0h0.12h0.12l0.07-0.07c0.01-0.02,0.01-0.05,0-0.07
		c0-0.02,0-0.04,0-0.06c0-0.02,0-0.04,0-0.06c0.01-0.02,0.01-0.05,0-0.07"/>
	<path class="st0" d="M77.72,73.7c-0.08-0.09-0.18-0.14-0.29-0.17c-0.15-0.02-0.3-0.02-0.45,0h-2.06v2.2h0.39v-1.9h0.89v1.85h0.38
		v-1.85H77c0.1-0.01,0.2-0.01,0.3,0c0.07,0.01,0.13,0.05,0.17,0.1c0.04,0.04,0.07,0.09,0.08,0.14c0.01,0.08,0.01,0.15,0,0.23v1.35
		h0.38v-1.3c0.02-0.13,0.02-0.27,0-0.4c-0.03-0.11-0.08-0.2-0.16-0.28"/>
	<path class="st0" d="M53.59,73.7c-0.08-0.09-0.18-0.15-0.3-0.17c-0.15-0.02-0.29-0.02-0.44,0h-2.06v2.2h0.38v-1.9h0.9v1.85h0.38
		v-1.85h0.38c0.1-0.01,0.19-0.01,0.29,0c0.07,0.01,0.13,0.05,0.17,0.1c0.04,0.04,0.07,0.09,0.09,0.14c0.01,0.08,0.01,0.15,0,0.23
		v1.35h0.39v-1.3c0.02-0.13,0.02-0.27,0-0.4c-0.03-0.1-0.08-0.2-0.15-0.28"/>
	<rect x="136.17" y="66.97" class="st0" width="0.4" height="3.9"/>
	<path class="st0" d="M132.79,70.47h-0.44c-0.12,0.01-0.24-0.04-0.32-0.12c-0.07-0.08-0.1-0.18-0.11-0.28c0-0.05,0-0.11,0-0.16
		c-0.01-0.12,0.03-0.24,0.1-0.33c0.08-0.09,0.2-0.14,0.32-0.13c0.12-0.01,0.25,0.04,0.33,0.13c0.08,0.12,0.12,0.26,0.11,0.4
		L132.79,70.47z M126.38,70.47h-0.76c-0.12,0.01-0.24-0.04-0.33-0.13c-0.08-0.12-0.11-0.26-0.1-0.4v-0.6
		c-0.01-0.14,0.02-0.28,0.1-0.4c0.08-0.08,0.19-0.12,0.31-0.12h0.4c0.12-0.01,0.24,0.03,0.33,0.12c0.08,0.12,0.11,0.26,0.1,0.4
		L126.38,70.47z M134.92,67v3.5H134v-0.86c0-0.21-0.02-0.42-0.06-0.62c-0.03-0.15-0.1-0.28-0.21-0.39c-0.09-0.1-0.22-0.17-0.35-0.21
		c-0.17-0.04-0.34-0.06-0.52-0.06h-0.65v0.4h0.68c0.11-0.01,0.21-0.01,0.32,0c0.08,0.03,0.16,0.07,0.22,0.13
		c0.06,0.07,0.11,0.16,0.13,0.25c0.02,0.14,0.02,0.27,0,0.41v0.91h-0.39V69.9c0-0.12-0.02-0.23-0.05-0.34
		c-0.02-0.09-0.06-0.17-0.12-0.24c-0.06-0.06-0.12-0.11-0.19-0.15c-0.07-0.05-0.15-0.08-0.23-0.09c-0.08-0.01-0.17-0.01-0.25,0
		c-0.08-0.01-0.16-0.01-0.24,0c-0.08,0.01-0.16,0.04-0.23,0.09c-0.07,0.04-0.14,0.09-0.19,0.15c-0.06,0.07-0.1,0.15-0.12,0.24
		c-0.02,0.11-0.02,0.23,0,0.34l0,0c-0.02,0.15-0.02,0.29,0,0.44c0,0,0,0.07,0.06,0.11h-1.21v-2H130v2h-1.47v-2h-0.4v2h-1.37v-1.17
		c0.02-0.11,0.02-0.23,0-0.34c-0.03-0.09-0.07-0.17-0.13-0.24c-0.05-0.07-0.12-0.12-0.19-0.16c-0.07-0.04-0.14-0.07-0.22-0.08
		c-0.08-0.01-0.17-0.01-0.25,0h-0.35c-0.08-0.01-0.15-0.01-0.23,0c-0.08,0.01-0.15,0.04-0.22,0.08c-0.07,0.04-0.14,0.09-0.19,0.16
		c-0.06,0.07-0.1,0.15-0.13,0.24c-0.02,0.11-0.02,0.23,0,0.34V70c-0.02,0.11-0.02,0.22,0,0.33c0.03,0.09,0.08,0.17,0.13,0.25
		c0.05,0.06,0.12,0.11,0.19,0.15c0.06,0.05,0.14,0.08,0.22,0.09c0.08,0.01,0.17,0.01,0.25,0h9.7V67H134.92z"/>
	<path class="st0" d="M128.74,68L128.74,68v-0.28h-0.33c-0.06-0.03-0.1-0.1-0.08-0.17c0-0.09,0.12-0.15,0.29-0.15h0.16v-0.28h-0.2
		c-0.35,0-0.53,0.14-0.54,0.41c-0.01,0.06-0.01,0.13,0,0.19h-0.24V68h0.86H128.74z"/>
	<path class="st0" d="M130.47,71.76h0.14h0.14c0.03-0.02,0.05-0.04,0.07-0.07c0.01-0.03,0.01-0.05,0-0.08
		c0.01-0.05,0.01-0.09,0-0.14c0.01-0.02,0.01-0.05,0-0.07c-0.02-0.03-0.04-0.05-0.07-0.07c-0.09-0.04-0.19-0.04-0.28,0
		c-0.03,0.02-0.06,0.04-0.08,0.07v0.07v0.14v0.08C130.41,71.72,130.44,71.74,130.47,71.76"/>
	<path class="st0" d="M130,71.76c0,0,0.07,0,0.08-0.07c0.01-0.03,0.01-0.05,0-0.08c0.01-0.05,0.01-0.09,0-0.14
		c0.01-0.02,0.01-0.05,0-0.07c0,0,0-0.05-0.08-0.07c-0.04-0.01-0.09-0.01-0.13,0c-0.05-0.01-0.09-0.01-0.14,0c0,0-0.07,0-0.08,0.07
		v0.07c0,0,0,0,0,0.07s0,0,0,0.07v0.08c0,0,0,0,0.08,0.07h0.14H130"/>
	<path class="st0" d="M126,67.9c-0.01,0.03-0.01,0.07,0,0.1c0.05,0.01,0.09,0.01,0.14,0c0.05,0.01,0.09,0.01,0.14,0
		c0.03-0.01,0.06-0.04,0.07-0.07c0.01-0.02,0.01-0.05,0-0.07c0.01-0.05,0.01-0.09,0-0.14c0.01-0.02,0.01-0.05,0-0.07
		c-0.01-0.03-0.04-0.06-0.07-0.07c-0.05-0.01-0.09-0.01-0.14,0c-0.05-0.01-0.09-0.01-0.14,0c-0.03,0.01-0.06,0.04-0.08,0.07v0.07
		c0,0,0,0,0,0.07s0,0,0,0.07v0.07"/>
	<path class="st0" d="M125.18,67.9c0.01,0.04,0.04,0.06,0.08,0.07c0.04,0.01,0.09,0.01,0.13,0c0.05,0.01,0.09,0.01,0.14,0
		c0.03-0.01,0.06-0.04,0.08-0.07c0,0,0-0.05,0-0.07c0.01-0.05,0.01-0.09,0-0.14c0-0.02,0-0.05,0-0.07
		c-0.02-0.03-0.05-0.06-0.08-0.07c-0.05-0.01-0.09-0.01-0.14,0c-0.04-0.01-0.09-0.01-0.13,0c-0.04,0.01-0.07,0.03-0.08,0.07
		c-0.01,0.02-0.01,0.05,0,0.07c-0.01,0.05-0.01,0.09,0,0.14C125.17,67.85,125.17,67.88,125.18,67.9"/>
	<path class="st0" d="M105.45,70.48h-0.77c-0.12,0.01-0.24-0.04-0.33-0.13c-0.07-0.12-0.11-0.26-0.1-0.4v-0.6
		c-0.01-0.14,0.03-0.28,0.1-0.4c0.08-0.08,0.19-0.12,0.31-0.12H105c0.12-0.01,0.24,0.03,0.33,0.12c0.08,0.12,0.12,0.26,0.11,0.4
		L105.45,70.48z M108.12,67v3.5h-1.05V67h-0.4v3.5h-0.82v-1.22c0.02-0.11,0.02-0.23,0-0.34c-0.02-0.09-0.07-0.17-0.13-0.24
		c-0.05-0.06-0.11-0.12-0.18-0.16c-0.07-0.04-0.15-0.07-0.23-0.08c-0.08-0.01-0.17-0.01-0.25,0h-0.35c-0.08-0.01-0.15-0.01-0.23,0
		c-0.08,0.01-0.15,0.04-0.22,0.08c-0.07,0.04-0.14,0.09-0.19,0.16c-0.06,0.07-0.1,0.15-0.12,0.24c-0.03,0.1-0.05,0.2-0.05,0.31l0,0
		v0.27c0.02,0.25-0.05,0.5-0.18,0.72c-0.16,0.16-0.38,0.25-0.61,0.22h-0.47v-2h-0.4v2h-1.7v-2h-0.4v2h-0.37
		c-0.23,0.03-0.46-0.05-0.62-0.22c-0.14-0.23-0.2-0.51-0.18-0.78v-0.82h-0.4v0.82c0.02,0.27-0.04,0.55-0.18,0.78
		c-0.16,0.16-0.38,0.25-0.61,0.22h-0.37v-1.82H97v1.83h-1.88V67h-0.4v3.91h3c0.12,0.01,0.25,0.01,0.37,0
		c0.11-0.03,0.22-0.07,0.32-0.13c0.1-0.06,0.2-0.14,0.27-0.23v-0.06c0,0.02,0,0.04,0,0.06c0.07,0.09,0.16,0.17,0.26,0.23
		c0.1,0.06,0.21,0.1,0.33,0.13c0.11,0.01,0.21,0.01,0.32,0h3.39c0.12,0.01,0.25,0.01,0.37,0c0.11-0.03,0.22-0.07,0.32-0.13
		c0.09-0.05,0.16-0.12,0.22-0.2v0.1c0.05,0.06,0.12,0.11,0.19,0.15c0.06,0.05,0.14,0.08,0.22,0.09c0.08,0.01,0.17,0.01,0.25,0h3.84
		V67H108.12z"/>
	<path class="st0" d="M94.21,66.4l0.38-0.29c0.11,0.11,0.26,0.18,0.42,0.18c0.17,0,0.34-0.07,0.46-0.19v0.32
		c-0.13,0.11-0.3,0.17-0.48,0.17c-0.15,0.01-0.29-0.04-0.4-0.14l-0.22,0.16L94.21,66.4z"/>
	<path class="st0" d="M93.55,70.47h-2.69c-0.23,0.03-0.45-0.06-0.61-0.22c-0.14-0.23-0.2-0.51-0.18-0.78V69h-0.4v0.61
		c0,0.17,0.02,0.34,0.06,0.5c0.04,0.13,0.09,0.25,0.17,0.36c0.08,0.09,0.17,0.17,0.27,0.23c0.1,0.06,0.21,0.1,0.32,0.13
		c0.11,0.01,0.22,0.01,0.33,0H94v-2.4h-0.4L93.55,70.47z"/>
	<path class="st0" d="M98.93,67.62v0.07v0.14v0.08c0.02,0.04,0.04,0.07,0.07,0.09c0.09,0.04,0.19,0.04,0.28,0
		c0.03-0.01,0.06-0.03,0.08-0.06v-0.08v-0.14v-0.07c-0.02-0.03-0.05-0.06-0.08-0.07c-0.09-0.04-0.19-0.04-0.28,0
		c-0.03,0.01-0.06,0.04-0.08,0.07"/>
	<path class="st0" d="M102.17,67.9c0.02,0.03,0.05,0.06,0.08,0.07c0.05,0.01,0.09,0.01,0.14,0c0.04,0.01,0.09,0.01,0.13,0
		c0.04-0.01,0.07-0.03,0.08-0.07c0.01-0.02,0.01-0.05,0-0.07c0.01-0.05,0.01-0.09,0-0.14c0.01-0.02,0.01-0.05,0-0.07
		c-0.01-0.04-0.04-0.06-0.08-0.07c-0.04-0.01-0.09-0.01-0.13,0c-0.05-0.01-0.09-0.01-0.14,0c-0.03,0.01-0.06,0.04-0.08,0.07v0.07
		c-0.01,0.05-0.01,0.09,0,0.14V67.9"/>
	<path class="st0" d="M98.6,67.29c0.02,0.03,0.05,0.05,0.08,0.07h0.14h0.14c0.03-0.02,0.05-0.04,0.07-0.07
		c0.01-0.03,0.01-0.05,0-0.08c0.01-0.02,0.01-0.05,0-0.07c0-0.02,0-0.05,0-0.07c0-0.03-0.01-0.05-0.03-0.07
		c-0.02-0.03-0.04-0.05-0.07-0.07c-0.05-0.01-0.09-0.01-0.14,0c-0.05-0.01-0.09-0.01-0.14,0c-0.03,0.02-0.06,0.04-0.08,0.07v0.07
		c0,0,0,0.05,0,0.07s0,0,0,0.07v0.08"/>
	<path class="st0" d="M98.15,67.9c0.02,0.03,0.05,0.06,0.08,0.07c0.05,0.01,0.09,0.01,0.14,0c0.04,0.01,0.09,0.01,0.13,0
		c0.04-0.01,0.07-0.03,0.08-0.07c0.01-0.02,0.01-0.05,0-0.07c0.01-0.05,0.01-0.09,0-0.14c0.01-0.02,0.01-0.05,0-0.07
		c-0.01-0.04-0.04-0.06-0.08-0.07c-0.04-0.01-0.09-0.01-0.13,0c-0.05-0.01-0.09-0.01-0.14,0c-0.03,0.01-0.06,0.04-0.08,0.07v0.07
		c0,0,0,0,0,0.07s0,0,0,0.07V67.9"/>
	<path class="st0" d="M92,67.9c0.01,0.04,0.04,0.06,0.08,0.07c0.04,0.01,0.09,0.01,0.13,0c0.05,0.01,0.09,0.01,0.14,0
		c0.03-0.01,0.06-0.04,0.08-0.07c0,0,0-0.05,0-0.07c0.01-0.05,0.01-0.09,0-0.14c0-0.02,0-0.05,0-0.07
		c-0.02-0.03-0.05-0.06-0.08-0.07c-0.05-0.01-0.09-0.01-0.14,0c-0.04-0.01-0.09-0.01-0.13,0c-0.04,0.01-0.07,0.03-0.08,0.07
		c-0.01,0.02-0.01,0.05,0,0.07c-0.01,0.05-0.01,0.09,0,0.14C91.99,67.85,91.99,67.88,92,67.9"/>
	<path class="st0" d="M91.21,67.9c0.01,0.03,0.04,0.06,0.07,0.07c0.05,0.01,0.09,0.01,0.14,0c0.05,0.01,0.09,0.01,0.14,0
		c0.03-0.01,0.06-0.04,0.08-0.07v-0.07v-0.14v-0.07c-0.02-0.03-0.05-0.06-0.08-0.07c-0.05-0.01-0.09-0.01-0.14,0
		c-0.05-0.01-0.09-0.01-0.14,0c-0.03,0.01-0.06,0.04-0.07,0.07v0.07v0.14C91.21,67.85,91.21,67.88,91.21,67.9"/>
	<rect x="87.44" y="66.97" class="st0" width="0.4" height="3.9"/>
	<path class="st0" d="M84.85,70.47H83V69.3c0.39-0.39,0.97-0.54,1.5-0.38c0.22,0.09,0.36,0.29,0.38,0.52L84.85,70.47z M80.56,70.23
		c-0.15-0.09-0.28-0.2-0.38-0.34c-0.23-0.28-0.31-0.65-0.23-1c0.31-0.08,0.62-0.11,0.94-0.08c0.37,0.06,0.4,0.25,0.39,0.41
		C81.19,69.64,80.93,70,80.56,70.23 M86.18,67v3.5h-0.93v-1c-0.01-0.39-0.24-0.73-0.6-0.89c-0.57-0.22-1.21-0.12-1.68,0.26v-0.38
		h-0.4v2h-0.92c-0.22,0-0.44-0.03-0.65-0.09c0.36-0.27,0.62-0.67,0.71-1.11c0.05-0.41-0.24-0.78-0.65-0.83c-0.03,0-0.05,0-0.08-0.01
		c-0.41-0.04-0.82,0-1.22,0.12h-0.1v0.1c-0.15,0.49-0.06,1.02,0.25,1.42c0.09,0.12,0.2,0.24,0.32,0.33h-0.16h-1.6v-2H78v2h-1.5v-2
		h-0.4v2c0.02,0.14,0.02,0.28,0,0.42c-0.02,0.1-0.06,0.19-0.12,0.27c-0.05,0.06-0.12,0.12-0.19,0.15c-0.09,0.03-0.18,0.05-0.27,0.06
		v0.44l0.31-0.05c0.1-0.03,0.19-0.07,0.28-0.12c0.09-0.06,0.17-0.14,0.23-0.23c0.07-0.11,0.12-0.23,0.14-0.35c0-0.05,0-0.11,0-0.16
		H80c0.21,0,0.41-0.07,0.58-0.18c0.34,0.13,0.7,0.19,1.06,0.18h4.93V67H86.18z"/>
	<path class="st0" d="M80.3,67.9c0.01,0.03,0.04,0.06,0.07,0.07c0.05,0.01,0.09,0.01,0.14,0c0.05,0.01,0.09,0.01,0.14,0
		c0.03-0.01,0.06-0.04,0.08-0.07v-0.07v-0.14v-0.07c-0.02-0.03-0.05-0.06-0.08-0.07c-0.05-0.01-0.09-0.01-0.14,0
		c-0.05-0.01-0.09-0.01-0.14,0c-0.03,0.01-0.06,0.04-0.07,0.07v0.07v0.14C80.3,67.85,80.3,67.88,80.3,67.9"/>
	<path class="st0" d="M74.4,67.9c0.01,0.03,0.04,0.06,0.07,0.07c0.05,0.01,0.09,0.01,0.14,0c0.05,0.01,0.09,0.01,0.14,0
		c0.03-0.01,0.06-0.04,0.08-0.07v-0.07c0,0,0,0,0-0.07s0-0.05,0-0.07v-0.07c-0.02-0.03-0.05-0.06-0.08-0.07
		c-0.05-0.01-0.09-0.01-0.14,0c-0.05-0.01-0.09-0.01-0.14,0c-0.03,0.01-0.06,0.04-0.07,0.07c-0.01,0.02-0.01,0.05,0,0.07
		c-0.01,0.05-0.01,0.09,0,0.14C74.39,67.85,74.39,67.88,74.4,67.9"/>
	<path class="st0" d="M73.61,67.9c0.02,0.03,0.05,0.06,0.08,0.07c0.05,0.01,0.09,0.01,0.14,0C73.88,68,73.94,68.01,74,68
		c0.01-0.03,0.01-0.07,0-0.1c0.01-0.02,0.01-0.05,0-0.07c0.01-0.05,0.01-0.09,0-0.14c0.01-0.02,0.01-0.05,0-0.07
		c-0.01-0.03-0.04-0.06-0.07-0.07c-0.05-0.01-0.09-0.01-0.14,0c-0.05-0.01-0.09-0.01-0.14,0c-0.03,0.01-0.06,0.04-0.08,0.07v0.07
		v0.14v0.07"/>
	<path class="st0" d="M78.46,71.76h0.14h0.14c0.03-0.02,0.05-0.04,0.07-0.07c0.01-0.03,0.01-0.05,0-0.08c0.01-0.05,0.01-0.09,0-0.14
		c0.01-0.02,0.01-0.05,0-0.07c-0.02-0.03-0.04-0.05-0.07-0.07c-0.05-0.01-0.09-0.01-0.14,0c-0.05-0.01-0.09-0.01-0.14,0
		c-0.03,0.02-0.06,0.04-0.08,0.07v0.07c0,0,0,0,0,0.07s0,0,0,0.07v0.08C78.4,71.72,78.43,71.74,78.46,71.76"/>
	<path class="st0" d="M78,71.4c-0.02-0.03-0.05-0.05-0.08-0.07c-0.05-0.01-0.09-0.01-0.14,0c-0.04-0.01-0.09-0.01-0.13,0
		c0,0-0.07,0-0.08,0.07c-0.01,0.02-0.01,0.05,0,0.07c-0.01,0.05-0.01,0.09,0,0.14c-0.01,0.03-0.01,0.05,0,0.08
		c0.02,0.03,0.05,0.05,0.08,0.07h0.13h0.14c0.03-0.02,0.06-0.04,0.08-0.07c0-0.03,0-0.05,0-0.08c0.01-0.05,0.01-0.09,0-0.14
		C78,71.47,78,71.47,78,71.4"/>
	<path class="st0" d="M73.62,69.35c-0.01-0.14,0.03-0.28,0.11-0.4c0.08-0.08,0.19-0.12,0.3-0.12h0.36c0.12-0.01,0.24,0.04,0.32,0.12
		c0.08,0.12,0.12,0.26,0.11,0.4v1.13h-0.77c-0.12,0.01-0.24-0.04-0.32-0.13c-0.08-0.12-0.12-0.26-0.11-0.4L73.62,69.35z
		 M73.62,70.76c0.07,0.05,0.14,0.08,0.22,0.09c0.08,0.01,0.17,0.01,0.25,0h1.17v-1.57c0.02-0.11,0.02-0.23,0-0.34
		c-0.02-0.09-0.06-0.17-0.12-0.24c-0.06-0.06-0.12-0.11-0.19-0.16c-0.07-0.04-0.15-0.07-0.23-0.08c-0.08-0.01-0.17-0.01-0.25,0H74
		c-0.08-0.01-0.15-0.01-0.23,0c-0.08,0.01-0.15,0.04-0.22,0.08c-0.07,0.05-0.13,0.1-0.19,0.16c-0.06,0.07-0.1,0.15-0.12,0.24
		c-0.02,0.11-0.02,0.23,0,0.34V70c-0.02,0.11-0.02,0.22,0,0.33c0.03,0.09,0.07,0.17,0.12,0.25c0.06,0.06,0.12,0.11,0.19,0.15"/>
	<rect x="122.62" y="66.97" class="st0" width="0.4" height="3.9"/>
	<path class="st0" d="M112,67.9c0.02,0.03,0.05,0.06,0.08,0.07c0.05,0.01,0.09,0.01,0.14,0c0.05,0.01,0.09,0.01,0.14,0
		c0.03-0.01,0.06-0.04,0.07-0.07c0-0.02,0-0.05,0-0.07v-0.14v-0.07c-0.01-0.03-0.04-0.06-0.07-0.07c-0.05-0.01-0.09-0.01-0.14,0
		c-0.05-0.01-0.09-0.01-0.14,0c-0.03,0.01-0.06,0.04-0.08,0.07v0.07v0.14V67.9"/>
	<path class="st0" d="M111.19,67.9c0.01,0.04,0.04,0.06,0.08,0.07c0.05,0.01,0.09,0.01,0.14,0c0.04,0.01,0.09,0.01,0.13,0
		c0.04-0.01,0.07-0.03,0.08-0.07c0.01-0.02,0.01-0.05,0-0.07c0.01-0.05,0.01-0.09,0-0.14c0.01-0.02,0.01-0.05,0-0.07
		c-0.01-0.04-0.04-0.06-0.08-0.07c-0.04-0.01-0.09-0.01-0.13,0c-0.05-0.01-0.09-0.01-0.14,0c-0.04,0.01-0.07,0.03-0.08,0.07
		c-0.01,0.02-0.01,0.05,0,0.07c-0.01,0.05-0.01,0.09,0,0.14C111.18,67.85,111.18,67.88,111.19,67.9"/>
	<path class="st0" d="M119.38,70.25c-0.16-0.08-0.3-0.2-0.4-0.35c-0.2-0.29-0.27-0.65-0.19-1c0.3-0.08,0.62-0.11,0.93-0.08
		c0.42,0.07,0.4,0.28,0.39,0.37c-0.11,0.41-0.37,0.77-0.73,1 M121.38,66.91v3.5h-0.89c-0.22,0-0.44-0.02-0.65-0.06
		c0.35-0.3,0.59-0.71,0.68-1.16c0-0.2,0-0.69-0.73-0.8c-0.41-0.04-0.82,0-1.21,0.12h-0.1v0.1c-0.14,0.49-0.06,1.02,0.22,1.44
		c0.09,0.12,0.19,0.23,0.31,0.32h-1.58V67H117v3.91h1.86c0.2-0.01,0.4-0.06,0.57-0.16c0.32,0.11,0.66,0.16,1,0.17h1.34V67
		L121.38,66.91z"/>
	<path class="st0" d="M114.72,70.35c-0.08-0.12-0.11-0.26-0.1-0.4v-0.6c-0.01-0.14,0.02-0.28,0.1-0.4c0.08-0.08,0.19-0.13,0.31-0.12
		h0.35c0.12-0.01,0.24,0.03,0.32,0.12c0.08,0.12,0.12,0.26,0.11,0.4v1.13H115c-0.12,0.01-0.24-0.04-0.32-0.13 M111.26,70.35
		c-0.08-0.12-0.11-0.26-0.1-0.4v-0.6c-0.01-0.14,0.02-0.28,0.1-0.4c0.08-0.08,0.19-0.12,0.31-0.12H112
		c0.12-0.01,0.24,0.03,0.33,0.12c0.08,0.12,0.12,0.26,0.11,0.4v1.13h-0.77c-0.12,0.01-0.24-0.04-0.33-0.13 M116.25,70.87v-1.59
		c0.02-0.11,0.02-0.23,0-0.34c-0.02-0.09-0.06-0.17-0.12-0.24c-0.06-0.06-0.12-0.11-0.19-0.16c-0.07-0.04-0.15-0.07-0.23-0.08
		c-0.08-0.01-0.17-0.01-0.25,0H115c-0.08-0.01-0.16-0.01-0.24,0c-0.08,0.01-0.15,0.04-0.22,0.08c-0.07,0.05-0.13,0.1-0.19,0.16
		c-0.06,0.07-0.1,0.15-0.12,0.24c-0.02,0.1-0.02,0.21,0,0.31l0,0v0.22c0.02,0.27-0.04,0.55-0.18,0.78
		c-0.16,0.16-0.38,0.24-0.61,0.22h-0.63v-1.19c0.02-0.11,0.02-0.23,0-0.34c-0.03-0.09-0.07-0.17-0.13-0.24
		c-0.05-0.06-0.11-0.12-0.18-0.16c-0.07-0.04-0.15-0.07-0.23-0.08c-0.08-0.01-0.17-0.01-0.25,0h-0.35c-0.08-0.01-0.15-0.01-0.23,0
		c-0.08,0.01-0.15,0.04-0.22,0.08c-0.07,0.04-0.14,0.09-0.19,0.16c-0.06,0.07-0.1,0.15-0.12,0.24c-0.02,0.11-0.02,0.23,0,0.34V70
		c-0.02,0.11-0.02,0.22,0,0.33c0.03,0.09,0.07,0.17,0.12,0.25c0.05,0.06,0.12,0.11,0.19,0.15c0.06,0.05,0.14,0.08,0.22,0.09
		c0.08,0.01,0.17,0.01,0.25,0h1.79c0.12,0.01,0.25,0.01,0.37,0c0.11-0.03,0.22-0.07,0.32-0.13c0.09-0.05,0.17-0.12,0.23-0.2
		c0,0.03,0,0.07,0,0.1c0.06,0.06,0.12,0.11,0.19,0.15c0.07,0.05,0.14,0.08,0.22,0.09c0.08,0.01,0.17,0.01,0.25,0L116.25,70.87z"/>
	<rect x="68.22" y="66.97" class="st0" width="0.4" height="3.9"/>
	<path class="st0" d="M53.56,70.47h-1.89v-1.18c0.4-0.39,0.97-0.54,1.51-0.38c0.21,0.09,0.36,0.29,0.38,0.52L53.56,70.47z
		 M49.79,70.47H49c-0.12,0.01-0.24-0.04-0.32-0.13c-0.08-0.12-0.12-0.26-0.11-0.4v-0.6c-0.01-0.14,0.03-0.28,0.11-0.4
		c0.08-0.08,0.19-0.13,0.31-0.12h0.35c0.12-0.01,0.24,0.03,0.32,0.12c0.08,0.12,0.12,0.26,0.11,0.4L49.79,70.47z M58.19,70.47h-0.38
		c-0.23,0.03-0.45-0.06-0.61-0.22c-0.14-0.23-0.2-0.51-0.18-0.78v-0.83h-0.4v0.83c0.02,0.27-0.04,0.55-0.18,0.78
		c-0.16,0.16-0.38,0.25-0.61,0.22h-0.38v-1.83h-0.4v1.83H54v-1c-0.02-0.39-0.25-0.73-0.61-0.88c-0.56-0.23-1.21-0.13-1.68,0.25V67
		H51.3v3.5h-1.11v-1.22c0.02-0.11,0.02-0.23,0-0.34c-0.04-0.09-0.11-0.18-0.19-0.24c-0.05-0.06-0.12-0.12-0.19-0.16
		c-0.07-0.04-0.15-0.07-0.23-0.08c-0.08-0.01-0.16-0.01-0.24,0H49c-0.08-0.01-0.15-0.01-0.23,0c-0.08,0.01-0.16,0.04-0.23,0.08
		c-0.07,0.05-0.13,0.1-0.19,0.16c-0.06,0.07-0.1,0.15-0.12,0.24c-0.03,0.11-0.05,0.22-0.05,0.34V70c0,0.11,0.02,0.22,0.05,0.33
		c0.03,0.09,0.07,0.17,0.12,0.25c0.06,0.06,0.12,0.11,0.19,0.15c0.07,0.04,0.15,0.07,0.23,0.09c0.08,0.01,0.16,0.01,0.24,0h6.81
		c0.12,0.01,0.25,0.01,0.37,0c0.11-0.03,0.22-0.07,0.32-0.13c0.1-0.06,0.19-0.14,0.27-0.23V70.4v0.06c0.07,0.09,0.16,0.17,0.26,0.23
		c0.1,0.06,0.21,0.1,0.32,0.13c0.11,0.01,0.22,0.01,0.33,0h0.82v-2.39h-0.4L58.19,70.47z"/>
	<path class="st0" d="M49.37,67.9c0.01,0.04,0.04,0.06,0.08,0.07c0.04,0.01,0.09,0.01,0.13,0c0.05,0.01,0.09,0.01,0.14,0
		c0.03-0.01,0.06-0.04,0.08-0.07v-0.07c0,0,0,0,0-0.07s0-0.05,0-0.07v-0.07c-0.02-0.03-0.05-0.06-0.08-0.07
		c-0.05-0.01-0.09-0.01-0.14,0c-0.04-0.01-0.09-0.01-0.13,0c-0.04,0.01-0.07,0.03-0.08,0.07c-0.01,0.02-0.01,0.05,0,0.07
		c-0.01,0.05-0.01,0.09,0,0.14C49.36,67.85,49.36,67.88,49.37,67.9"/>
	<path class="st0" d="M48.58,67.9c0.02,0.03,0.05,0.06,0.08,0.07c0.05,0.01,0.09,0.01,0.14,0c0.05,0.01,0.09,0.01,0.14,0
		c0.03-0.01,0.05-0.04,0.06-0.07c0-0.02,0-0.05,0-0.07v-0.14v-0.07c-0.01-0.03-0.04-0.06-0.07-0.07c-0.05-0.01-0.09-0.01-0.14,0
		c-0.05-0.01-0.09-0.01-0.14,0c-0.03,0.01-0.06,0.04-0.08,0.07v0.07v0.14v0.07"/>
	<path class="st0" d="M62.72,67.9c0.02,0.03,0.05,0.06,0.08,0.07c0.05,0.01,0.09,0.01,0.14,0c0.05,0.01,0.09,0.01,0.14,0
		c0.03-0.01,0.06-0.04,0.07-0.07c0-0.02,0-0.05,0-0.07v-0.14v-0.07c-0.01-0.03-0.04-0.06-0.07-0.07c-0.05-0.01-0.09-0.01-0.14,0
		c-0.05-0.01-0.09-0.01-0.14,0c-0.03,0.01-0.06,0.04-0.08,0.07v0.07v0.14V67.9"/>
	<path class="st0" d="M61.94,67.9c0,0.04,0.02,0.08,0.06,0.1c0.05,0.01,0.09,0.01,0.14,0c0.04,0.01,0.09,0.01,0.13,0
		c0.04-0.01,0.07-0.03,0.08-0.07c0.01-0.02,0.01-0.05,0-0.07c0.01-0.05,0.01-0.09,0-0.14c0.01-0.02,0.01-0.05,0-0.07
		c-0.01-0.04-0.04-0.06-0.08-0.07c-0.04-0.01-0.09-0.01-0.13,0c-0.05-0.01-0.09-0.01-0.14,0c-0.04,0.01-0.07,0.03-0.08,0.07v0.07
		c-0.01,0.05-0.01,0.09,0,0.14v0.07"/>
	<path class="st0" d="M71,69.57v0.91h-0.77c-0.12,0.01-0.24-0.04-0.33-0.13c-0.07-0.12-0.11-0.26-0.1-0.4v-0.6
		c-0.01-0.14,0.03-0.28,0.1-0.4c0.08-0.08,0.19-0.12,0.31-0.12h0.35c0.12-0.01,0.24,0.03,0.33,0.12c0.08,0.12,0.12,0.26,0.11,0.4
		V69.57z M71.4,70.87v-1.59c0.02-0.11,0.02-0.23,0-0.34c-0.02-0.09-0.07-0.17-0.13-0.24c-0.05-0.06-0.11-0.12-0.18-0.16
		c-0.07-0.04-0.15-0.07-0.23-0.08c-0.08-0.01-0.17-0.01-0.25,0H70.2c-0.08-0.01-0.15-0.01-0.23,0c-0.08,0.01-0.15,0.04-0.22,0.08
		c-0.07,0.04-0.14,0.09-0.19,0.16c-0.06,0.07-0.1,0.15-0.12,0.24c-0.02,0.11-0.02,0.23,0,0.34V70c-0.02,0.11-0.02,0.22,0,0.33
		c0.03,0.09,0.07,0.17,0.12,0.25c0.05,0.06,0.12,0.11,0.19,0.15c0.06,0.05,0.14,0.08,0.22,0.09c0.08,0.01,0.17,0.01,0.25,0H71
		c0,0.58-0.33,0.63-0.61,0.63h-0.42v0.44h0.42c0.52,0.04,0.97-0.35,1.01-0.87c0-0.07,0-0.14-0.01-0.2"/>
	<path class="st0" d="M65.61,70.48h-0.77c-0.12,0.01-0.24-0.04-0.32-0.13c-0.08-0.12-0.12-0.26-0.11-0.4v-0.6
		c-0.01-0.14,0.03-0.28,0.11-0.4c0.08-0.08,0.19-0.13,0.3-0.12h0.35c0.12-0.01,0.24,0.03,0.33,0.12c0.08,0.12,0.12,0.26,0.11,0.4
		L65.61,70.48z M60.9,69.57v0.91h-0.76c-0.12,0.01-0.24-0.04-0.33-0.13c-0.08-0.12-0.11-0.26-0.1-0.4v-0.6
		c-0.01-0.14,0.02-0.28,0.1-0.4c0.08-0.08,0.19-0.12,0.31-0.12h0.35c0.12-0.01,0.24,0.03,0.33,0.12c0.08,0.12,0.11,0.26,0.1,0.4
		V69.57z M67,67v3.5h-1v-1.22c0-0.12-0.02-0.23-0.05-0.34c-0.02-0.09-0.07-0.17-0.13-0.24c-0.05-0.06-0.11-0.12-0.18-0.16
		c-0.07-0.04-0.15-0.07-0.23-0.08c-0.08-0.01-0.17-0.01-0.25,0h-0.35c-0.08-0.01-0.15-0.01-0.23,0c-0.08,0.01-0.15,0.04-0.22,0.08
		c-0.07,0.04-0.14,0.1-0.19,0.16c-0.06,0.07-0.1,0.15-0.12,0.24c-0.01,0.1-0.01,0.21,0,0.31l0,0v0.27c0.02,0.25-0.05,0.5-0.18,0.72
		c-0.16,0.16-0.38,0.25-0.61,0.22h-0.47v-2h-0.4v2H61.3v-1.18c0.02-0.11,0.02-0.23,0-0.34c-0.03-0.09-0.07-0.17-0.13-0.24
		c-0.05-0.07-0.12-0.12-0.19-0.16c-0.07-0.04-0.14-0.07-0.22-0.08c-0.08-0.01-0.17-0.01-0.25,0h-0.35c-0.08-0.01-0.15-0.01-0.23,0
		c-0.08,0.01-0.16,0.04-0.23,0.08c-0.07,0.04-0.13,0.1-0.18,0.16c-0.06,0.07-0.1,0.15-0.13,0.24c-0.02,0.11-0.02,0.23,0,0.34V70
		c-0.02,0.11-0.02,0.22,0,0.33c0.03,0.09,0.08,0.17,0.13,0.25c0.05,0.06,0.11,0.11,0.18,0.15c0.07,0.05,0.15,0.08,0.23,0.09
		c0.08,0.01,0.17,0.01,0.25,0h0.75c0,0.57-0.33,0.62-0.61,0.62h-0.43v0.44h0.43c0.51,0.05,0.96-0.32,1.01-0.82
		c0.01-0.08,0.01-0.16-0.01-0.24h1.92c0.12,0.01,0.25,0.01,0.37,0c0.11-0.03,0.22-0.07,0.32-0.13c0.09-0.05,0.16-0.12,0.22-0.2
		c0,0,0,0.07,0.05,0.1c0.05,0.06,0.12,0.11,0.19,0.15c0.07,0.05,0.14,0.08,0.22,0.09c0.08,0.01,0.17,0.01,0.25,0h2.53V67H67z"/>
</g>
</svg>
