<?xml version="1.0" encoding="utf-8"?>
<!-- Generator: Adobe Illustrator 26.0.1, SVG Export Plug-In . SVG Version: 6.00 Build 0)  -->
<svg version="1.1" id="Layer_1" xmlns="http://www.w3.org/2000/svg" xmlns:xlink="http://www.w3.org/1999/xlink" x="0px" y="0px"
	 viewBox="0 0 200.1 113.2" style="enable-background:new 0 0 200.1 113.2;" xml:space="preserve">
<style type="text/css">
	.st0{fill-rule:evenodd;clip-rule:evenodd;fill:#3AAAD1;}
	.st1{fill:none;}
	.st2{fill-rule:evenodd;clip-rule:evenodd;fill:#424C50;}
	.st3{fill-rule:evenodd;clip-rule:evenodd;fill:#58ABC8;}
	.st4{fill-rule:evenodd;clip-rule:evenodd;fill:#B3B2B3;}
</style>
<path class="st0" d="M114.8,75.8l0.9,0.8V40l-0.9-0.3V75.8z"/>
<path class="st1" d="M157.8,59.9"/>
<path class="st2" d="M102.8,60.2c0-1.7,0.1-3.4,0-5c0-1.4-1-2.5-2.4-2.7c-1.1-0.1-2.3,0-3.5,0v7.7H102.8z M84,50.8h1.8v9.4h9.1v-9.4
	c2.4,0.1,4.7-0.3,6.9,0.3c1.4,0.4,2.5,1.7,2.6,3.2c0.2,2.5,0,5,0,7.5H64.2c-3.3,0-4.2-0.9-4.2-4.2V45.4h1.8v12.7
	c0,1.7,0.4,2.1,2.1,2.1h8.3v-8.6H74v8.6h4.1v-8.6H80v8.6h4V50.8z"/>
<path class="st2" d="M45.2,60.2h9.5v-9.4h1.8v11H35.2v-1.6h8.3c0-2-0.2-4-0.4-6c-0.2-1.2-1.3-1.8-2.9-1.9h-3.3v-1.5
	c1.7-0.1,3.3-0.1,5,0c2,0.3,3.1,1.8,3.2,3.9c0.1,1.4,0,2.9,0,4.3C45.2,59.4,45.2,59.8,45.2,60.2"/>
<path class="st2" d="M45.5,64.8v9.8h-1.2v-8.4h-0.1c-0.1,0.2-0.2,0.3-0.2,0.5c-0.9,2.5-1.8,4.9-2.7,7.4c0,0.3-0.3,0.6-0.6,0.5
	c-0.1,0-0.1,0-0.2,0H40c-0.3,0.1-0.5-0.1-0.6-0.4c-0.9-2.5-1.9-5.1-2.8-7.6c0-0.2-0.1-0.3-0.2-0.4v8.4h-1.1v-9.8h1.9l3.1,8.6
	c0.1-0.3,0.2-0.6,0.3-0.9c0.9-2.4,1.8-4.8,2.7-7.3c0.1-0.3,0.4-0.5,0.7-0.5C44.5,64.8,45,64.8,45.5,64.8 M76.6,64.8h1.2
	c0.2,0,0.3,0.2,0.4,0.4c1.6,2.4,3.1,4.8,4.7,7.2c0.1,0.2,0.2,0.4,0.4,0.5v-8h1.1v9.8h-1.2c-0.1,0-0.3-0.2-0.4-0.3
	c-1.6-2.4-3.2-4.8-4.7-7.3c-0.1-0.2-0.3-0.4-0.4-0.6v8.2h-1.1V64.8z M97.4,65.8v7.8h2.7c1.8-0.1,2.8-0.8,3-2.3c0.1-1,0.1-2.1,0-3.1
	c-0.1-1.1-0.9-2-2-2.2C99.9,65.9,98.7,65.9,97.4,65.8z M96.2,64.9c1.7,0,3.3-0.1,4.9,0c1.6,0.1,3,1.4,3.2,3c0.2,1.2,0.2,2.4,0,3.6
	c-0.3,1.9-1.9,3.2-3.8,3.1c-1.4,0.1-2.8,0-4.3,0C96.2,74.6,96.2,64.9,96.2,64.9z M48.2,64.8h1.2v6c0,2.1,0.7,2.8,2.8,2.8h2.4v-8.8
	h1.2v9.7c0,0.1,0,0.1-0.1,0.1c-1.5,0-3,0.1-4.4,0c-1.6,0.1-2.9-1.1-3-2.7c0-0.1,0-0.2,0-0.3C48.1,69.4,48.2,67.1,48.2,64.8
	 M70.6,66.1L70.6,66.1L68.7,71h3.8L70.6,66.1 M66,74.7l3.8-9.8h0.1c1.3-0.1,1.3-0.1,1.7,1.1c1.1,2.7,2.1,5.4,3.2,8.2
	c0.1,0.2,0.1,0.4,0.2,0.6h-1.1c-0.1,0-0.3-0.2-0.3-0.3c-0.2-0.6-0.5-1.2-0.7-1.9c-0.1-0.3-0.2-0.4-0.6-0.4h-3.7
	c-0.3,0-0.5,0.1-0.6,0.4c-0.2,0.6-0.4,1.1-0.6,1.7c-0.1,0.4-0.3,0.5-0.7,0.5C66.6,74.6,66.3,74.7,66,74.7 M64.7,64.9v1h-4.1
	c-0.8,0-1.4,0.7-1.3,1.5c0,0,0,0.1,0,0.1c-0.1,0.8,0.5,1.5,1.3,1.6h1.7c2.4,0.1,3,1.5,2.7,3.4c-0.1,1.2-1,2.1-2.2,2.1
	c-1.5,0.1-3.1,0-4.6,0v-1H62c1.3,0,1.8-0.6,1.8-1.9c0.1-0.8-0.5-1.4-1.2-1.5c-0.1,0-0.2,0-0.3,0h-1.7c-2.1-0.1-2.8-1.4-2.6-3.2
	c0-1.2,0.9-2.1,2.1-2.1c0.1,0,0.1,0,0.2,0C61.8,64.8,63.3,64.9,64.7,64.9 M94.6,73.4h-6.5v-2.9H94v-1.3h-5.8v-3h5.9V65H87v9.8h7.7
	L94.6,73.4z"/>
<path class="st1" d="M126.8,50.7h3.5v-4.8l-3.5,1.5V50.7z"/>
<path class="st2" d="M54.8,47.3C54.7,47.3,54.7,47.3,54.8,47.3l-0.1,1.8c0,0.1,0,0.1,0.1,0.1h1.5c0.1,0,0.1,0,0.1-0.1v-1.7
	c0-0.1,0-0.1-0.1-0.1H54.8z"/>
<path class="st3" d="M158,59.9h-8.7l-3.5,3.6l0,0v8h-15.6V45.9l12.9-5.7l2.4-1l-4.3-1.9l-14.5,6.3l0.1,27.9l3.4,3.5l0,0v-0.1
	l0.1,0.1h15.5l3.6,2.8V75h8.6v-3.5h-8.6v-8h8.6V75l0,0l3.6-3.5v-8.1L158,59.9z"/>
<path class="st4" d="M145.4,35.4L145.4,35.4l-4.4,1.9l20.3,8.8l0,0v4.8h3.6V44l0,0L145.4,35.4z"/>
</svg>
