<?xml version="1.0" encoding="utf-8"?>
<!-- Generator: Adobe Illustrator 26.0.1, SVG Export Plug-In . SVG Version: 6.00 Build 0)  -->
<svg version="1.1" id="Layer_1" xmlns="http://www.w3.org/2000/svg" xmlns:xlink="http://www.w3.org/1999/xlink" x="0px" y="0px"
	 viewBox="0 0 432.56 229" style="enable-background:new 0 0 432.56 229;" xml:space="preserve">
<style type="text/css">
	.st0{fill:#007166;}
	.st1{fill:#00AD68;}
	.st2{fill:#F6B221;}
	.st3{fill:#435363;}
	.st4{fill:#8E9090;}
</style>
<g>
	<g>
		<g>
			<g>
				<path class="st0" d="M291.82,48l-70.14,133h49.96l70.25-133H291.82z"/>
			</g>
			<g>
				<path class="st1" d="M221.02,181h50.08l-35.38-66.75h-50.08L221.02,181z"/>
			</g>
			<g>
				<path class="st2" d="M218.1,82.05h-50.19l13.42,25.42h50.19L218.1,82.05z"/>
			</g>
		</g>
		<g>
			<g>
				<g>
					<g>
						<g>
							<path class="st3" d="M99.32,89.59h2.06c0.33,0,0.54-0.11,0.76-0.33c0.21-0.19,0.33-0.47,0.33-0.76v-2.49
								c0.01-0.29-0.11-0.56-0.33-0.76c-0.19-0.21-0.47-0.33-0.76-0.33h-2.06c-0.29-0.01-0.56,0.11-0.76,0.33
								c-0.21,0.19-0.33,0.47-0.33,0.76v2.49c0,0.33,0.11,0.54,0.33,0.76C98.67,89.48,99,89.59,99.32,89.59z"/>
						</g>
						<g>
							<path class="st3" d="M141.4,110.9c0-0.22-0.11-0.43-0.22-0.65l-1.95-4.97l-0.43-1.19c-0.87-2.16-1.84-4-2.92-5.41
								c-1.08-1.41-2.16-2.49-3.35-3.25c-1.2-0.76-2.51-1.31-3.9-1.63c-1.4-0.33-2.81-0.43-4.43-0.43c-0.54,0-1.3,0-2.16,0.11
								c-0.87,0.11-1.63,0.22-2.27,0.33c-0.24,0.06-0.46,0.17-0.65,0.33c-0.13,0.15-0.21,0.34-0.22,0.54v1.95
								c0,0.54,0.33,0.76,1.08,0.65c0.22,0,0.54,0,0.87-0.11c0.33,0,0.65,0,0.98-0.11c0.33,0,0.65,0,0.86-0.11h0.54
								c2.92,0,5.3,0.54,6.92,1.73c1.73,1.19,3.03,2.92,4.11,5.3l1.08,2.49l1.73,4h-34.94V96.62c0-0.22-0.11-0.43-0.22-0.65
								c-0.11-0.21-0.33-0.21-0.54-0.21H99.1c-0.23,0.02-0.45,0.1-0.65,0.22c-0.12,0.2-0.19,0.42-0.22,0.65v20.77
								c0,1.08-0.11,1.84-0.22,2.49c-0.09,0.57-0.4,1.07-0.87,1.41c-0.48,0.34-1.04,0.57-1.62,0.65c-0.65,0.11-1.51,0.11-2.49,0.11
								h-0.98c-0.54,0-0.75,0.22-0.75,0.65v2.05c0,0.22,0,0.43,0.11,0.54c0.11,0.11,0.33,0.22,0.65,0.22c0.22-0.11,0.65-0.11,1.19,0
								h0.98c1.84,0,3.25-0.22,4.33-0.65c1.08-0.43,1.95-1.19,2.59-2.27c0.33-0.65,0.54-1.41,0.65-2.16
								c0.11-0.87,0.22-1.73,0.22-2.81v-3.03H140c0.54,0,0.86-0.11,1.08-0.33c0.22-0.22,0.33-0.43,0.33-0.86v-1.73
								C141.51,111.42,141.51,111.14,141.4,110.9L141.4,110.9z"/>
						</g>
					</g>
					<g>
						<g>
							<path class="st3" d="M157.63,89.59h2.05c0.33,0,0.54-0.11,0.76-0.33c0.21-0.19,0.33-0.47,0.33-0.76v-2.49
								c0.01-0.29-0.11-0.56-0.33-0.76c-0.19-0.21-0.47-0.33-0.76-0.33h-2.05c-0.29-0.01-0.56,0.11-0.76,0.33
								c-0.21,0.19-0.33,0.47-0.33,0.76v2.49c0,0.33,0.11,0.54,0.33,0.76C157.09,89.48,157.31,89.59,157.63,89.59z"/>
						</g>
						<g>
							<path class="st3" d="M160.77,99.22c0-0.76,0-1.63-0.11-2.7c0-0.22-0.11-0.43-0.22-0.65c-0.11-0.22-0.33-0.22-0.65-0.22h-2.27
								c-0.2,0-0.39,0.08-0.54,0.22c-0.12,0.2-0.19,0.42-0.22,0.65c0,1.19,0.11,2.38,0.11,3.35v9.09c0,0.76-0.11,1.3-0.33,1.41
								c-0.22,0.11-0.87,0.22-1.73,0.22h-1.4c-0.54,0-0.98,0-1.3-0.11c-0.34-0.07-0.66-0.18-0.98-0.33
								c-0.22-0.22-0.43-0.43-0.65-0.86c-0.15-0.49-0.22-1-0.22-1.52V81.69c-0.02-0.23-0.1-0.45-0.22-0.65
								c-0.22-0.22-0.33-0.33-0.65-0.33h-2.27c-0.22,0-0.43,0.11-0.65,0.33c-0.22,0.22-0.22,0.43-0.22,0.65v26.93
								c0,1.19,0.11,2.16,0.43,2.92c0.22,0.76,0.65,1.3,1.19,1.84c0.54,0.43,1.19,0.76,1.94,0.98c0.22,0.11,0.54,0.11,0.87,0.11
								c0.33,0.11,0.54,0.11,0.98,0.11h3.78c0.54,0,1.19,0,1.73-0.11c0.54,0,1.08-0.11,1.52-0.11c0.34,0.01,0.67-0.07,0.98-0.22
								c0.32-0.11,0.65-0.33,0.75-0.54c0.11-0.22,0.22-0.54,0.33-0.76c0.11-0.76,0.11-1.73,0.22-3.03v-4.22v-2.38v-1.95
								C160.88,100.62,160.88,99.86,160.77,99.22z"/>
						</g>
					</g>
				</g>
				<g>
					<g>
						<path class="st3" d="M111,153.09c0,0.22-0.11,0.43-0.33,0.65c-0.22,0.21-0.43,0.33-0.65,0.33h-2.27
							c-0.22,0-0.43-0.11-0.65-0.33c-0.22-0.22-0.33-0.43-0.33-0.65v-15.47c0-1.19-0.11-2.17-0.33-2.92
							c-0.21-0.76-0.54-1.41-0.97-1.84c-0.46-0.45-1.01-0.78-1.62-0.98c-0.73-0.23-1.5-0.34-2.27-0.33c-0.98,0-2.06,0.22-3.14,0.54
							c-1.08,0.33-2.16,0.76-3.25,1.3v19.8c0,0.22-0.11,0.43-0.33,0.65c-0.22,0.22-0.43,0.33-0.65,0.33h-2.05
							c-0.22,0-0.43-0.11-0.65-0.33c-0.21-0.33-0.32-0.54-0.32-0.76v-23.91c0.02-0.23,0.1-0.45,0.22-0.65
							c0.22-0.21,0.33-0.32,0.65-0.32h2.38c0.22,0,0.43,0.11,0.65,0.33c0.22,0.22,0.22,0.43,0.22,0.65v0.86
							c1.3-0.76,2.49-1.3,3.68-1.62c1.08-0.33,2.38-0.54,3.79-0.54c2.81,0,4.87,0.87,6.17,2.49c1.3,1.73,1.95,4.11,1.95,7.25v15.47
							L111,153.09L111,153.09z"/>
					</g>
					<g>
						<path class="st3" d="M131.13,148.98c-1.08,0.65-2.17,1.08-3.14,1.41c-0.98,0.33-2.06,0.43-3.14,0.43
							c-1.3,0-2.38-0.33-3.14-0.87s-1.08-1.62-1.08-3.35v-0.54c0-0.87,0.11-1.63,0.33-2.17c0.22-0.54,0.54-1.08,1.08-1.4
							c0.54-0.33,1.19-0.54,2.16-0.76c1.15-0.14,2.3-0.22,3.46-0.22h3.46L131.13,148.98z M135.24,153.09l-0.11-16.33
							c0-2.81-0.76-4.98-2.16-6.49c-1.4-1.63-3.78-2.38-7.03-2.38c-1.62,0-3.03,0.11-4.11,0.22c-1.08,0.11-2.17,0.33-3.14,0.43
							c-0.65,0.11-0.98,0.33-0.98,0.87v1.62c0,0.33,0,0.54,0.22,0.65c0.11,0.11,0.33,0.11,0.54,0.11h0.22
							c0.98,0,1.95-0.11,3.14-0.22c1.08-0.11,2.49-0.11,4-0.11c1.84,0,3.14,0.43,3.89,1.19c0.76,0.76,1.08,2.16,1.08,4.11v1.84
							h-3.46c-2.06,0-3.9,0.11-5.3,0.43c-1.41,0.33-2.6,0.76-3.46,1.41c-0.86,0.65-1.51,1.41-1.94,2.38
							c-0.36,1.08-0.55,2.21-0.54,3.35v0.54c0,1.52,0.22,2.7,0.65,3.68c0.43,0.97,1.08,1.84,1.73,2.38
							c0.76,0.54,1.51,0.98,2.49,1.19c0.97,0.22,1.94,0.33,2.92,0.33c1.41,0,2.59-0.22,3.78-0.65c1.19-0.43,2.38-0.97,3.46-1.62
							v1.08c0,0.22,0.11,0.43,0.33,0.65c0.22,0.21,0.43,0.33,0.65,0.33h2.16c0.22,0,0.43-0.11,0.65-0.33
							C135.13,153.52,135.24,153.31,135.24,153.09L135.24,153.09z"/>
					</g>
					<g>
						<path class="st3" d="M145.84,153.74c0,1.19-0.11,2.27-0.43,3.03c-0.23,0.71-0.6,1.38-1.08,1.95c-0.5,0.51-1.14,0.85-1.84,0.98
							c-0.81,0.22-1.65,0.33-2.49,0.33h-1.3c-0.33,0-0.76-0.11-1.3-0.11c-0.54-0.11-0.87-0.33-0.87-0.76v-1.73
							c0-0.43,0.33-0.65,0.98-0.65h1.95c0.86,0,1.51-0.22,1.73-0.54c0.33-0.33,0.43-1.19,0.43-2.38v-24.66
							c0-0.22,0.11-0.43,0.22-0.65c0.11-0.22,0.33-0.33,0.65-0.33h2.49c0.22,0,0.43,0.11,0.65,0.33c0.12,0.2,0.19,0.42,0.22,0.65
							V153.74z"/>
					</g>
					<g>
						<path class="st3" d="M157.31,153.09c0,0.22-0.11,0.43-0.33,0.65c-0.22,0.21-0.43,0.33-0.65,0.33h-2.27
							c-0.22,0-0.43-0.11-0.65-0.33c-0.22-0.22-0.33-0.43-0.33-0.65v-23.91c0-0.22,0.11-0.43,0.33-0.65
							c0.22-0.21,0.43-0.32,0.65-0.32h2.27c0.22,0,0.43,0.11,0.65,0.33c0.22,0.22,0.33,0.43,0.33,0.65V153.09z"/>
					</g>
					<g>
						<path class="st3" d="M181.75,153.09c0,0.22-0.11,0.43-0.33,0.65c-0.22,0.21-0.43,0.33-0.65,0.33h-14.06
							c-0.98,0-1.73-0.22-2.16-0.76c-0.42-0.48-0.65-1.1-0.65-1.73v-0.87c0-0.65,0.11-1.19,0.22-1.62c0.11-0.43,0.43-0.86,0.87-1.4
							l12.12-15.04c0.11-0.22,0.21-0.33,0.21-0.43c0-0.22-0.11-0.33-0.43-0.33h-11.58c-0.22,0-0.43-0.11-0.65-0.33
							c-0.21-0.21-0.32-0.43-0.32-0.65v-1.62c0-0.22,0.11-0.43,0.33-0.65c0.22-0.22,0.43-0.33,0.65-0.33h13.74
							c0.98,0,1.62,0.22,2.05,0.65c0.43,0.43,0.54,0.98,0.54,1.73v1.08c0,0.54-0.11,0.98-0.22,1.3c-0.22,0.44-0.51,0.85-0.87,1.19
							l-12.22,15.36c-0.14,0.15-0.21,0.34-0.22,0.54c0,0.22,0.11,0.33,0.33,0.33h12.33c0.22,0,0.43,0.11,0.65,0.33
							c0.21,0.22,0.32,0.43,0.32,0.65C181.75,151.47,181.75,153.09,181.75,153.09z"/>
					</g>
				</g>
				<g>
					<g>
						<g>
							<path class="st1" d="M141.62,119.99c0-0.33,0.11-0.54,0.33-0.76c0.19-0.21,0.47-0.33,0.76-0.33h2.05
								c0.33,0,0.54,0.11,0.76,0.33c0.22,0.22,0.33,0.43,0.33,0.76v2.49c0,0.22-0.11,0.43-0.33,0.65c-0.19,0.21-0.47,0.33-0.76,0.33
								h-2.05c-0.29,0.01-0.57-0.11-0.76-0.33c-0.22-0.22-0.33-0.43-0.33-0.65L141.62,119.99z"/>
						</g>
						<g>
							<path class="st2" d="M153.19,119.99c0-0.33,0.11-0.54,0.33-0.76c0.19-0.21,0.47-0.33,0.76-0.33h2.06
								c0.33,0,0.54,0.11,0.76,0.33c0.22,0.22,0.33,0.43,0.33,0.76v2.49c0,0.22-0.11,0.43-0.33,0.65c-0.19,0.21-0.47,0.33-0.76,0.33
								h-2.06c-0.29,0.01-0.56-0.11-0.76-0.33c-0.22-0.22-0.33-0.43-0.33-0.65V119.99z"/>
						</g>
					</g>
					<g>
						<g>
							<path class="st0" d="M130.15,119.99c0-0.33,0.11-0.54,0.33-0.76c0.19-0.21,0.47-0.33,0.76-0.33h2.05
								c0.33,0,0.54,0.11,0.76,0.33c0.22,0.22,0.33,0.43,0.33,0.76v2.49c0,0.22-0.11,0.43-0.33,0.65c-0.19,0.21-0.47,0.33-0.76,0.33
								h-2.05c-0.29,0.01-0.56-0.11-0.76-0.33c-0.22-0.22-0.33-0.43-0.33-0.65V119.99z"/>
						</g>
					</g>
				</g>
				<g>
					<path class="st3" d="M157.31,153.09c0,0.22-0.11,0.43-0.33,0.65c-0.22,0.21-0.43,0.33-0.65,0.33h-2.27
						c-0.22,0-0.43-0.11-0.65-0.33c-0.22-0.22-0.33-0.43-0.33-0.65v-23.91c0-0.22,0.11-0.43,0.33-0.65
						c0.22-0.21,0.43-0.32,0.65-0.32h2.27c0.22,0,0.43,0.11,0.65,0.33c0.22,0.22,0.33,0.43,0.33,0.65V153.09z"/>
				</g>
			</g>
			<g>
				<g>
					<path class="st4" d="M92.94,163.69l0.54,0.11c0.11,0,0.11,0,0.11-0.11v-0.54c0-0.11,0-0.11-0.11-0.11h-0.43
						c-0.11,0-0.11,0-0.11,0.11V163.69C92.94,163.8,92.94,163.8,92.94,163.69z M91.64,163.69l0.65,0.11c0.11,0,0.11,0,0.11-0.11
						v-0.54c0-0.11,0-0.11-0.11-0.11h-0.54c-0.11,0-0.11,0-0.11,0.11V163.69C91.64,163.8,91.64,163.8,91.64,163.69z M91.42,167.58
						v-0.76c0-0.65,0.65-1.3,1.3-1.3s1.3,0.54,1.3,1.3v2.06h-1.3C92.07,168.88,91.42,168.23,91.42,167.58z M96.29,168.88h-1.51
						v-2.06c0-0.54-0.33-0.98-0.65-1.41c-0.34-0.42-0.86-0.67-1.41-0.65c-0.54,0-0.97,0.33-1.4,0.65c-0.42,0.34-0.67,0.86-0.65,1.41
						v0.76c0,0.54,0.33,0.98,0.65,1.41c0.34,0.42,0.86,0.66,1.4,0.65h3.68L96.29,168.88z"/>
				</g>
				<g>
					<path class="st4" d="M98.67,170.51h-0.43c-0.11,0-0.11,0-0.11,0.11v0.54c0,0.11,0,0.11,0.11,0.11h0.43c0.11,0,0.11,0,0.11-0.11
						v-0.54C98.78,170.61,98.78,170.51,98.67,170.51z M97.37,170.51h-0.54c-0.11,0-0.11,0-0.11,0.11v0.54c0,0.11,0,0.11,0.11,0.11
						h0.54c0.11,0,0.11,0,0.11-0.11v-0.54C97.48,170.61,97.48,170.51,97.37,170.51z M97.81,168.34c0,0.33-0.11,0.54-0.43,0.54h-1.51
						v0.76h1.41c0.33,0,0.65-0.11,0.87-0.33c0.22,0.22,0.65,0.33,1.08,0.33h0.33v-0.76H99.1c-0.22,0-0.43,0-0.54-0.11
						c-0.11,0-0.11-0.11-0.11-0.22v-3.46c0-0.11,0-0.11-0.11-0.11h-0.43c-0.11,0-0.11,0-0.11,0.11V168.34L97.81,168.34z"/>
				</g>
				<g>
					<path class="st4" d="M102.03,163.04h-0.43c-0.11,0-0.11,0-0.11,0.11v0.54c0,0.11,0,0.11,0.11,0.11h0.43
						c0.11,0,0.11,0,0.11-0.11v-0.54C102.13,163.04,102.13,162.93,102.03,163.04z M101.37,168.34c0,0.43-0.11,0.54-0.43,0.43h-1.62
						v0.76h1.52c0.76,0,1.3-0.43,1.3-1.19v-3.25c0-0.11,0-0.11-0.11-0.11h-0.54c-0.11,0-0.11,0-0.11,0.11L101.37,168.34
						L101.37,168.34z"/>
				</g>
				<g>
					<path class="st4" d="M104.08,167.58v-0.76c0-0.65,0.65-1.3,1.3-1.3c0.65,0,1.3,0.54,1.3,1.3v2.06h-1.3
						C104.73,168.89,104.08,168.23,104.08,167.58L104.08,167.58z M106.79,169.75c0,0.65-0.54,1.19-1.19,1.19h-0.98
						c-0.11,0-0.11,0-0.11,0.11v0.43c0,0.11,0,0.11,0.11,0.11h0.98c0.54,0,0.97-0.11,1.4-0.54c0.35-0.34,0.55-0.81,0.54-1.3v-2.92
						c0-0.54-0.33-0.98-0.65-1.41c-0.34-0.42-0.86-0.67-1.41-0.65c-0.54,0-0.97,0.33-1.4,0.65c-0.42,0.34-0.67,0.86-0.65,1.41v0.76
						c0,0.54,0.33,0.98,0.65,1.41c0.34,0.42,0.86,0.66,1.4,0.65L106.79,169.75z"/>
				</g>
				<g>
					<path class="st4" d="M109.49,169.97v-4.87c0-0.11,0-0.11,0.11-0.11h0.43c0.11,0,0.11,0,0.11,0.11v3.79h1.63v0.76h-1.52v0.33
						c0,1.08-0.65,1.62-1.62,1.62h-0.54c-0.11,0-0.11,0-0.11-0.11v-0.43c0-0.11,0-0.11,0.11-0.11h0.43
						C109.17,170.94,109.49,170.61,109.49,169.97L109.49,169.97z"/>
				</g>
				<g>
					<path class="st4" d="M114.14,163.8h0.43c0.11,0,0.11,0,0.11-0.11v-0.54c0-0.11,0-0.11-0.11-0.11h-0.43
						c-0.11,0-0.11,0-0.11,0.11v0.54C114.03,163.8,114.14,163.8,114.14,163.8z M112.84,163.8h0.54c0.11,0,0.11,0,0.11-0.11v-0.54
						c0-0.11,0-0.11-0.11-0.11h-0.54c-0.11,0-0.11,0-0.11,0.11v0.54C112.74,163.8,112.84,163.8,112.84,163.8z M113.38,168.34
						c0,0.33-0.11,0.54-0.43,0.54h-1.73v0.76h1.63c0.33,0,0.65-0.11,0.86-0.33c0.22,0.22,0.65,0.33,1.08,0.33h0.33v-0.76h-0.43
						c-0.22,0-0.43,0-0.54-0.11c-0.11,0-0.11-0.11-0.11-0.22v-3.46c0-0.11,0-0.11-0.11-0.11h-0.43c-0.11,0-0.11,0-0.11,0.11V168.34
						L113.38,168.34z"/>
				</g>
				<g>
					<path class="st4" d="M118.79,162.93h0.76c0.11,0,0.11,0,0.11,0.11v0.43c0,0.11,0,0.11-0.11,0.11h-0.76
						c-0.98,0-1.63,0.54-1.73,1.63h1.84c0.65,0,1.19,0.21,1.52,0.65c0.33,0.43,0.65,0.98,0.65,1.62v1.08c0,0.11,0,0.22,0.11,0.22
						c0.11,0.11,0.33,0.11,0.54,0.11h0.54v0.76h-0.43c-0.43,0-0.86-0.11-1.08-0.33c-0.25,0.27-0.6,0.42-0.97,0.43h-4.76v-0.76h4.76
						c0.33,0,0.54-0.22,0.54-0.54v-0.87c0-0.86-0.54-1.51-1.41-1.51h-2.16c-0.22,0-0.33-0.22-0.33-0.33
						C116.31,164.01,117.17,162.93,118.79,162.93z"/>
				</g>
				<g>
					<path class="st4" d="M123.55,168.34v-5.63c0-0.11,0-0.11,0.11-0.11h0.43c0.11,0,0.11,0,0.11,0.11v5.63
						c0,0.76-0.54,1.19-1.19,1.19h-1.08v-0.76h1.08C123.44,168.89,123.55,168.67,123.55,168.34z"/>
				</g>
				<g>
					<path class="st4" d="M127.01,167.91l0.54,0.11c0.11,0,0.11,0,0.11-0.11v-4.43c0-0.11,0-0.11-0.11-0.11h-0.43
						c-0.11,0-0.11,0-0.11,0.11V167.91C127.01,168.02,127.01,168.13,127.01,167.91z M127.23,171.05c0-0.22,0.11-0.33,0.33-0.43
						c0.11,0,0.22,0.11,0.33,0.22v0.11c0,0.11,0.11,0.11,0.11,0.11l0.22-0.11c0.11,0,0.11-0.11,0.11-0.11v-0.11
						c-0.11-0.33-0.33-0.43-0.65-0.43c-0.41-0.01-0.75,0.31-0.76,0.72c0,0.01,0,0.03,0,0.04v0.54h-0.33c-0.11,0-0.11,0-0.11,0.11
						v0.22c0,0.11,0,0.11,0.11,0.11h1.62c0.11,0,0.11,0,0.11-0.11v-0.22c0-0.11,0-0.11-0.11-0.11h-0.98L127.23,171.05L127.23,171.05
						z M129.5,167.91c0,0.65-0.33,0.98-0.98,0.98h-2.92c-0.11,0-0.11,0-0.11,0.11v0.43c0,0.11,0,0.11,0.11,0.11h2.92
						c0.98,0,1.62-0.54,1.62-1.62v-5.19c0-0.11,0-0.11-0.11-0.11h-0.43c-0.11,0-0.11,0-0.11,0.11V167.91z"/>
				</g>
				<g>
					<path class="st4" d="M132.32,169.64h-0.43c-0.11,0-0.11,0-0.11-0.11v-6.82c0-0.11,0-0.11,0.11-0.11h0.43
						c0.11,0,0.11,0,0.11,0.11L132.32,169.64C132.42,169.53,132.42,169.64,132.32,169.64z"/>
				</g>
				<g>
					<path class="st4" d="M138.27,163.69C138.27,163.8,138.38,163.8,138.27,163.69l0.54,0.11c0.11,0,0.11,0,0.11-0.11v-0.54
						c0-0.11,0-0.11-0.11-0.11h-0.43c-0.11,0-0.11,0-0.11,0.11V163.69z M136.97,163.69l0.65,0.11c0.11,0,0.11,0,0.11-0.11v-0.54
						c0-0.11,0-0.11-0.11-0.11h-0.54c-0.11,0-0.11,0-0.11,0.11L136.97,163.69C136.97,163.8,137.08,163.8,136.97,163.69
						L136.97,163.69z M136.86,167.58v-0.76c0-0.65,0.54-1.3,1.3-1.3c0.65,0,1.3,0.54,1.3,1.3v2.06h-1.3
						C137.44,168.88,136.87,168.3,136.86,167.58z M141.73,168.89h-1.51v-2.06c0-0.54-0.22-0.98-0.65-1.41
						c-0.34-0.42-0.86-0.67-1.41-0.65c-0.54,0-0.98,0.33-1.4,0.65c-0.42,0.34-0.67,0.86-0.65,1.41v0.76c0,0.54,0.33,0.98,0.65,1.41
						c0.34,0.42,0.86,0.66,1.4,0.65h3.57V168.89z"/>
				</g>
				<g>
					<path class="st4" d="M143.67,170.51c-0.11,0-0.11,0-0.11,0.11v0.54c0,0.11,0,0.11,0.11,0.11h0.43c0.11,0,0.11,0,0.11-0.11
						v-0.54L143.67,170.51z M142.27,170.51c-0.11,0-0.11,0-0.11,0.11v0.54c0,0.11,0,0.11,0.11,0.11h0.54c0.11,0,0.11,0,0.11-0.11
						v-0.54L142.27,170.51z M143.24,168.34c0,0.33-0.11,0.54-0.54,0.54h-1.52v0.76h1.52c0.33,0,0.65-0.11,0.86-0.33
						c0.22,0.22,0.65,0.33,1.08,0.33h0.33v-0.76h-0.43c-0.22,0-0.43,0-0.54-0.11c-0.11,0-0.11-0.11-0.11-0.22v-3.46
						c0-0.11,0-0.11-0.11-0.11h-0.43c-0.11,0-0.11,0-0.11,0.11V168.34L143.24,168.34z"/>
				</g>
				<g>
					<path class="st4" d="M146.49,168.34v-5.63c0-0.11,0-0.11,0.11-0.11h0.43c0.11,0,0.11,0,0.11,0.11v5.63
						c0,0.76-0.54,1.19-1.19,1.19h-1.08v-0.76h1.08C146.38,168.89,146.49,168.67,146.49,168.34z"/>
				</g>
				<g>
					<path class="st4" d="M152.98,168.88h0.43v0.76h-0.33c-0.43,0-0.76-0.11-0.97-0.43L152,169.1c-0.34,0.35-0.81,0.54-1.3,0.54
						h-2.05c-0.11,0-0.11,0-0.11-0.11v-0.43c0-0.11,0-0.11,0.11-0.11h2.05c0.65,0,0.98-0.22,0.98-0.87v-1.51
						c-0.04-0.58-0.5-1.04-1.08-1.08c-0.34-0.01-0.67,0.07-0.98,0.22l-0.22,0.11h-0.22l-0.22-0.33v-0.11c0,0,0-0.11,0.11-0.11
						l0.22-0.11c0.39-0.23,0.84-0.35,1.3-0.33c0.43,0,0.86,0.22,1.3,0.54c0.33,0.33,0.54,0.76,0.54,1.19v1.84
						C152.33,168.67,152.65,168.89,152.98,168.88L152.98,168.88z"/>
				</g>
				<g>
					<path class="st4" d="M155.79,165.86c0.25-0.27,0.6-0.43,0.97-0.43c0.33,0,0.65,0.11,0.98,0.33c0.33,0.33,0.54,0.54,0.54,0.87
						l-1.08,2.27h-0.86l-1.08-2.28C155.36,166.4,155.57,166.07,155.79,165.86z M160.12,169.64v-0.86h-2.06l0.98-2.05v-0.11
						c-0.13-0.5-0.39-0.95-0.76-1.3c-0.43-0.34-0.96-0.52-1.51-0.54c-0.57,0.01-1.12,0.24-1.52,0.65c-0.43,0.43-0.65,0.75-0.76,1.3
						v0.11l0.98,2.06h-2.27v0.76h6.71L160.12,169.64z"/>
				</g>
				<g>
					<path class="st4" d="M161.31,168.34v-5.63c0-0.11,0-0.11,0.11-0.11h0.43c0.11,0,0.11,0,0.11,0.11v5.63
						c0,0.76-0.54,1.19-1.19,1.19h-1.08v-0.76h1.08C161.09,168.89,161.31,168.67,161.31,168.34z"/>
				</g>
				<g>
					<path class="st4" d="M164.12,169.64h-0.43c-0.11,0-0.11,0-0.11-0.11v-6.82c0-0.11,0-0.11,0.11-0.11h0.43
						c0.11,0,0.11,0,0.11,0.11L164.12,169.64C164.23,169.53,164.23,169.64,164.12,169.64z"/>
				</g>
				<g>
					<path class="st4" d="M172.02,164.56l0.65,0.11c0.11,0,0.11,0,0.11-0.11v-0.54c0-0.11,0-0.11-0.11-0.11h-0.54
						c-0.11,0-0.11,0-0.11,0.11L172.02,164.56C172.02,164.56,172.02,164.66,172.02,164.56z M170.72,164.56
						C170.72,164.56,170.72,164.66,170.72,164.56l0.54,0.11c0.11,0,0.11,0,0.11-0.11v-0.54c0-0.11,0-0.11-0.11-0.11h-0.43
						c-0.11,0-0.11,0-0.11,0.11L170.72,164.56L170.72,164.56z M173.97,168.34c0,0.43-0.22,0.54-0.54,0.54h-3.46
						c-0.77-0.01-1.39-0.64-1.4-1.41c0-0.65,0.33-1.08,0.76-1.3l0.22-0.11c0.11,0,0.11,0,0.11-0.11l-0.22-0.43
						c0-0.11,0-0.11-0.11-0.11h-0.11l-0.22,0.11c-0.33,0.11-0.65,0.43-0.87,0.76c-0.22,0.32-0.33,0.7-0.33,1.08
						c0,0.65,0.22,1.08,0.65,1.52c0.43,0.43,0.98,0.65,1.51,0.65h3.46c0.65,0,1.19-0.43,1.19-1.19v-3.25c0-0.11,0-0.11-0.11-0.11
						h-0.43c-0.11,0-0.11,0-0.11,0.11C173.97,165.1,173.97,168.34,173.97,168.34z"/>
				</g>
				<g>
					<path class="st4" d="M177.43,168.88h0.43v0.76h-0.43c-0.76,0-1.19-0.43-1.19-1.19v-5.62c0-0.11,0-0.11,0.11-0.11h0.43
						c0.11,0,0.11,0,0.11,0.11v5.62C176.89,168.78,177.1,168.89,177.43,168.88L177.43,168.88z"/>
				</g>
				<g>
					<path class="st4" d="M181.32,168.88h-1.3v-2.05c0-0.65,0.54-1.3,1.3-1.3c0.65,0,1.3,0.54,1.3,1.3v0.76
						C182.62,168.23,182.08,168.89,181.32,168.88L181.32,168.88z M182.73,165.42c-0.33-0.43-0.97-0.65-1.51-0.65
						s-0.98,0.33-1.41,0.65c-0.42,0.34-0.66,0.86-0.65,1.4v2.06h-1.62v0.76h3.68c0.65,0,1.08-0.33,1.51-0.65
						c0.42-0.34,0.67-0.86,0.65-1.41v-0.76C183.38,166.29,183.16,165.85,182.73,165.42L182.73,165.42z"/>
				</g>
				<g>
					<path class="st4" d="M189.22,168.88h0.43v0.76h-0.33c-0.43,0-0.76-0.11-0.98-0.43l-0.11-0.11c-0.34,0.35-0.81,0.55-1.3,0.54
						h-2.05c-0.11,0-0.11,0-0.11-0.11v-0.43c0-0.11,0-0.11,0.11-0.11h2.06c0.65,0,0.98-0.22,0.98-0.87v-1.51
						c-0.04-0.58-0.5-1.04-1.08-1.08c-0.34-0.01-0.67,0.07-0.98,0.22l-0.21,0.11h-0.22l-0.22-0.33v-0.11c0,0,0-0.11,0.11-0.11
						l0.22-0.11c0.39-0.23,0.84-0.35,1.3-0.33c0.43,0,0.86,0.22,1.3,0.54c0.33,0.33,0.54,0.76,0.54,1.19v1.84
						C188.57,168.67,188.79,168.89,189.22,168.88L189.22,168.88z"/>
				</g>
				<g>
					<path class="st4" d="M192.47,163.69l0.65,0.11c0.11,0,0.11,0,0.11-0.11v-0.54c0-0.11,0-0.11-0.11-0.11h-0.54
						c-0.11,0-0.11,0-0.11,0.11L192.47,163.69C192.47,163.8,192.47,163.8,192.47,163.69z M194.41,167.91c0,0.65-0.22,0.98-0.97,1.08
						h-4.11v0.76h4.11c0.54,0,0.98-0.22,1.3-0.54c0.21,0.43,0.65,0.54,1.19,0.54h0.33v-0.76h-0.43c-0.22,0-0.43,0-0.54-0.11
						c-0.11,0-0.11-0.11-0.11-0.22v-1.51c0.02-0.61-0.22-1.2-0.65-1.63c-0.43-0.43-1.02-0.66-1.62-0.65c-0.98,0-1.62,0.33-2.16,0.98
						l-0.11,0.22v0.11l0.11,0.11l0.33,0.22h0.11l0.11-0.11l0.11-0.22c0.33-0.54,0.86-0.76,1.51-0.76c0.41-0.02,0.8,0.14,1.08,0.43
						c0.33,0.33,0.43,0.65,0.43,1.08V167.91L194.41,167.91z"/>
				</g>
				<g>
					<path class="st4" d="M197.66,168.34v-5.63c0-0.11,0-0.11,0.11-0.11h0.43c0.11,0,0.11,0,0.11,0.11v5.63
						c0,0.76-0.54,1.19-1.19,1.19h-1.08v-0.76h1.08C197.55,168.89,197.66,168.67,197.66,168.34z"/>
				</g>
				<g>
					<path class="st4" d="M200.58,169.64h-0.43c-0.11,0-0.11,0-0.11-0.11v-6.82c0-0.11,0-0.11,0.11-0.11h0.43
						c0.11,0,0.11,0,0.11,0.11L200.58,169.64C200.68,169.53,200.68,169.64,200.58,169.64z"/>
				</g>
			</g>
			<g>
				<g>
					<path class="st4" d="M92.4,173.64h0.76v5.3c0.02,0.42-0.09,0.84-0.33,1.19c-0.22,0.33-0.54,0.43-1.08,0.43H91.1
						c-0.11,0-0.11,0-0.22-0.11l0.11-0.65c0.17,0.08,0.35,0.12,0.54,0.11c0.33,0,0.43-0.11,0.54-0.33c0.11-0.22,0.11-0.43,0.11-0.76
						v-5.2L92.4,173.64z"/>
				</g>
				<g>
					<path class="st4" d="M95.64,175.59v3.46c0,0.21,0.11,0.32,0.11,0.43l0.33,0.33c0.11,0.11,0.33,0.11,0.43,0.11
						c0.22,0,0.33,0,0.43-0.11c0.11-0.11,0.22-0.11,0.33-0.22l0.33-0.33c0.11-0.11,0.11-0.22,0.22-0.43v-3.25h0.76v4.22
						c0,0.22,0,0.43,0.11,0.65h-0.54l-0.22-0.76c-0.16,0.27-0.38,0.49-0.65,0.65c-0.33,0.22-0.54,0.22-0.97,0.22
						c-0.22,0-0.54,0-0.65-0.11c-0.21-0.11-0.33-0.22-0.54-0.33c-0.15-0.19-0.26-0.41-0.33-0.65c-0.11-0.33-0.11-0.65-0.11-0.97
						v-2.92C94.67,175.59,95.64,175.59,95.64,175.59z"/>
				</g>
				<g>
					<path class="st4" d="M101.92,179.92c-0.22,0-0.33,0-0.54-0.11c-0.22-0.11-0.33-0.33-0.43-0.43c-0.11-0.11-0.11-0.33-0.22-0.54
						c-0.11-0.22-0.11-0.54-0.11-0.76c0-0.65,0.22-1.08,0.43-1.41c0.28-0.3,0.67-0.46,1.08-0.43c0.22,0,0.43,0.11,0.54,0.11
						c0.22,0.11,0.33,0.11,0.43,0.22v2.38c-0.08,0.28-0.23,0.54-0.43,0.76C102.45,179.84,102.19,179.91,101.92,179.92z
						 M103.86,173.43h-0.75v2.05c-0.11,0-0.33-0.11-0.43-0.11h-0.54c-0.61-0.02-1.2,0.22-1.63,0.65c-0.32,0.43-0.54,1.08-0.54,1.94
						c0,0.87,0.11,1.52,0.43,1.95c0.33,0.43,0.76,0.65,1.41,0.65c0.3-0.01,0.6-0.08,0.87-0.22c0.23-0.12,0.42-0.31,0.54-0.54
						l0.22,0.65h0.54c-0.11-0.22-0.11-0.54-0.11-0.76C103.86,179.7,103.86,173.43,103.86,173.43z"/>
				</g>
				<g>
					<path class="st4" d="M105.6,175.59h0.76v4.87h-0.76V175.59z M105.38,174.18c0-0.11,0-0.33,0.11-0.43
						c0.11-0.11,0.22-0.11,0.43-0.11c0.22,0,0.33,0,0.43,0.11c0.11,0.11,0.22,0.22,0.22,0.43c0,0.11-0.11,0.33-0.22,0.33
						c-0.11,0.11-0.22,0.11-0.43,0.11c-0.22,0-0.33,0-0.43-0.11C105.49,174.4,105.38,174.29,105.38,174.18z"/>
				</g>
				<g>
					<path class="st4" d="M111.33,180.13l-0.65,0.33c-0.22,0.11-0.54,0.11-0.86,0.11c-0.33,0-0.65-0.11-0.98-0.22
						c-0.24-0.15-0.46-0.33-0.65-0.54c-0.2-0.2-0.31-0.47-0.33-0.76c0-0.22-0.11-0.65-0.11-1.08c0-0.87,0.22-1.41,0.54-1.95
						c0.33-0.43,0.87-0.65,1.52-0.65c0.33,0,0.54,0,0.76,0.11c0.2,0,0.39,0.08,0.54,0.22l-0.22,0.65c-0.11-0.11-0.33-0.11-0.54-0.22
						c-0.22-0.11-0.33-0.11-0.54-0.11c-0.98,0-1.41,0.65-1.41,1.84c0,0.22,0,0.43,0.11,0.76c0.11,0.33,0.11,0.43,0.22,0.54
						c0.11,0.22,0.22,0.33,0.43,0.43c0.2,0.09,0.43,0.13,0.65,0.11c0.22,0,0.43,0,0.65-0.11c0.21-0.11,0.32-0.11,0.43-0.22
						L111.33,180.13z"/>
				</g>
				<g>
					<path class="st4" d="M112.52,175.59h0.76v4.87h-0.76V175.59z M112.41,174.18c0-0.11,0-0.33,0.11-0.43
						c0.11-0.11,0.22-0.11,0.43-0.11c0.22,0,0.33,0,0.43,0.11c0.11,0.11,0.22,0.22,0.22,0.43c0,0.11-0.11,0.33-0.22,0.33
						c-0.11,0.11-0.22,0.11-0.43,0.11c-0.22,0-0.33,0-0.43-0.11C112.41,174.4,112.41,174.29,112.41,174.18z"/>
				</g>
				<g>
					<path class="st4" d="M116.31,179.92c-0.22,0-0.43-0.11-0.76-0.22c-0.14-0.15-0.21-0.34-0.22-0.54c0-0.22,0-0.33,0.11-0.43
						c0.11-0.11,0.22-0.11,0.33-0.22c0.22,0,0.33-0.11,0.54-0.11h1.19v0.76c0,0-0.11,0.11-0.11,0.22c0,0.11-0.11,0.11-0.22,0.22
						c-0.11,0.11-0.22,0.22-0.33,0.22C116.63,179.92,116.52,179.92,116.31,179.92z M115.12,176.46c0.11,0,0.22-0.11,0.33-0.11
						c0.22,0,0.33-0.11,0.43-0.11c0.22-0.11,0.33-0.11,0.43-0.11h0.33c0.33,0,0.65,0.11,0.76,0.22s0.22,0.43,0.22,0.76v0.54h-0.22
						h-0.22c-0.33,0-0.65,0.11-0.98,0.11c-0.27,0.01-0.53,0.08-0.76,0.22c-0.22,0.11-0.43,0.22-0.54,0.43
						c-0.14,0.23-0.21,0.49-0.22,0.76c0,0.22,0,0.33,0.11,0.54c0.11,0.22,0.22,0.22,0.33,0.43c0.11,0.22,0.22,0.22,0.43,0.33
						c0.11,0.11,0.33,0.11,0.54,0.11c0.22,0,0.33,0,0.54-0.11c0.22-0.11,0.33-0.11,0.43-0.22c0.11,0,0.22-0.22,0.33-0.22
						c0.11,0,0.11-0.11,0.22-0.22l0.22,0.65h0.54c0-0.11-0.11-0.33-0.11-0.54v-0.65v-1.08V177v-0.54c-0.03-0.16-0.1-0.32-0.22-0.43
						c-0.12-0.13-0.27-0.24-0.43-0.33c-0.22-0.11-0.54-0.11-0.87-0.11s-0.65,0-0.98,0.11c-0.33,0.11-0.65,0.22-0.86,0.33
						L115.12,176.46z"/>
				</g>
				<g>
					<path class="st4" d="M120.74,179.27c0,0.22,0,0.43,0.11,0.54c0.11,0.11,0.22,0.11,0.33,0.11h0.33c0.11,0,0.22,0,0.33-0.11
						l0.11,0.65c-0.11,0-0.22,0.11-0.43,0.11h-0.43c-0.27-0.01-0.53-0.08-0.76-0.22c-0.22-0.22-0.33-0.43-0.33-0.86v-5.85h0.76
						V179.27z"/>
				</g>
				<g>
					<path class="st4" d="M125.39,173.64h3.68v0.76h-2.92v2.27h2.7v0.76h-2.7v2.38h2.92v0.76h-3.79L125.39,173.64L125.39,173.64z"/>
				</g>
				<g>
					<path class="st4" d="M131.34,179.27c0,0.22,0,0.43,0.11,0.54c0.11,0.11,0.22,0.11,0.33,0.11h0.33c0.11,0,0.22,0,0.33-0.11
						l0.11,0.65c-0.11,0-0.22,0.11-0.43,0.11h-0.43c-0.33,0-0.54-0.11-0.76-0.22c-0.22-0.22-0.33-0.43-0.33-0.86v-5.85h0.76
						L131.34,179.27L131.34,179.27z"/>
				</g>
				<g>
					<path class="st4" d="M135.89,176.57c0.22,0.22,0.33,0.54,0.33,1.08h-2.38c0.11-0.54,0.22-0.86,0.43-1.08
						c0.28-0.22,0.62-0.33,0.98-0.33C135.56,176.24,135.78,176.24,135.89,176.57L135.89,176.57z M136.54,179.38
						c-0.17,0.13-0.35,0.24-0.54,0.33c-0.22,0.11-0.43,0.11-0.65,0.11c-0.33,0-0.54,0-0.76-0.11c-0.11-0.11-0.33-0.22-0.43-0.33
						c-0.22-0.11-0.22-0.33-0.33-0.54c-0.11-0.22-0.11-0.43-0.11-0.76h3.14c0.11-0.33,0.11-0.54,0.11-0.76
						c0.01-0.34-0.07-0.67-0.22-0.98c-0.11-0.22-0.33-0.33-0.43-0.54c-0.1-0.2-0.31-0.33-0.54-0.33c-0.22-0.11-0.43-0.11-0.65-0.11
						c-0.76,0-1.3,0.22-1.62,0.65c-0.33,0.43-0.54,1.08-0.54,1.94c0,0.43,0,0.87,0.11,1.08c0.11,0.22,0.33,0.54,0.43,0.76
						c0.11,0.22,0.33,0.43,0.65,0.54c0.33,0.11,0.65,0.22,0.98,0.22c0.33,0,0.65,0,0.97-0.11c0.33,0,0.54-0.22,0.76-0.33
						L136.54,179.38z"/>
				</g>
				<g>
					<path class="st4" d="M141.51,180.13l-0.65,0.33c-0.22,0.11-0.54,0.11-0.86,0.11c-0.33,0-0.65-0.11-0.98-0.22
						c-0.33-0.11-0.43-0.33-0.65-0.54c-0.2-0.2-0.31-0.47-0.33-0.76c-0.11-0.33-0.11-0.65-0.11-1.08c0-0.87,0.22-1.41,0.54-1.95
						c0.33-0.43,0.87-0.65,1.52-0.65c0.33,0,0.54,0,0.76,0.11c0.2,0,0.39,0.08,0.54,0.22l-0.22,0.65c-0.11-0.11-0.33-0.11-0.54-0.22
						c-0.22-0.11-0.33-0.11-0.54-0.11c-0.98,0-1.41,0.65-1.41,1.84c0,0.22,0,0.43,0.11,0.76c0.11,0.33,0.11,0.43,0.22,0.54
						c0.11,0.22,0.22,0.33,0.43,0.43c0.2,0.09,0.43,0.13,0.65,0.11c0.22,0,0.43,0,0.65-0.11c0.21-0.11,0.32-0.11,0.43-0.22
						L141.51,180.13z"/>
				</g>
				<g>
					<path class="st4" d="M141.95,175.59h0.76v-0.98l0.76-0.22v1.19h1.3v0.65h-1.3v2.7c0,0.33,0,0.54,0.11,0.76
						c0.11,0.11,0.22,0.22,0.43,0.22h0.43c0.11,0,0.22-0.11,0.43-0.11l0.22,0.54c-0.22,0.11-0.33,0.11-0.54,0.22
						c-0.22,0.11-0.43,0.11-0.65,0.11c-0.43,0-0.65-0.11-0.87-0.33c-0.22-0.22-0.22-0.65-0.22-1.08v-2.92h-0.76v-0.76H141.95z"/>
				</g>
				<g>
					<path class="st4" d="M148.11,176.35c-0.22-0.11-0.43-0.11-0.54-0.11c-0.33,0-0.54,0.11-0.65,0.22
						c-0.22,0.11-0.22,0.33-0.33,0.54v3.46h-0.76v-4.87h0.54l0.11,0.54c0.11-0.22,0.22-0.43,0.43-0.54c0.39-0.25,0.88-0.29,1.3-0.11
						L148.11,176.35z"/>
				</g>
				<g>
					<path class="st4" d="M149.73,178.08c0-1.3,0.43-1.95,1.3-1.84c0.33,0,0.43,0,0.65,0.11c0.22,0.11,0.33,0.22,0.43,0.43
						c0.11,0.11,0.11,0.33,0.22,0.54c0.09,0.24,0.13,0.5,0.11,0.76c0,1.19-0.43,1.84-1.3,1.84c-0.33,0-0.43,0-0.65-0.11
						c-0.22-0.11-0.33-0.33-0.43-0.43c-0.11-0.11-0.11-0.22-0.22-0.54C149.73,178.51,149.73,178.3,149.73,178.08z M148.87,178.08
						c0,0.33,0,0.87,0.11,1.08c0.11,0.22,0.33,0.54,0.43,0.76c0.11,0.22,0.33,0.43,0.65,0.54c0.33,0.11,0.65,0.22,0.97,0.22
						c0.76,0,1.3-0.22,1.62-0.65c0.37-0.58,0.56-1.26,0.54-1.94c0-0.43,0-0.87-0.11-1.08c-0.11-0.22-0.33-0.54-0.43-0.76
						c-0.14-0.26-0.37-0.46-0.65-0.54c-0.33-0.11-0.65-0.22-0.97-0.22c-0.76,0-1.3,0.22-1.62,0.65
						C149.04,176.71,148.85,177.39,148.87,178.08z"/>
				</g>
				<g>
					<path class="st4" d="M157.52,180.46v-2.81c0-0.54-0.11-0.87-0.22-1.19c-0.16-0.26-0.45-0.43-0.76-0.43
						c-0.33,0-0.65,0.11-0.87,0.33s-0.43,0.43-0.43,0.65v3.35h-0.76v-4.87h0.54l0.11,0.54c0.11-0.22,0.33-0.33,0.65-0.54
						c0.33-0.22,0.54-0.22,0.97-0.22c0.22,0,0.54,0,0.65,0.11c0.22,0.11,0.33,0.22,0.54,0.33c0.11,0.11,0.22,0.33,0.33,0.65
						c0.11,0.21,0.11,0.65,0.11,0.97v2.92h-0.87C157.52,180.24,157.52,180.46,157.52,180.46z"/>
				</g>
				<g>
					<path class="st4" d="M159.9,175.59h0.76v4.87h-0.76V175.59z M159.69,174.18c0-0.11,0-0.33,0.11-0.43
						c0.11-0.11,0.22-0.11,0.43-0.11c0.11,0,0.33,0,0.43,0.11c0.11,0.11,0.22,0.22,0.22,0.43c0,0.11-0.11,0.33-0.22,0.33
						c-0.11,0.11-0.22,0.11-0.43,0.11c-0.11,0-0.33,0-0.43-0.11C159.79,174.4,159.69,174.29,159.69,174.18z"/>
				</g>
				<g>
					<path class="st4" d="M165.63,180.13l-0.65,0.33c-0.22,0.11-0.54,0.11-0.86,0.11c-0.33,0-0.65-0.11-0.98-0.22
						c-0.33-0.11-0.43-0.33-0.65-0.54c-0.2-0.2-0.31-0.47-0.32-0.76c-0.11-0.33-0.11-0.65-0.11-1.08c0-0.87,0.22-1.41,0.54-1.95
						c0.33-0.43,0.87-0.65,1.52-0.65c0.33,0,0.54,0,0.76,0.11c0.2,0,0.39,0.08,0.54,0.22l-0.22,0.65c-0.11-0.11-0.33-0.11-0.54-0.22
						s-0.33-0.11-0.54-0.11c-0.98,0-1.41,0.65-1.41,1.84c0,0.22,0,0.43,0.11,0.76c0.11,0.33,0.11,0.43,0.22,0.54
						c0.11,0.22,0.22,0.33,0.43,0.43c0.2,0.09,0.43,0.13,0.65,0.11c0.22,0,0.43,0,0.65-0.11c0.22-0.11,0.33-0.11,0.43-0.22
						L165.63,180.13z"/>
				</g>
				<g>
					<path class="st4" d="M172.23,178.73c0-0.33-0.11-0.54-0.22-0.65c-0.11-0.21-0.33-0.33-0.65-0.43
						c-0.22-0.11-0.54-0.22-0.76-0.33c-0.28-0.08-0.54-0.23-0.76-0.43c-0.22-0.22-0.43-0.33-0.65-0.65
						c-0.22-0.22-0.22-0.54-0.22-0.97c0-0.54,0.22-0.98,0.54-1.3c0.33-0.32,0.87-0.43,1.62-0.43c0.43,0,0.76,0,1.08,0.11
						c0.33,0.11,0.54,0.11,0.76,0.22l-0.22,0.76c-0.11-0.11-0.33-0.11-0.65-0.22c-0.33-0.11-0.65-0.11-0.97-0.11
						c-0.43,0-0.76,0.11-0.98,0.33c-0.22,0.22-0.33,0.43-0.33,0.65c0.02,0.23,0.1,0.45,0.22,0.65c0.11,0.22,0.33,0.33,0.65,0.43
						c0.28,0.08,0.55,0.23,0.76,0.43c0.33,0.11,0.54,0.33,0.76,0.43c0.22,0.22,0.43,0.33,0.65,0.65c0.22,0.22,0.22,0.54,0.22,0.86
						c0,0.33,0,0.54-0.11,0.76c-0.11,0.22-0.22,0.43-0.43,0.65c-0.21,0.21-0.47,0.35-0.76,0.43c-0.33,0.11-0.65,0.11-0.98,0.11
						c-0.54,0-0.87,0-1.19-0.11c-0.33-0.11-0.54-0.11-0.76-0.22l0.33-0.76c0.11,0.11,0.33,0.22,0.65,0.22
						c0.33,0.11,0.65,0.11,0.98,0.11c0.21,0,0.43,0,0.65-0.11c0.22-0.11,0.33-0.11,0.54-0.22c0.22-0.11,0.22-0.22,0.33-0.33
						C172.23,179.16,172.23,178.94,172.23,178.73z"/>
				</g>
				<g>
					<path class="st4" d="M176.78,176.57c0.22,0.22,0.33,0.54,0.33,1.08h-2.38c0.11-0.54,0.22-0.86,0.43-1.08
						c0.28-0.22,0.62-0.33,0.98-0.33C176.45,176.24,176.78,176.24,176.78,176.57L176.78,176.57z M177.43,179.38
						c-0.16,0.13-0.35,0.24-0.54,0.33c-0.22,0.11-0.43,0.11-0.65,0.11c-0.33,0-0.54,0-0.76-0.11c-0.11-0.11-0.33-0.22-0.43-0.33
						c-0.22-0.11-0.22-0.33-0.33-0.54c-0.11-0.22-0.11-0.43-0.11-0.76h3.14c0.11-0.33,0.11-0.54,0.11-0.76
						c0.01-0.34-0.07-0.67-0.22-0.98c-0.11-0.22-0.33-0.33-0.43-0.54c-0.1-0.2-0.31-0.33-0.54-0.33c-0.22-0.11-0.43-0.11-0.65-0.11
						c-0.76,0-1.3,0.22-1.62,0.65c-0.33,0.43-0.54,1.08-0.54,1.94c0,0.43,0,0.87,0.11,1.08c0.11,0.22,0.33,0.54,0.43,0.76
						c0.11,0.22,0.33,0.43,0.65,0.54c0.33,0.11,0.65,0.22,0.98,0.22c0.32,0,0.65,0,0.97-0.11c0.33,0,0.54-0.22,0.76-0.33
						L177.43,179.38z"/>
				</g>
				<g>
					<path class="st4" d="M181.54,176.35c-0.22-0.11-0.43-0.11-0.54-0.11c-0.33,0-0.54,0.11-0.65,0.22
						c-0.22,0.11-0.22,0.33-0.33,0.54v3.46h-0.76v-4.87h0.54l0.11,0.54c0.11-0.22,0.22-0.43,0.43-0.54c0.39-0.25,0.88-0.29,1.3-0.11
						L181.54,176.35z"/>
				</g>
				<g>
					<path class="st4" d="M183.92,178.51l0.33,0.98l0.22-0.98l1.08-2.81h0.87l-2.06,4.98h-0.33l-2.16-4.98h0.86L183.92,178.51z"/>
				</g>
				<g>
					<path class="st4" d="M187.38,175.59h0.76v4.87h-0.76V175.59z M187.16,174.18c0-0.11,0-0.33,0.11-0.43
						c0.11-0.11,0.22-0.11,0.43-0.11c0.11,0,0.33,0,0.43,0.11c0.11,0.11,0.22,0.22,0.22,0.43c0,0.11-0.11,0.33-0.22,0.33
						c-0.11,0.11-0.22,0.11-0.43,0.11c-0.11,0-0.33,0-0.43-0.11C187.27,174.4,187.16,174.29,187.16,174.18z"/>
				</g>
				<g>
					<path class="st4" d="M193.11,180.13l-0.65,0.33c-0.22,0.11-0.54,0.11-0.86,0.11c-0.33,0-0.65-0.11-0.98-0.22
						c-0.33-0.11-0.43-0.33-0.65-0.54c-0.2-0.2-0.31-0.47-0.32-0.76c-0.11-0.33-0.11-0.65-0.11-1.08c0-0.87,0.22-1.41,0.54-1.95
						c0.33-0.43,0.87-0.65,1.52-0.65c0.33,0,0.54,0,0.76,0.11c0.2,0,0.39,0.08,0.54,0.22l-0.22,0.65c-0.11-0.11-0.33-0.11-0.54-0.22
						s-0.33-0.11-0.54-0.11c-0.98,0-1.41,0.65-1.41,1.84c0,0.22,0,0.43,0.11,0.76c0.11,0.33,0.11,0.43,0.22,0.54
						c0.11,0.22,0.22,0.33,0.43,0.43c0.2,0.09,0.43,0.13,0.65,0.11c0.22,0,0.43,0,0.65-0.11c0.22-0.11,0.33-0.11,0.43-0.22
						L193.11,180.13z"/>
				</g>
				<g>
					<path class="st4" d="M196.47,176.57c0.22,0.22,0.33,0.54,0.33,1.08h-2.39c0.11-0.54,0.22-0.86,0.43-1.08
						c0.28-0.22,0.62-0.33,0.98-0.33C196.14,176.24,196.46,176.24,196.47,176.57L196.47,176.57z M197.22,179.38
						c-0.16,0.13-0.35,0.24-0.54,0.33c-0.22,0.11-0.43,0.11-0.65,0.11c-0.33,0-0.54,0-0.76-0.11c-0.11-0.11-0.33-0.22-0.43-0.33
						c-0.22-0.11-0.22-0.33-0.33-0.54c-0.11-0.22-0.11-0.43-0.11-0.76h3.14c0.11-0.33,0.11-0.54,0.11-0.76
						c0-0.34-0.07-0.67-0.22-0.98c-0.11-0.22-0.33-0.33-0.43-0.54c-0.1-0.2-0.31-0.33-0.54-0.33c-0.22-0.11-0.43-0.11-0.65-0.11
						c-0.76,0-1.3,0.22-1.62,0.65c-0.33,0.43-0.54,1.08-0.54,1.94c0,0.43,0,0.87,0.11,1.08c0.11,0.22,0.33,0.54,0.43,0.76
						c0.11,0.22,0.33,0.43,0.65,0.54c0.33,0.11,0.65,0.22,0.98,0.22c0.33,0,0.65,0,0.97-0.11c0.33,0,0.54-0.22,0.76-0.33
						L197.22,179.38z"/>
				</g>
				<g>
					<path class="st4" d="M201.01,179.16c0-0.22-0.11-0.33-0.22-0.43c-0.12-0.13-0.27-0.24-0.43-0.33
						c-0.22-0.11-0.33-0.11-0.54-0.22c-0.22-0.11-0.43-0.11-0.54-0.22c-0.19-0.08-0.35-0.24-0.43-0.43
						c-0.12-0.2-0.19-0.42-0.22-0.65c0-0.43,0.11-0.76,0.43-0.98c0.33-0.22,0.65-0.33,1.08-0.33c0.33,0,0.65,0,0.87,0.11
						c0.22,0.11,0.43,0.11,0.65,0.22l-0.22,0.65c-0.11-0.11-0.33-0.11-0.54-0.22c-0.22-0.11-0.43-0.11-0.65-0.11
						c-0.33,0-0.54,0-0.65,0.11c-0.11,0.11-0.22,0.22-0.22,0.54c0,0.22,0.11,0.33,0.22,0.43c0.11,0.11,0.22,0.22,0.43,0.22
						c0.22,0.11,0.33,0.11,0.54,0.22c0.22,0.11,0.43,0.22,0.54,0.33c0.22,0.11,0.33,0.22,0.43,0.43c0.11,0.22,0.22,0.43,0.22,0.76
						c0,0.22,0,0.43-0.11,0.54c-0.08,0.16-0.19,0.31-0.33,0.43c-0.16,0.13-0.35,0.24-0.54,0.33c-0.22,0.11-0.43,0.11-0.76,0.11
						c-0.33,0-0.65,0-0.98-0.11c-0.22-0.11-0.43-0.11-0.65-0.22l0.22-0.65c0.15,0.14,0.34,0.21,0.54,0.22
						c0.22,0.11,0.43,0.11,0.76,0.11c0.33,0,0.54-0.11,0.65-0.22C201.01,179.7,201.01,179.48,201.01,179.16L201.01,179.16z"/>
				</g>
			</g>
		</g>
	</g>
</g>
</svg>
