<?xml version="1.0" standalone="no"?>
<!DOCTYPE svg PUBLIC "-//W3C//DTD SVG 20010904//EN"
 "http://www.w3.org/TR/2001/REC-SVG-20010904/DTD/svg10.dtd">
<svg version="1.0" xmlns="http://www.w3.org/2000/svg"
 width="362.000000pt" height="274.000000pt" viewBox="0 0 362.000000 274.000000"
 preserveAspectRatio="xMidYMid meet">
<metadata>
Created by potrace 1.16, written by Peter Selinger 2001-2019
</metadata>
<g transform="translate(0.000000,274.000000) scale(0.100000,-0.100000)"
fill="#224d86" stroke="none">
<path d="M828 2464 c-82 -44 -75 -194 11 -239 17 -8 39 -15 49 -15 10 0 27 -9
37 -20 12 -13 31 -20 53 -20 l36 0 -28 29 c-22 23 -25 31 -14 37 47 29 64 125
33 184 -29 55 -117 77 -177 44z m106 -45 c21 -17 26 -29 26 -68 0 -62 -21 -91
-65 -91 -43 0 -65 29 -65 88 0 32 6 49 25 67 29 30 45 31 79 4z"/>
<path d="M1077 2473 c-4 -3 -7 -62 -7 -130 l0 -123 30 0 30 0 0 130 c0 130 0
130 -23 130 -13 0 -27 -3 -30 -7z"/>
<path d="M1174 2458 c3 -13 18 -71 33 -130 l27 -108 36 0 36 0 17 73 c10 39
17 80 17 90 0 9 5 17 10 17 6 0 10 -8 10 -17 0 -9 8 -50 17 -90 l17 -73 36 0
36 0 27 108 c15 59 30 117 34 130 5 21 3 23 -22 20 -27 -3 -30 -7 -51 -98 -24
-104 -25 -103 -50 18 l-17 82 -37 0 -37 0 -18 -96 c-10 -52 -21 -89 -25 -82
-4 7 -15 50 -25 96 -18 80 -19 82 -48 82 -26 0 -29 -3 -23 -22z"/>
<path d="M1587 2360 c-26 -67 -47 -125 -47 -131 0 -5 12 -9 26 -9 19 0 28 7
37 30 10 28 15 30 60 30 44 0 49 -2 58 -30 9 -24 17 -30 41 -30 35 0 36 -7
-26 150 -39 99 -43 105 -71 108 -30 3 -31 2 -78 -118z m102 -27 c1 -8 -11 -13
-29 -13 -35 0 -35 -2 -13 52 l17 42 12 -35 c7 -19 13 -40 13 -46z"/>
<path d="M2439 2451 c-28 -29 -29 -32 -29 -130 l0 -101 104 0 c146 0 150 3
154 149 l4 111 -102 0 c-99 0 -102 -1 -131 -29z"/>
<path d="M2770 2467 c-39 -20 -50 -53 -50 -154 l0 -93 105 0 c99 0 107 2 130
25 23 23 25 31 25 130 l0 105 -92 0 c-55 0 -103 -6 -118 -13z"/>
<path d="M1733 2115 c-161 -44 -307 -180 -365 -340 -18 -52 -22 -89 -27 -270
-6 -204 -7 -212 -34 -267 -85 -174 -308 -213 -446 -79 -74 72 -86 118 -86 326
0 187 9 238 58 317 15 26 46 61 68 79 22 17 39 39 39 50 0 31 -25 73 -65 107
-70 62 -115 55 -197 -30 -64 -66 -118 -167 -143 -263 -22 -86 -21 -460 1 -536
47 -162 181 -304 339 -360 74 -26 200 -35 280 -20 180 33 340 174 416 366 6
17 15 123 20 240 4 116 13 227 19 247 15 53 68 118 123 152 36 22 63 30 115
34 107 7 193 -30 251 -110 l29 -39 21 64 c12 35 41 94 65 130 l43 66 -36 29
c-54 43 -139 88 -200 106 -68 20 -216 20 -288 1z"/>
<path d="M2543 2111 c-159 -46 -297 -180 -359 -351 -12 -34 -18 -99 -23 -255
-8 -244 -20 -286 -98 -355 -132 -115 -315 -88 -428 65 -8 11 -15 15 -15 8 0
-28 -44 -126 -82 -184 l-40 -64 41 -36 c130 -116 355 -152 527 -83 38 15 83
36 99 47 55 37 136 121 170 177 61 101 67 134 75 370 6 206 8 217 33 266 106
208 401 205 504 -4 28 -56 28 -60 28 -237 0 -177 0 -181 -28 -237 -48 -99
-145 -158 -256 -158 -77 0 -168 44 -214 105 l-33 43 -23 -64 c-12 -35 -41 -91
-63 -126 l-40 -62 38 -34 c86 -75 218 -122 339 -122 239 0 452 160 519 389 23
78 23 454 0 532 -52 177 -196 321 -373 373 -73 21 -218 20 -298 -3z"/>
<path d="M2235 905 c-22 -19 -48 -37 -57 -41 -14 -4 -18 -17 -18 -62 0 -81
-18 -178 -40 -222 -20 -40 -73 -91 -118 -114 -81 -42 -207 -33 -282 19 -88 62
-85 61 -114 42 -14 -10 -44 -40 -66 -68 -72 -91 -45 -161 89 -229 77 -39 131
-50 246 -50 185 1 296 41 401 146 102 102 144 219 144 409 l0 110 -43 27 c-24
15 -52 37 -62 48 -24 27 -33 25 -80 -15z"/>
</g>
</svg>
