<?xml version="1.0" encoding="utf-8"?>
<!-- Generator: Adobe Illustrator 26.0.1, SVG Export Plug-In . SVG Version: 6.00 Build 0)  -->
<svg version="1.1" id="Layer_1" xmlns="http://www.w3.org/2000/svg" xmlns:xlink="http://www.w3.org/1999/xlink" x="0px" y="0px"
	 viewBox="0 0 324.5 215.6" style="enable-background:new 0 0 324.5 215.6;" xml:space="preserve">
<style type="text/css">
	.st0{fill:#00BAA4;}
	.st1{fill:#84939E;}
</style>
<g id="Sakani_logo" transform="translate(-0.001 0)">
	<g id="Group_138">
		<g id="Group_137">
			<g id="Group_136">
				<g id="Group_134">
					<g id="Group_133">
						<g id="Group_132">
							<path id="Path_244" class="st0" d="M57.3,147.3c-1.6,0-3.1,0.6-4.2,1.8c-2.2,2.4-2.2,6.1,0,8.5c2.3,2.3,6,2.3,8.3,0.1
								c0,0,0.1-0.1,0.1-0.1c2.2-2.4,2.2-6.1,0-8.5C60.4,147.9,58.9,147.3,57.3,147.3"/>
							<path id="Path_245" class="st0" d="M71.3,147.3c-1.6,0-3.1,0.6-4.2,1.8c-2.2,2.4-2.2,6.1,0,8.5c2.3,2.3,6,2.3,8.3,0.1
								c0,0,0.1-0.1,0.1-0.1c2.3-2.4,2.3-6.1,0-8.5C74.3,147.9,72.8,147.3,71.3,147.3"/>
							<path id="Path_246" class="st0" d="M126.7,96.6c3.4,0,6.2-2.7,6.2-6.1c0,0,0-0.1,0-0.1c0-1.6-0.6-3.2-1.8-4.3
								c-1.2-1.2-2.8-1.8-4.4-1.8c-3.3,0-6,2.6-6.1,5.9c0,0,0,0.1,0,0.1c0,1.6,0.6,3.2,1.8,4.4C123.5,96,125.1,96.6,126.7,96.6"/>
							<path id="Path_247" class="st0" d="M243.3,107.8h-12.4c0.7,4.7,1,9.4,1,14.1c0,2.8-0.2,5.6-0.5,8.4h-1.7
								c-2.2,0.2-4.4-0.2-6.3-1.2c-1.2-1.4-1.8-3.2-1.5-5v-16.3H210v14.8c0,5.6-1.7,8.4-5.2,8.4c-1.4,0.2-2.8-0.5-3.6-1.8
								c-0.8-2.1-1.2-4.4-1-6.7V108h-12.4v13.3c0.2,2.5-0.2,5-1.4,7.3c-1.3,1.3-3.1,2-4.9,1.8h-8.7c-0.8-11.6-5.5-19.8-14.5-24.6
								L216,70.5V56.2l-73.4,46.1v9c11.5,2.4,17.6,8.7,18.1,19.1H133v-27.1h-12.4v27.1h-15.2v-10.7c0-5.7-1.3-9.9-3.9-12.7
								c-3-3.1-7.8-4.7-14.5-4.7c-5.6,0-11.2,0.5-16.7,1.5v26.6h-4.4c-6.7,0-11.5-1.2-14.3-3.6c-4.7-4-3.7-11.1-3.7-16.6v-6.9H35
								v13.3c0,1.1,0.1,2.2,0.2,3.2c1.3,13.5,11.1,20.2,29.5,20.2h17.5v-27.8c1.4-0.3,2.7-0.4,4.1-0.4c2.1-0.3,4.2,0.5,5.7,1.9
								c1.2,2.1,1.7,4.5,1.5,6.9V140h87.8c5.4,0,8.8-1.7,10.4-5.1c1.4,3.8,4.9,5.7,10.7,5.7c5.9,0,9.8-1.8,11.7-5.5
								c2,3.2,6.5,4.8,13.4,4.8h15.6c0.7-6.3,1-12.6,1-18.9C244.2,116.7,243.9,112.3,243.3,107.8"/>
						</g>
					</g>
				</g>
				<g id="Group_135" transform="translate(84.944 0)">
					<path id="Path_248" class="st1" d="M131,56.2v14.3l73.6,45.5v-13.7L131,56.2z"/>
				</g>
			</g>
		</g>
	</g>
</g>
</svg>
