<?xml version="1.0" encoding="utf-8"?>
<!-- Generator: Adobe Illustrator 26.5.0, SVG Export Plug-In . SVG Version: 6.00 Build 0)  -->
<svg version="1.1" id="Layer_1" xmlns="http://www.w3.org/2000/svg" xmlns:xlink="http://www.w3.org/1999/xlink" x="0px" y="0px"
	 viewBox="0 0 603.4 484.8" style="enable-background:new 0 0 603.4 484.8;" xml:space="preserve">
<style type="text/css">
	.st0{fill-rule:evenodd;clip-rule:evenodd;fill:#3B3B3B;}
	.st1{fill-rule:evenodd;clip-rule:evenodd;fill:#59529F;}
	.st2{fill-rule:evenodd;clip-rule:evenodd;fill:#532D7B;}
	.st3{fill-rule:evenodd;clip-rule:evenodd;fill:#2A4B8F;}
	.st4{fill-rule:evenodd;clip-rule:evenodd;fill:#75348A;}
	.st5{fill-rule:evenodd;clip-rule:evenodd;fill:#146CB5;}
	.st6{fill-rule:evenodd;clip-rule:evenodd;fill:#2B2E69;}
</style>
<g id="Symbol">
	<g id="Molecules-_x2F_-Menu-_x2F_-Light-overlapping-_x2F_-white" transform="translate(-55.000000, -24.000000)">
		<g id="Group" transform="translate(55.000000, 24.000000)">
			<path id="Fill-276" class="st0" d="M106.3,257.7c-0.2,1.6-0.6,3-1.2,4.1c-0.6,1.1-1.4,2-2.3,2.7c-0.9,0.7-1.9,1.1-3,1.4
				c-1.1,0.3-2.3,0.4-3.5,0.4c-1.2,0-2.3-0.1-3.3-0.4c-1-0.3-1.9-0.7-2.7-1.4c-0.7-0.6-1.3-1.4-1.7-2.5c-0.4-1-0.4-2.3-0.3-3.7
				c0.1-0.9,0.4-1.9,0.8-3.1c0.4-1.2,1-2.4,1.8-3.5l3.8,1.4c-0.3,0.6-0.5,1.1-0.7,1.5c-0.2,0.4-0.4,0.8-0.5,1.2
				c-0.1,0.4-0.2,0.8-0.3,1.1c-0.1,0.4-0.2,0.8-0.2,1.1c-0.1,0.8-0.1,1.5,0.1,2.1c0.2,0.6,0.5,1,0.9,1.4c0.4,0.3,0.9,0.6,1.4,0.7
				c0.5,0.1,1.1,0.2,1.6,0.2c1.4,0,2.5-0.4,3.3-1.1c0.8-0.7,1.3-1.9,1.5-3.5l2.8-21.6h4.5L106.3,257.7z"/>
			<path id="Fill-278" class="st0" d="M118.5,258.8c-0.1,0.6-0.2,1.1-0.2,1.4c-0.1,0.3-0.1,0.4-0.2,0.4c-1,0-2-0.1-2.9-0.2
				c-0.9-0.1-1.7-0.4-2.4-0.8c-0.7-0.4-1.2-0.9-1.6-1.6c-0.3-0.7-0.4-1.5-0.3-2.4l2.5-19.1h4.5l-2.3,17.6c-0.1,0.5-0.1,1,0,1.4
				c0.1,0.4,0.3,0.7,0.5,0.9c0.2,0.2,0.5,0.3,0.8,0.4c0.3,0.1,0.7,0.1,1,0.1c0.3,0,0.5,0.2,0.5,0.5
				C118.6,257.7,118.6,258.1,118.5,258.8"/>
			<path id="Fill-280" class="st0" d="M129.6,249.4c-0.6,0-1.1,0.2-1.6,0.5c-0.5,0.3-0.9,0.7-1.2,1.3c-0.4,0.5-0.7,1.1-0.9,1.8
				c-0.3,0.7-0.5,1.4-0.6,2.3c0.6,0.6,1.1,1,1.6,1.3s1.1,0.4,1.8,0.4c0.9,0,1.7-0.3,2.3-1c0.6-0.6,1-1.5,1.1-2.5
				c0.2-1.3,0-2.3-0.4-3C131.3,249.8,130.6,249.4,129.6,249.4L129.6,249.4z M118.1,260.6c-0.5,0-0.9-0.1-1.2-0.4
				c-0.3-0.3-0.3-0.7-0.3-1.3c0.1-0.6,0.2-1.1,0.5-1.4c0.2-0.3,0.5-0.5,0.9-0.5h0.9c0.4,0,0.8-0.1,1-0.2c0.3-0.2,0.5-0.4,0.7-0.6
				c0.2-0.3,0.3-0.6,0.4-0.9c0.1-0.4,0.3-0.8,0.4-1.3c0.2-1.2,0.6-2.3,1.1-3.3c0.5-1,1.1-1.9,1.9-2.6c0.7-0.7,1.6-1.3,2.5-1.7
				c1-0.4,2-0.6,3.1-0.6c1.2,0,2.3,0.2,3.2,0.6c0.9,0.4,1.7,0.9,2.2,1.6c0.6,0.7,1,1.5,1.2,2.4c0.2,0.9,0.2,1.9,0.1,3
				c-0.1,0.4-0.1,0.8-0.2,1.2c-0.1,0.4-0.2,0.7-0.3,1.1c0.2,0.4,0.6,0.8,1.1,1c0.5,0.3,1.1,0.4,1.7,0.4c0.3,0,0.5,0.2,0.5,0.5
				c0.1,0.3,0.1,0.8,0,1.4c-0.1,0.4-0.1,0.7-0.1,1c0,0.2-0.1,0.4-0.1,0.6c0,0.1-0.1,0.2-0.1,0.2c0,0,0,0.1-0.1,0.1
				c-0.4,0-0.7,0-1.2-0.1c-0.4-0.1-0.8-0.2-1.3-0.3c-0.4-0.2-0.8-0.4-1.2-0.7c-0.4-0.3-0.7-0.7-1-1.1c-0.9,0.8-1.8,1.4-2.8,1.8
				s-2,0.5-3.1,0.5c-1,0-1.9-0.1-2.7-0.4c-0.8-0.3-1.6-0.8-2.4-1.5c-0.6,0.7-1.3,1.1-1.9,1.4c-0.6,0.2-1.4,0.4-2.5,0.4H118.1z"/>
			<path id="Fill-282" class="st0" d="M139,260.6c-0.6,0-1-0.1-1.2-0.4c-0.2-0.3-0.3-0.7-0.3-1.3c0.1-0.6,0.2-1.1,0.5-1.4
				c0.2-0.3,0.5-0.5,0.9-0.5h3c-0.3-0.6-0.5-1.2-0.7-1.9c-0.1-0.6-0.2-1.3-0.1-1.9c0.2-1.2,0.5-2.3,1.1-3.3c0.6-1,1.3-1.7,2.1-2.3
				c0.8-0.6,1.8-1.1,2.8-1.4c1-0.3,2.1-0.5,3.2-0.5c0.8,0,1.7,0.1,2.5,0.2c0.9,0.1,1.6,0.3,2.1,0.5l-1.2,3.5
				c-0.3-0.1-0.8-0.2-1.4-0.3c-0.6-0.1-1.3-0.1-1.9-0.1c-0.5,0-0.9,0.1-1.5,0.2c-0.5,0.1-1,0.3-1.4,0.6c-0.5,0.3-0.8,0.7-1.2,1.1
				c-0.3,0.5-0.6,1.1-0.6,1.8c-0.2,1.2,0.1,2.1,0.8,2.8c0.7,0.7,1.7,1,3.1,1h4.5l-0.5,3.7H139z"/>
			<path id="Fill-284" class="st0" d="M163.5,236.2c-0.2-0.6-0.3-1.1-0.3-1.6c0.1-1,0.6-1.8,1.3-2.4c0.7-0.6,1.7-0.9,2.8-0.9
				c0.3,0,0.6,0,0.9,0.1c0.3,0,0.7,0.1,1,0.2l-0.7,1.8c-0.4-0.2-0.9-0.2-1.4-0.2c-0.6,0-1.1,0.1-1.4,0.4c-0.3,0.3-0.5,0.6-0.6,1.1
				c-0.1,0.5,0.1,0.9,0.4,1.2c0.3,0.3,0.8,0.4,1.4,0.4h2l-0.2,1.9h-6.7l0.2-1.9H163.5z M162.9,240.1h4.5l-2,15.2h-4.5L162.9,240.1z
				 M173.1,258.4c-0.6,0.8-1.4,1.3-2.3,1.7c-0.9,0.3-2,0.5-3.3,0.5h-10.5l0.5-3.7h8.6c1.3,0,2.3-0.3,2.9-0.9c0.6-0.6,1-1.6,1.2-3.1
				l2.1-16.5h4.5l-2.2,17.3c-0.1,1,0.1,1.7,0.7,2.3c0.6,0.6,1.4,0.9,2.6,0.9c0.3,0,0.6,0.1,0.7,0.4c0.1,0.3,0.1,0.7,0.1,1.4
				c-0.1,0.8-0.2,1.3-0.3,1.5c-0.1,0.2-0.2,0.4-0.3,0.4c-0.4,0-0.9,0-1.4-0.1c-0.5-0.1-1-0.2-1.4-0.4c-0.4-0.2-0.8-0.4-1.2-0.7
				C173.7,259.2,173.4,258.8,173.1,258.4L173.1,258.4z"/>
			<path id="Fill-286" class="st0" d="M177.9,256.9c0.7,0,1.3-0.1,1.7-0.2c0.5-0.1,0.8-0.3,1.1-0.6c0.3-0.3,0.5-0.6,0.6-0.9
				c0.1-0.4,0.2-0.8,0.3-1.3l2.2-17.4h4.5l-2.3,18.2c-0.1,1-0.4,1.9-0.7,2.6c-0.3,0.7-0.8,1.3-1.4,1.8c-0.6,0.5-1.4,0.9-2.4,1.1
				c-1,0.2-2.1,0.4-3.5,0.4c-0.5,0-0.9-0.1-1.2-0.4c-0.3-0.3-0.3-0.7-0.3-1.3c0.1-0.6,0.2-1.1,0.5-1.4
				C177.3,257.1,177.6,256.9,177.9,256.9"/>
			<path id="Fill-288" class="st0" d="M207.6,268.8c0.1-0.7,0.4-1.2,0.9-1.7c0.5-0.4,1.1-0.7,1.8-0.7c0.7,0,1.2,0.2,1.6,0.7
				c0.4,0.4,0.5,1,0.4,1.7c-0.1,0.7-0.4,1.3-0.9,1.7c-0.5,0.4-1.1,0.7-1.7,0.7c-0.7,0-1.2-0.2-1.6-0.7
				C207.7,270,207.5,269.5,207.6,268.8 M201.8,268.8c0.1-0.7,0.4-1.2,0.9-1.7c0.5-0.4,1.1-0.7,1.8-0.7c0.7,0,1.2,0.2,1.6,0.7
				c0.4,0.4,0.5,1,0.4,1.7c-0.1,0.7-0.4,1.3-0.9,1.7c-0.5,0.4-1.1,0.7-1.7,0.7c-0.7,0-1.2-0.2-1.6-0.7S201.7,269.5,201.8,268.8
				 M202.3,255.5c-0.2,1.5,0.3,2.7,1.4,3.4c1.1,0.8,2.8,1.1,5.2,1.1c1.1,0,2.1-0.1,3-0.2c0.9-0.1,1.6-0.3,2.3-0.5
				c0.6-0.2,1.1-0.5,1.5-0.8c0.3-0.3,0.5-0.6,0.6-0.8c0-0.4-0.2-0.8-0.8-1.3c-0.6-0.5-1.5-1-2.7-1.7c-1.3-0.7-2.3-1.5-2.9-2.3
				c-0.6-0.8-0.8-1.9-0.7-3.1c0.1-0.8,0.4-1.6,0.8-2.4c0.4-0.7,1-1.4,1.7-2c0.7-0.6,1.6-1,2.6-1.3c1-0.3,2.2-0.5,3.4-0.5
				c0.3,0,0.6,0,0.9,0c0.3,0,0.7,0.1,1.1,0.1c0.4,0.1,0.7,0.1,1.1,0.2c0.3,0.1,0.6,0.2,0.9,0.3l-1.2,3.3c-0.3-0.1-0.7-0.2-1.2-0.3
				c-0.5-0.1-1.1-0.1-1.6-0.1c-0.4,0-0.8,0-1.2,0.1c-0.4,0.1-0.9,0.2-1.3,0.4c-0.4,0.2-0.8,0.4-1,0.7c-0.3,0.3-0.4,0.7-0.5,1.1
				c0,0.3,0,0.6,0.2,0.9c0.2,0.3,0.4,0.6,0.7,0.9c0.3,0.3,0.7,0.6,1.1,0.8c0.4,0.3,0.8,0.5,1.3,0.7c0.6,0.3,1.1,0.7,1.6,1
				c0.5,0.3,0.9,0.7,1.3,1.1c0.3,0.4,0.6,0.8,0.8,1.3c0.2,0.5,0.2,1,0.2,1.6c-0.1,1-0.5,1.8-1.1,2.6c-0.6,0.8-1.4,1.5-2.4,2
				c-1,0.6-2.3,1-3.7,1.3c-1.4,0.3-3.1,0.5-4.9,0.5c-1.9,0-3.5-0.1-4.9-0.4c-1.4-0.3-2.6-0.8-3.6-1.4c-1-0.7-1.6-1.5-2.1-2.5
				c-0.4-1-0.5-2.3-0.3-3.7c0.1-0.8,0.4-1.7,0.8-2.9c0.4-1.1,1-2.3,1.8-3.5l3.8,1.5c-0.4,0.8-0.8,1.6-1.2,2.5
				C202.6,254.1,202.3,254.8,202.3,255.5"/>
			<path id="Fill-290" class="st0" d="M229.1,256.9c1.1,0,1.9-0.2,2.4-0.7c0.6-0.4,0.9-1.2,1.1-2.4l0.1-0.8c0.1-1.1-0.1-2-0.8-2.5
				c-0.7-0.6-1.7-0.9-3.1-0.9h-3.1l0.5-3.7h4c1.4,0,2.5,0.2,3.5,0.5c1,0.3,1.7,0.8,2.3,1.3c0.6,0.6,1,1.2,1.2,2
				c0.2,0.8,0.3,1.6,0.2,2.5l-0.3,2.2c-0.3,2.2-0.9,3.8-1.9,4.7c-1,1-2.6,1.5-4.7,1.5h-8.1l0.5-3.7H229.1z"/>
			<path id="Fill-292" class="st0" d="M245.1,253.2c-0.2,1.2,0,2.2,0.5,2.8c0.5,0.6,1.3,0.9,2.5,0.9h2.6l0.5-3.8
				c0.1-0.5,0.1-1,0-1.4c0-0.4-0.2-0.8-0.3-1.2c-0.2-0.4-0.4-0.6-0.8-0.8c-0.3-0.2-0.8-0.3-1.2-0.3c-0.4,0-0.8,0.1-1.2,0.2
				c-0.4,0.1-0.8,0.4-1.1,0.7c-0.3,0.3-0.6,0.7-0.9,1.2C245.3,252,245.1,252.5,245.1,253.2 M245.7,262.7c0.7,0,1.2,0,1.8-0.1
				c0.5-0.1,1-0.2,1.3-0.3c0.4-0.2,0.7-0.4,0.9-0.7c0.2-0.3,0.3-0.7,0.4-1.1H247c-1.1,0-2.1-0.1-2.9-0.4c-0.9-0.3-1.6-0.7-2.2-1.2
				c-0.6-0.6-1-1.3-1.3-2.2c-0.3-0.9-0.3-1.9-0.2-3.1c0.1-1,0.4-2,0.9-3c0.4-1,1-1.8,1.8-2.6c0.8-0.8,1.7-1.3,2.7-1.8
				c1-0.4,2.2-0.7,3.5-0.7c1,0,1.9,0.2,2.7,0.5c0.8,0.3,1.6,0.8,2.2,1.3c0.6,0.6,1,1.3,1.3,2.2c0.3,0.9,0.3,1.9,0.2,3.1l-0.5,4.1
				h2.4c0.3,0,0.5,0.1,0.6,0.4c0.1,0.3,0.1,0.8,0.1,1.4c-0.1,0.7-0.2,1.2-0.3,1.5c-0.1,0.2-0.2,0.3-0.3,0.3h-3
				c-0.3,1-0.7,1.9-1.2,2.7c-0.5,0.7-1.2,1.3-2,1.8c-0.8,0.5-1.7,0.8-2.7,1c-1,0.2-2.1,0.3-3.3,0.3c-0.7,0-1.4,0-2.1-0.1
				c-0.7-0.1-1.4-0.2-2-0.4l1.1-3.5c0.5,0.1,1,0.2,1.6,0.3C244.5,262.7,245.1,262.7,245.7,262.7"/>
			<path id="Fill-294" class="st0" d="M267.4,249.4c-0.4,0-0.8,0-1.2,0.1c-0.4,0.1-0.8,0.1-1.1,0.2c-0.4,0.1-0.7,0.2-1,0.3
				c-0.3,0.1-0.5,0.2-0.6,0.3c0.8,0.7,1.6,1.5,2.1,2.3c0.6,0.8,1.1,1.5,1.5,2.3c0.3-0.2,0.7-0.4,1.1-0.7c0.4-0.3,0.7-0.6,1-0.9
				c0.3-0.3,0.6-0.6,0.7-1c0.2-0.3,0.3-0.7,0.4-1.1c0-0.2,0-0.4-0.1-0.6c-0.1-0.2-0.2-0.4-0.5-0.6c-0.2-0.2-0.5-0.3-0.9-0.4
				C268.4,249.4,268,249.4,267.4,249.4L267.4,249.4z M257.6,260.6c-0.6,0-1-0.2-1.2-0.5c-0.2-0.3-0.3-0.7-0.3-1.3
				c0.1-0.6,0.2-1.1,0.5-1.4c0.2-0.3,0.5-0.5,0.9-0.5h3.5c0.6,0,1.2,0,1.7-0.1c0.5-0.1,0.9-0.2,1.2-0.3c-0.5-0.5-0.9-1-1.2-1.4
				c-0.4-0.4-0.7-0.8-1.1-1.1c-0.3-0.3-0.7-0.7-1.1-1c-0.4-0.3-0.9-0.7-1.5-1c0-0.2,0.1-0.5,0.2-0.9c0.1-0.4,0.2-0.8,0.3-1.2
				c0.1-0.4,0.2-0.8,0.4-1.1c0.1-0.3,0.2-0.6,0.3-0.8c0.4-0.2,0.9-0.5,1.5-0.7c0.6-0.2,1.2-0.5,1.9-0.7c0.7-0.2,1.4-0.4,2.1-0.5
				c0.7-0.1,1.4-0.2,2.1-0.2c1.1,0,2,0.1,2.9,0.3c0.9,0.2,1.7,0.5,2.3,1c0.6,0.4,1.1,0.9,1.5,1.6c0.3,0.6,0.4,1.4,0.3,2.2
				c-0.1,0.6-0.3,1.1-0.5,1.7c-0.3,0.6-0.7,1.1-1.1,1.6c-0.4,0.5-1,1-1.5,1.5c-0.6,0.5-1.2,0.9-1.9,1.2c0.3,0.1,0.6,0.1,1.1,0.2
				c0.5,0,0.9,0,1.2,0h3.3c0.3,0,0.5,0.1,0.6,0.4c0.1,0.3,0.1,0.8,0.1,1.4c-0.1,0.8-0.2,1.3-0.3,1.5c-0.1,0.2-0.2,0.3-0.3,0.3h-4.6
				c-1.2,0-2.1-0.1-3-0.4c-0.8-0.2-1.5-0.5-1.9-0.9c-0.8,0.4-1.8,0.7-2.8,0.9c-1,0.2-2.1,0.4-3.1,0.4H257.6z"/>
			<path id="Fill-296" class="st0" d="M286.5,260.6c-1.1,0-2-0.2-2.8-0.5c-0.8-0.4-1.3-0.9-1.6-1.5c-0.6,0.7-1.4,1.2-2.5,1.5
				c-1.1,0.3-2.4,0.5-4.1,0.5c-0.5,0-0.9-0.1-1.2-0.4c-0.3-0.3-0.3-0.7-0.3-1.3c0.1-0.6,0.2-1.1,0.5-1.4s0.5-0.5,0.9-0.5
				c1.2,0,2.1-0.2,2.7-0.6c0.6-0.4,0.9-1.2,1.1-2.4l0.7-5.1h4.5l-0.7,5.5c0,0.4-0.1,0.7,0,1c0,0.3,0.1,0.6,0.3,0.8
				c0.1,0.2,0.4,0.4,0.7,0.6c0.3,0.1,0.7,0.2,1.2,0.2c0.8,0,1.3-0.2,1.7-0.6c0.4-0.4,0.7-1.2,0.8-2.5l0.7-5.1h4.5l-0.7,5.5
				c0,0.4-0.1,0.7,0,1c0,0.3,0.1,0.6,0.2,0.8c0.1,0.2,0.4,0.4,0.7,0.6c0.3,0.1,0.7,0.2,1.2,0.2c0.8,0,1.4-0.2,1.7-0.6
				c0.4-0.4,0.6-1.2,0.8-2.4l1-8h4.5l-1,7.8c-0.1,0.9,0.1,1.7,0.7,2.3c0.6,0.6,1.4,0.9,2.6,0.9c0.3,0,0.6,0.1,0.7,0.4
				c0.1,0.3,0.1,0.7,0.1,1.4c-0.1,0.8-0.2,1.3-0.3,1.5c-0.1,0.2-0.2,0.4-0.3,0.4c-0.4,0-0.9,0-1.3-0.1c-0.5-0.1-0.9-0.2-1.4-0.3
				c-0.5-0.2-0.9-0.4-1.3-0.7c-0.4-0.3-0.7-0.6-0.9-1c-0.6,0.7-1.2,1.2-2,1.6c-0.8,0.3-1.7,0.5-2.7,0.5c-1.1,0-2-0.2-2.8-0.5
				c-0.7-0.4-1.3-0.9-1.5-1.5C290.1,259.9,288.5,260.6,286.5,260.6"/>
			<path id="Fill-298" class="st0" d="M305.1,256.9c0.7,0,1.3-0.1,1.7-0.2c0.5-0.1,0.8-0.3,1.1-0.6c0.3-0.3,0.5-0.6,0.6-0.9
				c0.1-0.4,0.2-0.8,0.3-1.3l2.2-17.4h4.5l-2.3,18.2c-0.1,1-0.4,1.9-0.7,2.6c-0.3,0.7-0.8,1.3-1.4,1.8c-0.6,0.5-1.4,0.9-2.4,1.1
				c-1,0.2-2.1,0.4-3.5,0.4c-0.5,0-1-0.1-1.2-0.4c-0.3-0.3-0.3-0.7-0.3-1.3c0.1-0.6,0.2-1.1,0.5-1.4
				C304.4,257.1,304.7,256.9,305.1,256.9"/>
			<polygon id="Fill-300" class="st0" points="324.4,236.5 321.3,260.6 316.8,260.6 319.9,236.5 			"/>
			<path id="Fill-302" class="st0" d="M338.4,240.4c0.1-0.7,0.4-1.2,0.9-1.7c0.5-0.4,1.1-0.7,1.8-0.7c0.7,0,1.2,0.2,1.6,0.7
				c0.4,0.4,0.5,1,0.4,1.7c-0.1,0.7-0.4,1.3-0.9,1.7c-0.5,0.4-1.1,0.7-1.7,0.7c-0.7,0-1.2-0.2-1.6-0.7
				C338.5,241.6,338.3,241,338.4,240.4 M333.8,266.3c-0.7,0-1.3,0-1.8-0.1c-0.5-0.1-1-0.2-1.3-0.3l1-3.5c0.3,0,0.5,0.1,0.7,0.1
				c0.2,0,0.5,0.1,0.7,0.1c0.8,0,1.5-0.2,1.9-0.7c0.4-0.5,0.7-1.3,0.8-2.3l1.7-13.6h4.5l-1.4,11h2.8c0.3,0,0.5,0.1,0.7,0.4
				c0.1,0.3,0.1,0.8,0.1,1.4c-0.1,0.7-0.2,1.2-0.3,1.4c-0.1,0.2-0.2,0.4-0.3,0.4h-3.3c-0.2,1.2-0.5,2.1-0.9,2.9
				c-0.4,0.7-0.9,1.3-1.5,1.8c-0.6,0.4-1.2,0.7-1.9,0.9C335.2,266.2,334.5,266.3,333.8,266.3"/>
			<path id="Fill-304" class="st0" d="M343.6,260.6c-0.5,0-0.9-0.1-1.2-0.4c-0.3-0.3-0.4-0.7-0.3-1.3c0.1-0.6,0.2-1.1,0.5-1.4
				c0.2-0.3,0.5-0.5,0.9-0.5h9.6c1.1,0,2-0.2,2.5-0.7c0.5-0.5,0.9-1.3,1-2.3l0.1-0.9c0.3-2.3-0.9-3.4-3.6-3.4h-7.1l0.5-3.7l10.1-9.4
				l2.7,2.8l-7.2,6.6h2.6c1.3,0,2.4,0.2,3.3,0.5c0.9,0.3,1.6,0.8,2.1,1.3c0.5,0.6,0.9,1.2,1.1,2c0.2,0.8,0.2,1.6,0.1,2.5l-0.3,2.2
				c-0.3,2.2-0.9,3.8-2,4.8s-2.6,1.4-4.7,1.4H343.6z"/>
			<path id="Fill-306" class="st0" d="M363.7,266.3c-0.7,0-1.3,0-1.8-0.1c-0.5-0.1-1-0.2-1.3-0.3l1-3.5c0.3,0,0.5,0.1,0.7,0.1
				c0.2,0,0.5,0.1,0.7,0.1c0.8,0,1.5-0.2,1.9-0.7c0.4-0.5,0.7-1.3,0.8-2.3l1.8-13.6h4.5l-1.4,11h2.8c0.3,0,0.5,0.1,0.6,0.4
				c0.1,0.3,0.1,0.8,0.1,1.4c-0.1,0.7-0.2,1.2-0.3,1.4c-0.1,0.2-0.2,0.4-0.3,0.4h-3.3c-0.2,1.2-0.5,2.1-0.9,2.9
				c-0.4,0.7-0.9,1.3-1.5,1.8c-0.6,0.4-1.2,0.7-1.9,0.9C365.1,266.2,364.4,266.3,363.7,266.3"/>
			<path id="Fill-308" class="st0" d="M385,249.4c-0.6,0-1.1,0.2-1.6,0.5c-0.5,0.3-0.9,0.7-1.2,1.3c-0.4,0.5-0.7,1.1-0.9,1.8
				c-0.3,0.7-0.5,1.4-0.6,2.3c0.6,0.6,1.1,1,1.6,1.3s1.1,0.4,1.8,0.4c0.9,0,1.7-0.3,2.3-1c0.6-0.6,1-1.5,1.1-2.5
				c0.2-1.3,0-2.3-0.4-3C386.7,249.8,386,249.4,385,249.4L385,249.4z M373.5,260.6c-0.5,0-1-0.1-1.2-0.4c-0.3-0.3-0.3-0.7-0.3-1.3
				c0.1-0.6,0.2-1.1,0.5-1.4c0.2-0.3,0.5-0.5,0.9-0.5h0.9c0.4,0,0.8-0.1,1-0.2c0.3-0.2,0.5-0.4,0.7-0.6c0.2-0.3,0.3-0.6,0.4-0.9
				c0.1-0.4,0.3-0.8,0.4-1.3c0.2-1.2,0.6-2.3,1.1-3.3c0.5-1,1.1-1.9,1.9-2.6c0.7-0.7,1.6-1.3,2.5-1.7c1-0.4,2-0.6,3.1-0.6
				c1.2,0,2.3,0.2,3.2,0.6c0.9,0.4,1.7,0.9,2.2,1.6c0.6,0.7,1,1.5,1.2,2.4c0.2,0.9,0.2,1.9,0.1,3c-0.1,0.4-0.1,0.8-0.2,1.2
				c-0.1,0.4-0.2,0.7-0.3,1.1c0.2,0.4,0.6,0.8,1.1,1c0.5,0.3,1.1,0.4,1.7,0.4c0.3,0,0.5,0.2,0.5,0.5c0.1,0.3,0.1,0.8,0,1.4
				c-0.1,0.4-0.1,0.7-0.1,1c0,0.2-0.1,0.4-0.1,0.6c0,0.1-0.1,0.2-0.1,0.2c0,0,0,0.1-0.1,0.1c-0.4,0-0.7,0-1.2-0.1
				c-0.4-0.1-0.8-0.2-1.3-0.3c-0.4-0.2-0.8-0.4-1.2-0.7c-0.4-0.3-0.7-0.7-1-1.1c-0.9,0.8-1.8,1.4-2.8,1.8c-1,0.4-2,0.5-3.1,0.5
				c-1,0-1.9-0.1-2.7-0.4c-0.8-0.3-1.6-0.8-2.4-1.5c-0.6,0.7-1.3,1.1-1.9,1.4c-0.6,0.2-1.4,0.4-2.5,0.4H373.5z"/>
			<path id="Fill-310" class="st0" d="M394.3,256.9c0.7,0,1.2-0.1,1.7-0.2c0.5-0.1,0.8-0.3,1.1-0.6c0.3-0.3,0.5-0.6,0.6-0.9
				c0.1-0.4,0.2-0.8,0.3-1.3l2.2-17.4h4.5l-2.3,18.2c-0.1,1-0.4,1.9-0.7,2.6c-0.3,0.7-0.8,1.3-1.4,1.8c-0.6,0.5-1.4,0.9-2.4,1.1
				c-1,0.2-2.1,0.4-3.5,0.4c-0.5,0-1-0.1-1.2-0.4c-0.3-0.3-0.3-0.7-0.3-1.3c0.1-0.6,0.2-1.1,0.5-1.4
				C393.7,257.1,394,256.9,394.3,256.9"/>
			<polygon id="Fill-312" class="st0" points="413.6,236.5 410.5,260.6 406,260.6 409.1,236.5 			"/>
			<path id="Fill-314" class="st0" d="M74.9,280.7c-0.8-0.3-1.6-0.5-2.4-0.7c-0.8-0.1-1.7-0.2-2.5-0.2c-0.5,0-1,0-1.4,0.1
				c-0.5,0.1-0.9,0.2-1.3,0.4c-0.4,0.2-0.7,0.5-0.9,0.8c-0.3,0.3-0.4,0.7-0.5,1.2c-0.1,0.4,0,0.8,0.1,1.1c0.1,0.3,0.4,0.6,0.7,0.9
				c0.3,0.3,0.7,0.6,1.3,0.8c0.5,0.3,1.1,0.6,1.9,0.9c0.9,0.4,1.7,0.8,2.5,1.2c0.7,0.4,1.4,0.9,1.9,1.5c0.5,0.6,0.9,1.2,1.1,1.9
				s0.3,1.6,0.1,2.6c-0.1,1.2-0.5,2.2-1.1,3.1c-0.6,0.9-1.3,1.6-2.2,2.2c-0.9,0.6-1.9,1-2.9,1.3c-1.1,0.3-2.2,0.4-3.3,0.4
				c-1.1,0-2.2-0.1-3.4-0.3c-1.2-0.2-2.4-0.5-3.5-0.9l1.4-3.9c1,0.4,2.1,0.8,3.1,1c1,0.2,2,0.3,2.8,0.3c1.3,0,2.3-0.2,3.1-0.7
				c0.7-0.4,1.2-1.1,1.3-2c0.1-0.4,0-0.8-0.1-1.2c-0.1-0.3-0.4-0.7-0.7-1c-0.3-0.3-0.8-0.6-1.3-0.9c-0.5-0.3-1.2-0.6-1.9-0.9
				c-0.9-0.4-1.7-0.8-2.4-1.2c-0.7-0.4-1.3-0.9-1.8-1.5c-0.5-0.6-0.9-1.2-1.1-1.9c-0.2-0.7-0.3-1.5-0.1-2.4c0.2-1.2,0.5-2.2,1.1-3.1
				c0.6-0.9,1.3-1.6,2.2-2.1c0.9-0.5,1.8-0.9,2.8-1.2c1-0.2,2-0.4,3-0.4c1.1,0,2.2,0.1,3.3,0.2c1,0.1,2,0.4,2.8,0.6L74.9,280.7z"/>
			<path id="Fill-316" class="st0" d="M88.6,291.9c-0.8,0-1.5,0-2.2,0.1c-0.7,0.1-1.3,0.2-1.9,0.4c-0.6,0.2-1,0.5-1.4,0.9
				c-0.3,0.4-0.6,0.8-0.6,1.4c-0.1,0.7,0.1,1.3,0.5,1.7c0.4,0.4,1,0.6,1.8,0.6c0.7,0,1.2-0.1,1.8-0.3c0.5-0.2,1-0.5,1.3-0.9
				c0.4-0.4,0.7-0.8,0.9-1.3c0.2-0.5,0.3-0.9,0.4-1.4l0.2-1.2H88.6z M89.7,288.6c0.1-0.9-0.1-1.6-0.7-2.1c-0.6-0.5-1.5-0.8-2.8-0.8
				c-0.6,0-1.3,0.1-2.1,0.2c-0.8,0.1-1.6,0.4-2.5,0.7l-0.4-3.3c0.8-0.3,1.7-0.5,2.8-0.7c1.1-0.2,2.1-0.3,3-0.3c2.8,0,4.8,0.6,6,1.7
				c1.2,1.2,1.6,2.8,1.3,4.9l-0.9,7.2c-0.1,0.6-0.1,1.3-0.2,2c-0.1,0.7-0.1,1.4,0,1.9H89c-0.1-0.3-0.1-0.6-0.1-1.1
				c0-0.4,0-0.8,0-1.1h-0.1c-0.5,0.8-1.3,1.4-2.2,1.8c-0.9,0.5-2,0.7-3.1,0.7c-0.8,0-1.5-0.1-2.2-0.3c-0.7-0.2-1.4-0.5-1.9-0.9
				c-0.6-0.4-1-1-1.2-1.7c-0.3-0.7-0.3-1.5-0.2-2.5c0.2-1.2,0.6-2.3,1.2-3.1c0.7-0.8,1.5-1.4,2.6-1.8c1.1-0.4,2.3-0.7,3.7-0.9
				c1.4-0.2,2.8-0.2,4.2-0.2L89.7,288.6z"/>
			<path id="Fill-318" class="st0" d="M109,299.9l0.3-2.3h-0.1c-0.6,0.9-1.3,1.5-2.4,2c-1,0.5-2.1,0.7-3.2,0.7c-1,0-1.9-0.2-2.6-0.5
				c-0.8-0.3-1.4-0.7-1.9-1.3c-0.5-0.5-0.8-1.2-1-2c-0.2-0.8-0.2-1.6-0.1-2.6l1.5-11.4h4.7l-1.2,9.7c-0.1,0.7-0.1,1.3-0.1,1.9
				c0,0.5,0.1,1,0.3,1.4c0.2,0.4,0.5,0.7,0.9,0.9c0.4,0.2,0.9,0.3,1.5,0.3c0.5,0,0.9-0.1,1.4-0.3c0.5-0.2,0.9-0.4,1.3-0.8
				c0.4-0.4,0.7-0.9,1-1.5c0.3-0.6,0.5-1.4,0.6-2.3l1.2-9.4h4.7l-2.2,17.3H109z"/>
			<path id="Fill-320" class="st0" d="M123.1,291.2c-0.1,0.8-0.1,1.5-0.1,2.2c0.1,0.7,0.2,1.3,0.5,1.8c0.3,0.5,0.6,0.9,1.1,1.2
				c0.5,0.3,1,0.4,1.7,0.4c0.7,0,1.3-0.1,1.9-0.4s1.1-0.7,1.5-1.2c0.4-0.5,0.8-1.1,1.1-1.8c0.3-0.7,0.5-1.4,0.6-2.2
				c0.1-0.8,0.1-1.5,0-2.2c-0.1-0.7-0.3-1.3-0.6-1.8c-0.3-0.5-0.7-0.9-1.2-1.1s-1.1-0.4-1.7-0.4c-0.7,0-1.3,0.1-1.8,0.4
				c-0.6,0.3-1,0.7-1.4,1.2c-0.4,0.5-0.7,1.1-0.9,1.8C123.4,289.7,123.2,290.4,123.1,291.2L123.1,291.2z M133.1,275.8h4.7l-3.1,24.1
				h-4.6l0.3-2.2h-0.1c-0.8,0.9-1.7,1.6-2.7,2c-1,0.4-2,0.6-3,0.6c-1.2,0-2.2-0.2-3.1-0.7c-0.9-0.5-1.5-1.1-2-1.9
				c-0.5-0.8-0.9-1.8-1-2.9c-0.2-1.1-0.2-2.3,0-3.5c0.2-1.3,0.5-2.5,1-3.6c0.5-1.1,1.1-2.1,1.8-2.9c0.7-0.8,1.6-1.4,2.6-1.9
				c1-0.5,2.1-0.7,3.3-0.7c1,0,1.9,0.2,2.8,0.5c0.9,0.4,1.5,1,2.1,1.8h0.1L133.1,275.8z"/>
			<path id="Fill-322" class="st0" d="M147,275.9l-0.5,4h-4.7l0.5-4H147z M146.1,282.5l-2.2,17.3h-4.7l2.2-17.3H146.1z"/>
			<path id="Fill-324" class="st0" d="M163.8,286h3.4c1.3,0,2.3-0.2,3.1-0.7c0.7-0.5,1.2-1.2,1.3-2.3c0.1-0.6,0-1-0.1-1.4
				c-0.2-0.4-0.4-0.6-0.7-0.8c-0.3-0.2-0.7-0.3-1.1-0.4c-0.4-0.1-0.9-0.1-1.4-0.1h-3.6L163.8,286z M162.5,296h3.9
				c0.6,0,1.2,0,1.7-0.1c0.5-0.1,1-0.2,1.4-0.5c0.4-0.2,0.7-0.5,1-1c0.2-0.4,0.4-0.9,0.5-1.5c0.1-0.6,0-1.1-0.2-1.5
				c-0.2-0.4-0.5-0.7-0.8-1c-0.4-0.2-0.8-0.4-1.4-0.5c-0.6-0.1-1.2-0.1-1.9-0.1h-3.3L162.5,296z M160.3,276.4h9.8c1,0,2,0.1,2.8,0.3
				c0.8,0.2,1.6,0.6,2.1,1c0.6,0.5,1,1.1,1.3,1.8c0.3,0.7,0.3,1.6,0.2,2.7c-0.2,1.5-0.7,2.7-1.5,3.5c-0.8,0.8-1.8,1.4-2.9,1.8l0,0.1
				c0.6,0.2,1.1,0.4,1.6,0.7c0.5,0.3,0.9,0.6,1.2,1.1c0.3,0.4,0.6,1,0.7,1.6c0.1,0.6,0.2,1.4,0.1,2.2c-0.1,0.9-0.4,1.7-0.8,2.5
				c-0.4,0.8-0.9,1.5-1.6,2.1c-0.7,0.6-1.6,1.1-2.5,1.4c-1,0.3-2.1,0.5-3.5,0.5h-10L160.3,276.4z"/>
			<path id="Fill-326" class="st0" d="M190.2,299.9l0.3-2.3h-0.1c-0.6,0.9-1.3,1.5-2.4,2c-1,0.5-2.1,0.7-3.2,0.7
				c-1,0-1.9-0.2-2.6-0.5c-0.8-0.3-1.4-0.7-1.9-1.3c-0.5-0.5-0.8-1.2-1-2c-0.2-0.8-0.2-1.6-0.1-2.6l1.5-11.4h4.7l-1.2,9.7
				c-0.1,0.7-0.1,1.3-0.1,1.9c0,0.5,0.1,1,0.3,1.4c0.2,0.4,0.5,0.7,0.9,0.9c0.4,0.2,0.9,0.3,1.5,0.3c0.5,0,0.9-0.1,1.4-0.3
				c0.5-0.2,0.9-0.4,1.3-0.8c0.4-0.4,0.7-0.9,1-1.5c0.3-0.6,0.5-1.4,0.6-2.3l1.2-9.4h4.7l-2.2,17.3H190.2z"/>
			<path id="Fill-328" class="st0" d="M211.6,286.6c-0.9-0.3-1.7-0.6-2.4-0.7c-0.8-0.1-1.5-0.2-2.2-0.2c-0.7,0-1.2,0.1-1.7,0.3
				c-0.4,0.2-0.7,0.6-0.8,1.1c-0.1,0.5,0.1,0.9,0.5,1.2c0.4,0.3,1.2,0.7,2.4,1c0.9,0.3,1.7,0.6,2.3,0.9c0.7,0.3,1.2,0.7,1.7,1.2
				c0.4,0.4,0.8,1,0.9,1.5c0.2,0.6,0.2,1.2,0.1,2c-0.1,1-0.4,1.8-1,2.5c-0.5,0.7-1.1,1.2-1.9,1.6c-0.7,0.4-1.5,0.7-2.4,0.9
				c-0.9,0.2-1.8,0.3-2.6,0.3c-1.1,0-2.2-0.1-3.3-0.3c-1.1-0.2-2.1-0.5-3-0.9l1.4-3.5c0.9,0.4,1.9,0.7,2.8,0.9
				c1,0.2,1.8,0.3,2.5,0.3c0.9,0,1.6-0.1,2.1-0.3c0.5-0.2,0.8-0.6,0.9-1.2c0.1-0.5-0.1-0.9-0.6-1.3c-0.5-0.3-1.4-0.7-2.7-1.1
				c-1.8-0.6-3-1.3-3.8-2.2c-0.7-0.8-1-1.9-0.9-3.1c0.1-0.9,0.4-1.7,0.9-2.4c0.5-0.7,1-1.2,1.7-1.7c0.7-0.4,1.5-0.8,2.3-1
				c0.8-0.2,1.7-0.3,2.5-0.3c0.9,0,1.9,0.1,2.9,0.2c1,0.2,1.9,0.4,2.7,0.7L211.6,286.6z"/>
			<path id="Fill-330" class="st0" d="M223.2,275.9l-0.5,4H218l0.5-4H223.2z M222.3,282.5l-2.2,17.3h-4.7l2.2-17.3H222.3z"/>
			<path id="Fill-332" class="st0" d="M231.5,282.5l-0.3,2.3h0.1c0.6-0.9,1.3-1.5,2.4-2c1-0.5,2.1-0.7,3.2-0.7c1,0,1.9,0.1,2.6,0.4
				c0.7,0.3,1.4,0.7,1.9,1.3c0.5,0.6,0.8,1.2,1,2c0.2,0.8,0.2,1.6,0.1,2.6l-1.5,11.4h-4.7l1.2-9.7c0.1-0.7,0.1-1.3,0.1-1.9
				c0-0.6-0.1-1.1-0.3-1.4c-0.2-0.4-0.5-0.7-0.9-0.9c-0.4-0.2-0.9-0.3-1.5-0.3c-0.5,0-0.9,0.1-1.4,0.2c-0.4,0.2-0.9,0.4-1.3,0.8
				c-0.4,0.4-0.8,0.9-1.1,1.5c-0.3,0.6-0.5,1.4-0.6,2.2l-1.2,9.4h-4.7l2.2-17.3H231.5z"/>
			<path id="Fill-334" class="st0" d="M255.1,285.3c-1.1,0-2,0.4-2.9,1.1c-0.8,0.7-1.4,1.7-1.7,2.9h7.5c0.2-1.2,0-2.2-0.6-2.9
				C257,285.7,256.2,285.3,255.1,285.3L255.1,285.3z M250.2,292.6c0,0.8,0.1,1.4,0.4,2c0.2,0.5,0.6,0.9,1.1,1.3
				c0.5,0.3,1,0.6,1.7,0.7c0.6,0.2,1.3,0.2,2.1,0.2c0.7,0,1.4,0,2.1-0.1c0.7-0.1,1.4-0.3,2.1-0.5l0.1,3.4c-0.8,0.2-1.6,0.4-2.5,0.5
				c-0.9,0.1-1.8,0.2-2.8,0.2c-1.6,0-2.9-0.2-4.1-0.7c-1.2-0.4-2.1-1.1-2.8-1.9c-0.7-0.8-1.2-1.7-1.5-2.9c-0.3-1.1-0.4-2.3-0.2-3.7
				c0.2-1.3,0.5-2.5,1.1-3.6c0.5-1.1,1.2-2.1,2.1-2.9c0.8-0.8,1.8-1.4,3-1.9c1.1-0.4,2.4-0.7,3.7-0.7c1.3,0,2.4,0.2,3.3,0.6
				c0.9,0.4,1.7,1,2.2,1.7c0.6,0.7,0.9,1.6,1.1,2.7c0.2,1.1,0.2,2.2,0,3.5l-0.2,1.9H250.2z"/>
			<path id="Fill-336" class="st0" d="M277.1,286.6c-0.9-0.3-1.7-0.6-2.4-0.7c-0.8-0.1-1.5-0.2-2.2-0.2c-0.7,0-1.2,0.1-1.7,0.3
				c-0.4,0.2-0.7,0.6-0.8,1.1c-0.1,0.5,0.1,0.9,0.5,1.2c0.4,0.3,1.2,0.7,2.4,1c0.9,0.3,1.7,0.6,2.3,0.9c0.7,0.3,1.2,0.7,1.7,1.2
				c0.4,0.4,0.8,1,0.9,1.5c0.2,0.6,0.2,1.2,0.1,2c-0.1,1-0.4,1.8-1,2.5c-0.5,0.7-1.1,1.2-1.9,1.6c-0.7,0.4-1.5,0.7-2.4,0.9
				c-0.9,0.2-1.8,0.3-2.6,0.3c-1.1,0-2.2-0.1-3.3-0.3c-1.1-0.2-2.1-0.5-3-0.9l1.4-3.5c0.9,0.4,1.9,0.7,2.8,0.9
				c1,0.2,1.8,0.3,2.5,0.3c0.9,0,1.6-0.1,2.1-0.3c0.5-0.2,0.8-0.6,0.9-1.2c0.1-0.5-0.1-0.9-0.6-1.3c-0.5-0.3-1.4-0.7-2.7-1.1
				c-1.8-0.6-3-1.3-3.8-2.2c-0.7-0.8-1-1.9-0.9-3.1c0.1-0.9,0.4-1.7,0.9-2.4c0.5-0.7,1-1.2,1.7-1.7c0.7-0.4,1.5-0.8,2.3-1
				c0.8-0.2,1.7-0.3,2.5-0.3c0.9,0,1.9,0.1,2.9,0.2c1,0.2,1.9,0.4,2.7,0.7L277.1,286.6z"/>
			<path id="Fill-338" class="st0" d="M292.8,286.6c-0.9-0.3-1.7-0.6-2.4-0.7c-0.8-0.1-1.5-0.2-2.2-0.2c-0.7,0-1.2,0.1-1.7,0.3
				c-0.4,0.2-0.7,0.6-0.8,1.1c-0.1,0.5,0.1,0.9,0.5,1.2c0.4,0.3,1.2,0.7,2.4,1c0.9,0.3,1.7,0.6,2.3,0.9c0.7,0.3,1.2,0.7,1.7,1.2
				c0.4,0.4,0.8,1,0.9,1.5c0.2,0.6,0.2,1.2,0.1,2c-0.1,1-0.4,1.8-1,2.5c-0.5,0.7-1.1,1.2-1.9,1.6c-0.7,0.4-1.5,0.7-2.4,0.9
				c-0.9,0.2-1.8,0.3-2.6,0.3c-1.1,0-2.2-0.1-3.3-0.3c-1.1-0.2-2.1-0.5-3-0.9l1.4-3.5c0.9,0.4,1.9,0.7,2.8,0.9
				c1,0.2,1.8,0.3,2.5,0.3c0.9,0,1.6-0.1,2.1-0.3c0.5-0.2,0.8-0.6,0.9-1.2c0.1-0.5-0.1-0.9-0.6-1.3c-0.5-0.3-1.4-0.7-2.7-1.1
				c-1.8-0.6-3-1.3-3.8-2.2c-0.7-0.8-1-1.9-0.9-3.1c0.1-0.9,0.4-1.7,0.9-2.4c0.5-0.7,1-1.2,1.7-1.7c0.7-0.4,1.5-0.8,2.3-1
				c0.8-0.2,1.7-0.3,2.5-0.3c0.9,0,1.9,0.1,2.9,0.2c1,0.2,1.9,0.4,2.7,0.7L292.8,286.6z"/>
			<path id="Fill-340" class="st0" d="M323.5,280.7c-0.6-0.2-1.3-0.4-2-0.6c-0.7-0.2-1.4-0.2-2.1-0.2c-1.2,0-2.4,0.2-3.4,0.7
				c-1,0.4-1.9,1-2.6,1.8c-0.7,0.7-1.3,1.6-1.7,2.7c-0.4,1-0.7,2.1-0.9,3.2c-0.1,1.1-0.1,2.1,0.1,3.1c0.2,1,0.5,1.9,1.1,2.6
				c0.5,0.8,1.2,1.4,2.1,1.8c0.9,0.4,1.9,0.7,3.2,0.7c0.9,0,1.7-0.1,2.4-0.2c0.7-0.2,1.4-0.4,2.1-0.7l0.3,3.7
				c-0.9,0.4-1.8,0.6-2.8,0.8c-1,0.2-2,0.2-3.1,0.2c-1.8,0-3.3-0.3-4.7-0.9c-1.4-0.6-2.5-1.4-3.4-2.5c-0.9-1.1-1.5-2.3-1.9-3.8
				c-0.4-1.5-0.4-3.1-0.2-4.9c0.2-1.8,0.7-3.4,1.4-4.9c0.7-1.5,1.7-2.8,2.8-3.9c1.2-1.1,2.5-1.9,4.1-2.5s3.3-0.9,5.1-0.9
				c1,0,2,0.1,2.9,0.2c0.9,0.2,1.7,0.4,2.5,0.7L323.5,280.7z"/>
			<path id="Fill-342" class="st0" d="M334.6,285.3c-1.1,0-2,0.4-2.9,1.1c-0.8,0.7-1.4,1.7-1.7,2.9h7.5c0.2-1.2,0-2.2-0.6-2.9
				C336.5,285.7,335.7,285.3,334.6,285.3L334.6,285.3z M329.6,292.6c0,0.8,0.1,1.4,0.4,2c0.2,0.5,0.6,0.9,1.1,1.3
				c0.5,0.3,1,0.6,1.7,0.7c0.6,0.2,1.3,0.2,2.1,0.2c0.7,0,1.4,0,2.1-0.1c0.7-0.1,1.4-0.3,2.1-0.5l0.1,3.4c-0.8,0.2-1.6,0.4-2.5,0.5
				c-0.9,0.1-1.8,0.2-2.8,0.2c-1.6,0-2.9-0.2-4.1-0.7c-1.2-0.4-2.1-1.1-2.8-1.9c-0.7-0.8-1.2-1.7-1.5-2.9c-0.3-1.1-0.4-2.3-0.2-3.7
				c0.2-1.3,0.5-2.5,1.1-3.6c0.5-1.1,1.2-2.1,2.1-2.9c0.8-0.8,1.8-1.4,3-1.9c1.1-0.4,2.4-0.7,3.7-0.7c1.3,0,2.4,0.2,3.3,0.6
				c0.9,0.4,1.7,1,2.2,1.7c0.6,0.7,0.9,1.6,1.1,2.7c0.2,1.1,0.2,2.2,0,3.5l-0.2,1.9H329.6z"/>
			<path id="Fill-344" class="st0" d="M351,282.5l-0.3,2.3h0.1c0.6-0.9,1.3-1.5,2.4-2c1-0.5,2.1-0.7,3.2-0.7c1,0,1.9,0.1,2.6,0.4
				c0.7,0.3,1.4,0.7,1.9,1.3c0.5,0.6,0.8,1.2,1,2c0.2,0.8,0.2,1.6,0.1,2.6l-1.5,11.4h-4.7l1.2-9.7c0.1-0.7,0.1-1.3,0.1-1.9
				c0-0.6-0.1-1.1-0.3-1.4c-0.2-0.4-0.5-0.7-0.9-0.9c-0.4-0.2-0.9-0.3-1.5-0.3c-0.5,0-0.9,0.1-1.4,0.2c-0.4,0.2-0.9,0.4-1.3,0.8
				c-0.4,0.4-0.8,0.9-1.1,1.5c-0.3,0.6-0.5,1.4-0.6,2.2l-1.2,9.4h-4.7l2.2-17.3H351z"/>
			<path id="Fill-346" class="st0" d="M365.2,282.5h2.7l0.6-4.6h4.7l-0.6,4.6h3.6l-0.5,3.5h-3.6l-1,7.7c-0.1,0.6-0.1,1.1-0.1,1.4
				c0,0.4,0.1,0.6,0.2,0.8c0.1,0.2,0.3,0.3,0.5,0.4c0.2,0.1,0.6,0.1,1,0.1c0.3,0,0.5,0,0.8,0c0.2,0,0.5-0.1,0.8-0.1l-0.4,3.5
				c-0.4,0-0.9,0.1-1.5,0.1c-0.5,0-1.1,0-1.6,0c-1.1,0-2-0.1-2.6-0.3c-0.6-0.2-1.1-0.5-1.4-1c-0.3-0.4-0.5-0.9-0.6-1.6
				c-0.1-0.6,0-1.4,0.1-2.2l1.2-9h-2.7L365.2,282.5z"/>
			<path id="Fill-348" class="st0" d="M386.4,285.3c-1.1,0-2,0.4-2.9,1.1c-0.8,0.7-1.4,1.7-1.7,2.9h7.5c0.2-1.2,0-2.2-0.6-2.9
				C388.2,285.7,387.4,285.3,386.4,285.3L386.4,285.3z M381.4,292.6c0,0.8,0.1,1.4,0.4,2c0.3,0.5,0.6,0.9,1.1,1.3
				c0.5,0.3,1,0.6,1.7,0.7c0.6,0.2,1.3,0.2,2.1,0.2c0.7,0,1.4,0,2.1-0.1c0.7-0.1,1.4-0.3,2.1-0.5l0.1,3.4c-0.8,0.2-1.6,0.4-2.5,0.5
				c-0.9,0.1-1.8,0.2-2.8,0.2c-1.6,0-2.9-0.2-4.1-0.7c-1.2-0.4-2.1-1.1-2.8-1.9c-0.7-0.8-1.2-1.7-1.5-2.9c-0.3-1.1-0.4-2.3-0.2-3.7
				c0.2-1.3,0.5-2.5,1.1-3.6c0.5-1.1,1.2-2.1,2.1-2.9c0.9-0.8,1.8-1.4,3-1.9c1.1-0.4,2.4-0.7,3.7-0.7c1.3,0,2.4,0.2,3.3,0.6
				c0.9,0.4,1.7,1,2.2,1.7c0.6,0.7,0.9,1.6,1.1,2.7c0.2,1.1,0.2,2.2,0,3.5l-0.2,1.9H381.4z"/>
			<path id="Fill-350" class="st0" d="M408,285.8c-0.2,0-0.4-0.1-0.6-0.1c-0.2,0-0.4,0-0.7,0c-0.6,0-1.1,0.1-1.6,0.3
				c-0.5,0.2-1,0.5-1.5,1c-0.5,0.5-0.8,1.1-1.2,1.8c-0.3,0.8-0.5,1.7-0.7,2.7l-1.1,8.4H396l2.2-17.3h4.6l-0.3,2.3h0.1
				c1.1-1.8,2.7-2.7,4.9-2.7c0.2,0,0.4,0,0.7,0c0.2,0,0.4,0,0.6,0L408,285.8z"/>
			<path id="Fill-352" class="st1" d="M526.6,254.5c-0.6,1.1-1.9,1.6-3.1,1.2c-2.3-0.7-4.5-1.4-6.7-2c-2.2-0.7-4.5-1.3-6.7-1.8
				c-4.5-1.1-9-2.2-13.5-3l0,0c-2.1-0.4-3.6-2.4-3.2-4.6c0.1-0.4,0.2-0.8,0.4-1.2c2.2-4,4.6-7.6,7.1-11.1c2.5-3.5,5.2-6.9,8.1-10.1
				c1-1.1,2.7-1.2,3.8-0.2c0.9,0.8,1.1,2.2,0.6,3.2l0,0c-2,3.8-4.1,7.4-6.3,11.1l-3.2,5.4c-0.1,0.2-0.3,0.5-0.4,0.7
				c3,0.7,5.9,1.6,8.8,2.6c2.3,0.8,4.6,1.7,6.8,2.7c2.2,1,4.5,2.1,6.6,3.3C526.9,251.6,527.4,253.2,526.6,254.5"/>
			<path id="Fill-354" class="st2" d="M474,248.5c-0.4,0.2-0.8,0.3-1.2,0.4l0,0c-4.5,0.8-9,1.8-13.5,3c-2.2,0.6-4.5,1.2-6.7,1.8
				c-2.2,0.6-4.4,1.3-6.7,2h0c-1.4,0.4-2.9-0.4-3.3-1.8c-0.3-1.2,0.2-2.4,1.2-3.1c2.1-1.2,4.3-2.3,6.5-3.3c2.2-1,4.5-1.9,6.8-2.7
				c2.9-1,5.8-1.9,8.8-2.6c-0.1-0.2-0.3-0.5-0.4-0.7l-3.2-5.4c-2.2-3.6-4.3-7.3-6.3-11.1v0c-0.7-1.3-0.2-2.9,1.1-3.6
				c1.1-0.6,2.4-0.3,3.2,0.6c2.9,3.2,5.6,6.6,8.1,10.1c2.5,3.5,4.9,7.1,7.1,11.1C476.6,245,476,247.4,474,248.5"/>
			<path id="Fill-356" class="st3" d="M501.8,298.4c-1.2,0.4-2.5,0-3.2-1.1v0c-1.5-2.4-2.9-4.9-4.4-7.4l-4.2-7.4l-4.2-7.4
				c-0.3-0.6-0.7-1.1-1-1.7c-0.3,0.6-0.7,1.1-1,1.7l-4.2,7.4l-4.3,7.4c-1.5,2.4-2.9,4.9-4.4,7.3l0,0c-0.8,1.2-2.4,1.6-3.7,0.8
				c-1.1-0.7-1.5-2-1.1-3.2c1-2.7,2.1-5.3,3.3-8c1.1-2.6,2.4-5.2,3.6-7.8c1.3-2.6,2.6-5.2,4-7.7c1.4-2.5,2.8-5.1,4.5-7.6l0-0.1
				c1.2-1.8,3.6-2.3,5.4-1.1c0.4,0.3,0.8,0.7,1.1,1.1c1.7,2.6,3.1,5.1,4.5,7.7c1.3,2.6,2.7,5.1,3.9,7.7c1.3,2.6,2.5,5.2,3.6,7.8
				c1.1,2.7,2.3,5.3,3.4,8C503.9,296.4,503.2,297.9,501.8,298.4"/>
			<path id="Fill-358" class="st4" d="M482,210.2c-0.6-2-0.9-4-1.1-6.1c-0.2-2-0.2-4-0.2-6.1c0.1-4,0.4-8.1,1.4-12.1
				c0.4-1.5,1.8-2.4,3.3-2c1,0.3,1.8,1.1,2,2c1,4,1.2,8.1,1.3,12.1c0,2-0.1,4-0.2,6.1c-0.2,2-0.5,4-1.1,6.1c-0.4,1.5-2,2.3-3.5,1.8
				C482.9,211.8,482.3,211.1,482,210.2"/>
			<path id="Fill-360" class="st5" d="M536.2,272.5c-0.8,1.2-2.3,1.8-3.6,1.3h0c-2.9-1-5.7-2.1-8.6-3c-2.9-1-5.8-1.8-8.7-2.7
				c-2.8-0.8-5.6-1.5-8.4-2.1c1.9,3.4,3.8,6.8,5.8,10.3c1.8,3.1,3.5,6.3,5.2,9.6c1.6,3.3,3.3,6.5,4.6,9.9c0.7,1.6-0.1,3.3-1.6,4
				c-1.4,0.6-2.9,0-3.7-1.1l-11.7-17.9c-3.9-6-7.8-12.3-11-18.9l0,0c-1.1-2.2-0.2-4.9,2-6.1c0.9-0.4,1.9-0.6,2.8-0.4
				c6.4,1.1,12.6,2.7,18.7,4.9c3,1.1,6,2.3,8.9,3.7c2.9,1.4,5.7,2.8,8.5,4.5C536.6,269.1,537.1,271,536.2,272.5"/>
			<path id="Fill-362" class="st6" d="M475,261.7L475,261.7c-3.3,6.7-7.1,13-11,19l-11.6,18c-0.9,1.4-2.8,1.8-4.2,0.9
				c-1.3-0.8-1.7-2.4-1.2-3.7c1.4-3.4,3-6.7,4.6-10c1.7-3.2,3.4-6.4,5.2-9.6c1.9-3.5,3.9-6.9,5.7-10.3c-2.8,0.7-5.6,1.4-8.4,2.2
				c-2.9,0.8-5.8,1.7-8.7,2.7c-2.9,0.9-5.8,2-8.6,3h0c-1.6,0.6-3.3-0.3-3.9-1.8c-0.5-1.4,0.1-2.9,1.3-3.6c2.7-1.7,5.6-3.1,8.5-4.5
				c2.9-1.3,5.9-2.6,8.9-3.7c6-2.2,12.3-3.8,18.7-5c2.4-0.4,4.8,1.2,5.2,3.7C475.5,259.9,475.4,260.9,475,261.7"/>
			<path id="Fill-364" class="st5" d="M525.9,278.2c2,1,3.7,2.2,5.4,3.5c1.7,1.3,3.2,2.7,4.7,4.3c3,3,5.7,6.3,7.9,10.1
				c0.7,1.3,0.2,3-1.1,3.7c-0.9,0.5-2,0.4-2.9-0.2l0,0c-3.4-2.4-6.5-5.2-9.4-8c-1.5-1.4-2.9-2.9-4.3-4.4c-1.4-1.6-2.7-3.2-3.8-5l0,0
				c-0.8-1.3-0.4-3,0.9-3.8C524.1,277.8,525.1,277.8,525.9,278.2"/>
			<path id="Fill-366" class="st6" d="M447,282c-1.1,1.8-2.4,3.5-3.8,5c-1.4,1.5-2.8,3-4.3,4.5c-3,2.8-6,5.6-9.4,8l0,0
				c-1.2,0.9-2.9,0.6-3.8-0.7c-0.6-0.9-0.6-2-0.2-2.9c2.1-3.9,4.9-7.1,7.8-10.2c1.5-1.5,3.1-2.9,4.7-4.3c1.7-1.3,3.4-2.5,5.4-3.5
				c1.4-0.7,3-0.1,3.7,1.2C447.6,280.2,447.5,281.2,447,282L447,282z"/>
			<path id="Fill-368" class="st4" d="M506.5,207.4c-2.6,5.5-5.5,10.9-8.5,16.1c-3,5.3-6.1,10.5-9.4,15.6l0,0
				c-0.9,1.3-2.3,2.1-3.8,2.1h0c-1.6,0-3-0.9-3.8-2.1c-3.2-5.2-6.3-10.4-9.3-15.7c-1.5-2.6-3-5.3-4.4-8c-1.4-2.7-2.9-5.4-4.2-8.1
				c-0.7-1.5-0.1-3.3,1.4-4.1c1.3-0.7,2.9-0.2,3.7,0.9c1.9,2.4,3.6,4.9,5.4,7.4c1.8,2.5,3.5,5,5.2,7.5c2,3,4,6.1,6,9.2
				c2-3.1,4-6.2,6-9.2c3.4-5.1,6.9-10,10.7-14.8c1-1.3,2.9-1.6,4.3-0.5C506.7,204.6,507,206.2,506.5,207.4"/>
		</g>
	</g>
</g>
</svg>
