<?xml version="1.0" encoding="utf-8"?>
<!-- Generator: Adobe Illustrator 26.0.1, SVG Export Plug-In . SVG Version: 6.00 Build 0)  -->
<svg version="1.1" id="Layer_1" xmlns="http://www.w3.org/2000/svg" xmlns:xlink="http://www.w3.org/1999/xlink" x="0px" y="0px"
	 viewBox="0 0 512 512" style="enable-background:new 0 0 512 512;" xml:space="preserve">
<style type="text/css">
	.st0{fill:#303F59;}
	.st1{fill:#DAA754;}
	.st2{fill:#DBA852;}
</style>
<g>
	<g>
		<path class="st0" d="M180.69,279.58c-0.67-7-1.34-13.98-2.06-21.43c1.08,0.59,1.88,0.97,2.62,1.44
			c13.94,8.79,29.17,11.35,45.37,8.78c2.67-0.42,5.41-1.41,7.73-2.78c7.84-4.61,8.06-14.61,0.13-18.92
			c-4.99-2.71-10.62-4.41-16.1-6.15c-7.56-2.4-15.32-4.21-22.88-6.62c-11.45-3.65-18.19-14.51-17.16-27.27
			c1.22-15.03,10.81-22.72,24.84-26.15c15.82-3.87,31.57-2.48,47.16,1.65c0.45,0.12,0.86,0.39,1.57,0.73
			c0.45,6.32,0.91,12.72,1.42,19.75c-1.35-0.5-2.29-0.8-3.19-1.19c-12.94-5.67-26.46-6.91-40.33-4.75c-2.53,0.39-5.14,1.5-7.27,2.91
			c-5.15,3.44-5.62,10.06-0.77,13.81c3.05,2.37,6.7,4.3,10.39,5.52c6.72,2.22,13.7,3.7,20.53,5.61c4.05,1.14,8.12,2.29,12.01,3.84
			c12.28,4.9,17.54,14.23,16.46,28.05c-1.42,18.03-14.05,26.32-29.2,28.96c-16.17,2.81-32.18,1.41-47.74-3.99
			c-0.79-0.28-1.57-0.6-2.33-0.97C181.48,280.22,181.13,279.89,180.69,279.58z"/>
		<path class="st0" d="M365.07,183.73c0.3,7.07,0.59,13.68,0.89,20.78c-1.61-0.68-2.91-1.19-4.19-1.76
			c-10.45-4.66-21.31-7.29-32.91-6.97c-20.16,0.54-34.01,13.96-34.12,33.65c-0.03,4.43,0.26,9.01,1.35,13.29
			c3.82,14.94,16.87,24.79,32.85,25.82c13.41,0.86,25.84-2.1,37.67-8.02c1.04-0.52,2.1-1.02,3.66-1.77
			c-1.03,7.63-1.99,14.77-3.02,22.36c-1.83,0.64-3.79,1.48-5.84,2.02c-15.99,4.19-32.2,4.79-48.35,1.55
			c-21.44-4.3-36.19-19.64-40.18-40.99c-1.78-9.5-1.69-19.03,0.85-28.36c4.96-18.26,17.34-29.57,35.74-34.48
			c16.34-4.36,32.73-2.8,48.98,1.02C360.74,182.4,363,183.14,365.07,183.73z"/>
		<path class="st1" d="M99.69,237.01c-5.32-1.79-9.39-4.46-12.89-8.82c0.97-3.38,1.69-6.98,3.04-10.33
			c1.32-3.25,3.29-6.24,4.62-9.82c-4.2,3.62-8.41,7.24-13.08,11.26c-2.28-4.75-2.79-9.24-2.23-14.09
			c5.69-4.61,12.25-7.24,19.54-8.28c-0.01-0.26-0.02-0.53-0.03-0.79c-5.45-0.38-10.9-0.77-16.33-1.15c0.35-3.18,3.11-7.18,7.49-10.5
			c5.62,1.12,10.75,3.69,15.54,8.1c-1.55-4.48-2.87-8.31-4.32-12.48c5.86-2.12,11.16-1.8,17.23-0.27
			c-1.19,3.86-2.27,7.36-3.31,10.73c4.73-2.21,9.43-4.41,14.67-6.85c2.95,3.94,5.5,7.36,8.35,11.17
			c-6.32,0.46-11.73,0.86-17.15,1.26c-0.03,0.28-0.06,0.56-0.09,0.83c7.18,0.96,13.42,3.94,19.05,7.93
			c1.05,4.09,0.42,9.35-1.83,14.1c-2.41-2.07-4.67-4.04-6.97-5.98c-2.26-1.91-4.55-3.79-7.22-5.45c4.23,6.43,7.77,13.05,8.54,21.13
			c-3.01,3.94-7.11,6.74-12.48,8.74c-0.86-5.89-1.38-11.36-2.53-16.69c-1.16-5.34-5.23-15.71-5.61-15.65
			c0.79,14.84,1.57,29.68,2.38,44.88c-1.27,0.86-2.71,1.85-4.26,2.9c-1.66-1.14-3.12-2.13-4.83-3.3c0.25-3.07,2.15-34.11,2.46-44.27
			C102.91,215.32,100.94,225.92,99.69,237.01z"/>
		<path class="st0" d="M402.86,270.13c1.92-0.66,33.55-0.03,46.81-3.84c0.54-0.16,1.15-0.24,1.15-0.24v20.43h-68.75L402.86,270.13z"
			/>
		<path class="st2" d="M429.15,241.04c-16.1-0.46-31.26-4.02-46.34-8.53c15.05-4.53,30.17-8.16,46.34-8.51
			C429.15,229.74,429.15,234.95,429.15,241.04z"/>
		<path class="st0" d="M402.86,194.78c1.92,0.66,33.55,0.03,46.81,3.84c0.54,0.16,1.15,0.24,1.15,0.24v-20.43h-68.75L402.86,194.78z
			"/>
		<path class="st1" d="M151.17,235.67c0,0,7.16-11.15,6.99-11.34c-7.69,5.22-28.67,19.47-48.49,32.92
			c-19.82-13.45-40.8-27.7-48.49-32.92c-0.17,0.19,6.99,11.34,6.99,11.34c0.39,0.54,17.29,14.22,33.31,27.14
			c-18.31,12.43-33.73,22.89-33.73,22.89h21.67c0,0,9.07-7.28,20.25-16.29c11.18,9,20.25,16.29,20.25,16.29h21.67
			c0,0-15.42-10.47-33.73-22.89C133.88,249.89,150.78,236.21,151.17,235.67z"/>
	</g>
	<g>
		<path class="st0" d="M188.46,303.29c0.78,0,1.18-0.42,1.18-1.26c0-0.85-0.39-1.27-1.18-1.27c-0.79,0-1.18,0.42-1.18,1.27
			C187.29,302.87,187.68,303.29,188.46,303.29z"/>
		<path class="st0" d="M198.79,314.73c-0.79,0-1.18,0.43-1.18,1.28c0,0.84,0.39,1.26,1.18,1.26c0.79,0,1.19-0.42,1.19-1.26
			C199.97,315.15,199.58,314.73,198.79,314.73z"/>
		<path class="st0" d="M202.27,314.73c-0.79,0-1.19,0.43-1.19,1.28c0,0.84,0.4,1.26,1.19,1.26c0.79,0,1.18-0.42,1.18-1.26
			C203.45,315.15,203.05,314.73,202.27,314.73z"/>
		<path class="st0" d="M219.31,312.1h-1.41c-0.73,0-1.32-0.23-1.78-0.7c-0.46-0.47-0.69-1.07-0.69-1.81v-4.96h-1.93v7.47h-1.41
			c-0.72,0-1.32-0.23-1.78-0.7c-0.46-0.47-0.69-1.07-0.69-1.81v-4.96h-1.93v7.47h-2.9h-0.46h-0.36c-0.68,0-1.22-0.2-1.63-0.59
			c-0.41-0.39-0.62-0.92-0.62-1.59v-7.06h-2.02v9.24h-2.65h-0.37c-0.67,0-1.22-0.2-1.63-0.59c-0.41-0.39-0.62-0.92-0.62-1.59v-7.06
			h-1.93v11.06c0,2.42-1.27,3.64-3.81,3.64h-1.11c-0.95,0-1.68-0.34-2.19-1c-0.51-0.67-0.77-1.61-0.77-2.83
			c0-1.91,0.26-3.54,0.78-4.89h-1.89c-0.62,1.52-0.93,3.2-0.93,5.02c0,1.7,0.42,3.04,1.25,4.01c0.83,0.98,1.94,1.47,3.32,1.47h1.63
			c3.77,0,5.65-1.85,5.65-5.55v-1.21c0.38,0.76,1.14,1.13,2.16,1.22v0.08h0.39h0.07h4.67v-1.3c0.44,0.87,1.29,1.3,2.55,1.3h0.06
			h0.46h4.83v-1.3c0.42,0.87,1.27,1.3,2.54,1.3h3.27v-1.3c0.42,0.87,1.27,1.3,2.54,1.3h3.27v-11.01h-1.93L219.31,312.1L219.31,312.1
			z"/>
		<path class="st0" d="M239.52,300.77c0.79,0,1.18-0.42,1.18-1.26c0-0.85-0.39-1.28-1.18-1.28c-0.78,0-1.18,0.43-1.18,1.28
			C238.34,300.35,238.74,300.77,239.52,300.77z"/>
		<path class="st0" d="M286.9,312.1h-2.65h-0.46h-0.36c-0.68,0-1.22-0.2-1.63-0.59c-0.41-0.39-0.62-0.92-0.62-1.59v-13.31h-2.02
			v15.48h-2.65h-0.45h-3.53c0.55-0.38,1-0.95,1.34-1.69c0.34-0.74,0.5-1.51,0.5-2.3c0-1.72-0.48-3.06-1.43-4.02
			c-0.96-0.97-2.21-1.45-3.74-1.45c-1.59,0-2.87,0.57-3.86,1.71c-0.98,1.14-1.47,2.6-1.47,4.38c0,1.46,0.25,2.59,0.75,3.38h-2.38
			h-0.54h-2.16v-5.53c0-2.42-0.67-4.29-2.01-5.63c-1.34-1.34-3.24-2.01-5.71-2.01c-1.76,0-3.33,0.24-4.72,0.71l0.52,1.75
			c1.33-0.44,2.73-0.66,4.2-0.66c2,0,3.46,0.5,4.39,1.5c0.93,1,1.4,2.51,1.4,4.52v5.36h-3.43V304h-2.75c-1.98,0-3.5,0.42-4.59,1.27
			c-1.09,0.85-1.63,2.04-1.63,3.59c0,1.46,0.53,2.54,1.58,3.25h-3.17h-0.46h-0.36c-0.68,0-1.22-0.2-1.63-0.59
			c-0.41-0.39-0.62-0.92-0.62-1.59v-7.06h-2.02v9.24h-2.65h-0.36c-0.62,0-1.2-0.23-1.72-0.69c-0.53-0.46-0.87-0.97-1-1.52
			c-1.06-4.11-2.92-6.69-5.56-7.73l-0.73,1.73c2.44,1.13,4.04,3.87,4.81,8.22h-7.56v1.78h9.51v-1.28c0.54,0.8,1.27,1.19,2.16,1.24
			v0.04h0.16h0.3h4.67v-1.3c0.44,0.87,1.29,1.3,2.55,1.3h0.06h0.46h18.07h0.54h13.83h0.45h4.67v-1.3c0.44,0.87,1.29,1.3,2.55,1.3
			h0.06h0.46h4.67v-17.25h-2.02L286.9,312.1L286.9,312.1z M252.24,312.1h-1.87c-0.94,0-1.71-0.29-2.29-0.87
			c-0.58-0.58-0.87-1.35-0.87-2.3c0-2.11,1.37-3.16,4.11-3.16h0.91L252.24,312.1L252.24,312.1z M271.4,311.03
			c-0.63,0.71-1.51,1.07-2.66,1.07h-2.06c-0.53-0.73-0.8-1.86-0.8-3.38c0-1.32,0.32-2.38,0.94-3.16c0.63-0.78,1.41-1.18,2.35-1.18
			c0.94,0,1.71,0.33,2.29,0.98c0.58,0.65,0.87,1.55,0.87,2.68C272.33,309.32,272.02,310.32,271.4,311.03z"/>
		<path class="st0" d="M305.16,300.77c0.79,0,1.18-0.42,1.18-1.26c0-0.85-0.39-1.28-1.18-1.28c-0.79,0-1.19,0.43-1.19,1.28
			C303.97,300.35,304.37,300.77,305.16,300.77z"/>
		<path class="st0" d="M301.68,300.77c0.79,0,1.19-0.42,1.19-1.26c0-0.85-0.4-1.28-1.19-1.28c-0.79,0-1.18,0.43-1.18,1.28
			C300.5,300.35,300.89,300.77,301.68,300.77z"/>
		<path class="st0" d="M311.86,314.73c-0.78,0-1.17,0.43-1.17,1.28c0,0.84,0.39,1.26,1.17,1.26c0.79,0,1.19-0.42,1.19-1.26
			C313.05,315.15,312.66,314.73,311.86,314.73z"/>
		<path class="st0" d="M315.35,314.73c-0.79,0-1.19,0.43-1.19,1.28c0,0.84,0.39,1.26,1.19,1.26c0.78,0,1.18-0.42,1.18-1.26
			C316.52,315.15,316.13,314.73,315.35,314.73z"/>
		<path class="st0" d="M315.03,302.86h-2.02v9.24h-2.65h-0.46h-2.25v-9.24h-3.43c-1.87,0-3.37,0.52-4.51,1.56
			c-1.14,1.04-1.71,2.47-1.71,4.27c0,1.62,0.46,2.89,1.39,3.8c0.92,0.92,2.19,1.38,3.79,1.38h6.72h0.46h4.67L315.03,302.86
			L315.03,302.86z M305.72,312.1h-2.6c-2.07,0-3.11-1.14-3.11-3.43c0-1.26,0.37-2.26,1.11-2.97c0.75-0.72,1.8-1.08,3.16-1.08h1.43
			V312.1L305.72,312.1z"/>
		<path class="st0" d="M321,302.15l-0.73,1.73c2.44,1.13,4.04,3.87,4.81,8.22h-7.56v1.78h9.51v-1.73
			C326.12,306.7,324.1,303.37,321,302.15z"/>
		<path class="st0" d="M375.84,312.1h-2.65h-0.37c-0.67,0-1.22-0.2-1.63-0.59c-0.41-0.39-0.62-0.92-0.62-1.59v-7.06h-1.93v9.24
			h-1.41c-0.73,0-1.32-0.23-1.78-0.7c-0.46-0.47-0.69-1.07-0.69-1.81v-4.96h-1.93v7.47h-1.41c-0.72,0-1.32-0.23-1.78-0.7
			c-0.46-0.47-0.69-1.07-0.69-1.81v-4.96h-1.93v7.47h-2.92h-0.44h-2.42c-0.81,0-1.64-0.16-2.52-0.48c1.27-0.87,2.26-2.03,2.99-3.5
			c0.73-1.47,1.09-2.99,1.09-4.56c-1.17-0.95-2.82-1.43-4.97-1.43c-1.18,0-2.33,0.26-3.47,0.78c-1.14,0.52-2.04,1.24-2.73,2.17
			c0.19,1.24,0.66,2.48,1.41,3.71c0.76,1.23,1.6,2.18,2.53,2.85c-0.73,0.3-1.63,0.45-2.7,0.45h-2.26h-0.45h-1.53v-9.24h-2.97
			c-1.87,0-3.37,0.52-4.51,1.56c-1.14,1.04-1.71,2.47-1.71,4.27c0,1.67,0.44,2.95,1.33,3.84c0.88,0.89,2.13,1.34,3.74,1.34h2.22
			v0.65c0,0.93-0.3,1.67-0.89,2.21c-0.59,0.54-1.39,0.82-2.41,0.82c-0.97,0-2.04-0.3-3.22-0.91l-0.91,1.52
			c1.21,0.78,2.56,1.16,4.08,1.16c1.66,0,2.95-0.43,3.87-1.3c0.92-0.87,1.38-2.07,1.38-3.62v-0.54h1.53h0.45h2.29
			c1.52,0,2.93-0.38,4.22-1.13c1.41,0.75,2.81,1.13,4.21,1.13h2.33h0.44h4.85v-1.3c0.42,0.86,1.27,1.3,2.54,1.3h3.27v-1.3
			c0.42,0.86,1.27,1.3,2.54,1.3h3.27v-1.3c0.38,0.76,1.14,1.13,2.16,1.22v0.08h0.39h0.07h4.67v-17.25h-2.02L375.84,312.1
			L375.84,312.1z M336.71,312.1h-2.13c-2.08,0-3.12-1.14-3.12-3.43c0-1.26,0.37-2.26,1.12-2.97c0.74-0.72,1.79-1.08,3.16-1.08h0.97
			V312.1L336.71,312.1z M347.15,310.63c-1.77-1.35-2.89-3-3.34-4.95c0.4-0.49,0.99-0.9,1.79-1.25c0.79-0.35,1.56-0.52,2.31-0.52
			c1.29,0,2.23,0.2,2.82,0.61C350.57,307.1,349.38,309.13,347.15,310.63z"/>
		<rect x="381.72" y="296.62" class="st0" width="2.02" height="17.25"/>
		<path class="st0" d="M399.97,300.77c0.79,0,1.18-0.42,1.18-1.26c0-0.85-0.39-1.28-1.18-1.28c-0.79,0-1.19,0.43-1.19,1.28
			C398.79,300.35,399.18,300.77,399.97,300.77z"/>
		<path class="st0" d="M396.49,300.77c0.79,0,1.19-0.42,1.19-1.26c0-0.85-0.4-1.28-1.19-1.28c-0.79,0-1.18,0.43-1.18,1.28
			C395.32,300.35,395.71,300.77,396.49,300.77z"/>
		<path class="st0" d="M411.03,300.69v-1.11c-0.55,0.05-1.17,0.13-1.86,0.23l-0.41,0.07c-0.46-0.24-0.69-0.6-0.69-1.06
			c0-0.78,0.39-1.16,1.19-1.16c0.4,0,0.78,0.09,1.13,0.28l0.34-1.03c-0.45-0.22-0.95-0.33-1.5-0.33c-0.71,0-1.27,0.18-1.69,0.54
			c-0.42,0.36-0.63,0.86-0.63,1.5c0,0.6,0.26,1.08,0.8,1.43l-1.08,0.16v1.05c0.45-0.09,1.23-0.2,2.35-0.34
			C410.09,300.76,410.78,300.69,411.03,300.69z"/>
		<path class="st0" d="M414.66,314.73c-0.79,0-1.18,0.43-1.18,1.28c0,0.84,0.39,1.26,1.18,1.26c0.79,0,1.19-0.42,1.19-1.26
			C415.84,315.15,415.45,314.73,414.66,314.73z"/>
		<path class="st0" d="M418.14,314.73c-0.79,0-1.19,0.43-1.19,1.28c0,0.84,0.4,1.26,1.19,1.26c0.79,0,1.18-0.42,1.18-1.26
			C419.31,315.15,418.92,314.73,418.14,314.73z"/>
		<path class="st0" d="M441.84,312.1h-2.56h-0.55h-2.16v-5.53c0-2.42-0.67-4.29-2.01-5.63c-1.34-1.34-3.24-2.01-5.71-2.01
			c-1.76,0-3.33,0.24-4.72,0.71l0.52,1.75c1.33-0.44,2.73-0.66,4.2-0.66c1.99,0,3.46,0.5,4.39,1.5c0.93,1,1.4,2.51,1.4,4.52v5.36
			h-3.43V304h-2.75c-1.98,0-3.5,0.42-4.59,1.27c-1.09,0.85-1.63,2.04-1.63,3.59c0,1.46,0.53,2.54,1.58,3.25h-3.17h-0.45h-0.37
			c-0.68,0-1.22-0.2-1.63-0.59c-0.41-0.39-0.62-0.92-0.62-1.59v-7.06h-2.02v9.24h-2.65h-0.45h-0.37c-0.68,0-1.22-0.2-1.63-0.59
			c-0.41-0.39-0.62-0.92-0.62-1.59v-7.06h-2.02v9.24h-2.65h-0.46h-2.25v-9.24h-3.43c-1.87,0-3.37,0.52-4.51,1.56
			c-1.14,1.04-1.71,2.47-1.71,4.27c0,1.62,0.46,2.89,1.39,3.8c0.92,0.92,2.19,1.38,3.79,1.38h6.72h0.46h4.67v-1.3
			c0.44,0.87,1.29,1.3,2.55,1.3h0.07h0.45h4.67v-1.3c0.44,0.87,1.29,1.3,2.55,1.3h0.07h0.45h18.07h0.55h4.58v-17.25h-2.02
			L441.84,312.1L441.84,312.1z M400.54,312.1h-2.6c-2.07,0-3.11-1.14-3.11-3.43c0-1.26,0.37-2.26,1.11-2.97
			c0.75-0.72,1.8-1.08,3.16-1.08h1.43L400.54,312.1L400.54,312.1z M429.28,312.1h-1.87c-0.94,0-1.71-0.29-2.29-0.87
			c-0.58-0.58-0.87-1.35-0.87-2.3c0-2.11,1.37-3.16,4.11-3.16h0.91L429.28,312.1L429.28,312.1z"/>
		<rect x="447.71" y="296.62" class="st0" width="2.02" height="17.25"/>
	</g>
	<g>
		<path class="st0" d="M182.12,331.9c0.52,0.3,1.31,0.56,2.13,0.56c1.03,0,1.6-0.48,1.6-1.2c0-0.67-0.44-1.06-1.57-1.46
			c-1.45-0.52-2.37-1.29-2.37-2.56c0-1.43,1.2-2.53,3.11-2.53c0.95,0,1.66,0.21,2.11,0.44l-0.39,1.29
			c-0.32-0.17-0.93-0.42-1.75-0.42c-1.02,0-1.46,0.55-1.46,1.06c0,0.68,0.51,0.99,1.68,1.45c1.53,0.57,2.27,1.34,2.27,2.61
			c0,1.41-1.07,2.64-3.34,2.64c-0.93,0-1.89-0.26-2.38-0.55L182.12,331.9z"/>
		<path class="st0" d="M194.99,331.16l-0.76,2.49h-1.66l2.82-8.8h2.05l2.86,8.8h-1.72l-0.8-2.49H194.99z M197.51,329.95l-0.69-2.17
			c-0.17-0.54-0.31-1.14-0.44-1.64h-0.02c-0.13,0.51-0.26,1.12-0.42,1.64l-0.68,2.17H197.51z"/>
		<path class="st0" d="M207,324.86v5.13c0,1.72,0.72,2.52,1.8,2.52c1.16,0,1.85-0.8,1.85-2.52v-5.13h1.61v5.02
			c0,2.71-1.4,3.92-3.51,3.92c-2.04,0-3.35-1.14-3.35-3.9v-5.04L207,324.86L207,324.86z"/>
		<path class="st0" d="M218.4,324.97c0.7-0.12,1.6-0.18,2.56-0.18c1.64,0,2.78,0.34,3.59,1.02c0.85,0.69,1.37,1.74,1.37,3.24
			c0,1.57-0.54,2.74-1.37,3.5c-0.87,0.8-2.27,1.2-3.98,1.2c-0.94,0-1.64-0.05-2.16-0.12L218.4,324.97L218.4,324.97z M220,332.43
			c0.22,0.04,0.56,0.04,0.89,0.04c2.09,0.01,3.33-1.14,3.33-3.37c0.01-1.95-1.11-3.05-3.12-3.05c-0.51,0-0.87,0.04-1.1,0.09V332.43z
			"/>
		<path class="st0" d="M233.21,324.86v8.8h-1.6v-8.8H233.21z"/>
		<path class="st0" d="M252.64,333.39c-0.38,0.2-1.21,0.39-2.27,0.39c-2.79,0-4.49-1.75-4.49-4.42c0-2.9,2.01-4.64,4.7-4.64
			c1.06,0,1.82,0.22,2.14,0.39l-0.35,1.28c-0.42-0.18-0.99-0.34-1.72-0.34c-1.79,0-3.08,1.12-3.08,3.24c0,1.93,1.13,3.17,3.07,3.17
			c0.65,0,1.33-0.13,1.75-0.33L252.64,333.39z"/>
		<path class="st0" d="M265.78,329.16c0,2.95-1.79,4.63-4.22,4.63c-2.48,0-4.04-1.89-4.04-4.48c0-2.7,1.7-4.61,4.18-4.61
			C264.26,324.71,265.78,326.66,265.78,329.16z M259.21,329.29c0,1.79,0.9,3.21,2.44,3.21c1.55,0,2.43-1.43,2.43-3.28
			c0-1.66-0.82-3.22-2.43-3.22C260.06,326.01,259.21,327.48,259.21,329.29z"/>
		<path class="st0" d="M271.46,333.65v-8.8h1.83l2.27,3.77c0.59,0.98,1.1,2,1.5,2.95h0.03c-0.11-1.17-0.15-2.31-0.15-3.65v-3.07
			h1.49v8.8h-1.66l-2.3-3.86c-0.56-0.97-1.15-2.05-1.58-3.04l-0.04,0.01c0.07,1.14,0.08,2.3,0.08,3.74v3.14L271.46,333.65
			L271.46,333.65z"/>
		<path class="st0" d="M290.88,333.39c-0.38,0.2-1.21,0.39-2.27,0.39c-2.79,0-4.49-1.75-4.49-4.42c0-2.9,2.01-4.64,4.7-4.64
			c1.06,0,1.82,0.22,2.14,0.39l-0.35,1.28c-0.42-0.18-0.99-0.34-1.72-0.34c-1.79,0-3.08,1.12-3.08,3.24c0,1.93,1.13,3.17,3.07,3.17
			c0.65,0,1.33-0.13,1.75-0.33L290.88,333.39z"/>
		<path class="st0" d="M298.15,324.86v8.8h-1.6v-8.8H298.15z"/>
		<path class="st0" d="M304.29,324.86h1.6v7.45h3.62v1.34h-5.22L304.29,324.86L304.29,324.86z"/>
		<path class="st0" d="M329.81,329.16c0,2.95-1.79,4.63-4.22,4.63c-2.48,0-4.04-1.89-4.04-4.48c0-2.7,1.7-4.61,4.18-4.61
			C328.3,324.71,329.81,326.66,329.81,329.16z M323.25,329.29c0,1.79,0.9,3.21,2.44,3.21c1.55,0,2.43-1.43,2.43-3.28
			c0-1.66-0.82-3.22-2.43-3.22C324.1,326.01,323.25,327.48,323.25,329.29z"/>
		<path class="st0" d="M335.5,324.86h5.07v1.32h-3.47v2.43h3.23v1.32h-3.23v3.73h-1.6L335.5,324.86L335.5,324.86z"/>
		<path class="st0" d="M358.35,329.75h-3.31v2.58h3.71v1.32h-5.31v-8.8h5.11v1.32h-3.51v2.27h3.31L358.35,329.75L358.35,329.75z"/>
		<path class="st0" d="M364.45,333.65v-8.8h1.83l2.27,3.77c0.59,0.98,1.1,2,1.5,2.95h0.03c-0.11-1.17-0.15-2.31-0.15-3.65v-3.07
			h1.49v8.8h-1.66l-2.3-3.86c-0.56-0.97-1.15-2.05-1.58-3.04l-0.04,0.01c0.07,1.14,0.08,2.3,0.08,3.74v3.14L364.45,333.65
			L364.45,333.65z"/>
		<path class="st0" d="M384.61,333.25c-0.56,0.21-1.66,0.5-2.83,0.5c-1.49,0-2.61-0.38-3.44-1.17c-0.78-0.74-1.24-1.9-1.23-3.24
			c0-2.78,1.98-4.57,4.89-4.57c1.08,0,1.93,0.22,2.34,0.42l-0.35,1.29c-0.48-0.21-1.07-0.38-2-0.38c-1.88,0-3.2,1.11-3.2,3.16
			c0,2,1.23,3.18,3.05,3.18c0.57,0,1-0.08,1.21-0.18v-2.19h-1.55v-1.27h3.11L384.61,333.25L384.61,333.25z"/>
		<path class="st0" d="M392.16,324.86v8.8h-1.6v-8.8H392.16z"/>
		<path class="st0" d="M398.29,333.65v-8.8h1.83l2.27,3.77c0.59,0.98,1.1,2,1.5,2.95h0.03c-0.11-1.17-0.15-2.31-0.15-3.65v-3.07
			h1.49v8.8h-1.66l-2.3-3.86c-0.56-0.97-1.15-2.05-1.58-3.04l-0.04,0.01c0.07,1.14,0.08,2.3,0.08,3.74v3.14L398.29,333.65
			L398.29,333.65z"/>
		<path class="st0" d="M416.33,329.75h-3.31v2.58h3.71v1.32h-5.31v-8.8h5.11v1.32h-3.51v2.27h3.31L416.33,329.75L416.33,329.75z"/>
		<path class="st0" d="M427.35,329.75h-3.31v2.58h3.71v1.32h-5.31v-8.8h5.11v1.32h-3.51v2.27h3.31L427.35,329.75L427.35,329.75z"/>
		<path class="st0" d="M433.44,324.97c0.6-0.1,1.5-0.18,2.43-0.18c1.27,0,2.13,0.21,2.71,0.7c0.48,0.4,0.76,1.02,0.76,1.76
			c0,1.14-0.77,1.91-1.59,2.21v0.04c0.63,0.24,1,0.85,1.23,1.7c0.28,1.1,0.51,2.11,0.69,2.45h-1.66c-0.13-0.26-0.34-0.98-0.59-2.07
			c-0.25-1.15-0.67-1.51-1.58-1.54h-0.81v3.61h-1.59L433.44,324.97L433.44,324.97z M435.03,328.86h0.95c1.08,0,1.76-0.57,1.76-1.45
			c0-0.97-0.68-1.41-1.72-1.41c-0.51,0-0.83,0.04-0.99,0.08V328.86z"/>
		<path class="st0" d="M445.13,331.9c0.52,0.3,1.31,0.56,2.13,0.56c1.03,0,1.6-0.48,1.6-1.2c0-0.67-0.44-1.06-1.57-1.46
			c-1.45-0.52-2.37-1.29-2.37-2.56c0-1.43,1.2-2.53,3.11-2.53c0.95,0,1.66,0.21,2.11,0.44l-0.39,1.29
			c-0.32-0.17-0.93-0.42-1.75-0.42c-1.02,0-1.46,0.55-1.46,1.06c0,0.68,0.51,0.99,1.68,1.45c1.53,0.57,2.27,1.34,2.27,2.61
			c0,1.41-1.07,2.64-3.34,2.64c-0.93,0-1.89-0.26-2.38-0.55L445.13,331.9z"/>
	</g>
</g>
</svg>
