<?xml version="1.0" encoding="UTF-8"?><svg id="Layer_1" xmlns="http://www.w3.org/2000/svg" viewBox="0 0 430.88 700.04"><defs><style>.cls-1{fill:#006996;}.cls-2{fill:#84bc26;}.cls-3{fill:#17b8e0;}</style></defs><g><path class="cls-1" d="M286.79,687.9c-8.37,0-15.14-6.95-15.14-18.46s6.78-18.46,15.14-18.46,15.14,7.1,15.14,18.46-6.78,18.46-15.14,18.46m-.11-48.78c-16.97,0-30.72,10.99-30.72,30.46s13.75,30.46,30.72,30.46,30.72-11.7,30.72-30.46-13.75-30.46-30.72-30.46"/><path class="cls-1" d="M154.76,687.9c-8.37,0-15.14-6.95-15.14-18.46s6.78-18.46,15.14-18.46,15.14,7.1,15.14,18.46-6.78,18.46-15.14,18.46m-.11-48.78c-16.97,0-30.72,10.99-30.72,30.46s13.76,30.46,30.72,30.46,30.72-11.7,30.72-30.46-13.75-30.46-30.72-30.46"/><path class="cls-1" d="M105.52,639.25l-20.94,23.42h-.02l-20.94-23.42-10.07,.11s.13,42.7,.13,59.17v1.41h13.96v-35.01l16.9,17.92v.07l.03-.03,.03,.03v-.07l16.9-17.92v35.01h13.96v-1.41c0-16.47,.13-59.17,.13-59.17l-10.07-.11Z"/></g><polygon class="cls-1" points="376.61 639.35 362.66 639.35 362.7 674.49 334.6 639.35 324.54 639.35 324.67 699.93 338.62 699.93 338.62 664.92 366.42 699.93 376.74 699.93 376.61 639.35"/><path class="cls-1" d="M230.51,677.55c-2.37,6.73-8.04,10.56-15.31,10.36-1.78-.05-4.31-.3-6.09-.55v-36.14c3.99-.1,8.01-.03,11.77,1.31,5.14,1.83,8.46,5.38,9.89,10.53,1.34,4.83,1.41,9.7-.27,14.49m4.24-33.26c-5.47-3.4-11.57-4.85-17.94-4.96-4.41-.08-8.86,.24-13.26,.67-3.13,.3-6.2,1.08-9.27,1.64v56.07c4.45,.63,8.85,1.39,13.27,1.85,7.07,.74,14.11,.65,20.96-1.57,8.42-2.73,14.36-8.05,17.26-16.34,2.41-6.87,2.46-13.87,.74-20.91-1.7-7.01-5.52-12.58-11.77-16.45"/><polygon class="cls-3" points="137.96 128.33 137.96 279.77 54.18 320.25 54.18 168.68 137.96 128.33"/><polygon class="cls-3" points="354.43 180.67 354.43 301.38 377.1 290.57 377.1 191.6 354.43 180.67"/><polygon class="cls-1" points="214.77 0 153.34 40.28 153.34 121.99 196.16 142.58 196.16 384.85 214.77 390.34 214.77 0"/><polygon class="cls-2" points="336.24 120.57 336.24 171.69 313.9 160.97 313.9 301.7 256.19 274.36 256.19 168.97 293.42 151.06 293.42 100.03 336.24 120.57"/><polygon class="cls-1" points="223.4 441.27 306.17 475.91 430.88 475.91 265.02 423.84 223.4 441.27"/><polygon class="cls-3" points="80.96 370.16 53.5 370.16 166 417.24 204.18 406.1 80.96 370.16"/><polygon class="cls-2" points="349.6 370.16 228.47 405.49 215.28 409.34 175.11 421.05 171.3 422.17 0 475.91 124.39 475.91 209.52 440.28 215.28 437.87 255.45 421.05 266.75 416.32 377.06 370.16 349.6 370.16"/><path class="cls-1" d="M322.96,578.01c-2.01-3.99-2.69-8.28-2.67-13.9,.05-4.24,1.01-9.48,4.37-14.03,7.28-9.85,22.83-9.16,29.26,1.28,3.15,5.12,3.98,10.73,3.57,16.57-.25,3.78-1.05,7.44-2.88,10.83-3.35,6.21-8.61,9.48-15.77,9.43-7.43-.05-12.63-3.75-15.88-10.18m30.49,22.51c10.21-3.55,17.12-10.48,20.75-20.44,2.97-8.13,3.24-16.49,1.34-24.85-2.21-9.76-7.59-17.36-16.69-22.2-6.2-3.31-12.9-4.5-19.78-4.6-5.14,.07-10.08,.71-14.85,2.4-10.14,3.6-17.15,10.34-20.66,20.32-1.05,3-1.74,6.02-2.13,9.03-.01,.03-.05,.07-.05,.11-.4,2.85-.32,4.98-.99,6.92-.68,1.94-1.53,3.48-2.55,4.65-1.02,1.15-2.15,1.98-3.38,2.48-1.25,.49-2.49,.94-3.74,.94h-42.95c-.29,0-.53-.02-.8,0h-25.69v-12.91c0-5.19-.56-9.97-1.66-14.36-1.11-4.38-3.02-8-5.75-10.84-3.24-3.34-7.04-5.75-11.39-7.21-4.34-1.46-10.3-2.2-16.1-2.2h-22.25v17.55h24.92c2.3,0,4.41,.44,6.33,1.32,1.92,.88,3.43,2.03,4.54,3.45,1.19,1.42,2.06,3.07,2.62,4.95,.55,1.88,.83,4.07,.83,6.58v13.67h-56v17.54h74.38v-.08h25.01c.33,.03,.64,.08,1.01,.08h38.32c1.58,0,3.27-.11,5.09-.34,1.81-.22,3.56-.64,5.26-1.25,1.7-.62,3.34-1.49,4.94-2.61,1.56-1.08,2.88-2.5,4-4.23,3.81,7.68,10.08,13.11,18.6,16.07,9.76,3.4,19.67,3.47,29.47,.06"/><rect class="cls-1" x="84.08" y="510.46" width="17.64" height="17.3"/><path class="cls-1" d="M114.87,527.91v36.78c0,3.76-.4,6.96-1.22,9.59-.81,2.64-2.2,4.79-4.16,6.45-2.21,1.84-4.99,3.09-8.31,3.76-2.51,.5-5.21,.88-8.02,.88s-5.51-.37-8.02-.88c-3.32-.67-6.09-1.92-8.31-3.76-1.96-1.67-3.35-3.82-4.16-6.45-.81-2.63-1.22-5.83-1.22-9.59v-36.78h-17.9v38.91c0,5.1,.64,9.96,1.92,14.6,1.28,4.64,3.49,8.42,6.65,11.34,1.96,1.84,4.03,3.41,6.21,4.7,2.17,1.3,4.57,2.36,7.22,3.2,2.64,.83,5.52,1.44,8.63,1.82,2.28,.27,4.82,.41,7.49,.49,0,0,.99,.01,1.48,0,.49,.01,1.5,0,1.5,0,2.67-.08,5.21-.21,7.49-.49,3.11-.38,5.99-.99,8.63-1.82,2.64-.84,5.05-1.9,7.23-3.2,2.17-1.29,4.24-2.86,6.2-4.7,3.15-2.92,5.37-6.71,6.65-11.34,1.27-4.64,1.91-9.51,1.91-14.6v-38.91h-17.9Z"/></svg>