<?xml version="1.0" encoding="utf-8"?>
<!-- Generator: Adobe Illustrator 26.0.1, SVG Export Plug-In . SVG Version: 6.00 Build 0)  -->
<svg version="1.1" id="Layer_1" xmlns="http://www.w3.org/2000/svg" xmlns:xlink="http://www.w3.org/1999/xlink" x="0px" y="0px"
	 viewBox="0 0 435.8 285" style="enable-background:new 0 0 435.8 285;" xml:space="preserve">
<style type="text/css">
	.st0{fill:#003C77;}
	.st1{fill:#00A4DE;}
	.st2{fill:#21BCBA;}
	.st3{fill:#9B9DA0;}
	.st4{fill:#74B543;}
	.st5{fill:#C0D346;}
</style>
<g>
	<rect id="Rectangle_827" x="317.6" y="178.8" class="st0" width="7.4" height="38.2"/>
	
		<rect id="Rectangle_828" x="313.9" y="98" transform="matrix(0.7071 -0.7071 0.7071 0.7071 19.4854 258.2287)" class="st0" width="15.2" height="15.2"/>
	
		<rect id="Rectangle_829" x="315.8" y="126.6" transform="matrix(0.7071 -0.7071 0.7071 0.7071 0.6251 266.0397)" class="st0" width="11.3" height="11.3"/>
	
		<rect id="Rectangle_830" x="299.3" y="115.8" transform="matrix(0.5879 -0.8089 0.8089 0.5879 27.133 297.4719)" class="st0" width="12.6" height="12.6"/>
	
		<rect id="Rectangle_831" x="277.7" y="103.7" transform="matrix(0.4541 -0.891 0.891 0.4541 56.5805 314.976)" class="st1" width="15.2" height="15.2"/>
	
		<rect id="Rectangle_832" x="331.1" y="115.8" transform="matrix(0.8091 -0.5877 0.5877 0.8091 -7.3473 221.5867)" class="st0" width="12.6" height="12.6"/>
	
		<rect id="Rectangle_833" x="291.3" y="80.6" transform="matrix(0.5878 -0.809 0.809 0.5878 51.2602 280.0142)" class="st2" width="18.3" height="18.3"/>
	
		<rect id="Rectangle_834" x="333.3" y="80.5" transform="matrix(0.809 -0.5878 0.5878 0.809 12.6821 218.4401)" class="st3" width="18.3" height="18.3"/>
	
		<rect id="Rectangle_835" x="310.4" y="56.8" transform="matrix(0.7071 -0.7071 0.7071 0.7071 46.1652 247.1902)" class="st4" width="22.1" height="22.1"/>
	
		<rect id="Rectangle_836" x="350" y="103.7" transform="matrix(0.8911 -0.4539 0.4539 0.8911 -11.5684 174.4404)" class="st5" width="15.2" height="15.2"/>
	<path id="Path_669" class="st0" d="M121.7,187.7l6.2-6.2l-6.2-6.2l-6.2,6.2L121.7,187.7z"/>
	<g id="Group_882">
		<path id="Path_670" class="st0" d="M300.1,211.2l-12.7,0l0.1-9.8c0.1-8.6-6.5-14.5-16.1-14.5c-9.8,0-15.7,5.6-15.7,14.8
			c0,7.8-1.6,9.5-4.7,9.5h-8v-23.5c-1.4,0-2.8-0.2-4-0.2c-2.3-0.1-4.2-0.3-7.1-0.3c-11.5,0-18,5.1-18,14.5c0,9.2,5.9,15.4,16.6,15.4
			h5.1c-0.4,3.9-2.1,5.4-6.2,5.4H218v5.6h11.4c8.8,0,13.2-3.5,13.7-11h8c4.4,0,7.2-1.5,8.9-3.9c3,2.7,7.5,3.9,13.2,3.9h34.3v-38.2
			h-7.4L300.1,211.2z M221.3,201.6c0-6.4,3.3-9.2,10.8-8.9l3.6,0.1v18.3H231C224.3,211.2,221.3,207.4,221.3,201.6 M273.2,211.2
			c-8.4,0-10.1-3.4-10.1-9.5c0-5.7,3.1-8.9,8.5-8.9c5.5,0,8.6,3.2,8.6,8.7l-0.1,9.8L273.2,211.2z"/>
		<path id="Path_671" class="st0" d="M117.6,166.9h30.1V138h-7.4v23H118c-5,0.4-9.3-3.4-9.6-8.3c0-0.4,0-0.8,0-1.2
			c0.1-3.2,1.3-6.2,3.6-8.4l-6.7-2.8c-2.8,3.1-4.3,7.1-4.2,11.2C101,160.3,107.2,166.9,117.6,166.9"/>
		<path id="Path_672" class="st0" d="M171.6,187.1c-4.5,0.2-8.9,0.8-13.3,1.8v-10.1h-7.4v32.4h-11.9v-17.9h-7.4v18.4
			c0,7.6-3,10.5-11,10.5c-7.5,0-12.1-3.8-12.1-11c0.2-4.7,1.4-9.3,3.6-13.4l-7-0.8c-2.5,4.7-3.9,10-4.1,15.3
			c0,10,7.6,15.8,19.4,15.8c9.6,0,15.9-4,17.8-11h34.7c10.6,0,16.5-6.3,16.5-15.4C189.7,192.2,183.2,187.1,171.6,187.1 M172.6,211.2
			h-14.3v-16.4l0.7-0.2c4.1-1.1,8.3-1.7,12.5-1.9c7.1,0,10.7,3,10.7,8.9C182.3,207.4,179.2,211.2,172.6,211.2"/>
		<path id="Path_673" class="st0" d="M226.2,162.9c2.1,2.6,5.6,4,10.2,4h46.8V161h-5.9v-7.9c0-10.5-5.9-15.1-19.3-15.1h-11.5v5.6h11
			c9.2,0,12.3,2.5,12.3,10.6v6.8h-33.4c-6.4,0-7.4-3.1-7.4-10.1V138h-7.2v14.2c0,6.3-1.4,9.1-4.7,9.1c-4.7,0-5.8-3.1-5.8-9.3v-10.4
			h-7.4V152c0,6.3-2.2,9-7.1,9h-5.2v-19.4h-7.5V161h-18.3v-32.4h-7.4v38.2h38.5c4.7,0,8.3-1.6,10.6-4.5c2.1,3.3,5.8,5.1,9.7,4.9
			C220.7,167.5,224.1,165.8,226.2,162.9"/>
		<rect id="Rectangle_837" x="198.3" y="178.8" class="st0" width="7.4" height="38.2"/>
		<rect id="Rectangle_838" x="317.6" y="178.8" class="st0" width="7.4" height="38.2"/>
	</g>
</g>
</svg>
