<?xml version="1.0" encoding="UTF-8"?>
<!-- Generator: Adobe Illustrator 27.7.0, SVG Export Plug-In . SVG Version: 6.00 Build 0)  -->
<svg xmlns="http://www.w3.org/2000/svg" xmlns:xlink="http://www.w3.org/1999/xlink" version="1.1" id="Layer_1" x="0px" y="0px" viewBox="0 0 167.94 118.75" style="enable-background:new 0 0 167.94 118.75;" xml:space="preserve">
<style type="text/css">
	.st0{fill:#FFFFFF;}
	.st1{fill:#1774B4;}
	.st2{fill:url(#Path_4_00000116934582740430683480000000543177168612452020_);}
	.st3{fill:url(#Path_6_00000005954709966024947180000004058977446300035206_);}
	.st4{fill:#1563AF;}
</style>
<g id="Group_20192" transform="translate(97.135 610.494)">
	<g id="Group_20185" transform="translate(973.399 9.506)">
		<g id="logo" transform="translate(0)">
			<circle id="Path_2" class="st0" cx="-929.63" cy="-559.71" r="22.53"></circle>
			<path id="Path_3" class="st1" d="M-920.42-542.06c-4,0.01-7.88-1.37-10.97-3.91c-3.91-3.18-6.18-7.95-6.19-12.99     c0-2.95,1.79-7.24,3.13-9.65c-4.49,3.84-7.01,9.48-6.88,15.39c0,1.83,0.26,3.66,0.78,5.41c0.71,2.75,2.2,5.23,4.28,7.15     c0.9,0.78,1.95,1.39,3.07,1.79c1,0.38,2.05,0.61,3.12,0.69h0.14c0.17,0,0.34,0.01,0.51,0.01c4.65-0.01,9.17-1.53,12.87-4.33     C-917.81-542.22-919.12-542.07-920.42-542.06z"></path>
			
				<linearGradient id="Path_4_00000145019142245790027600000010274659984516244637_" gradientUnits="userSpaceOnUse" x1="-1441.3914" y1="-271.8142" x2="-1441.0424" y2="-272.3562" gradientTransform="matrix(22.892 0 0 -30.0677 32074.2305 -8733.9355)">
				<stop offset="0" style="stop-color:#D3EEF6"></stop>
				<stop offset="0.448" style="stop-color:#A3D0E0"></stop>
				<stop offset="1" style="stop-color:#72A3C3"></stop>
			</linearGradient>
			<path id="Path_4" style="fill:url(#Path_4_00000145019142245790027600000010274659984516244637_);" d="M-911.89-571.75     c-1.09-0.49-2.22-0.9-3.38-1.2c1.55,2.73,1.68,4.66,1.68,8.02c0.22,9.8-7.51,17.93-17.31,18.22c3.31,2.55,7.39,3.9,11.57,3.83     c1.23,0.01,2.45-0.22,3.59-0.69c5.13-3.94,7.73-9.1,7.73-16.06C-908.01-564.69-908.99-568.09-911.89-571.75z"></path>
			
				<linearGradient id="Path_6_00000065067246496182676750000004385523264040899240_" gradientUnits="userSpaceOnUse" x1="-1447.0334" y1="-270.0005" x2="-1447.0334" y2="-268.6505" gradientTransform="matrix(38.8062 0 0 -41.956 55221.9258 -11860.2217)">
				<stop offset="0" style="stop-color:#07AF8D"></stop>
				<stop offset="0.634" style="stop-color:#2A8CC5"></stop>
				<stop offset="1" style="stop-color:#1A478A"></stop>
			</linearGradient>
			<path id="Path_6" style="fill:url(#Path_6_00000065067246496182676750000004385523264040899240_);" d="M-951.28-559.84     c0,8.86,6.93,18.36,14.76,20.41c-4.02-3.64-6.29-8.82-6.24-14.24c0.02-10.1,7.13-18.8,17.03-20.81c4.41-0.9,8.99-0.39,13.09,1.46     c0.06,0.03,0.11,0.05,0.17,0.08c-7.3-9.47-20.9-11.23-30.37-3.93C-948.13-572.8-951.25-566.51-951.28-559.84L-951.28-559.84z"></path>
			<path id="Path_28032" class="st4" d="M-972.46-559.92v-0.03c0.02-0.71,0.58-1.28,1.29-1.3h0.99v-5.66     c0.02-0.71,0.59-1.27,1.3-1.29h0.03v4.91h2.53v-3.62c0.03-0.71,0.6-1.27,1.31-1.29h0.03v4.91h1.96v-3.59     c0.01-0.72,0.6-1.3,1.32-1.32h0.01v4.91h2.05v-3.62c0.02-0.71,0.59-1.28,1.3-1.29h0.03v5.5c0,0.41-0.33,0.74-0.74,0.74h-9.79     v1.29c0,0.41-0.33,0.74-0.74,0.74L-972.46-559.92z M-1027.87-559.92c-0.72,0-1.31-0.59-1.32-1.31v-0.73h-1.79     c-1.72,0-3.12-1.39-3.12-3.12c0-1.25,0.75-2.39,1.9-2.87c0.38-0.16,0.8-0.25,1.21-0.25c0.62,0,1.22,0.19,1.74,0.53     c0.86,0.58,1.38,1.55,1.38,2.59v1.79h2.72v-6.21c0-0.71,0.56-1.3,1.28-1.32h0.05v8.2c0,0.18-0.07,0.35-0.2,0.47     c-0.11,0.11-0.27,0.18-0.43,0.19h-3.42L-1027.87-559.92L-1027.87-559.92z M-1031.99-566.56c-0.29,0.19-0.51,0.47-0.65,0.79     c-0.09,0.22-0.14,0.46-0.14,0.7c0.01,0.72,0.44,1.37,1.1,1.65c0.22,0.09,0.46,0.14,0.7,0.14h1.79v-1.79c0-0.36-0.11-0.7-0.31-1     C-1030.04-566.89-1031.16-567.11-1031.99-566.56C-1031.98-566.56-1031.98-566.56-1031.99-566.56L-1031.99-566.56z      M-1007.79-559.92h-0.22c-0.07,0-0.13-0.06-0.13-0.13v-1.09c0-0.07,0.06-0.12,0.13-0.12h1.09c0.07,0,0.13,0.05,0.13,0.12v0.44     c0,0.43-0.34,0.77-0.77,0.78H-1007.79z M-1008.89-559.92c-0.43-0.01-0.77-0.35-0.77-0.78v-0.44c0-0.07,0.06-0.12,0.13-0.12h1.09     c0.07,0,0.12,0.06,0.12,0.12v1.09c0,0.07-0.05,0.13-0.12,0.13H-1008.89z M-1053.15-559.92c-0.07,0-0.13-0.06-0.13-0.13     c0,0,0,0,0,0v-1.09c0-0.07,0.06-0.12,0.13-0.12h1.09c0.07,0,0.12,0.05,0.13,0.12v0.44c0,0.43-0.34,0.78-0.77,0.78H-1053.15z      M-1054.03-559.92c-0.43-0.01-0.77-0.35-0.77-0.78v-0.44c0-0.07,0.06-0.12,0.13-0.12h1.09c0.07,0,0.13,0.05,0.13,0.12v1.09     c0,0.07-0.06,0.13-0.13,0.13H-1054.03z M-983.99-561.96c-1.26,0.01-2.39-0.75-2.87-1.91c-0.16-0.38-0.25-0.79-0.25-1.21     c0.01-1.72,1.4-3.11,3.12-3.12c1.25,0,2.38,0.75,2.87,1.91c0.16,0.38,0.25,0.8,0.25,1.21v1.79h7.06v-1.79c0-0.36-0.1-0.71-0.3-1     c-0.19-0.29-0.47-0.52-0.79-0.65c-0.22-0.09-0.46-0.14-0.7-0.14h-3.99l-0.94-0.94l4.96-4.96l0.02,0.02     c0.51,0.52,0.5,1.34-0.01,1.85l-2.7,2.7h2.66c1.26,0,2.39,0.75,2.88,1.91c0.16,0.38,0.24,0.8,0.24,1.21v2.46     c-0.01,0.36-0.3,0.65-0.66,0.66L-983.99-561.96z M-984.99-566.57c-0.29,0.2-0.51,0.47-0.64,0.79c-0.1,0.22-0.14,0.46-0.14,0.7     c0,0.36,0.11,0.7,0.3,1c0.2,0.29,0.47,0.51,0.79,0.64c0.22,0.1,0.46,0.15,0.69,0.15h1.79v-1.79c-0.01-0.36-0.11-0.7-0.31-1     c-0.33-0.49-0.89-0.79-1.49-0.79C-984.34-566.87-984.69-566.76-984.99-566.57L-984.99-566.57z M-1024.49-561.96L-1024.49-561.96z      M-1057.88-561.96c-1.72,0-3.12-1.4-3.12-3.12c0-0.62,0.19-1.23,0.53-1.74c0.96-1.43,2.9-1.81,4.33-0.85     c0.87,0.58,1.38,1.55,1.38,2.6v1.79h2.92v-3.59c0.01-0.72,0.58-1.3,1.3-1.31h0.03v4.91h3.06v-3.61c0.02-0.71,0.59-1.28,1.3-1.3     h0.03v4.91h2.84c-0.13-0.18-0.24-0.37-0.32-0.58c-0.16-0.38-0.25-0.8-0.25-1.21v-5.75c0.73,0,1.33,0.6,1.33,1.33v1.27l0,0v0.03     h3.99c0.62,0,1.23,0.18,1.74,0.53c0.86,0.58,1.38,1.55,1.38,2.59v2.46c0,0.18-0.07,0.34-0.2,0.47c-0.12,0.13-0.29,0.2-0.47,0.2     L-1057.88-561.96z M-1042.52-565.08c0,0.36,0.1,0.7,0.3,1c0.33,0.49,0.89,0.79,1.48,0.79h3.99v-1.79c0-0.36-0.11-0.7-0.31-1     c-0.2-0.29-0.47-0.51-0.79-0.65c-0.22-0.09-0.46-0.14-0.7-0.14h-3.99L-1042.52-565.08z M-1058.88-566.56     c-0.82,0.55-1.04,1.66-0.49,2.48c0,0,0,0,0.01,0.01c0.33,0.49,0.89,0.79,1.48,0.79h1.79v-1.79c0-0.72-0.43-1.37-1.09-1.65     c-0.22-0.09-0.46-0.14-0.7-0.14C-1058.23-566.86-1058.58-566.76-1058.88-566.56L-1058.88-566.56z M-1015.4-561.96     c-0.62,0-1.23-0.18-1.74-0.53c-0.86-0.58-1.38-1.55-1.38-2.59c0-1.25,0.75-2.38,1.9-2.87c0.38-0.16,0.8-0.25,1.21-0.25     c1.72,0,3.12,1.39,3.12,3.11c0,0,0,0,0,0.01v2.46c0,0.18-0.07,0.34-0.19,0.47c-0.12,0.12-0.29,0.19-0.47,0.19H-1015.4z      M-1016.4-566.56c-0.29,0.19-0.52,0.47-0.65,0.79c-0.1,0.22-0.14,0.46-0.14,0.7c0,0.36,0.1,0.7,0.3,1     c0.33,0.49,0.89,0.79,1.49,0.79h1.79v-1.79c0-0.36-0.11-0.7-0.3-1c-0.2-0.29-0.47-0.51-0.79-0.65c-0.22-0.09-0.46-0.14-0.7-0.14     C-1015.76-566.87-1016.1-566.76-1016.4-566.56L-1016.4-566.56z M-994.02-561.98h-16.94v-8.85h0.01c0.71,0,1.29,0.55,1.32,1.26     v6.25h2.88v-3.62c0.02-0.71,0.6-1.27,1.31-1.29h0.02v4.91h2.7v-1.79c0-1.25,0.75-2.38,1.9-2.88c0.38-0.16,0.8-0.24,1.21-0.24     c1.72,0,3.12,1.4,3.12,3.12c0,0.62-0.19,1.23-0.53,1.75l-0.04,0.04h3.35v-6.18c0-0.72,0.58-1.31,1.3-1.33h0.02v8.18     c0,0.18-0.07,0.35-0.2,0.47c-0.12,0.13-0.29,0.2-0.47,0.2H-994.02z M-1000.62-566.59c-0.29,0.2-0.52,0.47-0.65,0.79     c-0.09,0.22-0.14,0.46-0.14,0.7v1.79h1.79c0.72,0,1.37-0.43,1.65-1.09c0.09-0.22,0.14-0.46,0.14-0.7c0-0.36-0.1-0.71-0.31-1     c-0.19-0.29-0.47-0.51-0.79-0.65c-0.22-0.09-0.45-0.14-0.69-0.14C-999.97-566.89-1000.32-566.79-1000.62-566.59L-1000.62-566.59z      M-989.74-561.98L-989.74-561.98c-0.73,0-1.32-0.58-1.33-1.31v-7.54c0.73,0,1.33,0.6,1.33,1.33L-989.74-561.98L-989.74-561.98z      M-1021.18-561.98L-1021.18-561.98c-0.72,0-1.31-0.58-1.32-1.3v-7.54c0.73,0,1.33,0.6,1.33,1.33L-1021.18-561.98L-1021.18-561.98     z M-961.8-568.51c-0.07,0-0.12-0.05-0.12-0.12c0,0,0,0,0,0v-1.09c0-0.07,0.05-0.13,0.12-0.13h0.45c0.43,0.01,0.77,0.36,0.77,0.78     v0.44c0,0.07-0.05,0.12-0.12,0.13c0,0,0,0-0.01,0H-961.8z M-963.32-568.51c-0.07,0-0.13-0.05-0.13-0.12c0,0,0,0,0,0v-0.44     c0-0.43,0.34-0.78,0.77-0.78h0.45c0.07,0,0.12,0.06,0.12,0.13l0,0v1.09c0,0.07-0.05,0.12-0.12,0.13c0,0,0,0,0,0H-963.32z      M-983.76-568.51c-0.07,0-0.12-0.05-0.13-0.12c0,0,0,0,0-0.01v-1.09c0-0.07,0.05-0.13,0.12-0.13h0h0.45     c0.43,0.01,0.77,0.36,0.77,0.78v0.44c0,0.07-0.05,0.13-0.12,0.13l0,0H-983.76z M-985.28-568.51c-0.07,0-0.12-0.05-0.13-0.12     c0,0,0,0,0-0.01v-0.44c0-0.43,0.34-0.78,0.77-0.78h0.45c0.07,0,0.13,0.06,0.12,0.13v1.09c0,0.07-0.05,0.12-0.12,0.13c0,0,0,0,0,0     H-985.28z M-1049.24-568.51c-0.07,0-0.12-0.05-0.13-0.12c0,0,0,0,0-0.01v-0.44c0-0.43,0.34-0.78,0.77-0.78h0.45     c0.07,0,0.12,0.06,0.12,0.13c0,0,0,0,0,0v1.09c0,0.07-0.05,0.12-0.12,0.13c0,0,0,0-0.01,0H-1049.24z M-1057.67-568.51     c-0.07,0-0.12-0.05-0.13-0.12c0,0,0,0,0-0.01v-1.09c0-0.07,0.05-0.13,0.12-0.13h0h0.45c0.43,0.01,0.77,0.36,0.77,0.78v0.44     c0,0.07-0.05,0.12-0.12,0.13c0,0,0,0-0.01,0H-1057.67z M-1059.19-568.51c-0.07,0-0.13-0.06-0.13-0.13v-0.44     c0-0.43,0.34-0.78,0.77-0.78h0.45c0.07,0,0.13,0.06,0.13,0.13v1.09c0,0.07-0.06,0.13-0.13,0.13H-1059.19z M-962.65-570.01     c-0.07,0-0.13-0.05-0.13-0.12v-0.44c0-0.43,0.34-0.78,0.77-0.78h0.45c0.07,0,0.13,0.06,0.13,0.13v1.09     c0,0.07-0.06,0.12-0.13,0.12H-962.65z"></path>
			<path id="Path_3473" class="st4" d="M-958.48-554.36c-0.09-0.1-0.22-0.15-0.36-0.15c-0.22-0.01-0.42,0.13-0.48,0.34l-1.25,3.31     l-1.38-3.31c-0.06-0.2-0.24-0.34-0.45-0.34c-0.14,0-0.27,0.05-0.37,0.15c-0.09,0.1-0.14,0.22-0.14,0.36     c0,0.06,0.01,0.12,0.03,0.17l1.4,3.3c0.11,0.25,0.36,0.4,0.63,0.4l-0.52,1.38c-0.04,0.08-0.06,0.17-0.07,0.27     c0,0.13,0.05,0.26,0.15,0.36c0.09,0.09,0.22,0.15,0.35,0.15c0.1,0,0.2-0.04,0.28-0.1c0.09-0.06,0.16-0.14,0.2-0.24l2.05-5.41     c0.05-0.09,0.07-0.18,0.08-0.28C-958.32-554.14-958.38-554.27-958.48-554.36 M-965.44-554.52c-0.61-0.01-1.19,0.23-1.61,0.66     c-0.44,0.43-0.68,1.02-0.66,1.64v1.85c0,0.13,0.06,0.26,0.15,0.35c0.19,0.2,0.5,0.2,0.69,0.02c0.01-0.01,0.01-0.01,0.02-0.02     c0.1-0.09,0.15-0.22,0.15-0.35v-1.9c-0.01-0.36,0.12-0.71,0.37-0.96c0.23-0.24,0.56-0.37,0.89-0.37     c0.33-0.01,0.66,0.13,0.89,0.37c0.25,0.25,0.39,0.6,0.37,0.96v1.91c0,0.13,0.05,0.26,0.15,0.35c0.09,0.1,0.22,0.15,0.35,0.15     c0.13,0,0.26-0.05,0.36-0.15c0.1-0.09,0.16-0.22,0.16-0.36v-1.85c0.01-0.61-0.23-1.2-0.66-1.63     C-964.25-554.28-964.83-554.52-965.44-554.52 M-969.96-551.17c0.24-0.28,0.38-0.65,0.37-1.02c0.01-0.37-0.12-0.74-0.37-1.01     c-0.23-0.27-0.58-0.42-0.93-0.41c-0.37-0.01-0.73,0.14-0.97,0.42c-0.26,0.27-0.4,0.63-0.39,1.01c-0.01,0.38,0.13,0.75,0.39,1.02     c0.25,0.28,0.6,0.43,0.97,0.42C-970.54-550.74-970.19-550.89-969.96-551.17 M-968.79-554.36c0.1,0.09,0.15,0.22,0.15,0.36v3.64     c0,0.14-0.05,0.27-0.15,0.36c-0.09,0.09-0.22,0.15-0.35,0.15c-0.13,0-0.26-0.05-0.35-0.15c-0.07-0.07-0.12-0.16-0.14-0.26     c-0.38,0.27-0.84,0.41-1.31,0.41c-0.61,0.01-1.19-0.24-1.61-0.68c-0.43-0.44-0.67-1.04-0.66-1.65c-0.01-0.62,0.23-1.21,0.66-1.65     c0.42-0.44,1-0.68,1.6-0.67c0.47-0.01,0.93,0.13,1.31,0.41c0.02-0.1,0.07-0.19,0.14-0.26     C-969.31-554.56-968.99-554.56-968.79-554.36C-968.8-554.37-968.79-554.37-968.79-554.36 M-977.07-553.22     c-0.25,0.27-0.38,0.63-0.37,1v0.1c-0.01,0.36,0.12,0.71,0.37,0.97c0.24,0.26,0.58,0.4,0.93,0.39c0.37,0.01,0.72-0.14,0.97-0.41     c0.26-0.27,0.4-0.63,0.39-1c0.01-0.38-0.13-0.75-0.39-1.02c-0.25-0.28-0.6-0.43-0.97-0.42     C-976.49-553.63-976.83-553.49-977.07-553.22 M-974.46-553.83c0.43,0.44,0.66,1.04,0.65,1.65c0.01,0.61-0.22,1.2-0.65,1.64     c-0.4,0.44-0.97,0.68-1.56,0.68c-0.5,0.01-0.98-0.17-1.36-0.5v1.89c0,0.14-0.05,0.27-0.15,0.36c-0.09,0.09-0.22,0.15-0.35,0.15     c-0.13,0-0.26-0.05-0.36-0.15c-0.1-0.1-0.15-0.22-0.15-0.36V-554c0-0.13,0.05-0.26,0.15-0.36c0.2-0.2,0.52-0.2,0.72,0     c0.1,0.09,0.15,0.22,0.15,0.35c0.37-0.33,0.86-0.51,1.36-0.5C-975.42-554.51-974.86-554.26-974.46-553.83 M-981.41-554.51     c-0.62,0-1.21,0.28-1.6,0.77c-0.39-0.48-0.97-0.77-1.59-0.77c-0.57-0.01-1.12,0.21-1.51,0.62c-0.41,0.43-0.63,1-0.61,1.59v1.94     c0,0.13,0.06,0.26,0.15,0.35c0.19,0.2,0.5,0.2,0.69,0.02c0.01-0.01,0.01-0.01,0.02-0.02c0.1-0.09,0.15-0.22,0.15-0.35v-2.05     c-0.02-0.32,0.1-0.64,0.32-0.88c0.2-0.21,0.49-0.33,0.78-0.32c0.29-0.01,0.58,0.11,0.78,0.32c0.22,0.24,0.33,0.56,0.31,0.88v2.04     c0,0.13,0.06,0.26,0.15,0.35c0.18,0.19,0.49,0.2,0.69,0.02c0.01-0.01,0.01-0.01,0.02-0.02c0.09-0.09,0.15-0.22,0.15-0.35v-2.04     c-0.02-0.32,0.1-0.64,0.32-0.88c0.2-0.21,0.49-0.33,0.78-0.32c0.29-0.01,0.58,0.11,0.77,0.33c0.22,0.24,0.33,0.55,0.32,0.87v2.04     c0,0.14,0.06,0.26,0.16,0.36c0.09,0.1,0.22,0.15,0.36,0.15c0.13,0,0.26-0.06,0.35-0.16c0.09-0.09,0.14-0.22,0.14-0.35v-1.94     c0.02-0.59-0.2-1.16-0.6-1.59c-0.39-0.41-0.94-0.63-1.5-0.62 M-988.8-551.18c0.26-0.27,0.41-0.64,0.4-1.01     c0.01-0.37-0.14-0.73-0.4-1c-0.25-0.27-0.61-0.42-0.98-0.42c-0.37-0.01-0.73,0.15-0.98,0.42c-0.27,0.26-0.41,0.63-0.41,1     c-0.01,0.38,0.14,0.75,0.4,1.02c0.25,0.28,0.61,0.43,0.99,0.42C-989.41-550.75-989.05-550.9-988.8-551.18 M-988.12-553.84     c0.45,0.43,0.69,1.02,0.68,1.64c0.01,0.62-0.24,1.22-0.68,1.65c-0.44,0.45-1.04,0.69-1.66,0.68c-0.62,0.01-1.22-0.23-1.66-0.68     c-0.44-0.44-0.68-1.03-0.67-1.65c-0.01-0.62,0.23-1.21,0.67-1.65c0.44-0.44,1.04-0.68,1.66-0.67     C-989.16-554.52-988.56-554.28-988.12-553.84 M-993.41-551.2c-0.36,0.28-0.81,0.43-1.27,0.43c-0.58,0.01-1.14-0.24-1.53-0.68     c-0.41-0.43-0.63-1.01-0.62-1.6c0-0.59,0.22-1.16,0.62-1.59c0.38-0.44,0.94-0.69,1.53-0.68c0.41,0,0.81,0.12,1.15,0.35     c0.18,0.11,0.4,0.08,0.55-0.06c0.09-0.08,0.14-0.2,0.14-0.33c-0.02-0.22-0.16-0.41-0.36-0.5c-0.22-0.13-0.47-0.23-0.72-0.28     c-0.24-0.06-0.49-0.09-0.74-0.09c-0.84-0.01-1.65,0.33-2.23,0.94c-0.6,0.59-0.94,1.4-0.93,2.24c-0.01,0.84,0.33,1.65,0.93,2.24     c0.58,0.61,1.39,0.95,2.23,0.94c0.64,0.01,1.27-0.19,1.79-0.57c0.15-0.09,0.24-0.24,0.24-0.41c0-0.13-0.05-0.25-0.14-0.34     c-0.17-0.16-0.43-0.17-0.62-0.02 M-1001.58-554.51c-0.54-0.01-1.05,0.2-1.42,0.59c-0.37,0.38-0.58,0.9-0.57,1.43v2.13     c0,0.13,0.06,0.26,0.15,0.35c0.09,0.1,0.22,0.15,0.35,0.15c0.13,0,0.26-0.05,0.35-0.15c0.1-0.09,0.15-0.22,0.15-0.35v-2.25     c-0.01-0.26,0.08-0.52,0.26-0.71c0.17-0.19,0.42-0.29,0.67-0.28c0.22,0.02,0.43,0.1,0.61,0.24c0.19,0.15,0.47,0.13,0.64-0.04     c0.09-0.09,0.14-0.2,0.14-0.33c0-0.15-0.07-0.29-0.19-0.38C-1000.76-554.38-1001.16-554.52-1001.58-554.51 M-1007.26-553.3     c-0.21,0.18-0.36,0.42-0.44,0.69h2.56c-0.06-0.26-0.2-0.5-0.4-0.68c-0.23-0.23-0.54-0.35-0.86-0.35     C-1006.72-553.64-1007.03-553.52-1007.26-553.3 M-1004.84-553.86c0.4,0.39,0.63,0.93,0.64,1.49c0,0.16-0.06,0.31-0.16,0.43     c-0.1,0.12-0.25,0.19-0.41,0.19h-2.93c0.08,0.27,0.25,0.51,0.46,0.69c0.56,0.42,1.33,0.42,1.9,0.01     c0.18-0.11,0.42-0.08,0.57,0.07c0.08,0.08,0.13,0.2,0.12,0.32c0.01,0.17-0.08,0.33-0.23,0.41c-0.45,0.27-0.97,0.41-1.5,0.41     c-0.63,0.01-1.24-0.23-1.68-0.68c-0.44-0.43-0.69-1.03-0.68-1.66c-0.01-0.62,0.24-1.21,0.68-1.64c0.43-0.44,1.02-0.68,1.63-0.68     C-1005.82-554.52-1005.25-554.28-1004.84-553.86 M-1009.32-553.5c0.12,0,0.24-0.05,0.32-0.13c0.09-0.08,0.14-0.2,0.14-0.33     c0-0.12-0.05-0.24-0.14-0.33c-0.09-0.09-0.21-0.13-0.33-0.13h-0.69v-0.65c0-0.13-0.06-0.26-0.15-0.35c-0.2-0.19-0.52-0.19-0.71,0     c-0.1,0.09-0.15,0.22-0.15,0.35v0.64h-0.24c-0.12,0-0.24,0.05-0.32,0.14c-0.08,0.08-0.13,0.2-0.13,0.31     c0,0.12,0.04,0.24,0.13,0.33c0.08,0.09,0.2,0.14,0.33,0.14h0.24v2.4c0,0.31,0.12,0.61,0.34,0.82c0.22,0.23,0.52,0.35,0.83,0.35     h0.43c0.12,0,0.24-0.04,0.33-0.13c0.09-0.08,0.14-0.2,0.14-0.33c0-0.12-0.05-0.24-0.13-0.33l0,0c-0.09-0.09-0.21-0.14-0.33-0.14     h-0.33c-0.07,0-0.13-0.03-0.17-0.07c-0.05-0.04-0.08-0.11-0.08-0.17v-2.4L-1009.32-553.5z M-1013.5-551.17     c0.24-0.28,0.38-0.65,0.37-1.02c0.01-0.37-0.12-0.74-0.37-1.01c-0.23-0.27-0.58-0.42-0.93-0.41c-0.37-0.01-0.73,0.14-0.97,0.42     c-0.26,0.27-0.4,0.63-0.39,1.01c-0.01,0.38,0.13,0.75,0.39,1.02c0.25,0.28,0.6,0.43,0.97,0.42     C-1014.08-550.74-1013.73-550.89-1013.5-551.17 M-1012.33-554.36c0.1,0.09,0.15,0.22,0.15,0.36v3.64c0,0.14-0.05,0.27-0.15,0.36     c-0.09,0.09-0.22,0.15-0.35,0.15c-0.13,0-0.26-0.05-0.35-0.15c-0.07-0.07-0.12-0.16-0.14-0.26c-0.38,0.27-0.84,0.41-1.31,0.41     c-0.61,0.01-1.19-0.24-1.61-0.68c-0.43-0.44-0.67-1.04-0.66-1.65c-0.01-0.62,0.23-1.21,0.66-1.65c0.42-0.44,1-0.68,1.6-0.67     c0.47-0.01,0.93,0.13,1.31,0.41c0.02-0.1,0.07-0.19,0.14-0.26C-1012.85-554.56-1012.53-554.56-1012.33-554.36     C-1012.33-554.37-1012.33-554.37-1012.33-554.36 M-1018.08-556.23c-0.13,0-0.26,0.05-0.35,0.15c-0.09,0.1-0.14,0.23-0.15,0.37     l-0.27,4.39l-1.36-1.92c-0.12-0.19-0.33-0.3-0.55-0.31c-0.22,0-0.43,0.12-0.55,0.3l-1.36,1.93l-0.27-4.39     c-0.01-0.13-0.06-0.26-0.14-0.36c-0.09-0.1-0.22-0.16-0.35-0.15c-0.13,0-0.26,0.05-0.35,0.15c-0.1,0.1-0.15,0.24-0.14,0.38     l0.34,5.24c0.01,0.14,0.06,0.26,0.15,0.36c0.09,0.1,0.22,0.15,0.35,0.15h0.3c0.19,0,0.37-0.11,0.47-0.28l1.56-2.16l1.57,2.17     c0.1,0.16,0.27,0.26,0.46,0.27h0.3c0.14,0,0.27-0.05,0.36-0.15c0.09-0.1,0.15-0.23,0.15-0.37l0.34-5.24v-0.01     c0-0.14-0.05-0.27-0.15-0.37C-1017.8-556.18-1017.94-556.23-1018.08-556.23 M-1027.94-556.42c-0.1,0.09-0.15,0.22-0.15,0.35v5.7     c0,0.13,0.05,0.26,0.15,0.36c0.09,0.1,0.22,0.15,0.35,0.15c0.13,0,0.26-0.05,0.35-0.15c0.1-0.09,0.15-0.22,0.15-0.36v-5.7     c0-0.13-0.05-0.26-0.15-0.35c-0.19-0.2-0.49-0.2-0.69-0.02C-1027.93-556.43-1027.94-556.43-1027.94-556.42 M-1030.42-551.17     c0.24-0.28,0.38-0.65,0.37-1.02c0.01-0.37-0.12-0.74-0.37-1.01c-0.23-0.27-0.58-0.42-0.93-0.41c-0.37-0.01-0.73,0.14-0.97,0.42     c-0.26,0.27-0.4,0.63-0.39,1.01c-0.01,0.38,0.13,0.75,0.39,1.02c0.25,0.28,0.6,0.43,0.97,0.42     C-1031-550.74-1030.65-550.89-1030.42-551.17 M-1029.25-554.36c0.1,0.09,0.15,0.22,0.15,0.36v3.64c0,0.14-0.05,0.27-0.15,0.36     c-0.09,0.09-0.22,0.15-0.35,0.15c-0.13,0-0.26-0.05-0.35-0.15c-0.07-0.07-0.12-0.16-0.14-0.26c-0.38,0.27-0.84,0.41-1.31,0.41     c-0.61,0.01-1.19-0.24-1.61-0.68c-0.43-0.44-0.67-1.04-0.66-1.65c-0.01-0.62,0.23-1.21,0.66-1.65c0.42-0.44,1-0.68,1.6-0.67     c0.47-0.01,0.93,0.13,1.31,0.41c0.02-0.1,0.07-0.19,0.14-0.26C-1029.77-554.56-1029.46-554.56-1029.25-554.36     C-1029.26-554.37-1029.26-554.37-1029.25-554.36 M-1036.67-554.51c-0.61-0.01-1.19,0.23-1.61,0.66     c-0.44,0.43-0.68,1.02-0.66,1.64v1.85c0,0.13,0.06,0.26,0.15,0.36c0.19,0.2,0.5,0.2,0.69,0.02c0.01-0.01,0.01-0.01,0.02-0.02     c0.1-0.09,0.15-0.22,0.15-0.36v-1.9c-0.01-0.36,0.12-0.71,0.37-0.96c0.23-0.24,0.56-0.37,0.89-0.37     c0.33-0.01,0.66,0.13,0.89,0.37c0.25,0.25,0.39,0.6,0.37,0.96v1.91c0,0.13,0.05,0.26,0.15,0.35c0.09,0.1,0.22,0.15,0.35,0.15     c0.13,0,0.26-0.05,0.36-0.15c0.1-0.09,0.16-0.22,0.16-0.36v-1.85c0.01-0.61-0.23-1.2-0.66-1.63     C-1035.48-554.28-1036.07-554.52-1036.67-554.51 M-1041.02-551.18c0.26-0.27,0.41-0.64,0.4-1.01c0.01-0.37-0.14-0.73-0.4-1     c-0.25-0.27-0.61-0.42-0.98-0.42c-0.37-0.01-0.73,0.15-0.98,0.42c-0.27,0.26-0.41,0.63-0.41,1c-0.01,0.38,0.14,0.75,0.4,1.02     c0.25,0.28,0.61,0.43,0.99,0.42C-1041.63-550.74-1041.28-550.9-1041.02-551.18 M-1040.35-553.83c0.45,0.43,0.69,1.02,0.68,1.64     c0.01,0.62-0.24,1.22-0.68,1.65c-0.44,0.45-1.04,0.69-1.66,0.68c-0.62,0.01-1.22-0.23-1.66-0.68c-0.44-0.44-0.68-1.03-0.67-1.66     c-0.01-0.62,0.23-1.21,0.68-1.65c0.44-0.44,1.04-0.68,1.66-0.67C-1041.38-554.52-1040.78-554.28-1040.35-553.83 M-1046.12-556.04     c-0.12,0.12-0.19,0.28-0.19,0.45c0,0.17,0.06,0.33,0.19,0.45c0.12,0.12,0.28,0.19,0.45,0.19c0.17,0,0.33-0.07,0.45-0.19     c0.12-0.12,0.19-0.28,0.19-0.45c0-0.17-0.06-0.33-0.19-0.45C-1045.47-556.29-1045.88-556.29-1046.12-556.04     C-1046.12-556.04-1046.12-556.04-1046.12-556.04 M-1046.03-554.27c-0.09,0.09-0.15,0.22-0.15,0.35v3.55     c0,0.13,0.05,0.26,0.15,0.35c0.09,0.1,0.22,0.15,0.35,0.15c0.14,0,0.27-0.05,0.36-0.15c0.09-0.09,0.15-0.22,0.15-0.35v-3.55     c0-0.13-0.05-0.26-0.15-0.35c-0.19-0.2-0.5-0.2-0.69-0.02C-1046.01-554.28-1046.02-554.28-1046.03-554.27 M-1047.23-553.51     c0.12,0,0.24-0.05,0.32-0.13c0.09-0.08,0.14-0.2,0.14-0.33c0-0.12-0.05-0.24-0.14-0.33c-0.09-0.09-0.21-0.13-0.33-0.13h-0.7     v-0.65c0-0.13-0.06-0.26-0.15-0.35c-0.2-0.19-0.52-0.19-0.71,0c-0.1,0.09-0.15,0.22-0.15,0.35v0.64h-0.24     c-0.12,0-0.24,0.05-0.32,0.14c-0.08,0.08-0.13,0.2-0.13,0.31c0,0.12,0.04,0.24,0.13,0.33c0.08,0.09,0.2,0.14,0.33,0.14h0.24v2.4     c0,0.31,0.12,0.61,0.34,0.82c0.22,0.23,0.52,0.35,0.84,0.35h0.43c0.12,0,0.24-0.04,0.33-0.13c0.09-0.08,0.14-0.2,0.14-0.33     c0-0.12-0.05-0.24-0.13-0.33l0,0c-0.09-0.09-0.21-0.14-0.33-0.14h-0.33c-0.07,0-0.13-0.03-0.17-0.07     c-0.05-0.04-0.08-0.11-0.08-0.18v-2.39H-1047.23z M-1051.42-551.17c0.24-0.28,0.38-0.65,0.37-1.02c0.01-0.37-0.12-0.74-0.37-1.01     c-0.23-0.27-0.58-0.42-0.93-0.41c-0.37-0.01-0.72,0.14-0.97,0.42c-0.26,0.27-0.4,0.63-0.39,1.01c-0.01,0.38,0.13,0.75,0.39,1.02     c0.25,0.28,0.6,0.43,0.97,0.42C-1051.99-550.74-1051.65-550.89-1051.42-551.17 M-1050.24-554.36c0.1,0.09,0.15,0.22,0.15,0.36     v3.64c0,0.14-0.05,0.27-0.15,0.36c-0.09,0.09-0.22,0.15-0.35,0.15c-0.13,0-0.26-0.05-0.35-0.15c-0.07-0.07-0.12-0.16-0.14-0.26     c-0.38,0.27-0.84,0.41-1.31,0.41c-0.61,0.01-1.19-0.24-1.61-0.68c-0.43-0.44-0.67-1.04-0.66-1.65c-0.01-0.62,0.23-1.21,0.66-1.65     c0.42-0.44,1-0.68,1.6-0.67c0.47-0.01,0.93,0.13,1.31,0.41c0.02-0.1,0.07-0.19,0.14-0.26     C-1050.76-554.56-1050.45-554.56-1050.24-554.36C-1050.25-554.37-1050.25-554.36-1050.24-554.36 M-1055.71-556.08     c0.1,0.09,0.15,0.22,0.15,0.36v5.26c0,0.13-0.05,0.26-0.15,0.36c-0.09,0.1-0.23,0.16-0.36,0.16h-0.35     c-0.19,0-0.36-0.09-0.46-0.26l-3.06-4.43v4.25c0,0.13-0.04,0.27-0.14,0.37c-0.09,0.1-0.22,0.15-0.35,0.15     c-0.14,0-0.27-0.05-0.36-0.15c-0.1-0.1-0.15-0.23-0.15-0.36v-5.26c0-0.13,0.05-0.26,0.15-0.36c0.09-0.1,0.22-0.16,0.36-0.16h0.35     c0.19,0,0.37,0.1,0.46,0.26l3.07,4.43v-4.28c0-0.13,0.05-0.26,0.14-0.36C-1056.22-556.27-1055.91-556.27-1055.71-556.08     C-1055.71-556.08-1055.71-556.08-1055.71-556.08"></path>
		</g>
	</g>
</g>
</svg>
